<?xml version="1.0" encoding="UTF-8"?>
<svg id="Capa_1" xmlns="http://www.w3.org/2000/svg" version="1.1" viewBox="0 0 595.28 841.89">
  <!-- Generator: Adobe Illustrator 29.5.1, SVG Export Plug-In . SVG Version: 2.1.0 Build 141)  -->
  <defs>
    <style>
      .st0 {
        fill: #f2eadf;
      }

      .st1 {
        fill: #2d4b30;
      }
    </style>
  </defs>
  <circle class="st0" cx="284.86" cy="377.66" r="226.77"/>
  <g>
    <path class="st1" d="M160.83,552.49c-1.93-.19-6.5-1.37-8.41-2.06-2.4-.87-5.05-2.59-7.29-3.86v5.68s-.68,3.87-.68,3.87c-22.55-18.79-42.35-41.13-56.15-67.21,6.25-9.39,15.87-17.45,26.34-21.76,3.81-1.57,9.85-2.43,12.86-3.98,1.92-.99,4.07-3.61,6.1-4.82,1.08-.64,5.17-2.05,5.39-2.33.19-.24-.25-2.64-.18-3.35.43-4.44,1.3-8.8,3.06-12.9,1.65-3.85,4.49-6.64,4.63-11.07-24.24-6.95-45.38-22.57-69.9-28.64-1.38-.34-11.52-1.99-11.58-2.58.47-2.37.55-2.21,2.91-1.95,20.18,2.22,39.52,14.26,57.78,22.32,6.85,3.03,13.93,5.57,20.78,8.57.51-.61-2.02-2.58-2.47-3.22-2.27-3.24-2.03-4.62-2.1-8.41-.02-.9.5-1.78.39-2.61-.17-1.29-3.17-6.9-3.89-8.86-8.57-23.1-14.07-53.63-8.54-77.94,5.05-22.17,18.48-24.47,36.2-33.89,1.63-.87,12.14-6.44,12.51-7.06.95-1.55-.45-5.33,2.71-8.21,1.2-1.09,2.57-.63,2.78-3.15.03-.39-1.15-2.07-1.42-2.31-.99-.87-1.7.2-2.82.36-18.24,2.63-34.34-8.77-19.68-26.51,10.81-13.07,29.99-22.15,46.22-26.15,12.21-3.01,44.92-7.54,54.3,2.06,10.34,10.58-10.01,24.53-17.93,29.29.5,4.11,2.27,7.86,2.07,12.1-.25,5.19-3.11,11.48-3.65,16.81.08.8,4.43,7.38,5.25,8.41.75.94,2.08,1.23,2.59,2.41.63,1.47.21,3.26.54,4.92.13.67,1.75,5.02,2.07,5.21,4.01.49,17.91.15,19.37,4.75.88,2.77-1.08,3.85-1.08,4.35,0,.21,2.17,2.6,2.57,3.26,4.88,8.17,5.56,15.2,1.98,24.12-.49,1.23-1.94,2.95-2.17,3.78-.34,1.25,3.56,16.76,4.16,19.56.88,4.12,1.18,9.23,2.34,13.13,1.37,4.57,5.88,9.54,7.43,14.19l12.37-20.17c10.57-12.57,18.91-27.65,33.46-36.18,4.71-2.76,10.3-5.03,15.57-6.51-.25-12.67,2.22-27.44,12.83-35.64.55-.43,3.38-2.52,3.84-1.65.96,1.83.6,7.74,1.56,10.73,1.57,4.89,5.82,9.69,7.34,14.76,8.47-2.58,17.15,1.24,24.86,4.49,4.66-4.1,9.97-7.47,14.24-12,2.88-3.33,3.85-7.55,5.24-11.59,8.94,10.66,8.44,28.95-2.5,38,4.03,4.87,9.98,10.22,16.84,8.88l-2.94,2.28c-3.89,2.33-8.5,3.55-12.98,4.09,4.07,8.63,16.02,13.79,14.11,24.57l3.63-.91c.3,3.09-4.78,4.01-5.49,4.86-3.1,3.71-1.59,19.39-.75,24.37.51,3.07,2.46,11.92,3.87,14.34,1.03,1.77,4.47,2.58,4.96,5.6,11.01-.3,21.95,1.2,32.92,1.8.08-2.73-1.52-5.88-3.08-8.07-1.15-1.61-8.17-9.02-9.83-8.7-.61.12-2.11,2.23-3.36,2.55-3.46.89-6.99-.41-6.49-4.44-5.81,1.95-8.71-4.21-5.21-8.63,1.62-2.05,3.07-.96,4.89-1.48,1.24-.35,3.07-3.03,5.33-2.19-.08-.78-1.09-.4-1.85-1.1-2.57-2.39-1.09-7.28,1.96-8.56.98-.41,2.94-.26,3.05-.36s.18-2.13.74-3.13c1.2-2.17,4.16-3.46,6.56-2.77-1.52-5.91,4.31-11.02,9.34-6.83.73.61,1.08,1.74,1.17,1.8.42.29,1.53-.68,2.11-.79,3.65-.71,4.09,2.29,5.41,2.53,1.7.31,3.47-1.34,5.83,1.05,3.38,3.43-.64,6.64-.64,7.47,0,.97,3.7.52,4.88,1.03,1.9.81,1.66,2.91,2.02,3.22.49.42,3.11.23,4.48,2.12,2.56,3.56-1.11,5.87-.92,6.15.32.45,3.6,1.34,2.74,3.65,1.85-2.03,6.01-1.01,6.38,1.62.15,1.02-1.34,6.13-2.32,6.77-2.03,1.34-3.05.07-4.23.22-.44.06-1.04,3.32-4.96,2.67-.95-.16-2.24-1.09-2.85-1.09-1.03,0-9.98,3.78-11.12,4.63-3.6,2.69-3.19,7.51-3.22,11.58,2.63-.18,22.54,1.8,23.15,2.79.28.45-.03,1.59.06,2.21l-23.21-2.73c.68,1.61-.97,7.67.74,8.16.5.14,1.82-.42,2.66-.44,1.19-.03,7.71.31,7.99.02.15-.16-.17-4.07,1.14-4.09,1.51-.02.98,3.93,1.14,4.09.27.28,6.55-.43,7.74.46-1.52,1.55-5.55,1.01-7.73.91v4.55s6.37,0,6.37,0l-1.66,5.94c-15.85-.78-31.72,1.84-47.49.43.05-.92,2.55-.71,2.73-.91.26-.29-1.08-6.44-.46-7.74h-9.56c3.32,7.97,10.17,14.62,7.43,24.04-1.15,3.95-3.85,5.23-5.54,8.11-2.15,3.67-1.12,7.46-5.42,11.09-3.2,2.7-6.53,2.28-9.35,3.72-.94.48-.97,1.29-1.58,1.74-8.92,6.57-21.51,4.07-27.6-5.05-.96-1.44-2.97-6.76-5.44-6.27-.32.06-3.45,3.63-4.68,4.42-2.34,1.49-6.51,2.1-7.86,3.06s-4.21,4.82-5.94,6.35c-4.26,3.76-9.28,6.81-14.56,8.89,6.02,19.05,13.79,37.95,10.33,58.33-1.53,9-5.54,20.11-9.34,28.43-.83,1.82-3.92,8.48-5.11,9.45s-7.95,2.75-9.89,3.31c-5.19,1.49-12.01,3.39-17.29,4.1-.49.07-1.57.5-1.46-.33,12.44-5.41,21.07-18.45,25.24-30.97,6.18-18.58,3.89-36.7.24-55.51-2.76,3.6-4.72,7.71-7.72,11.16-3.29,3.79-7.37,7.01-11.84,9.32l6.45-11.07c3.63-7.24,7.53-14.54,9.02-22.6-35.21,7.92-70.78-12.2-85.57-44.15-1.05-.81-4.45,8.02-4.68,8.74-.42,1.34-1.69,5.41-1.69,6.5v9.56c0,.35.78,1.31.45,2.05-.39.52-2.31-4.01-2.49-4.56-2.56-7.76-1.97-16.93.67-24.57-1.76,1.26-2.83,3.68-3.72,5.61-5.09,11.11-7.3,24.61-5.84,36.72-.79-.12-.77-.92-1.03-1.46-4-8.32-4.35-15.47-2.31-24.41.18-.77.47-1.48-.52-.52-5.55,12.02-9.46,24.77-12.37,37.69-1.92,8.5-3.31,26.7-10.38,31.94-1.41,1.05-7.17,3.18-7.44,3.94-.31,14.13-.38,28.73,4.59,42.14,1.43,3.85,3.62,7.13,5.34,10.81-.25.24-6.45-1.7-6.72-1.92-.39-.33-3.01-7.77-3.97-9.46-1.02-1.79-2.28-3.46-3.65-4.99-2.51,2.83-.71,3.13.31,5.6.96,2.31,1.92,4.7,2.41,7.14-9.92-3.4-19.58-7.61-28.7-12.74,1.98-7.13,2.64-14.46,2.99-21.85l-3.97,14.91-2.17,5.56c-4.29-2.54-8.7-4.89-12.94-7.54-2.46-1.54-13.79-8.7-14.4-10.63-.39-1.22-.15-2.82-.66-4.12,4.23,1.99,8.62,3.54,13.43,3.18.53-.04,2.04-.14,2.04-.91-4.61.36-10.28-.67-14.08-3.45-.61-.44-2.06-1.7-.69-2.02,1.2-.28,6.68,1.25,8.61,1.38,1.8.12,3.67-.1,5.47-.02l4.78-.91c-2.57-.18-5.43.25-7.96,0ZM219.99,277.59c2.69.23,5.88,0,8.65,0,.19,0,3.33-.85,3.58-.99.79-.44.57-1.77,1.84-1.25.64.26,2.32,3.42,3.22,3.49.59.05,2.69-1.83,2.87-2.48.29-1.01-.01-2.27.22-3.43.99-5.01,3.06-9.38,2.48-14.56-.1-.94-1.59-7.56-1.97-7.66-3,.33-5.89-.44-8.82-.88-.84,3.11,3.38,1.31,5,3.41-1.39.79-2.79-.21-4.1-.45,2.07,4.78,9.31,14.37,3.88,18.89-3.83,3.19-8.66,4.18-13.54,3.52-2.74-.37-6.67-3.12-8.32-3.11-1.15,0-.69,1.68-2.04,1.41-.89-2.54,4.48-6.3,1.82-2.28,2.84-.43,5.74,1.28,8.44,1.38,1.78.07,2.92-.87,4.07-.87s2.03.91,3.58.83c1.99-.1,3.28-1.4,4.62-1.8.25-.07.14,1.74.9.46,1.54-2.62-.03-4.25-.23-6.83-1.57,1.57-4.08,4.34-6.55,4.09-.96-.1-1.97-.96-2.97-1.16-2.67-.54-5.27.37-6.89-2.66-.43-.8-.12-2.03-.87-2.08-.87,3.46-6.11,3.98-7.76,6.58-1.22,1.93-.69,4.88-1.36,7.06-.86-.33-.96-2.63-.94-3.41.09-6.53,6.19-8.69,10.47-11.87.86-.64,1.91-2.44,2.77-1.78-1.95,1.52-2.13,5.61.79,6.08,1.03.17,1.87-.44,2.96-.31,3.25.39,2.95,3.6,7.59-.34,3.39-2.88-.81-6.65-2.17-10.04-1.76-4.37-2.93-8.86.2-12.87,2.63-3.38,4.62-2.73,8.38-2.52.37.02.6.66.46-.46-.49-3.77-2.6-9.4-6.71-10.14-10.4-1.86-27.84,2.81-36.83,8.44-3.83,2.4-1.98,2.66-2.98,6.13-.15.53-1.55,4.26-1.72,4.43-.75.75-.78-.19-.93-.68-.59-2.05.34-4.45.02-6.6l-8.42,6.37,4.1,1.82c3.13,1.74,3.05,6.86,7.05,5.92.06-1.09-1.05-1.54-1.28-2.6-.33-1.53.27-3.1.74-4.53l1.91-3.56c1.72,2.36.56,4.85.41,7.29-.06.89.52,1.74.41,2.63-.15,1.17-1.8,4.1-3.21,3.9-3.29-.47-5.25-4.99-8.11-6.96-7.34-5.04-10.18,1.72-7.92,8.38,1.08,3.2,8.59,12.44,11.86,12.75.83.08,1.53.08,1.97-.71l.94-3.83c1.3,7.17,3.37,13.61,9.34,18.2l-3.86-11.61c1.12-.9.85.58,1.26,1.45,2.03,4.25,4.82,9.45,8.53,12.43,2.19,1.76,5.09,3.25,7.95,3.43-1.4-1.34-2.74-2.76-3.83-4.37-.48-.71-1.69-2.28-1.41-3.14,3.99,3.58,9.65,9.82,15.41,9.53.79-.04,5.38-1.23,6.22-1.55,2.48-.95,5.88-7.35,4.56-9.59-.13-.22-3.23-3.75-3.48-3.81-.48-.11-1.45.76-2.25.86-3.63.43-8.86.4-12.03-1.58-1.26-1.63,1.93.23,2.04.24ZM241.15,249.83c-.74-1.55-.26-3.21-.88-4.81-1.69-4.37-8.44-2.4-8.68.98-.16,2.28,1.66.88,3.3,1.19,2.3.44,3.76,3.18,6.25,2.64ZM205.88,306.27c2.06.24,4.49-.18,6.6,0,.89-3.55-4.05-3.17-6.72-3.98-1.68-.51-3.09-1.2-4.66-1.94-.1-.85.93-.38,1.37-.23,2.24.75,7.56,2.47,9.75,2.08.12-.02.77-2.19.7-2.28-.13-.17-3.17-1.31-3.94-1.76-6.12-3.54-15.81-10.53-19.18-16.78-1.31-2.42-1.29-4.88-2.27-6.84-1.78-3.58-2.03,2.7-1.91,4.19.57,6.93,4.44,11.12,9.1,15.7-1.28-.42-2.68-1.55-3.78-2.36-4.29-3.15-6.42-6.98-7.6-12.2-.79-.11-.43,1.03-.45,1.58-.43,11.83,11.56,23.46,22.98,24.81ZM245.23,288.5c.43-.61-4.68-8.49-5.21-8.53-.79-.07-1.68.87-1.43,1.75.49,1.72,4.25,5.29,4.39,7.72l2.25-.93ZM238.87,284.88l-.94.64c-.18,1.46-3.94,7.73-3.55,8.4,1.84.87,12.09,7.83,13.14,6.88-1.18-2.79-1.44-6.29-4.5-7.55l-4.15-8.37ZM247.93,293.58c-.17-.15-2.53-.49-2.21.61.61,2.06,3.18,7.96,4.3,9.82.31.51.55,1.5,1.37,1.35,1.1-.2.26-1.12.15-1.5-.34-1.23-3.2-9.92-3.61-10.27ZM227.05,304.45c3.08-.1,6.42-9.05,3.85-9.56-1.01-.2-5.28,3.25-3.86,5.01l2.28-.68c-1.36,2.1-2.99,2.05-2.28,5.23ZM361.76,295.8c-.76-.75-.77.23-.95.64-4.27,9.47-6.25,19.16-1.99,28.93.34.78.83,2.37,1.57,2.74l.46-15.69,1.35-8.88c1.2,6.34,5.25,12.2,4.51,18.84-.43,3.79-4.99,13.28-7.67,16-2.43,2.45-5.88,2.52-5.02,7.04,7.49-5.05,16.52-6.85,25.03-9.56.51-.7-3.45-3.96-4.08-4.78-3.39-4.39-1.88-8.01-2.81-13.12-1.09-6.01-5.08-10.96-7.91-16.21-.6-1.12-2.27-5.7-2.5-5.93ZM216.42,299.49c-1.4.46-.43,6.38.05,7.57.42,1.04,4.29,3.92,5.13,3.54,3.45-2.58,6.76-7.03,1.95-10.16-1.97.59-5.68-1.43-7.12-.96ZM240.39,304.13c-1.9,2.54,1.35,4.22,3.4,4.74,5.67,1.44,18.64,1.79,23.79-.99,5.54-2.99-1.03-4.83-4.1-5.5-1.51-.33-10.82-1.64-11.39-1.12.07.46.81,2.64.92,2.73.07.05.99-.48,1.58-.47,2.74.04,6.92.56,9.44,1.5.48.18,1.35.15,1.24.79-5.93.64-14.88,2.03-20.57.31-4-1.21,2.62-1.93,4.19-1.67.2-.18-.93-2.72-1.17-2.74-1.14-.11-6.58,1.41-7.34,2.42ZM419.1,301.71l-17.27,17.07,6.58,5.19c1.25,0,12.03-19.07,10.69-22.25ZM209.3,329.93c.37-4.88.74-9.86,2.64-14.42,1.01-2.43,4.4-5.61,1.45-7.43-3.75,5.94-8.83,11.12-10.9,18-2.73,9.07-.09,17,.43,26.14,1-.51,4.35,1.06,4.54.92.62-.47,4.7-12.49,6.84-13.89,1.05-.46.22.67.09,1-1.18,2.99-1.82,6.3-2.38,9.46-.12.66-1,1.29.24,1.15.56-1.82,2.61-2.04,3.6-3.24.42-.51,3.38-5.3,3.64-5.92,1.35-3.17,0-4.17-.17-7.02-.37-5.98-.04-12.72-.98-18.59-.25-1.56-.21-3.44-1.53-4.37l-3.17,5.47-4.33,12.73ZM234.33,325.38c-1.44-1.98.29-6.86-.07-8.33-.44-1.76-6.03-5.96-6.99-8.05l-2.04,2.72c4.21,2.18,6.59,7.4,7.73,11.84l-8.73-10.38-4.01.37,6.14,16.83c2.15-2.38,4.73-4.39,7.97-5ZM242.98,310.37c-2.01-1.79-5,3.65-5.55,5.15-.6,1.65-1.44,7.37-.37,8.5.64.68.83-.05.91-.68.31-2.41-.57-5.07.83-7.37l4.18-5.6ZM269.83,337.67c5.28-5.37,5.12-14.56,2.21-21.1-.5-1.13-3.7-6.63-4.62-6.59-.58.03-2.33.67-2.14,1.51.07.3,3.18,3.58,3.88,4.77,3.9,6.66,3.96,14.48.67,21.41ZM174.25,361.33c0-8.96-1.47-16.88-5.28-24.97s-10.51-19.12-18.83-22.81c6.4,6.38,11.33,14.12,15.33,22.21s6.08,15.18,8.1,24.21c.11.5,0,1.47.68,1.36ZM407.12,326c-5.16-5.08-12.54-8.65-19.7-9.65-4.08-.57-9.37-1.26-12.9,1.08,8.78.08,16.62,1.3,24.26,5.78,8.08,4.73,12.47,14.73,21.59,17.11.36.09,1.53.3.8-.35-6.48-2.4-9.47-9.46-14.04-13.95ZM179.71,357.69c.83-11.98,2-25.75-6.36-35.5,4.68,10.8,5.43,22.28,5.91,33.91.02.55-.34,1.69.45,1.59ZM233.88,335.4c7.46-2.52,14.85-5.29,22.75-6.16,3.78-1.03,2.47-4.08-.78-4.67-5.57-1.01-16.29,1.41-21.5,3.77-6.2,2.8-4.68,3.33-7.65,8.28-2.55,4.26-6.81,8.06-8.42,13.42-1.51,5.02-.51,8.92,1.5,13.56-2.1-1.76-2.33-5.07-3.16-7.53-.39-1.16-.88-3.12-1.83-3.85-.77,6.06,1.62,13.54,6.85,17.04,3.01,2.01,8.71,1.46,5.43-2.47,4.6,1.26,7.77.39,11.38-2.5,1.83-1.46,3.49-4.11,5.12-5.4,2.93-2.31,8.27-3.28,11.73-5.06.78-.4,10.48-6.19,6.55-7.06-.69-.15-11.2,4.28-13.3,4.86s-4.24.71-6.25,1.49c-.38.06-.25-.86-.22-.89.26-.27,5.94-2.6,6.84-2.95,2.82-1.07,15.61-4.66,16.31-7.39,1.09-4.23-9.59-.23-11.32.1-5.28,1-10.67,1.44-15.93,2.49-.24-1.22.26-.79.91-1.11,4.43-2.18,24.54-5.6,25.72-7.99.8-1.62-.27-3.25-1.94-3.57-1.16-.22-9.4,1.04-11.21,1.35-5.78.97-11.43,3.21-17.35,3.13l-.23-.9ZM344.01,350.87c.41-.73-.3-5.94,0-7.28-4.55,4.76-9.37,10.22-11.84,16.38-.84.1-.39-.97-.33-1.46,1.11-8.62,5.91-18.2,11.25-24.93l-7.74,6.13c-10.71,9.42-8.77,25.05-15.47,36.64-.79.11-.43-1.04-.45-1.58-.23-6.32.28-12.46.86-18.72.05-.51.42-1.64-.4-1.53-.71,3.41-2.22,6.6-2.97,10.01-1.45,6.63-1.41,13.72-3.43,20.23-.75,2.41-2.31,4.54-2.71,7.08l-.44-22.3-9.11,40.05-.91-.67c.07-10.04-.36-20.1.88-30.09.11-.9-.1-.65-.88-.64-.49,3.72-1.83,7.22-2.52,10.92-2.03,11.03-1.14,22.33-3.02,33.39-.84,4.96-2.16,11.23-6.3,14.41.3-2.38,1-4.73,1.3-7.12,1.18-9.37-.94-19.88-1.3-29.52-.02-.55.34-1.69-.45-1.59-4.42,13.55.34,29.19-7.3,41.63l-3.17,2.97c2.02-7.99,4.35-15.97,3.63-24.34l-.9-5.24c-1.56,7.52-1.37,16.63-3.67,23.87-.94,2.96-5.64,8.78-5.79,10.57-.21,2.4,9.82,15.94,11.95,18.36,16.98,19.3,42.76,28.24,67.97,21.3,1.45-6.53,2.84-12.98,2.37-19.74-1.03-15.1-13.5-27.83-15.96-42.76l3.69,4.95c3.17,2.66,6.4,5.18,9.92,7.37.39.24.99,1.14,1.41.41-3.7-3.42-6.18-7.81-9.1-11.84-.65-.89-1.77-1.58-2.47-2.54-9.74-13.52-7.85-39.19-2.43-54.23.7-1.94,3.02-5.91,3.33-7.15.46-1.84-.49-5.26.51-8.57.64-2.13,1.82-2.57,1.96-2.82ZM351.71,334.55l-2.22-.97c-5.92,12-1.08,25.31,0,37.77.8-.17,3.84-.32,3.99-1.12-3-11.71-5.37-23.78-1.76-35.68ZM422.75,392.74v-9.79c0-4.8,3.18-9.84,3.6-14.16.58-5.98-5.16-9.85-8.59-14.07-1.32-1.62-4.66-7.23-5.69-7.96-1.42-1.01-4.77-1.37-6.59-2.06-6.15-2.31-10.87-6.12-15.03-11.13.86,5.99,5.1,10.89,10.45,13.44l5.93,2.04h-7.51c-1.27,0-5.76-1.77-7.07-2.49-2.12-1.17-4.87-4.67-6.87-4.56-6.12.34-20.93,6.23-26.3,9.59-2.55,1.59-5.27,2.98-5,6.27.46,5.51,3,14.94,4.63,20.41,1.9,6.37,8.03,21.59,12.62,26.07,2.13,2.08,5.5,2.37,6.74,5.55l9.74,21.67c.2.55.42.81,1.05.8.56,0,6.77-6.97,7.95-7.99,8.21-7.08,19.06-11.79,30.04-11.15-3.53-9.56-7.77-19.44-10.59-29.23-1.05-3.66-2.33-7.42-2.15-11.27l8.64,20.02ZM205.65,355.88c-4.7-1.17-9.46,2.15-13.16,4.81-1.1.8-2.21,2.56-3.34,3.03-1.29.54-3.05.42-4.54.92-8.7,2.93-15.37,9.5-20.48,16.84-1.24,1.79-2.72,3.78-3.54,5.79,6.67-6.02,12.72-13.26,20.51-17.94,1-.6,3.84-2.26,4.75-2.53.73-.21.71.06.68.67-.17,2.95-1.78,6.68-2.16,9.69-.06.5-.51,1.56.33,1.46,1.84-7.44,6.96-14.03,13.05-18.58l7.89-4.17ZM241.61,365.89l-6.51,3.72-4.89,1.56c-.32,8.85,3.52,18.13,9.82,24.3,2.17-9.63,3.71-19.81,1.59-29.58ZM172.43,368.62c-8.33-1.61-18.25,1.95-23.65,8.43-.36.43-2.14,2.61-1.83,2.95,5.18-3.88,10.74-7.23,16.93-9.23l8.55-2.14ZM221.58,382.73c-9.68,4.39-12-5.85-16.38-11.84,1.18,3.3,2.19,6.78,4.17,9.7.71,1.05,4.73,4.73,4.77,5.08.44,4.03-15.41,18.18-19,20.91-8.96,6.82-19.29,11.9-30.35,14.25l-7.38,1.03c14.15,2.96,28.63-4.55,39.56-13,9.22-7.13,17.99-16.57,24.61-26.13ZM354.48,374.08l-6.63,1.35,1.17,7.76,7.28-.92c-2.08-2.48-2.41-4.99-1.82-8.19ZM350.28,387.38c-.8-.45-2.84-.31-3.32-1-.53-.75-1.45-8.08-1.72-9.66-.1-.56-.09-2.2-.76-2.19-1.27,4.94-2.94,9.74-3.59,14.85-1.49,11.77.16,27.86,8.36,37.04,5.52,6.19,15.07,8.7,22.99,6.37l-2.27,2.04,7.72,9.33c-.51-3.01,1.15-5.81.72-8.66-11.3-14.81-22.44-30.13-28.13-48.13ZM357.15,385.98c-.69-.44-3.63.13-4.49.61,4.7,11.85,10.53,22.35,17.64,32.87,1.21,1.79,9.89,14.69,10.8,14.68.22,0,2.49-2.44,3.87-1.81-8.82-12.2-18.08-24.36-24.51-38.06-.6-1.27-2.94-8.05-3.31-8.29ZM474.18,386.37c-1.5.31-2.31,1.69-4.08,1.38l.44,8.18c2.42-2.43,4.09-6.1,3.63-9.56ZM469.17,413.22c-1.42-5.4,1.19-11.77-.03-17.03-.65-2.8-2.81-5.76-3.83-8.45-.47,1.64-3.72,1.66-3.87,1.82-1.09,1.12,2.34,2.23,3.14,3,3.1,2.95,2.01,9.66-2.69,9.74,1.77,3.81,4.31,7.73,7.28,10.92ZM268.92,417.76c2.1.6,1.69,2.33,3.38-.02,1.18-1.63,6.17-11.03,6.74-12.85.15-.49.37-.74.27-1.35-.33-2.16-8.77-10.31-10.9-11.89-4.55-3.4-6.77-4.38-11.57-.28-3.63,3.09-9.28,14.18-7.87,18.81.45,1.48,2.11,1.92,3.29.74,2.08-2.09,4.49-9.61,6.72-12.86.78-1.14,2.03-2.61,3.1-3.49.54,4.8-7.81,13.67-7.09,17.78.34,1.89,1.7,3.72,3.71,2.28.52-1.28,9.47-15.49,10.65-14.14l-7.27,14.35c.38,1.62,2.54,2.51,4.08,1.81,1.78-.82,4.41-8.72,7.29-9.78-.42,3.81-2.69,7.6-4.55,10.91ZM252.53,390.92c-3.26-.23-5.17,3.13-6.31,5.75-.85,1.96-2.85,6.16.17,6.99,1.98-4.26,3.05-9.03,6.14-12.73ZM477.82,393.19c-.09-.44-.38-.9-.91-.68-1.17.48-5.09,4.76-5.37,6.02-1.4,6.16.9,12.19.82,18.34l3.72-6.06c.58-2.38,2.08-5.09,2.64-7.37.3-1.21-1.04-.07-2-.21-2.56-.39-3.85-3.12-2.76-5.46.22-.47,1-.83,1.32-1.41.69-1.23.65-3,2.54-3.16ZM214.3,420.5c6.78-.37,13.93-6.72,15.47-13.19l-2.74,3.85-3.17,3.2-9.56,6.13ZM433.67,422.78c-.78-9.03-12.92-7.1-19.11-5.24s-14.93,7.63-19.35,12.51c-.71.79-3.11,3.49-2.91,4.24l2.44,2.58c8.95-10.09,25.29-21.2,38.92-14.1ZM258.38,419.2l-3.57-1.43c1.9,33,23.61,66.71,56.08,76.58,26.23,7.97,57.5,1.44,71.88-23.48.93-1.6,6.1-13.3,5.39-13.96-.1-.09-2.6-.4-2.75-.27-.38.3-2.67,7.45-3.37,8.94-13.66,28.81-49.29,33.63-76.42,21.76-26.33-11.53-43.54-40.25-47.24-68.14ZM469.63,423.69l-32.77-2.27c.59,1.84-.75,4.05-.68,5.52.06,1.33,2.27,7.47,3.65,7.7,1.43-.49,8.83-.44,9.32-.93.23-.24-1.06-4.14.22-4.56,2.08-.67.6,3.44,1.86,4.59l17.94-1.39.46-8.65ZM398.18,456c.79.12.77.92,1.03,1.46,3.82,7.95,7.86,21.15,18.31,22.2,4.69.47,14.15-1.29,17.51-4.78,2.56-2.65,2.24-5.6,3.73-8.56,1.31-2.62,4.7-5.08,5.48-7.72,2.45-8.34-5.61-15.57-9.28-22.32-1.53-2.81-3.43-8.71-5.17-10.76-3.07-3.63-13.65-.09-17.36,1.73s-15.06,9.69-15.99,13.63c-.3,1.27.6,5.55.26,7.95-.52,3.64-3.16,4.74-3.52,7.86-.12,1.03-.1,2.59,0,3.64.33,3.36,6.18,15.23,8.4,17.99,4.54,5.64,10.65,6.64,17.53,5.44-.4-.81-2.2-.41-3.21-.66-12.17-2.99-17.01-15.68-17.72-27.1ZM217.94,428.7c-11.43-.71-22.76-2.69-34.13-4.09l5.82,2.14c4.97,1.52,23.59,5.49,27.53,3.22.58-.34.94-.48.78-1.26ZM235.69,433.7v-6.6c0-.34-1.1-1.03-1.6-1.13-2.95-.57-10.66.83-12.51,3.39-1.21,1.67-1.55,7.86-.67,9.8,1.49,3.28,7.12,5.02,7.96.45-4.68.2-6.09-1.52-5.41-6.1.64-4.3,8.01-4.79,8.54-3.17.93,2.86-1.95,3.81,3.7,3.35ZM268.92,445.53c1.85-.49,2.45-2.84,2.96-4.55.96-3.24,1.29-6.65,1.13-10.01l-4.37,11.83.28,2.74ZM487.38,433.24c-1.63.21-10.24.15-10.95.66-1.07.75.1,3.95-.42,5.26,1.73-.42,3.92-.76,5.69-.9,4.84-.41,6.27,1.68,5.69-5.01ZM469.17,434.16l-18.21.9.46,7.74,16.87-2.93.88-5.72ZM390.73,436.6c-2.55-2.49-6.61-2.9-9.14-.14-5,5.47-.12,17.56,7.21,16.78s6.06-12.61,1.93-16.65ZM163.56,444.62c2.23-.24,4.78.17,7.05,0,.09,1.17.08.76-.68.9-11.79,2.05-21.15,7.87-23.32,20.38-.63,3.62-.76,8.2.33,11.74.7,2.28,1.32-1.46,1.75-2.38,2.4-5.12,5.97-10.48,10.54-13.8.45.51-5.77,10.49-6.45,11.98-4.47,9.94-2.14,13.38-1.75,23.29.3,7.5-.13,15.13-1.36,22.52,1.8.2,9.84-7.4,10.47-6.82-4.8,7.64-20.08,18.36-11.61,28.22,7.37,8.58,28.39,7.16,35.64-1.69,2.3-8.65,4.94-17.24,6.46-26.07l-2.74,3.85c-2.94,3.9-6.52,6.71-10.23,9.8-.72-.78,1-1.77,1.58-2.51,7.86-9.98,12.96-21.93,12.75-34.8-.29-.34-3.24,2.14-3.64,2.49-3.79,3.29-6.47,7.71-10,11.16,4.38-18.31,17.17-33.06,30.03-46.2l-22.75-7.5c4.22-.29,9.03-.19,13.22.65,4.49.9,7.95,3.41,12.93,2.5.65-.12,3.15-1.57,2.52-2.25l-19.57-7.74,17.11,1.77c1.23-.72,6.71.13,6.91-1.08.43-2.59-4.24-1.44-6.07-1.59-14.91-1.24-41.51-9.81-54.33-1.57-2.57,1.65-5.84,4.63-5.5,7.92,3.43-.76,7.21-2.81,10.69-3.18ZM255.72,439.17c-11.63-3.21-21.47,1.63-30.63,8.27-12.23,8.86-20.51,20.7-28.07,33.59,3.91-.65,6.88-2.97,9.77-5.47,12.7-10.96,22.37-24.79,38.62-31.92l10.32-4.47ZM362.22,473.75c2.84-.18,8.3,1.42,10.72.03.98-.56,4.16-5.19,4.94-6.44,1.71-2.71,3.13-5.54,4.17-8.58-4.62-6.31-8.48-13.85-15.52-17.78l-4.32,32.76ZM251.62,444.63c-20.4,6.04-32.25,24.97-42.33,42.32,3.56-1.02,6.97-.14,10.01,1.82,3.34-10.5,8.21-20.62,15.25-29.13,4.93-5.95,11.02-10.31,17.07-15.01ZM137.84,460.1c-.39-.35-3.54,2.12-4.05,2.54-8.36,7.04-11.19,18.8-8.37,29.21,2.01,7.43,7.98,13.08,15.14,15.58,1.13-3.19-.83-2.66-2.5-4.1-2.22-1.9-4.8-4.51-6.08-7.12-5.71-11.67-3.32-26.95,5.85-36.11ZM209.62,536.43c1.17-1.16,3.91-12.49,4.46-14.88,2.07-9.08,3.17-18.37,4.79-27.54-.19-2.46-8.57-3.48-10.62-2.87-1.64.49-3.28,8.02-3.73,9.92-1.63,6.8-1.96,14.11-5,20.48-.57-3.28.31-6.78.9-10.03,1.21-6.68,2.99-13.4,5.25-19.78-.94-.56-2.69,1.68-3.08,2.38-3.81,6.93-6.47,26.3-6.93,34.49-.09,1.59-.32,6.43-.02,7.65.1.42,1.5.93,1.84.76-.35-3.04.41-6.93,2.73-9.1-.24,1.25-1.3,9.19-.9,9.56.07.06,1.74.05,1.8,0,.41-.41,1.2-9.91,1.45-11.52,1.08-6.74,3.46-26.09,6.2-31.12.72-1.32.59-.87,1.92-.58-2.94,12.03-5.63,24.28-6.82,36.64-.09.94-.71,6.81-.46,7.05.38.36,1.79-.08,2.24-.72.64-.91,1.85-7.53,2.18-9.2,1.9-9.66,2.89-24.56,6.39-33.23.28-.69-.27-1.23,1.02-1-1.5,7.7-1.94,15.57-3.33,23.29-.47,2.64-4.69,19.13-3.95,19.94.57.05,1.29-.19,1.69-.58ZM139.66,518.37c-10.64-4.21-22.41-12.56-20.7-25.5-1.12,1.48-1.99,3.99-2.38,5.81-.64,3.02-1.55,11.18-.46,13.86s6.99,7.76,9.56,9.56c3.75,2.63,7.94,4.52,11.94,6.72l2.04-10.45ZM200.17,541.13c-.1-.1-1.74,0-2.25-.48l-2.29,35.73c-.03,1.88,7.88,2.36,8.19,2.04l3.19-37.77-4.09.46c-.75,10.81-3.41,21.41-2.74,32.31-1.35.37-.95-1.12-.93-2.07.19-8.42.44-17.07.93-25.47.04-.76.15-4.59-.02-4.75Z"/>
    <path class="st1" d="M170.16,225.94c2.02-17.92,27.52-28.21,43.49-27.1,8.55.59,13.55,7.19,17.05,14.35-6.23.83-12.53,1.13-18.75,2.2-15.12,2.6-29.59,8.29-41.79,17.61.18-2.26-.25-4.84,0-7.05Z"/>
    <path class="st1" d="M94.24,434.51c.74.42,2.49-.08,4.16,1.08,1.09.76,2.09,3.04,2.43,3.13,1.8.5,1.49-.91,2.38-1.63,2.56-2.05,6.26-2.77,9.11-.86.83.55,1.99,2.48,2.16,2.51.99.2,2.88-.78,4.06-.9,2.73-.28,6.49.69,7.28,3.63,4.06.47,8.66-.11,12.46,1.1l-2.02.71c-21.65,1.12-43.35,1.78-65.06,2.28-1.04-.29-4.88-18.97-5-21.06-.03-.57-.45-.74.4-1.27.78-.11,3.25,1.75,4.22,2.14,1.04.42,2.34.31,3.6.95s1.93,2.06,2.86,2.53c.75.38,2.56.13,3.67.51,1,.34,2.3,1.84,3.02,1.95,1.74.28,2.82-1.58,6.76.1,2.14.91,3,2.82,3.5,3.1Z"/>
    <path class="st1" d="M327.62,562.5c.24.17,1.27,4.91,1.37,5.69,1.07,8.19-1.44,18.35-5.38,25.56-.88,1.6-3.98,6.6-5.41,7.34-2.85,1.47-9.96.93-13.33,1.91,5.91-5.56,11.97-11.21,16.01-18.35,2.75-4.86,5.93-12.72,6.29-18.29.08-1.32-.6-3.74-.45-3.86.05-.04.85-.04.9,0Z"/>
    <path class="st1" d="M227.95,597.09c-4.24.2-5.7-5.67-6.7-9-4.15-13.9-1.49-27.13,5.1-39.7-1.26,11.25-1.73,22.09-.09,33.32.21,1.47,1.02,2.92,1.19,4.27.46,3.59-.57,7.57.49,11.11Z"/>
    <path class="st1" d="M308.96,550.67c-12.66-14.34-24.5-29.95-31.85-47.79l25.95,35.26c2.19,4.04,5.26,7.83,5.9,12.53Z"/>
    <path class="st1" d="M282.57,604.37c-.17-.76.24-.92.69-1.35,5.91-5.74,12.31-10.94,16.06-18.53l2.82-6.05c-.26,6.98-2.67,14.01-6.13,20.03-.51.89-2.7,4.57-3.2,4.99-1.44,1.2-8.22.57-10.23.91Z"/>
    <path class="st1" d="M395.89,560.22l-5.38-11.23c-4.29-7.42-9.73-14.17-13.27-22,11.53,6.15,15.24,21.54,18.65,33.22Z"/>
    <path class="st1" d="M397.71,557.95l-4.54-17.53c-.53-2.64-9.16-17.65-8.19-18.88,3.95,2.46,6.53,7.76,8.2,12.05,3.01,7.74,4.24,16.09,4.54,24.36Z"/>
    <path class="st1" d="M399.99,558.41c-.91-.18-.74-.96-.9-1.6-1.83-7.24-2.08-18.01.44-25.04l3.19-6.13c-.98,10.9-3.59,21.68-2.73,32.77Z"/>
    <path class="st1" d="M254.81,568.42l5.21,13.22c2.33,3.61,4.26,7.89,7.07,11.15.55.63,2.05.58,1.14,1.57-5.01-2.47-8.84-5.98-11.16-11.14-.51-1.13-2.27-5.95-2.27-6.83v-7.96Z"/>
    <path class="st1" d="M429.57,542.93c-.81-.13-.51-2.37-.47-2.98.56-9.15,2.75-22.29,10.03-28.43-2.58,10.63-8.18,20.4-9.56,31.4Z"/>
    <path class="st1" d="M412.74,534.29l-11.37,25.03c.46-5.41,1.4-11.22,3.55-16.24,1.42-3.32,4.01-8.06,7.82-8.79Z"/>
    <path class="st1" d="M445.96,521.09l-15.01,22.75c2.27-8.49,6.53-18.93,15.01-22.75Z"/>
    <path class="st1" d="M112.81,421.42c.11.85-.91.34-1.38.25-9.52-1.78-20.29-7.06-28.19-12.54l29.58,12.29Z"/>
    <path class="st1" d="M397.26,566.59c-1.04.23-1-.53-1.38-1.12-4.2-6.53-9.14-9.73-15.06-14.53-.2-.16-1.69-.55-.85-1.18.61-.46,4.12.76,5,1.14,6.16,2.66,9.14,10.25,12.3,15.69Z"/>
    <path class="st1" d="M417.74,542.93c1.05,1.08-10.79,15.28-12.28,16.84,2.17-6.65,5.32-14.03,12.28-16.84Z"/>
    <path class="st1" d="M410.91,497.88c.19.16,1.98,3.89,2.16,4.45.98,3.14,1.2,7.51,1.03,10.79-.08,1.54-.36,4.36-1.14,5.69.36-6.72-2.63-13.84-2.96-20.26-.04-.73.38-1.12.9-.67Z"/>
    <path class="st1" d="M427.3,544.3l-3.88-14.09-1.13-6.61c1.02.19,1.96,2.19,2.37,3.09.58,1.3,2.64,7.68,2.64,8.74v8.87Z"/>
    <path class="st1" d="M410,521.99l-2.39-6.48c-1.94-4.35-5.36-7.79-7.16-12.18,6.87,3.03,9.1,11.79,9.55,18.65Z"/>
    <path class="st1" d="M421.84,506.07l-3.02,7.21-4.25,6.89c.43-4.18,2.38-10.48,5.68-13.2.51-.42.73-1.11,1.59-.91Z"/>
    <path class="st1" d="M386.79,565.69c-1.12-.61-11.78-9.74-10.92-10.46,5.19,1.49,8.73,5.74,10.92,10.46Z"/>
    <path class="st1" d="M311.7,466.92c-1.07,1.43-.95-2.5-.93-2.98.72-16.56,3.16-33.04,8.66-48.68,2.66-7.57,6.15-15.64,10.93-22.07-1.94,9.19-5.79,17.82-8.51,26.76-3.99,13.1-7.02,27.1-9.47,40.59-.38,2.1-.82,4.22-.67,6.38Z"/>
    <path class="st1" d="M385.43,378.63c-1.18.37-3.47-2.13-3.86-2.16-.71-.06-3.65,2.85-5.54,2.94-1.15.06-4.44-1.53-4.93-2.6s-.06-3.92-.23-4.09c-.19-.19-4.41-.04-5.44-.17-.78-.1-1.32.11-.48-.73.36-.35,8.72-2.12,9.83-2.23,6.88-.71,7.94,4,10.65,9.05Z"/>
    <path class="st1" d="M413.64,412.31c-8.26-7.41-13.59-19.43-14.1-30.49l14.1,30.49Z"/>
    <path class="st1" d="M398.62,379.09c-2.03-2.03-1.1-5.81-1.37-8.41-.46-4.48-3.53-9.15-6.37-12.52.34-.31,2.52,1.47,2.95,1.83,6.46,5.4,9.19,11.14,4.79,19.1Z"/>
    <path class="st1" d="M382.24,369.52c-1.2.03-1.58-1.17-2.61-1.71-4.57-2.38-9.52-.12-14.23.12,3.86-5.85,15.3-6.68,16.84,1.59Z"/>
    <path class="st1" d="M372.23,384.09l11.37-2.72c-1.89,4.42-7.47,4.56-11.37,2.72Z"/>
    <path class="st1" d="M190.18,268.04c-3.77-2.69-9.18-3.33-8.16-9.31.19-1.14,1.32-2.04,1.27-2.68-.05-.6-1.69-2.6-2.19-2.82-1.98-.86-2.57,4.49-2.29,5.7-.75,1.07-2.61-8.23,2.01-7.74,1.79.19,6.07,4.5,6.17,6.17.08,1.41-.71,2.29-.24,4.33.56,2.45,3.31,3.83,3.44,6.34Z"/>
    <path class="st1" d="M205.2,248.01c2.19-6.5,8.56-8.5,14.93-6.97,2.38.57,6.26,3.14,3.5,5.6-5.91-4.4-12.64-1.57-18.43,1.37Z"/>
    <path class="st1" d="M222.04,250.29c-.62,1.77-2.01.11-2.95.18-.51.04-2.91,1.33-4.24,1.54-.85.13-1.58-.29-2.4-.17-1.48.22-2.97,1.61-4.75,1.63-1.89.02-3.99-1.14-5.24-2.51,1.41-.77,2.16,1.24,3.52,1.52,3.13.65,7.87-4.26,11.35-4.33,1.97-.04,3.02,1.59,4.7,2.14Z"/>
    <path class="st1" d="M235.24,234.81c-5.3-.58-11.66-.13-17.01.52-2.24.27-4.47.75-6.65,1.3.27-.95,1.4-.98,2.18-1.23,4.91-1.62,15.05-2.88,19.92-1.52.62.17,1.41.05,1.57.93Z"/>
    <path class="st1" d="M418.65,470.56c-.37-.02-.94.19-.91-.23.09-1.33.62-2.39.48-4.11-.42-5.22-8.72-4.62-7.96-12.11.78-7.68,9.29-5.49,12.22.57,3.31,6.84-1.07,10.2-3.83,15.88Z"/>
    <path class="st1" d="M439.13,461.92c-1.37,1.06-.45-1.09-.43-1.57.05-1.5-.12-3.01.04-4.52l2.68-8.47c1.6,3.38,1.02,7.04-.23,10.45-.2.54-1.86,3.96-2.05,4.1Z"/>
    <path class="st1" d="M420.47,445.08c-1.87-.41-3.48-1.43-5.49-.71l-6.34,3.9c.91-5.95,9.21-10.15,11.83-3.18Z"/>
    <path class="st1" d="M386.23,437.45c7.93-.44,8.29,15.27-.27,12.79-5.83-1.69-6.38-12.42.27-12.79Z"/>
  </g>
</svg>