<?xml version="1.0" encoding="UTF-8"?>
<svg id="Capa_1" xmlns="http://www.w3.org/2000/svg" version="1.1" viewBox="0 0 595.28 841.89">
  <!-- Generator: Adobe Illustrator 29.5.1, SVG Export Plug-In . SVG Version: 2.1.0 Build 141)  -->
  <defs>
    <style>
      .st0 {
        fill: #f2eadf;
      }

      .st1 {
        fill: #2d4b30;
      }
    </style>
  </defs>
  <path class="st0" d="M297.95,356.15c6.12-15.38,2.65-44.25,4.56-61.64.56-5.15,1.81-10.04,3.64-14.85-.5-.53-3.11,1.8-3.57,2.42-4.29,5.74-4.08,24.06-4.26,31.68-.34,14.54.77,29.12-1.55,43.54,1.47.27.86-.35,1.17-1.14Z"/>
  <path class="st0" d="M265.03,418.54l-5.23,3.88c2.77-.05,6.27-1.59,8.3-3.41,5.73-5.13,9.84-25.25,12.52-33.33,4.14-12.5,9.83-24.45,13.03-37.25-1.91,2.36-3.29,5.42-4.61,8.15-6.4,13.22-11.84,26.98-16.36,40.95-1.99,6.16-3.21,16.29-7.65,21Z"/>
  <path class="st0" d="M283.24,433.11c5.39-1.62,6.58-3.17,8.08-8.6,7.1-25.79,6.01-55.27,21.52-79.04l6.86-10.59c-.41-.41-4.36,2.65-4.93,3.14-14.2,12.17-20.78,42.58-25.02,60.42-1.28,5.38-3.4,22.33-6.84,25.46-3.48,3.17-20.26,5.03-20.97,5.86.32,1.97-.45,4.35-.46,6.08,0,.63.14.77.65,1.09,6.97-1.29,14.32-1.78,21.12-3.83Z"/>
  <path class="st0" d="M262.55,362.91c-2.69,9.69-4.45,23.12-2.92,33.04.08.49-.57,1.2.68,1.46,2.2-8.39,5.71-16.99,9.14-24.99,4.44-10.38,10.22-23.4,17.45-32.05,1.29-1.54,7.82-7.07,8.06-7.57.26-.52.63-6.98.66-8.24.08-3.25-3.03-.69-4.53.2-14.41,8.62-24.08,22.04-28.55,38.14Z"/>
  <path class="st0" d="M268.64,497.98c-1.2-4.43-3.14-8.61-4.42-13.03-4.14-14.21-5.1-29.04-5.73-43.77-.88.61-.73,1.41-.81,2.31-1.4,16.35.66,33.38,7.39,48.41l3.57,6.06Z"/>
  <path class="st0" d="M226.73,317.7c-4.2.31-8.08,2.2-12.25,2.6-.14.87,1.26.57,1.84.54,2.17-.12,4.64-.94,6.76-1.06,9.87-.55,17.2,1.18,26.13,5.11l14.76,7.9c-9.53-8.27-24.28-16.04-37.24-15.1Z"/>
  <path class="st0" d="M244.72,419.61c-.13,1.04.71,1.05,1,.74.52-.56,3.5-13.3,3.64-14.86.46-5.15.63-12.86-1.82-17.45-.07,2.37.86,4.62.82,7.04-.09,6.08-2.43,13.19-3.16,19.28-.21,1.71-.26,3.41-.49,5.25Z"/>
  <path class="st0" d="M318.66,234.85l-1.04,2.6c2.17-.35,5.59.87,6.51-1.56,5,5.92,2.68,13.32,2.86,20.32-.74.12-.76-.92-.88-1.45-.39-1.57-.39-5.59-1.4-6.42-1.14-.94-2.17.05-2.94-.23-.79-.28-2.73-3.96-3.75-1.65-.27.62.52,4.34.81,5.17,1.75,4.89,5.94,3.51,7.18,5.45.64,1.01.3,4.36.75,4.35,2.08-.05,1.39-4.33,2.3-4.99,1.23-.89,5.09.65,6.34-.96.55-.71,2.02-7.08,1.51-7.6-1.79-.84-2.86,2.55-3.38,2.56-.25,0-.69-1.05-1.31-.78-1.05.46-1.75,3.39-2.34,4.49-.39.73.04,1.28-1.3,1.01.16-2.92.94-6.23,1.06-9.09.34-8.07-1.11-19.05,0-26.57.15-1.01,1.41-2.05,1.02-3.42,1.79,1.33,4.12-.82,3.57-2.75-.2-.72-1.48-1.46-1.48-1.67,0-.27,1.71-1,1.58-2.58-.19-2.29-2.76-1.57-3.16-1.86-.16-.11,1.13-2.29-1.03-3.42-1.13-.59-1.75,1.08-2.08.82-2.11-6.11-2.76-1.59-4.18-.79-2.03,1.13-5.38.05-2.08,4.43-2.56-.47-4.31.86-2.06,2.85.67.6,1.99.72,2.06.81.08.1-.95,1.57-1.04,2.38-.4,3.78,2.92,1.55,3.12,1.78.25.29-.54,2.77,1.84,3.12,2.33.35.48-1.06,1.81-1.55l.52,23.44-1.58-3.36c-1.7-2.49.41-5.63-.19-7.59-.81-2.66-2.78-.89-2.9-1.03-.21-.24-.23-5.06-2.36-5.73-1.28-.28-1.03,2.39-2.29,1.49-.18-.13.07-1.59-2.13-.98.96,3.14-1.52,2.48-1.6,2.89-.42,2.03,1.21,4.21,1.08,4.4-.05.08-1.51.27-1.55.79-.08.88,2.75,3.64,4.16,2.88Z"/>
  <path class="st0" d="M310.26,290.01c.14-.08,1.05-2.11,1.64-2.79,3.9-4.49,8.64-7.89,13.52-11.22-2.23,6.34-17.12,12.75-13.18,20.71,2.39,4.83,7.07-3.32,8.68-4.9,2.15-2.11,6.63-6.35,8.93-8,1.06-.76,2.21-1.08,3.39-1.56.23.98-.55,1.24-1.04,1.82-2.83,3.37-14.67,12.21-14.57,16.17.03,1.06,2.82,3.5,3.83,3.3.45-.09,2.83-3.32,3.7-4.11,2.23-2.02,8.84-6.39,11.56-7.72.74-.36,1.37-.77,2.26-.6-1.82,3.65-14.01,9.5-14.59,12.78-.36,2.05.92,3.53,2.93,3.73,2.47.25,10.03-5.05,12.44-6.62,1.01,1.81-3.19,2.98-3.32,3.18-.49.78-.03,2.54,1.21,2.55,4.29.05,8.71-12.4,7.97-15.75-.59-2.68-6.53-11.18-8.72-13.18-1.62-1.48-10.68-7.7-12.38-7.99-4.86-.82-17.32,11.18-17.33,16.33,0,1.46,1.33,4.86,3.07,3.84Z"/>
  <path class="st0" d="M215,334.37c-.11.98,1.05.4,1.59.28,16.05-3.53,27.6-1.14,42.17,5.96-12.44-9.56-29.23-14.42-43.75-6.24Z"/>
  <path class="st0" d="M238.43,473.49c5.98-14.86,11.42-30.1,14.59-45.85-1.33,1.51-2.24,4.2-3,6.11-4.7,11.85-9.8,26.65-12.54,39.05-.22,1,.14.7.95.69Z"/>
  <path class="st0" d="M287.92,296.85c-3.81-.49-4.59,7.35-3.76,9.76,1.43,4.15,6.75,5.8,10.73,4.76.63-.16,1.13-.8.34-1.24-1.21-.67-3.56.05-5.25-.48-3.65-1.15-4.79-5.92-4.03-9.3.35-1.55,1.92-1.99,1.97-3.49Z"/>
  <path class="st0" d="M280.7,177.07c-1.8,1.12.37,7.26,1.11,8.91.87,1.95,2.41,5.57,5,3.97,1.5-.93,2.1-10.7.88-12.45-.47-.67-6.45-.76-6.98-.43Z"/>
  <path class="st0" d="M279.08,190.3c-8.54,8.67-8.31,28.83-6.11,39.96,1.61,8.14,4.85,16.19,6.36,24.39,2.8-8.65,7.41-17.05,8.09-26.3.63-8.53-.49-17.1-1.06-25.56-.12-1.73,1.04-12.26-2.63-9.92-1.57,1-3.27,11.38-3.56,13.64l-1.1,10.62c-.8-7.48-1.79-13.84.36-21.26.39-1.36,1.88-3.4,2.01-4.25.03-.22-.73-2.04-.82-2.11-.58-.42-1.19.43-1.54.79Z"/>
  <path class="st0" d="M296.26,183.25c8.88-3.13,11.56-12.65,9.37-21.36-.74-.14-.69,1-.79,1.54-1.12,6.45-1.17,8.52-5.24,14.04-1.45,1.97-4,2.81-3.34,5.77Z"/>
  <path class="st0" d="M255.11,116.03c5.29-3.91,3.81-9.63,5.72-15.1-.85-.69-11.38,7.57-12.5,9.12,3.39.4,6,2.63,6.78,5.99Z"/>
  <path class="st0" d="M282.19,145.74c.19,1.04,1.12.83,1.81,1.05,5.12,1.65,13.65,3.12,17.99-.53-6.89,1.75-12.94-.34-19.79-.52Z"/>
  <path class="st0" d="M334.93,339.98c-.04,1.17.26,2.43,1.17,3.24,1.4,0,3.3-13.06,3.41-14.82l-.54-5.49c-.28,5.34-3.88,12-4.04,17.07Z"/>
  <path class="st0" d="M304.07,328.11c4.28-.05,8.83-1.36,13.02,0-.79-4.61-2.91-6.46-7.53-6.79-6.83-.49-5.48.61-5.49,6.79Z"/>
  <path class="st0" d="M391.85,392.72c.63-.03,1.93.4,1.81-.51-20.44-.81-38.98-15.57-50.73-31.33-12.3-16.49-18.76-35.98-27.48-54.32-1.04-2.19-2.16-5.18-4.09-6.59,5.43,19.56,13.35,39.6,24.26,56.75,11.68,18.36,33.09,37.04,56.22,36Z"/>
  <path class="st0" d="M302.9,267.54c-4.24,4.32-7.84-10.62-8.47-12.89-1.63-5.87-2.85-12.23-3.91-18.24-1.61.9-1.13,4.63-1.06,6.53.45,11.95,1.4,24.02,1.58,35.94.06,3.95-.04,7.81-.52,11.72-.47.06-.67.08-1.05-.25-1.82-1.56-.9-16.44-1.01-19.83-.19-5.49-.85-11.14-1.08-16.63-.14-3.37-.08-6.83.02-10.18-1.44-.25-.88.3-1.17,1.14-1.34,3.83-3.22,11.06-5.55,14.18-.4.53-.75.45-1.27.24-2.95-1.15-5.58-16.25-6.74-19.84-.18-.55-.13-1.57-.88-1.45l-7.29,47.94c3.51-2.22,6.61-5.07,10.04-7.41.86-.58,2.45-2.11,3.5-1.71-1.47,2.05-2.83,4.53-4.67,6.27-3.9,3.67-10.93,4.22-9.91,10.67l32.58-1.54c.9-5.72,2.54-11.88,7.56-15.36,1.85-1.28,3.93-1.46,5.66-2.7l-2.31-31.46c-2.2,3.51-2.46,23.27-4.03,24.88Z"/>
  <path class="st0" d="M348.35,246.57c.74-13.04,1.3-28.67.54-41.71-.27-4.64-1.26-9.8-2.37-14.31l.78,67.74c1.14-3.94.83-7.75,1.05-11.72Z"/>
  <path class="st0" d="M289.22,193.67c-2.51,2.6,2.61,17.2,2.86,21.64.24,4.19-.79,8.22-.53,12.52.45,7.76,3.79,20.18,6.01,27.86.63,2.17,1.65,6.48,2.73,8.19.34.53-.03.92,1.17.66.13-11.79,3.42-23.41,4.16-35.17.42-6.59.68-16.48-1.31-22.65-.54-1.68-8.79-19.05-10.66-17.73-1.92,2.8.05,3.55,1.04,5.99,2.68,6.59,4.16,13.42,4.16,20.59l-7.34-21.56c-.53-1.02-1.44-1.21-2.29-.32Z"/>
  <path class="st0" d="M287.92,190.02c.33.29,1.84-.09,2.38-.48,2.32-1.66,4.45-14.17-1.34-12.55-.33,1.7.56,3.33.54,4.92-.02,1.43-1.89,7.83-1.58,8.1Z"/>
  <path class="st0" d="M333.22,232.46c-.52.36-.93,6.23-1.26,7.62-.31,1.33-1.24,2.3-1.32,3.62,1.08-.19,1.2-1.66,1.92-2.11,1.32-.82,3.75-.6,5-1.12.74-.31,4.51-4.1,3.5-5.1h-2.09c1.97-4.86,1.75-7.48-3.26-3.63-.35.27-.42.9-.47.92-.38.13-1.24-.74-2.03-.2Z"/>
  <path class="st0" d="M152.75,227.03c-2,4.3-1.02,10.45,1.02,14.61,1.99,4.06,5.9,7.57,10.16,9.12.49.18,1.7.69,1.58-.28-9.02-3.94-12.46-14.28-12.76-23.45Z"/>
  <path class="st0" d="M185.81,229.88c-1.73,1.64-1.47,6.99-5.33,8.73-8.8,3.96-16.71-4.25-18.78-12.2-.57-2.18.24-4.96-1.92-6.16v8.08c0,3.2,6.31,11.08,9.21,12.67,3.51,1.93,11.29,1.67,14.62-.77,2.03-1.49,4.78-8.11,3.26-10.33-.11-.56-.71-.36-1.06-.03Z"/>
  <path class="st0" d="M191.07,218.38c-.63-1.78,2.61-3.4.75-3.86-1.84-.46-7.52,0-9.9,0-1.81,0-7.99-1.81-9.91-2.59-1.15-.47-2.79-.86-3.37-2.09,10.79,2.18,21.78,3.7,32.81,2.85,1.39-.62,2.98-4.4,2.15-5.63-.17-.26-3.54-1.81-4-1.89-2.06-.37-5.25.61-7.8.52-8.32-.31-17.34-4.43-25.24-6.8-.12-.92,1.18-.51,1.75-.45,7.68.81,16.06,4.78,24.03,5.2,2.45.37,3.58-2.41,3.37-4.43-.23-2.24-2.83-3.9-4.69-4.73-7.4-3.29-17.47-4.44-25.27-7.08l-.72.09c-.3,3.46-4.12,5.87-3.59,9.45.13.89.88,1.76.88,2.74,0,1.78-2.01,5.33-1.95,7.31.04,1.56,1.76,2.84,1.89,3.71.13.83-.68,1.66-.67,2.51.04,5.17,3.36,8.8,4.86,13.15.14.42.31,1.76-.42.93l-3.12-4.94c-.72,5.31,7.09,14.28,12.16,14.04,3.59-.17,8.85-3.12,8.66-7.27-3.95,1.32-7.29,1.36-11.2,0-.58-.2-1.89-.29-1.81-1.04,3.85.52,9.16.43,12.48-1.85.41-.29,2.14-1.84,1.58-2.32-4.78.29-9.61-.59-14.05-2.36-.85-.34-2.72-1-3.13-1.81,8.78,1.21,16.88,3.59,25.52-.01.03-1.04-1.64-.19-2.05-1.35Z"/>
  <path class="st0" d="M483.51,193.15l4.43-11.97c.28,6.85.95,13.27-1.82,19.79-.47,1.11-2.25,3.26-2.28,3.47-.12.71,3,4.69,3.85,5.39,4.48-13.11,6.19-26.31,1.29-39.6l-16.14,24.21,5.84,5.35c2.05,1.06,3.74-5.15,4.83-6.64Z"/>
  <path class="st0" d="M164.71,184.84c1.53,1.22,14.21,3.68,14.86,3.11.1-1.35-1.31-1.52-1.56-2.88-.2-1.06.16-4.56,1.58-4.21.82.2,1.98,1.43,3.1,1.36-.34,1.27-3.1-.55-3.64,0-1.46,1.49,2.62,6.79,4.16,5.73.2-.14,1.06-3.9.84-4.7-1.18-4.26-14.97-7.33-18.41-5.85-2.62,1.12-3.08,5.72-.93,7.44Z"/>
  <path class="st0" d="M492.63,230.67c.26-1.1-.59-1.18-1.18-1.68-2.34-1.97-5.45-3.46-7.94-5.6-7.5-6.43-12.68-15.08-20.03-21.65-.53-.47-4.32-3.73-4.7-3.37,10.37,11.53,18.05,27.39,33.85,32.3Z"/>
  <path class="st0" d="M212.16,178.02c1.04,6.62-1.21,13.02-5.51,17.99l-3.11,3.4c2.24.29,5.76-3.5,7-5.24,6.61-9.28,4.2-20.79-2.57-29.14.37,4.6,3.49,8.49,4.2,13Z"/>
  <path class="st0" d="M165.51,123.85c-1.07.91,4.25,3.16,4.64,3.43,2.32,1.55,4.76,3.29,6.51,5.47.57.71,3.65,6.98,4.47,3.84.92-3.56-11.24-14.11-15.62-12.74Z"/>
  <path class="st0" d="M184.5,161.91c4.03.29,20.98.44,23.44-2.13.5-.53,1.48-2.57,1.28-3.28-.32-1.12-4.28-1.79-5.42-1.91-4.21-.42-9.01.31-13.28,0v1.04h9.12c.15,0,.91.46,1.54.54,1.21.15,3.84-.79,3.41,1.02-8.46,1.29-16.54,1.3-25,0l4.68-1.29c-.81-1.47-8.07.44-8.33.78.61,4.58,4.7,4.95,8.57,5.22Z"/>
  <path class="st0" d="M186.66,156.71c.31-.01,1.79-.52,1.79-.86-.79-1.95-3.63-12.39-4.74-13.21-.33-.24-2.53.33-2.58.8-.07.72,4.82,13.29,5.54,13.27Z"/>
  <path class="st0" d="M182.43,255.67c-.85,2.03-2.33,3.66-2.85,5.74,5.24-4.45,6.98-10.53,7.28-17.19l-1.95,4.04c-.95,2.42-1.48,5.02-2.48,7.41Z"/>
  <path class="st0" d="M389.5,257.77l2.25-19.38c.73-5.26,2.58-10.19,4.01-15.27l-1.82,2.87c-1.6,5.08-3.93,11.11-4.44,16.41-.47,4.88.35,10.42,0,15.37Z"/>
  <path class="st0" d="M379.08,282.25c1.72-15.47.87-31.3,5.21-46.37-1.52,1.13-1.89,3.94-2.34,5.73-3.19,12.5-3.9,25.95-3.38,38.83.03.63-.39,1.94.52,1.82Z"/>
  <path class="st0" d="M368.66,303.62c.49-15.51.87-31.19,4.17-46.37-.78.1-1.19,1.82-1.41,2.49-4.06,12.35-4.05,25.03-3.81,37.91l1.06,5.97Z"/>
  <path class="st0" d="M359.28,317.17c.89-7.83.43-15.81.51-23.73l1.58-15.87c-1.09.31-1.09,1.68-1.31,2.59-2.3,9.21-1.73,19.01-1.83,28.44l1.06,8.57Z"/>
  <path class="st0" d="M455.4,316.13l9.99-8.76c9.8-6.92,21.83-11.62,34.03-10.26-4.95-15.7-6.63-32.25-9.39-48.45l1.94,4.31c1.03,3.67,2.19,7.31,3.03,11.03.34,1.52-.06,3.92,1.28,4.71.02-5.92,4.84-12.19,4.13-17.93-.5-4.04-3.93-6.51-6.12-9.51-.97-1.34-2.46-5.03-3.24-5.62-1.04-.79-4.64-1.42-6.22-2.12-12.56-5.55-18.64-16.82-25.98-27.71-.36-.53-.54-1.66-.61-1.72-.25-.25-1.25-.27-.98.72.65,2.34,3.1,6.92,4.37,9.19,4.42,7.89,10.98,16.87,19.54,20.32.11.93-1.78.56-2.29.47-3.34-.56-8.2-3.19-10.9-5.25-1.52-1.16-2.6-2.65-3.99-3.82-.41-.35-1.04-1.37-1.56-.52,3.99,4.89,8.45,9.42,13.9,12.67l4.32,2.18c-13.51.92-23.03-8.79-29.94-19.15-9.9,3.82-20.3,8.04-27.78,15.83,8.26,27.41,18.84,54.23,32.46,79.39ZM465.55,252.04l3.2,9.57c4.89,9.71,11.83,17.93,12.96,29.25l-4.61-8.94c-3.01-5.33-11.55-15.99-11.55-21.8v-8.08ZM468.6,287.28l3.71,10.09c-4.68-5.5-7.68-12.78-9.37-19.8l5.65,9.71ZM453.24,242.73c.5.28,2.99,2.48,2.41,3.06-5.17-4.04-9.81-2-15.37-1.57-.57.04-1.94.39-1.81-.51,4.46-1.42,10.32-3.45,14.77-.98ZM443.9,249.4c5.89-.52,9.92,2,11.6,7.73.47,1.59,1.76,6.33-.89,6.36-.11-1.08.47-4.94-.79-5.21-.72-.15-1.5,1.13-2.19,1.44-3.76,1.69-8.76.82-11-2.84-.8-1.3-1.02-3.65-1.16-3.79-.26-.25-5.84-.39-5.69-3.68,4.1,4.21,5.9.35,10.12-.03Z"/>
  <path class="st0" d="M350.43,301.54c-1.58-.26-.83.39-1.05,1.26-.69,2.77-1.41,8.55-1.57,11.48-.31,5.4.69,11.56,1.07,16.95l1.56-29.69Z"/>
  <path class="st0" d="M451.26,337.98c-1.87-3.68-.62-6.59-1.33-9.5-.04-.18-2.27-1.74-2.88-2.45-1.73-2-3.68-4.45-4.95-6.77l-1.03.26-8.85,56.53c6.75-4.94,12.7-12.1,16.75-19.45.77-1.39,3.44-6.25,3.55-7.43.16-1.67-.98-3.62-.95-5.18.03-1.41,1.54-3.34,1.39-4.08-.13-.66-1.35-1.22-1.71-1.93Z"/>
  <path class="st0" d="M457.38,336.37c4.06-.64,2.09-8.75-.88-8.18-2.73.52-2.55,7.7.88,8.18Z"/>
  <path class="st0" d="M437.71,310.37c3.31,1.17,2.54,2.51,4.17,4.69,2.17,2.89,5.41,7.44,7.83,9.88.54.55.75,1.33,1.77,1.09-5.08-11.22-11.05-22-15.88-33.35-6.54-15.37-11.96-31.31-16.42-47.41-1.39-.13-.84-.01-1.03.78-3.13,13.13-2.68,38.23,2.34,50.8,3.83,9.58,8.54,10.46,17.21,13.53Z"/>
  <path class="st0" d="M419.71,211.91c-1.69,1.11-1.13,5.09-.97,6.97.1,1.17,1.59,9.7,2.28,9.7,7.48-7.02,16.87-12.11,26.83-14.59-1.13-1.05-3.08-7.28-3.7-7.76-.11-.08-.94.53-.98.48v-1.57c-.55-.58-5.28,4.31-6.25,4.69,4.12-9.52,1.29-20.07-1.43-29.58-.44-1.52-4.33-14.19-5.09-14.18-10.28,11.97-16.15,32.99-4.95,46.11-1.39.78-2.22-1.43-3.12-1.82l2.07,10.42c-2.66-1.93-4.57-5.52-4.69-8.86ZM428.57,177l4.43,13.02c2.38,8.05,1.1,14.99-2.36,22.41l-2.99-5.07c-4.5-10.89-2.85-19.62.92-30.35Z"/>
  <path class="st0" d="M295.22,176.74l2.08.26-1.04,2.08c.78.74,3.39-3.2,3.75-3.8,1.66-2.75,2.68-6.14,3.54-9.22-2.87,3.49-4.8,7.73-8.33,10.68Z"/>
  <path class="st0" d="M106.06,514.84c-1.04,3.07-1.65,5.9-2.96,9.02-4.03,9.59-10.83,18.12-12.59,28.83l1.29-1.57c5.52-12.57,13.75-23.99,15.37-38.03-.95.16-.88,1.07-1.11,1.75Z"/>
  <path class="st0" d="M219.27,627.6c.52,7.71,3.52,15.15,4.5,22.87.75,5.84.08,16.83,2.47,21.5,3.35,6.55,13.07,5.53,12.22,15.42-.19,2.24-2.15,3.72-2.1,5.99,7.3-3.98,15.5-7.06,23.95-6.78.6-.51-1.93-2.76-2.35-3.11-2.47-2.09-6.35-3.71-8.6-5.99-3.93-3.97-3.85-9.9-6.14-14.7-2.36-4.93-5.67-7.58-7.91-13.45-4.34-11.36-6.64-24.16-10.67-35.7l-5.36,13.94Z"/>
  <path class="st0" d="M205.62,402.63c-6.01,6.75-13.22,16.27-10.49,25.87.2.7.2,1.59,1.11,1.75-2.08-10.32,6.18-18.49,9.38-27.62Z"/>
  <path class="st0" d="M232.45,537.06c-7.32-.27-25.98-.02-29.89-7.62-2.94-5.72,5.38-22.72,9.81-27.05,6.82-6.65,15.36-5.11,20.08,2.88,1.54,2.61,2.72,7.57,4.18,9.37.71.86,1.11,1.25,2.32,1.06.04-5.81-2.22-13.38-6.43-17.53-.67-.66-2.26-1.84-3.09-2.38-1.13-.73-3.44-.77-3.48-2.19l16.13-50.85-7.38,16.32-14.44,34.94c-9.24,1.04-13.3,7.96-16.81,15.61-4.86,10.59-10.16,21.58,4.28,26.64,8.02,2.81,18.45,4.25,26.54,1.32.12-.91-1.19-.49-1.81-.51Z"/>
  <path class="st0" d="M212.78,567.91c-1.61,4.06-6.19,14.27-6.6,17.92-.43,3.78,1.37,6.28,2.57,9.59.99.12.34-1.02.27-1.57-.26-1.99-.92-3.87-.75-5.92.52-6.53,5.55-14.21,5.69-21.17-1.47-.27-.86.35-1.17,1.14Z"/>
  <path class="st0" d="M118.11,487.29c-.45,12.18-.71,20.21-3.79,32.16-.89,3.44-2.48,6.98-3.27,10.28-.13.53-.68,1.7.28,1.59,7.5-13.83,10.06-30.35,7.29-45.85-.91-.12-.49,1.18-.51,1.81Z"/>
  <path class="st0" d="M105.64,488.89c-.02.74-.04,1.46-.54,2.06l1.03.25c1.74-10.08,2.12-20.31,3.12-30.49l-.26-15.36c-2.35,14.42-3,28.95-3.35,43.54Z"/>
  <path class="st0" d="M187.98,380.55c2.19-4.57,6.13-8.88,6.17-13.88-9.87,8.7-15.45,23.46-19.01,35.95-1.19,4.19-4.26,15.57-3.15,19.3,1.4,4.7,12.75,9.36,17.47,9.87-1.21-1.88-.52-6.19-1.71-7.66-1.52-1.88-9.72-4.38-10.56-6.89-.8-2.39,2.2-12.2,3.05-15.25,1.99-7.16,4.53-14.75,7.74-21.44Z"/>
  <path class="st0" d="M168.92,426.05c-2.91-4.46-.63-14.21.49-19.26,3.16-14.26,9.45-29.55,18.07-41.32,1.57-2.15,5.61-5.84,6.37-7.69.41-1,1.64-8.48,1.33-8.8-12.54-1.61-26.74.73-38.04,6.48-28.08,14.29-41.12,55.85-39.59,85.5,1.78,34.34,22.14,68.06,14.98,103.01-1.13,5.49-4.65,9.38-5.61,14.72,1.49,6.92,1.17,14.45,2.78,21.23.64,2.73,2.11,5.52,2.73,8.22,2.26,9.92.58,39.7-2.38,49.73-.78,2.65-2.36,5.26-3.06,7.88-1.61,6.02-.56,10.16,1.54,15.86l1.55-3.64c.05,4.45-.33,9.65-2.06,13.82-.53,1.27-5.77,9.11-5.22,9.62,8.49-2.41,17.23-2.91,26.04-2.61l-4.95-7.28c-5.22-9.8.32-12.92.31-21.63,0-3.7-2.29-7.19-2.65-10.42-1.28-11.68,2.05-37.5,4.94-49.25,1.63-6.61,5.23-12.72,5.93-19.6.65-6.35-.94-11.35.23-18.01,2.6-14.79,9.43-29.2,13.23-43.56,4.29-16.2.7-32.2-3.35-47.94-2.31-8.98-3.3-17.36-2.75-26.68l4.44,18.74c4.98,14.7,14.08,27.68,25.76,37.8.67.59,5.24,4.35,5.73,3.9l-1.09-56.75c-7.24-1.49-21.51-5.62-25.71-12.06ZM155.61,416.69l-.54-4.97c1-16.18,6.3-32.13,19.29-42.45-1.86,4.81-5.16,8.97-7.56,13.54-5.64,10.73-9.26,21.88-11.19,33.88Z"/>
  <path class="st0" d="M232.3,517.41c-7.32-.91-14.23.12-20.95,2.99-.11.97,1.1.43,1.67.37,3.16-.36,6.86-1.35,10.03-1.43,3.56-.09,10.93.4,13.79,2.4,1.86,1.3,2.1,3.07,3.68,4.39.8-5.26-3.5-8.12-8.22-8.71Z"/>
  <path class="st0" d="M232.89,528.81c-8.35-1.45-18.38-1.95-26.74-1.12l34.89,5.2c-.71-3.01-5.51-3.62-8.15-4.08Z"/>
  <path class="st0" d="M460.24,356.61c-.4-.96-.79-3.88-.95-4.01-.07-.05-1.32-.06-1.5.05-.39.25-3.2,6.89-4,8.24-3.97,6.67-10.24,14.85-16.41,19.54-1.08.82-6.55,3.96-6.77,4.3-1.25,1.95-1.15,7.17-2.04,9.55,17.59.37,32.54-12.08,38.98-27.8-3.06-2.75-5.69-6.05-7.31-9.88Z"/>
  <path class="st0" d="M482.56,364.51c-5.92-1.2-8.85-3.52-11.36-8.95-2.57-5.55-3.27-14.34-9.81-16.5,2.6,5.82-.2,10.17,2.67,16.35,3.4,7.32,13.25,12.57,21.21,10.38.52-.14,1.86-.17,1.12-1.19-.11-.16-2.75.14-3.83-.08Z"/>
  <path class="st0" d="M508.67,325.88c-1.63-2.25-3.88-8.8-4.96-11.71-.67-1.82-2.32-8.99-3.6-9.42-1.11-.38-7.69-.2-9.24-.03-12.2,1.36-23.71,10.09-31.53,19.03,2.41,3.17,4.08,5.27,4.62,9.39.14,1.12-.6,1.92-.11,3.15.53,1.33,2.33,1.89,3.28,3.02,6.06,7.25,4.45,18.94,14.6,22.39,4.4,1.49,6.57.36,10.66.23,1.18-.04,2.35.6,3.62.58,6.66-.07,11.79-6.51,10.7-13.04l-3.38,3.12c-.77-.86,1.09-2,1.74-2.95,3.29-4.86,2.23-6.77,3.34-11.77.35-1.56,1.61-4.78,3.52-5.07-.1,3.24-1.87,6.16-.51,9.38,3.25-3.3,4.59-9.29,1.31-13.04-1.32-1.5-2.91-1.7-4.04-3.26ZM473.93,335.19l-.04,5.42c-3.32-8.12.52-15.38,9.37-16.14l-3.66,2.33c-2.44,2.38-5.09,4.85-5.67,8.39ZM485.87,355.2c1.22-1.56,3.61-2.3,3.65-4.68-12.95-.85-12.38-24.71,2.08-18.76-.24.91-1.97.12-3.02.3-.45.08-3.11,1.13-3.22,1.26-.88,1.06,2.23,1.63,2.88,2.06,7.54,5.07,6.65,17.05-2.36,19.81Z"/>
  <path class="st0" d="M250.48,468.48c-.38-2.74-.31-5.97-.65-8.73-.09-.76-.27-3.16-.97-3.45-2.57,10.47-7.77,20.52-10.56,30.86-.61,2.24-1.82,6.41-1.91,8.56-.09,2.04,3.38,6.8,4.37,9.58.79,2.22,1.22,6.36,1.94,7.96.41.91,7.93,3.48,9.53,4.01,7.7,2.57,16.08,4.53,24.23,4.68-15.03-13.1-23.27-33.96-25.98-53.47Z"/>
  <path class="st0" d="M419.44,318.74c-7.18-13.05-14.58-41.29-13.26-56.02l2.08-7.56v15.89c0,2.05,1.68,6.19,1.94,8.48l2.22,5.32c-2.57-14.81.14-28.93,2.08-43.51.2-1.49-.21-3.17.03-4.66.23-1.4,1.43-2.15,1.53-3.17.2-2.03-2.04-7.18-2.08-9.62-4.52,5.1-6.66,11.84-8.59,18.23l-2.34,13.55c-2.75-14.7-.13-28.29,4.44-42.19.17-.51.71-1.68-.27-1.57-10.72,22.16-5.92,47.76-12.63,71l-3.52,7.16c1.72-10.29,2.34-21.11,1.03-31.53-.09-.71-.37-1.65-1.03-.77-.86,21.14-5.2,42.11-10.43,62.52l-1.03-5.47c-.62-7.79-.42-15.51-.34-23.31,0-.68.46-1.15-.7-1.43-3.42,18.28-3.44,38.39-14.35,54.17-1.07,1.16-.81.3-.56-.56.65-2.26,1.64-4.36,2.15-6.7,2.11-9.57,2.02-18.44,1.04-28.14-.97.62-.64,1.5-.79,2.34-2.67,14.78-3.98,28.77-14.84,40.38.04-2.43,1.49-5.19,2.2-7.7,2.07-7.36,3.43-14.85,3.79-22.51-1.71-.41-.85,1.54-1.16,2.74-2.28,8.82-5.47,17.59-11.08,24.87.88-5.52.53-10.83.26-16.41l-1.03-4.95c-.28,3.14-.62,6.29-1.3,9.38-.5,2.28-3.35,9.64-3.35,10.68-.01,3.58,13.38,18.52,16.62,21.37,19.15,16.83,44.46,24.22,68.11,11.58,3.09-14.95,5.54-30.17,6.36-45.43-3.38-5.63-7.95-10.55-11.18-16.43ZM404.08,372.4l-.53-1.84c1.07-25.17-2.57-50.19-4.15-75.27l4.54,23.33c2.22,17.83,3.4,35.99.14,53.78Z"/>
  <path class="st0" d="M421.22,415.34c-4.54,10.18-8.38,20.55-16.09,28.97,7.41-17.41,12.75-35.65,16.66-54.19-17.36,5.81-35.93,8.84-53.31,1.49-14.63-6.18-26.86-18.66-35.45-31.75-2.33-3.56-1.97-6.85-5.51-2.04,1.55-3.43,2.41-5.46-.79-8.33l-4.94,5.2c.04-1.18,1-1.82,1.44-2.98,1.71-4.47,1.95-6.81-.66-11.09-10.69,11.46-15.73,28.71-19.28,43.76-2.96,12.54-4.28,25.67-7.19,38.14-2.18,9.35-3.82,12.03-13.15,14.98-6.7,2.12-13.97,2.85-20.76,4.66-1.06,20.1,3.43,42.62,14.07,59.94,6.18,10.06,14.69,19.53,26.78,21.93.78-8.7-6.08-14.43-9.1-21.89-5.54-13.7-5.65-29.72-1.67-43.87.15-.54.13-1.58.88-1.45-1.34,15.01.27,33.65,8.12,46.85,1.85,3.12,5.76,6.77,6.35,10.33.48,2.94.25,6.43.73,9.69,1.55,10.51,4.17,21.44,6.83,31.72,2.55,9.84,11.29,33.55,10.22,42.31-.69,5.64-2.11,8.46-1.37,15.01.68,6.05,3.64,9.81,5.31,15.01,2.47,7.68.4,32.92-.84,41.86-.88,6.34-4.09,14.98-3.59,20.94.75,8.9,12.75,10.35,9.77,22.76-.73,3.04-3.1,5.5-2.97,8.74,9.07-4.29,19.04-6.79,29.17-6.26-2.79-4.62-7.81-5.94-11.47-10.14-6.34-7.29-3.72-10.98-4.73-19.23-.41-3.36-2.27-6.62-2.56-10.46-.96-12.3-.22-32.02,2.34-44.08,1.64-7.76,5.45-12.42,6.01-21.08.6-9.31-2.09-12.74-3.11-20.85-2.74-21.62,4.67-39.95,5.72-60.44.33-6.37-.48-12.76-1.55-19.01,3.25,3.38,3.74,8.4,4.71,12.74.13.6.19.95.76,1.31,4.38-3.04,9.57-4.54,14.16-7.19,12.42-7.19,19.29-18.1,22.83-31.87l2.34-12.51c-.19,4.64.84,9.14.52,13.8-.68,10.06-5,21.37-11.97,28.67.2.63,1.11.14,1.56,0,10.33-3.38,18.72-12.72,22.65-22.67l3.39-12.49c2.21,8.67.54,17.55-3.55,25.36-5.87,11.21-19.74,23.2-8.96,36.4,7.58,9.28,26.95,20.93,31.52,29.95.53,1.05.87,4.88,1.87,2.39l2.55-4.99c-.54,5.46-2.05,10.86-1.55,16.4.38,4.2,2.84,8.1,3.14,11.97.66,8.73-8.48,30.11-14.1,37.01-2.62,3.21-6.63,5.27-7.28,9.91-.37,2.61.27,5.9,0,8.6-.57-.21-2.75-2.36-3.12-2.09-.12.09-.4,2.55-1.57,2.61,1.85-8.42-7.45-10.25-11.15-2.55-3.2,6.65-1.47,15.86,4.73,20.18,7.06,4.92,9.97.06,13.71-5.64l-2.6.26c5.42-9.48,17.88-3.24,20.71-15.76,1.04-4.59,1.08-9.28,2.36-14.32,2.9-11.44,7.55-24.97,13.12-35.33,3.7-6.88,7.02-9.22,7.58-17.95.97-14.88-4.1-14.99-11.69-24.82-10.26-13.3-11.83-26.5-18.3-41.09-1.49-3.35-7.45-14.78-10.69-15.9-2.58-.9-5.05,2.36-5.7,1.81,16.12-18.72,23.23-42.14,17.36-66.6-1.81-7.54-5.43-14.42-8.51-21.45-1.33-.21-.81.11-1.08.73ZM329.59,391.43c2.11,4.96,4.07,10.04,6.51,14.85,2.32,4.6,5.34,8.89,7.56,13.54-12.67-11.1-18.8-27.64-19.26-44.29l5.19,15.9ZM326.02,557.05c-.37-5.11-1.37-10.16-1.11-15.3l2.86,8.85c3.2,11.76,4.08,23.8,4.42,35.95l-6.18-29.51ZM333.76,674.1c-.91.12-.49-1.18-.52-1.82-.19-4.52.17-8.94.66-13.41l1.94-8.21c.41,7.89-1.43,15.63-2.08,23.44ZM329.6,479.22l6.78,9.62c3.38,3.5,7.05,6.72,9.88,10.69-8.2-3.2-16.46-11.08-16.66-20.31ZM359.81,497.21c-.6.52-4.76,3.8-5.21,3.38l17.71-25.52c-1.41,8.04-6.31,16.8-12.49,22.15ZM386.39,448.2c-2.78-7.38-6.23-14.44-9.82-21.44l-9.46-16.32c12.1,11.62,21.1,27.09,21.35,44.29l-2.06-6.53ZM429.3,557.43c.81,1.22,1.9,2.78,2.38,4.12-7.97-8.62-19.63-14.39-24.47-25.53,7.75,7.19,16.13,12.47,22.09,21.41Z"/>
  <path class="st0" d="M96.75,501.63c1.4-16.17.82-32.52,2.67-48.66,1.93-16.8,6.85-33.11,11.39-49.3-.79.12-1.14,1.77-1.43,2.47-3.57,8.78-6.62,18.49-8.73,27.74-4.88,21.34-5.17,42.62-4.37,64.36.05,1.24-1.54,3.79.47,3.39Z"/>
  <path class="st0" d="M228.54,199.93l-6.76,32.83c1.45-1.26,2.02-4.11,2.61-5.98,2.78-8.88,3.72-17.57,4.15-26.85Z"/>
  <path class="st0" d="M236.87,239.54c.52.63-2.07.4-.51,1.29,1.91,1.1,5.14.24,6.13,2.2.36.71,1.67,7.29,1.69,8.25.06,3.37-2.23,7.11-1.57,10.65l2.68-5.91c1.25-1.32,1.97-3.45,3.94-3.88,1.53-.34,4.39.27,5.55-.59.46-.34.33-1.2.64-1.53.6-.66,1.54-.93,1.92-1.77.35-.77.19-4.12-.16-5.07-.26-.19-5.83,1.63-6.22,1.82-1.99.99-2.13,7.59-5.21,8.59.96-6.99,2.13-14.16,5.73-20.32,1.78.35,5.2,2.35,6.79,1.32,1.15-.74-.28-2.62-.03-2.88.08-.08,1.25-.03,2.13-.74,2.46-1.98,1.95-5.02-1.6-3.44.89-1.28,1.7-1.58,1.59-3.38-.09-1.47-1.19-.45-1.54-.81-.5-.51,1.18-5.33-3.44-1.02-.48-3.87-4.04.13-3.41,2.8.14.6,1.29-.01,1.06.85l-3.08.05c-1.14,2.39,1.69,4.22,1.52,5.36l-3.64,7.09-1.05-22.4c6.06,2.21,3.88-2.73,4.16-3.12.1-.15,2-.26,2.48-.66.94-.8.83-3.69-.9-3.53-.49-.53,1.95-.73,2.1-2.36.25-2.68-2.71-2.03-3.08-2.39-.23-.22-.18-2.4-.63-3.02-1.31-.4-2.08.37-3.08,1-.04-.44.12-1.09-.1-1.44-.27-.42-2.73-.88-3.01-.63-.39.35-.31,2.93-.03,3.63-2.81-4.1-4.04-.76-3.13,2.61-6.44-2.17-2,3.14-2.13,3.84-.16.85-2.08,1.08-1.27,2.92.77,1.76,3.1,1.41,3.33,1.64.33.33-.22,3.74,2.88,3.09.58-.12-.04-1.3.83-1.07.09,7.21,1.45,14.43,1.07,21.65-.19,3.55-1.27,7.07-1.07,10.65l-2.47-8.73-.66-6.38-2.08.52c.18-2.25-.91-5.93-3.65-5.73-.22.65-.42,3.5-.53,3.65-.1.12-2.28-1-3.12-.52-.12.96.54,1.63,1.05,2.33.91,1.26,2.24,1.78,3.11,2.87l-4.69-.51c1.13,1.56,2.49,3.48,4.69,3.13Z"/>
  <path class="st0" d="M249.12,305.71c.63-.03,1.94.39,1.82-.52-10.9-1.28-21.84-2.9-32.29-6.25,7.28,6.65,20.94,7.15,30.48,6.77Z"/>
  <path class="st0" d="M278.02,180.65c.52-2.35-2.3-2.17-3.12-3.64,9.42.36,1.61-3.52-1.32-6.24-7.15-6.65-12.16-13.34-16.51-22.07-.31-.62-.35-1.85-.42-1.92-.04-.04-1.1-.19-1.03.25,1.05,1.75.27,3.88.51,5.75.87,6.96,6.36,11.14,10.41,16.16.41.51,2.45,2.97,2.09,3.37-6.06-5.91-15.02-11.16-16.15-20.32-1.4-.13-.84,0-1.03.78-.97,4.03-.21,5.75,1.65,9.28,4.5,8.54,14.89,18.22,24.9,18.59Z"/>
  <path class="st0" d="M254.08,140.3l2.59-5.5c-.1,8.72,2.73,17.81,9.11,23.97,1.37,1.32.2-.46,1.3-.53.38,2.24,5.67,6.21,7.57,6.76,1.62.47.22-2.48-.03-3.1-1.53-3.86-7.54-11.02-7.54-14.86v-7.82c0-.39.85-1.53.53-2.34h.52s0,8.59,0,8.59c0,4.75,8.7,18.56,13,20.87,4.57,2.46,13.36,2.39,17.7-.58,5.58-3.82,14.99-22.94,16.11-29.74.99-6.06-1.09-10.1-1-15.58.04-2.49.93-5.35,1.07-7.8.18-3.15-.5-15.3-2.35-17.44-2.87-3.33-19.95-3.96-24.47-3.65-4.85.33-22.76,3.98-25.3,8.04-2.91,4.65.73,18.26-4.47,21.06-3.23,1.74-3.31-2.79-5.17-5.1-5.33-6.59-10.62-.32-9.47,6.87.31,1.92,5.58,14.89,6.73,16.2.71.81,2.43,2.42,3.58,1.67ZM297.03,155.1c-3.9,3.33-8.17,3.5-12.2.24-.47-.38-3.54-3.84-3.67-4.14-.1-.23-.13-.85.25-.77,5.02,5.87,13.95,5.71,19.01,0,.48.51-2.76,4.14-3.39,4.68ZM305.11,146c-.85.4-2.08.06-2.52.34-.37.23-.98,3.46-1.13,3.57-.07.05-.98-.55-1.68-.42-3.72.7-4.62,2.41-9.53,2-5.76-.49-8.5-5.77-11.56-6.19-2.37-.32-1.25,2.25-2.74,3.04-1.06-2.09-.78-3.08,0-5.2.9-.22.33.79.56.98.08.07,1.18-.46,1.77-.47,6.51-.13,12.1,1.86,18.27,1.59,2.2-.1,8.84-.31,7.8-3.15,1.99.25,2.54,3.08.77,3.92ZM311.37,110.82c.07.13,1.99-1.06,1.56,1.56l-1.56.26,1.56,2.87c-1.19-.82-1.38-2.33-3-2.99-3.62-1.46-10.71.79-11.06,5.33l4.27-1.98c4.79-1.28,6.17,1.1,9.8,3.3.23,1.82-.45.55-1.8.49-4.1-.16-8.18.05-12.26-.51-1.86,1.86,6.14,14.8,7.8,16.84.38.47,1.16.24,1.6.71,2.88,3.05,2.07,6.12.49,9.55l.05-4.94c-.37-1.53-1.95-4.03-3.56-4.35-1.56-.31-2.64,1.99-3.8,2.77-.46.31-4.38,2.58-4.64,2.66-1.36.44-2.81.19-4.2.22l1.04-1.55c-2.34-1.7-7.48-1.76-8.8-3.98-.69-1.17-.09-2.32-1.34-2.3-2.52.04-8.26,3.86-9.66,6.01-1.6,2.46-.9,3.89-.66,6.41.06.57.61,1.77-.37,1.67-2.05-6.7-.73-12.15,6.05-15.04,1.58-.67,3.56-.74,4.84-1.41,1.08-.57,2.04-2.9,3.16-2.05-1.84,1.48-1.52,6.26.89,6.93,3.34-.24,6.49,1.47,9.81,1.21.93-.07.76-.9.87-.94.82-.27,1.89.58,3.04-1.44,1.99-3.49-4.28-10.14-4.71-15.14-.4-4.7,1.71-6.47,2.08-10.68l.77,1.04c2.92-2.53,7.02-2.89,10.68-3.64l-1.56,1.56c5.01-.44,2.2.83,2.61,1.57ZM280.87,100.38c3.4.01,8.02,1.01,11.46,1.08,5.87.12,11.66-1.19,17.47-.02.11.98-1.09.42-1.67.37-3.88-.35-5.52.45-9.02.66-8.07.48-16.15-1.32-24.22-1.3,1.9-.03,4.21-.81,5.97-.8ZM269.69,112.65c4.14-4.57,6.51-5.44,12.75-4.95,4.8.38,6.93.91,7.04,6.25-5.76-3.58-10.5-1.84-16.28.12-.74.25-2.58,1.43-2.73,1.43-2.28-.02,1.5-1.87.78-2.59-.31-.31-1.84,1.39-1.56-.26ZM265.53,111.35l.91,4.03c3.03,5.31,6.67,1.62,10.65.5,3.64-1.03,10-2.03,10.31,3.28-.64-.17-1.05-.77-1.79-.81-4.51-.25-10.17.71-14.63.83-4.37.12-5.96-3.95-5.44-7.83ZM248.6,123.86c.32-.68,1.56-1.15,1.76-1.93.18-.71-2.25-6.21-4.07-3.49-.78,1.17-.07,2.87-1.08,3.34-1.85-3.96,1.23-8.79,4.97-4.71,1.66,1.81,2,5.39,3.88,7.32-1.28-.24-2.67-.87-3.69.34-.34,2.54,2.45,3.55,2.64,5.92-.72.72-6.11-3.15-4.42-6.77Z"/>
  <path class="st0" d="M214.58,230.52c1.48-5.97,3.23-12,4.06-18.08l-5.96,16.17-7.05,9.35,5.97-4.18,2.99-3.27Z"/>
  <path class="st0" d="M201.46,439.09c7.39,4.21,17.4,5.76,25.51,2.86,3.03-1.09,5.33-3.44,8.34-4.43l-.25-1.03c-10.38,5.02-21.04,5.35-32.04,2.33-.53-.14-1.66-.74-1.56.26Z"/>
  <path class="st0" d="M206.16,382.03c-.18-5.58-3.65-11.89-4.19-17.7-.32-3.41.23-7.22,0-10.68l-1.56,8.08c-.75,7.95,1.95,15.12,5.21,22.14.87.14.55-1.25.54-1.84Z"/>
  <path class="st0" d="M95.18,429.2c.21-.2,1.18-4.45,1.56-5.48,3.44-9.45,6.91-18.85,12.09-27.51.55-.91,4.88-6.81,4.58-7.13-9.9,10.98-14.84,25.92-19.26,39.87-.07.44.99.29,1.03.25Z"/>
  <path class="st0" d="M202.91,482.71c4.17,1.21,8.36,2.12,12.73,1.59.79-.1,3.22-.53,3.52-1.42l-17.71-1.04c-.12.75.92.72,1.45.88Z"/>
  <path class="st1" d="M506.54,311.86c-.69-2.98-.09-6.51-1-9.42-.49-1.57-1.82-2.72-2.49-4.28-1.62-3.77-3.88-14.62-4.14-18.78-.49-7.67,2.15-14.92,4.16-22.14.87-.46,3.01,1.17,3.12,1.04.96-1.17-2.23-1.69-2.55-2.14-.14-.2.6-3.36.47-4.89-.14-1.58-.8-3.86-1.46-5.31-1.35-2.94-7.05-7.93-7.4-9.8-.21-1.12.21-.66.79-.77,4.41-.87,9.53-1.04,12.76-4.7-4.82,1.48-11.65-1.66-15.78-4.28-2.73-1.72-10.68-9.36-11.82-12.15-.1-.24-.14-.85.25-.77,6.37,8.14,16.08,14.73,26.83,10.93l-5.35-1.15c-5.76-2.49-10.62-7.08-14.29-12.13,7.53-11.21,8.13-24.38,4.67-37.13-.57-2.1-2.93-11.97-5.61-9.5-.79.73-4.92,10.73-6.29,12.99-3.3,5.42-8.08,9.8-11.43,15.16-8.77-5.04-19.51-6.47-28.9-2.09-1.88-9.74-5.86-18.89-8.22-28.52-.27-1.32-2.75-1.6-3.66-1.07-.54.32-6.25,9.2-6.96,10.48-5.43,9.69-7.24,19.94-5.73,31.01-8.95,4.48-17.23,9.98-24.14,17.27-11.44,12.05-22.98,30.69-31.41,45.18-4.56,7.85-6.96,16.55-10.99,24.43-.19.37-.25,1.75-1.09.74-.16-.19.45-1.18.36-1.74-.82-4.87-3.77-6.23-6.79-9.28-2.52-2.55-.04-2.12,2.01-.97,2.05,1.14,3.09,3.13,4.68,4.19.52.35.42.85,1.03-.02,5.94-16.18,16.28-29.92,25.09-44.54l-8.78-15.01c-2.79-10.64-8.39-33.45-16.84-40.48-6.62-5.51-20.05-9.55-28.21-13.47-3.31-1.59-13.8-6.06-14.11-9.82-.1-1.21,4.65-8.03,5.55-9.88,2.93-6.02,4.77-11.89,4.22-18.69-.28-3.48-2.61-9.07-.75-12.23.69-1.18,9.27-5.03,11.34-6.38,6.75-4.38,19.96-15.28,11.32-23.63-10.14-9.81-46.56-8.47-60.12-6.43-14.65,2.2-42.01,12.43-51.36,24.18-12.24,15.38,3.94,23.5,17.63,25.33,1.5,4.46,2.38,10.88,7.88,11.92.41.57-3.87,6.73-4.69,7.54-3.7,3.62-20.42,8.48-26.39,11.12-1.21.53-6.92,3.04-7.24,3.73,6.56,11.63,5.78,25.68-3.34,35.71-.83.91-3.16,2.33-3.43,2.85-.36.69,1.06,3.52.79,5.43-.64,4.61-4.31,5.47-6.78,7.83-3.4,3.25-5.15,8.06-11.43,6.28,1.66-1.6,4.27-1.95,6-3.38,1.7-1.41,1.96-3.58,3.09-4.72,1.96-1.96,4.84-1.17,6.37-5.09,1.13-2.91.36-4.02-2.07-5.31-1.48-.79.54-1.18.92-1.54,4.08-3.92,7.65-6.35,10.03-11.88,4.81-11.16.95-21.58-6.11-30.61,3.52-1.54,3.97-5.9.1-7.39-2.73-1.05-9.75-1.65-12.84-1.75-2.35-.07-4.34.66-6.56.31-.96-2.93-2.69-6.1-3.5-9.01-.37-1.32.13-2.69-.51-4.18-.54-1.26-1.77-1.36-2.23-2.07-2.96-4.51-3.25-7.2-8.07-11.07-2.21-1.77-10.16-7.43-11.5-2.62-.96,3.43,6.05,5.01,8.6,7.09,1.78,1.46,4.7,5.14,5.14,7.37.29,1.49-.16,3.16.22,4.47.2.68,1.81,2.03,2.44,3.29.45.92,2.93,7.19,2.67,7.49-2.4.44-9.05,1.1-8.86,4.39.08,1.39,1.72,2.54,1.48,4.09-.11.71-5.62,12.47-6.11,13.09-.63.8-5.63-.4-7.61,3.96-2.17,4.77,1.31,5.72,1.21,7.47-.1,1.66-3.79,6.23-4.06,8.48-.23,1.96.89,3.11.87,4.55-.03,1.89-1.81,4.89-1.86,6.32-.11,3.11,2.71,3.82.16,7.54-6.69,9.79-17.67,11.81-18.97,25.83-1.33,14.32,5.49,31.32,21.68,32.5,7.37.54,22.51-7.65,27.26-13.24,4.31-5.07,6.27-9.09,11.75-13.78.46-.39,3.56-3,3.89-2.62-.09,11.35,1.15,22.76.55,34.15-.28,5.2-3.08,15.43.05,19.7,1.16,1.58,5.92,4.41,6.19,6.36.19,1.34-1.56,6.1-1.96,7.92-.39,1.76-.08,4.24-.79,5.98-.86,2.12-4.31,5.03-5.49,8.06-1.25,3.21-.99,6.42-1.82,9.64-.86,3.34-3.05,7.15-3.98,10.61-20.78-1.98-39.38,3.27-55.25,16.63-1.36,1.15-3.41,3.98-4.72,4.66-5,2.61-8.51,2.62-14.19,6.65-39.6,28.09-28.53,76.35-44.76,114.16-3.08,7.18-7.84,15.42-14.46,19.67-.12.96,1.1.46,1.58.28,11.75-4.37,21.1-17.91,24.93-29.28.27-.81-.46-1.49,1.09-1.22-.76,4.16-.92,8.45-1.71,12.61-5.05,26.4-25.38,46.94-15.34,75.58,1.44,4.11,3.66,8.67,6.63,11.86-2.85-9.93-4.27-20.04-2.45-30.33,1.73-9.75,7.54-22.11,12.6-30.65.34-.57.53-1.43,1.31-1.55-2.78,8.36-6.78,16.25-8.69,24.92-3.9,17.69-2.25,41.51,11.81,54.55.53.49,10.1,7.54,9.38,5.21-10.84-12.54-11.73-29.31-4.26-43.87l2.69-4.86c-2.59,10.8-4.21,24.48,4.69,32.82-7.52-19.04,4.05-35.7,13.82-51.05l8.06-17.21v25.27c0,5.63-6.75,12.31-7.29,18.76-.36,4.37,1.27,6.69,1.93,10.56,3.75,21.93,6.93,39.67,3.12,62.23-1.52,8.98-6.16,14.76-5,24.59.8,6.75,4.91,8.31,1.44,16.14-1.09,2.46-3.58,5.07-4.37,7.61-1.26,4.03-.62,9.07-.78,13.29-.15,3.92-2.36,4.1,1.92,7.47,7.66,6.03,23.36,5.99,32.48,4.02,6.7-1.45,6.11-2.94,4.94-9.14-.88-4.63-3.47-15.01-5.58-18.91-1.62-3-5.04-5.93-5.59-9.51-.73-4.77,2.32-10.5,2.37-15.69.04-4.39-2.07-7.78-2.42-11.88-.98-11.36,1.78-33.66,4.64-44.9,2.08-8.17,6.32-15,6.86-23.88.28-4.58-.93-9.3-.54-13.57.59-6.38,5-18.11,7.28-24.5,4.63-13.02,10.29-24.2,17.98-35.67l11.65,9.62c-3.53,6.99-7.18,15.04-4.64,22.97.31.96,1.26,1.69,1.49,2.68.36,1.58-.2,2.76.69,4.52,1.91,3.75,14.05,5.96,18.16,6.06-2.06,7.18-3.52,14.57-6.37,21.5-3.64,8.83-10.52,14.54-6.22,24.71,4.59,10.86,10.56,19.52,14.01,31.32,3.39,11.59,7.37,27.54,8.48,39.46.71,7.57-1.35,15.35,5.72,20.85,1.88,1.46,5.24,2.33,6.56,3.86,2.85,3.31-.75,6.16-.83,9.7-.05,2.24,1.3,4.77,1.58,7.01-10.65-.79-21.33-1.74-32.03-1.55l-4.43,1.03,37.16,4.26c1.07.33,1.28,2.57,2.13,3.6,5.51,6.7,31.13,6.82,37.99,1.98.85-.6,1.39-1.94,1.74-2.02,1.84-.45,5.98.17,8.25.03,4.4-.26,8.85-.94,13.26-1.07l-9.12-1.55-13.73-.6c-2.89-5.79-4.82-13.8-8.19-19.17-3.39-5.41-10.44-7.19-13.99-12.58-2.67-4.05-2.84-9.12-5.4-13.36-1.76-2.91-4.17-4.86-5.76-8.31-7.26-15.76-11.92-41.61-9.91-58.74,2.75-23.34,17.54-32.09,24.95-52.69,1.68-4.68,2.44-9.86,4.41-14.3,14.32,4.33,29.63,5.35,44.54,5.7,1.06,7.08,2.51,14.11,4.21,21.06,2.7,11.04,12.17,35.74,11.41,45.37-.85,10.76-2.21,16.67,1.84,27.35.64,1.69,2,3.22,2.51,4.79,2.63,8.06.21,35.59-1.37,44.83-1.48,8.71-5.27,15.36-1.1,24.33,1.95,4.2,6.95,5.15,7.9,9.81.93,4.52-2.58,6.71-3,10.82-.38,3.67,1.28,6.12,1.04,9.65-15.86-1.34-31.71-2.69-47.67-2.09-.63.02-1.94-.39-1.81.51,13.42,2.66,27.19,4.41,40.87,5.24,2.04.12,8.93-.55,9.94.48,1.53,1.57.15,3.56,4.47,5.95,8.29,4.6,28.45,5.33,37.21,1.91,9.37-3.65.37-9.06-.8-15.13,11.42,1.12,22.93,1.47,34.37.51l-4.58-1.41c-10.52-1.6-21.13-2.49-31.8-2.32-1.75-3.71-2.93-8.68-5.59-11.86-2.04-2.43-5.78-4.2-8.06-6.53-6.35-6.47-3.91-8.83-4.73-16.63-.54-5.19-3.15-10.47-3.58-16.22-.62-8.34.76-35.74,4.06-42.82,3.7-7.95,4.9-10.28,5.3-19.71.42-9.89-3.73-15.76-3.97-24.4-.44-16.04,3.01-31.97,5.93-47.63.87-1.87,13.02-8.89,14.88-8.51.35.07,3.68,4.29,4.8,5.23,4.84,4.08,10.99,6.42,16.12,10.45,4.89,3.84,9.56,8.67,14.33,12.76,5.73,4.92,18.25,13,20.49,20.15,1.11,3.55.38,7.38.93,11.05.51,3.37,2.5,6.68,2.94,9.56.99,6.43-7.23,26.63-11.42,32.09-3.77,4.91-9.1,8.21-9.29,15.46-19.31-12.17-39.79,22.38-25.54,36.23,9.77,9.49,27.35.95,33.78-8.45,1.04-1.52,2.36-4.91,3.47-5.91,1.94-1.75,9.11-3.25,12.23-5.49,6.92-4.98,6.53-16.05,8.41-23.9,2.22-9.29,6.36-23.07,10.81-31.39,2.69-5.02,7.87-9.83,9.23-15.26,1.22-4.89,1.37-16.98-.27-21.67-2.08-5.96-8.18-10.22-11.99-15.11-13.27-17.02-12.74-38.7-25.46-55.86-.23-1.44,5.25-11.01,6.26-13.34,6.42-14.83,7.98-28.74,5.5-44.76-2.18-14.06-8.68-27.33-9.75-41.57h9.64c2.05,0,9.2-2.71,11.39-3.72,10.56-4.91,19.79-14.15,24.37-24.86,6.67.79,13.37.96,19.56-2.06,1.42-.7,2.87-2.32,3.67-2.59,4.69-1.58,7.5-.73,11.08-5.59,3.36-4.57,1.81-7.66,3.25-11.86,1.08-3.14,5.65-4.76,6.51-11.72.88-7.17-2.88-8.24-6.03-12.98-1.36-2.05-4.4-8.88-4.94-11.21ZM348.89,204.86c.76,13.04.21,28.67-.54,41.71-.23,3.97.08,7.78-1.05,11.72l-.78-67.74c1.1,4.51,2.09,9.68,2.37,14.31ZM210.54,194.16c-1.24,1.74-4.76,5.54-7,5.24l3.11-3.4c4.3-4.96,6.55-11.37,5.51-17.99-.71-4.51-3.83-8.4-4.2-13,6.78,8.35,9.18,19.86,2.57,29.14ZM176.67,132.76c-1.75-2.19-4.19-3.92-6.51-5.47-.39-.26-5.71-2.52-4.64-3.43,4.38-1.37,16.54,9.18,15.62,12.74-.82,3.14-3.9-3.12-4.47-3.84ZM181.12,143.44c.04-.46,2.24-1.04,2.58-.8,1.12.81,3.95,11.26,4.74,13.21,0,.33-1.47.85-1.79.86-.72.02-5.6-12.55-5.54-13.27ZM184.26,155.91l-4.68,1.29c8.46,1.3,16.54,1.3,25,0,.44-1.81-2.19-.87-3.41-1.02-.64-.08-1.4-.54-1.54-.54h-9.12v-1.04c4.28.31,9.07-.42,13.28,0,1.15.11,5.11.78,5.42,1.91.2.71-.78,2.75-1.28,3.28-2.45,2.57-19.4,2.42-23.44,2.13-3.88-.28-7.96-.64-8.57-5.22.26-.34,7.52-2.25,8.33-.78ZM165.64,177.39c3.45-1.48,17.23,1.59,18.41,5.85.22.8-.64,4.56-.84,4.7-1.54,1.06-5.62-4.24-4.16-5.73.54-.55,3.3,1.28,3.64,0-1.12.06-2.28-1.16-3.1-1.36-1.43-.35-1.78,3.15-1.58,4.21.25,1.37,1.66,1.53,1.56,2.88-.66.58-13.33-1.88-14.86-3.11-2.15-1.72-1.69-6.32.93-7.44ZM163.93,250.75c-4.26-1.55-8.16-5.06-10.16-9.12-2.04-4.15-3.02-10.3-1.02-14.61.29,9.17,3.74,19.51,12.76,23.45.12.96-1.09.45-1.58.28ZM179.58,261.41c.52-2.08,2-3.71,2.85-5.74,1-2.39,1.54-5,2.48-7.41l1.95-4.04c-.3,6.66-2.04,12.74-7.28,17.19ZM183.61,240.23c-3.33,2.44-11.11,2.7-14.62.77-2.9-1.6-9.21-9.48-9.21-12.67v-8.08c2.16,1.2,1.35,3.98,1.92,6.16,2.07,7.95,9.98,16.16,18.78,12.2,3.86-1.74,3.6-7.09,5.33-8.73.34-.33.95-.53,1.06.03,1.53,2.21-1.23,8.84-3.26,10.33ZM167.6,219.73c.41.81,2.28,1.47,3.13,1.81,4.44,1.77,9.27,2.64,14.05,2.36.55.47-1.17,2.03-1.58,2.32-3.32,2.28-8.62,2.37-12.48,1.85-.07.75,1.23.84,1.81,1.04,3.91,1.36,7.26,1.32,11.2,0,.19,4.15-5.08,7.1-8.66,7.27-5.07.24-12.88-8.73-12.16-14.04l3.12,4.94c.72.84.56-.51.42-.93-1.5-4.35-4.82-7.98-4.86-13.15,0-.85.8-1.67.67-2.51-.13-.87-1.85-2.15-1.89-3.71-.05-1.99,1.96-5.54,1.95-7.31,0-.98-.75-1.85-.88-2.74-.53-3.58,3.29-6,3.59-9.45l.72-.09c7.79,2.64,17.87,3.79,25.27,7.08,1.86.83,4.47,2.48,4.69,4.73.21,2.03-.92,4.81-3.37,4.43-7.97-.42-16.35-4.39-24.03-5.2-.57-.06-1.88-.47-1.75.45,7.9,2.37,16.92,6.49,25.24,6.8,2.56.09,5.74-.88,7.8-.52.45.08,3.82,1.64,4,1.89.83,1.22-.76,5.01-2.15,5.63-11.03.85-22.02-.68-32.81-2.85.59,1.23,2.22,1.62,3.37,2.09,1.92.78,8.1,2.59,9.91,2.59,2.38,0,8.06-.46,9.9,0,1.85.46-1.38,2.08-.75,3.86.41,1.16,2.08.3,2.05,1.35-8.63,3.6-16.74,1.22-25.52.01ZM488.99,170.23c4.9,13.29,3.19,26.49-1.29,39.6-.85-.7-3.98-4.69-3.85-5.39.04-.2,1.81-2.36,2.28-3.47,2.77-6.52,2.11-12.94,1.82-19.79l-4.43,11.97c-1.09,1.49-2.78,7.7-4.83,6.64l-5.84-5.35,16.14-24.21ZM463.47,201.74c7.36,6.56,12.53,15.21,20.03,21.65,2.49,2.14,5.6,3.63,7.94,5.6.59.5,1.44.58,1.18,1.68-15.81-4.91-23.48-20.77-33.85-32.3.37-.35,4.16,2.9,4.7,3.37ZM480.65,240.05l-4.32-2.18c-5.45-3.24-9.92-7.77-13.9-12.67.52-.85,1.15.17,1.56.52,1.4,1.17,2.47,2.66,3.99,3.82,2.7,2.07,7.56,4.69,10.9,5.25.51.09,2.4.46,2.29-.47-8.56-3.45-15.12-12.43-19.54-20.32-1.27-2.26-3.72-6.85-4.37-9.19-.27-.99.73-.97.98-.72.06.06.25,1.19.61,1.72,7.34,10.89,13.42,22.16,25.98,27.71,1.58.7,5.17,1.33,6.22,2.12.78.59,2.27,4.28,3.24,5.62,2.18,3.01,5.61,5.48,6.12,9.51.72,5.74-4.1,12.01-4.13,17.93-1.34-.79-.94-3.19-1.28-4.71-.84-3.73-2-7.36-3.03-11.03l-1.94-4.31c2.76,16.2,4.44,32.75,9.39,48.45-12.2-1.35-24.23,3.34-34.03,10.26l-9.99,8.76c-13.62-25.16-24.2-51.98-32.46-79.39,7.48-7.79,17.88-12.02,27.78-15.83,6.91,10.36,16.43,20.07,29.94,19.15ZM457.38,336.37c-3.43-.48-3.6-7.66-.88-8.18,2.96-.57,4.93,7.54.88,8.18ZM452.52,349.17c-.11,1.18-2.78,6.04-3.55,7.43-4.05,7.35-10,14.51-16.75,19.45l8.85-56.53,1.03-.26c1.27,2.32,3.22,4.77,4.95,6.77.61.71,2.84,2.26,2.88,2.45.71,2.91-.54,5.82,1.33,9.5.36.71,1.58,1.28,1.71,1.93.14.74-1.36,2.67-1.39,4.08-.03,1.56,1.11,3.5.95,5.18ZM422.32,210.35c.9.39,1.72,2.6,3.12,1.82-11.2-13.11-5.33-34.14,4.95-46.11.75-.01,4.65,12.66,5.09,14.18,2.72,9.51,5.55,20.06,1.43,29.58.97-.38,5.7-5.27,6.24-4.69v1.57c.05.06.88-.56.99-.48.63.48,2.57,6.71,3.7,7.76-9.96,2.48-19.35,7.57-26.83,14.59-.69,0-2.18-8.52-2.28-9.7-.16-1.88-.72-5.86.97-6.97.12,3.34,2.03,6.93,4.69,8.86l-2.07-10.42ZM418.16,246.04c.19-.79-.36-.91,1.03-.78,4.46,16.1,9.88,32.04,16.42,47.41,4.83,11.35,10.79,22.13,15.88,33.35-1.02.24-1.23-.54-1.77-1.09-2.42-2.45-5.66-6.99-7.83-9.88-1.63-2.17-.86-3.52-4.17-4.69-8.67-3.06-13.38-3.95-17.21-13.53-5.02-12.57-5.48-37.66-2.34-50.8ZM389.5,242.4c.51-5.3,2.84-11.33,4.44-16.41l1.82-2.87c-1.43,5.08-3.28,10-4.01,15.27l-2.25,19.38c.35-4.95-.47-10.49,0-15.37ZM381.94,241.61c.46-1.79.83-4.59,2.34-5.73-4.34,15.07-3.49,30.91-5.21,46.37-.91.12-.49-1.18-.52-1.82-.52-12.88.19-26.33,3.38-38.83ZM371.41,259.74c.22-.67.63-2.39,1.41-2.49-3.3,15.18-3.68,30.86-4.17,46.37l-1.06-5.97c-.23-12.88-.24-25.56,3.81-37.91ZM360.05,280.16c.23-.91.23-2.28,1.31-2.59l-1.58,15.87c-.08,7.91.39,15.89-.51,23.73l-1.06-8.57c.09-9.43-.47-19.23,1.83-28.44ZM347.81,314.28c.17-2.92.88-8.71,1.57-11.48.22-.88-.52-1.52,1.05-1.26l-1.56,29.69c-.38-5.39-1.38-11.55-1.07-16.95ZM335.25,232.66s.12-.65.47-.92c5.01-3.85,5.23-1.24,3.26,3.62h2.09c1.01,1-2.76,4.79-3.5,5.1-1.25.53-3.67.3-5,1.12-.72.45-.85,1.92-1.92,2.11.08-1.32,1.01-2.29,1.32-3.62.32-1.38.73-7.26,1.26-7.62.79-.54,1.65.33,2.03.2ZM316.05,231.18c.14-.19-1.5-2.37-1.08-4.4.08-.4,2.56.25,1.6-2.89,2.2-.61,1.95.85,2.13.98,1.26.89,1.01-1.77,2.29-1.49,2.13.67,2.15,5.49,2.36,5.73.12.14,2.09-1.63,2.9,1.03.6,1.97-1.51,5.1.19,7.59l1.58,3.36-.52-23.44c-1.32.5.52,1.9-1.81,1.55-2.37-.35-1.58-2.83-1.84-3.12-.2-.23-3.52,2-3.12-1.78.09-.81,1.12-2.28,1.04-2.38-.07-.09-1.39-.21-2.06-.81-2.25-1.99-.49-3.32,2.06-2.85-3.3-4.38.05-3.3,2.08-4.43,1.42-.8,2.07-5.32,4.18.79.33.26.96-1.41,2.08-.82,2.16,1.13.87,3.31,1.03,3.42.4.29,2.97-.44,3.16,1.86.13,1.58-1.58,2.31-1.58,2.58,0,.22,1.28.95,1.48,1.67.55,1.93-1.78,4.08-3.57,2.75.39,1.37-.87,2.41-1.02,3.42-1.11,7.52.34,18.5,0,26.57-.12,2.87-.9,6.18-1.06,9.09,1.34.27.91-.28,1.3-1.01.59-1.1,1.29-4.03,2.34-4.49.62-.27,1.06.78,1.31.78.52,0,1.59-3.4,3.38-2.56.51.53-.96,6.9-1.51,7.6-1.24,1.61-5.1.07-6.34.96-.91.66-.22,4.94-2.3,4.99-.44,0-.1-3.34-.75-4.35-1.24-1.94-5.43-.56-7.18-5.45-.29-.82-1.08-4.55-.81-5.17,1.02-2.31,2.96,1.37,3.75,1.65.77.28,1.8-.71,2.94.23,1.01.83,1.01,4.85,1.4,6.42.13.52.15,1.57.88,1.45-.19-6.99,2.13-14.4-2.86-20.32-.91,2.43-4.34,1.21-6.51,1.56l1.04-2.6c-1.41.77-4.24-2-4.16-2.88.05-.52,1.5-.71,1.55-.79ZM324.51,269.84c1.7.29,10.76,6.51,12.38,7.99,2.19,2,8.13,10.5,8.72,13.18.74,3.35-3.68,15.8-7.97,15.75-1.24-.01-1.7-1.77-1.21-2.55.13-.21,4.33-1.37,3.32-3.18-2.4,1.57-9.96,6.87-12.44,6.62-2.01-.2-3.3-1.68-2.93-3.73.58-3.28,12.76-9.14,14.59-12.78-.89-.17-1.52.24-2.26.6-2.71,1.32-9.32,5.7-11.56,7.72-.87.79-3.25,4.02-3.7,4.11-1,.2-3.8-2.24-3.83-3.3-.1-3.96,11.75-12.79,14.57-16.17.49-.59,1.26-.85,1.04-1.82-1.17.48-2.33.8-3.39,1.56-2.3,1.65-6.77,5.89-8.93,8-1.61,1.57-6.29,9.73-8.68,4.9-3.94-7.97,10.95-14.37,13.18-20.71-4.88,3.33-9.63,6.72-13.52,11.22-.59.68-1.5,2.71-1.64,2.79-1.75,1.02-3.07-2.39-3.07-3.84,0-5.14,12.46-17.15,17.33-16.33ZM247.55,388.04c2.44,4.59,2.28,12.29,1.82,17.45-.14,1.56-3.12,14.3-3.64,14.86-.29.31-1.13.31-1-.74.23-1.84.29-3.54.49-5.25.73-6.09,3.07-13.2,3.16-19.28.03-2.42-.9-4.66-.82-7.04ZM250.02,433.75c.76-1.91,1.67-4.6,3-6.11-3.17,15.75-8.61,30.99-14.59,45.85-.81,0-1.18.31-.95-.69,2.74-12.4,7.84-27.2,12.54-39.05ZM216.59,334.66c-.53.12-1.7.69-1.59-.28,14.52-8.18,31.31-3.32,43.75,6.24-14.57-7.1-26.12-9.48-42.17-5.96ZM289.98,309.64c1.68.53,4.04-.19,5.25.48.79.44.29,1.08-.34,1.24-3.98,1.04-9.29-.61-10.73-4.76-.83-2.41-.04-10.25,3.76-9.76-.05,1.51-1.62,1.94-1.97,3.49-.77,3.38.38,8.15,4.03,9.3ZM291.09,324.77c1.5-.9,4.62-3.46,4.53-.2-.03,1.26-.41,7.72-.66,8.24-.24.5-6.78,6.03-8.06,7.57-7.23,8.64-13.01,21.67-17.45,32.05-3.43,8-6.94,16.61-9.14,24.99-1.25-.27-.61-.97-.68-1.46-1.53-9.92.23-23.35,2.92-33.04,4.46-16.1,14.14-29.52,28.55-38.14ZM293.65,348.43c-3.2,12.8-8.88,24.75-13.03,37.25-2.68,8.08-6.79,28.2-12.52,33.33-2.03,1.82-5.53,3.36-8.3,3.41l5.23-3.88c4.45-4.71,5.66-14.84,7.65-21,4.52-13.98,9.96-27.73,16.36-40.95,1.32-2.73,2.7-5.79,4.61-8.15ZM249.21,324.9c-8.93-3.93-16.26-5.67-26.13-5.11-2.12.12-4.59.94-6.76,1.06-.57.03-1.97.34-1.84-.54,4.17-.41,8.05-2.3,12.25-2.6,12.96-.94,27.71,6.83,37.24,15.1l-14.76-7.9ZM257.68,443.5c.08-.9-.07-1.71.81-2.31.63,14.73,1.59,29.56,5.73,43.77,1.29,4.41,3.22,8.6,4.42,13.03l-3.57-6.06c-6.74-15.04-8.8-32.06-7.39-48.41ZM261.47,435.85c.02-1.73.78-4.11.46-6.08.71-.83,17.49-2.69,20.97-5.86,3.44-3.13,5.56-20.08,6.84-25.46,4.24-17.85,10.83-48.25,25.02-60.42.57-.49,4.52-3.55,4.93-3.14l-6.86,10.59c-15.51,23.77-14.42,53.25-21.52,79.04-1.49,5.42-2.68,6.97-8.08,8.6-6.8,2.05-14.16,2.54-21.12,3.83-.52-.32-.66-.46-.65-1.09ZM298.33,313.75c.18-7.61-.03-25.94,4.26-31.68.46-.62,3.07-2.95,3.57-2.42-1.82,4.81-3.07,9.71-3.64,14.85-1.91,17.39,1.56,46.26-4.56,61.64-.32.79.3,1.41-1.17,1.14,2.32-14.41,1.21-28.99,1.55-43.54ZM309.56,321.32c4.62.33,6.74,2.18,7.53,6.79-4.19-1.36-8.74-.04-13.02,0,.01-6.18-1.34-7.29,5.49-6.79ZM311.37,299.97c1.93,1.41,3.05,4.39,4.09,6.59,8.72,18.34,15.18,37.83,27.48,54.32,11.74,15.76,30.29,30.51,50.73,31.33.12.91-1.18.49-1.81.51-23.13,1.04-44.54-17.63-56.22-36-10.91-17.16-18.83-37.2-24.26-56.75ZM336.11,343.21c-.91-.81-1.21-2.06-1.17-3.24.17-5.07,3.77-11.73,4.04-17.07l.54,5.49c-.11,1.76-2.01,14.82-3.41,14.82ZM309.25,274.12c-1.73,1.24-3.81,1.42-5.66,2.7-5.02,3.48-6.67,9.64-7.56,15.36l-32.58,1.54c-1.01-6.45,6.01-7,9.91-10.67,1.84-1.73,3.21-4.22,4.67-6.27-1.04-.4-2.64,1.13-3.5,1.71-3.43,2.34-6.53,5.19-10.04,7.41l7.29-47.94c.75-.12.7.9.88,1.45,1.16,3.59,3.79,18.69,6.74,19.84.52.2.87.29,1.27-.24,2.33-3.11,4.21-10.34,5.55-14.18.3-.84-.27-1.39,1.17-1.14-.1,3.35-.16,6.81-.02,10.18.23,5.49.9,11.14,1.08,16.63.12,3.39-.81,18.27,1.01,19.83.38.33.58.31,1.05.25.48-3.91.58-7.77.52-11.72-.18-11.92-1.13-23.99-1.58-35.94-.07-1.91-.56-5.63,1.06-6.53,1.06,6.01,2.28,12.37,3.91,18.24.63,2.27,4.24,17.21,8.47,12.89,1.58-1.61,1.83-21.37,4.03-24.88l2.31,31.46ZM288.97,177c5.79-1.62,3.66,10.89,1.34,12.55-.54.39-2.05.77-2.38.48-.31-.27,1.55-6.67,1.58-8.1.03-1.6-.86-3.23-.54-4.92ZM294.7,194.97c-.99-2.44-2.96-3.19-1.04-5.99,1.87-1.33,10.12,16.05,10.66,17.73,1.99,6.17,1.72,16.07,1.31,22.65-.74,11.77-4.03,23.38-4.16,35.17-1.2.25-.84-.13-1.17-.66-1.08-1.72-2.1-6.02-2.73-8.19-2.22-7.67-5.56-20.1-6.01-27.86-.25-4.3.77-8.33.53-12.52-.25-4.44-5.37-19.04-2.86-21.64.86-.89,1.77-.69,2.29.32l7.34,21.56c0-7.16-1.48-14-4.16-20.59ZM300,175.28c-.36.6-2.97,4.54-3.75,3.8l1.04-2.08-2.08-.26c3.53-2.96,5.45-7.19,8.33-10.68-.86,3.08-1.88,6.47-3.54,9.22ZM304.84,163.44c.09-.54.05-1.69.79-1.54,2.19,8.71-.48,18.23-9.37,21.36-.66-2.96,1.89-3.81,3.34-5.77,4.07-5.52,4.12-7.59,5.24-14.04ZM286.81,189.95c-2.59,1.6-4.13-2.02-5-3.97-.73-1.64-2.91-7.79-1.11-8.91.53-.33,6.51-.24,6.98.43,1.23,1.75.62,11.52-.88,12.45ZM280.62,189.51c.09.07.86,1.88.82,2.11-.13.84-1.61,2.88-2.01,4.25-2.15,7.41-1.16,13.78-.36,21.26l1.1-10.62c.3-2.26,1.99-12.64,3.56-13.64,3.67-2.34,2.51,8.19,2.63,9.92.57,8.46,1.69,17.03,1.06,25.56-.68,9.25-5.29,17.65-8.09,26.3-1.51-8.2-4.74-16.25-6.36-24.39-2.2-11.13-2.43-31.29,6.11-39.96.35-.36.96-1.21,1.54-.79ZM260.84,100.93c-1.91,5.48-.43,11.2-5.72,15.1-.77-3.36-3.39-5.59-6.78-5.99,1.12-1.55,11.65-9.81,12.5-9.12ZM250.5,138.62c-1.14-1.31-6.42-14.28-6.73-16.2-1.15-7.2,4.14-13.47,9.47-6.87,1.87,2.31,1.95,6.83,5.17,5.1,5.2-2.8,1.56-16.41,4.47-21.06,2.54-4.06,20.45-7.71,25.3-8.04,4.52-.3,21.59.33,24.47,3.65,1.85,2.14,2.53,14.29,2.35,17.44-.14,2.45-1.03,5.31-1.07,7.8-.09,5.48,1.99,9.52,1,15.58-1.11,6.8-10.52,25.92-16.11,29.74-4.34,2.97-13.14,3.04-17.7.58-4.29-2.31-13-16.12-13-20.87v-8.6h-.52c.32.82-.53,1.96-.53,2.34v7.82c0,3.84,6.01,11,7.54,14.86.25.62,1.65,3.57.03,3.1-1.9-.55-7.19-4.52-7.57-6.76-1.1.07.06,1.85-1.3.53-6.38-6.16-9.21-15.25-9.11-23.97l-2.59,5.5c-1.15.74-2.87-.87-3.58-1.67ZM251.47,152.77c.19-.79-.37-.91,1.03-.78,1.12,9.17,10.08,14.41,16.15,20.32.36-.4-1.68-2.86-2.09-3.37-4.05-5.03-9.54-9.2-10.41-16.16-.23-1.87.54-4-.51-5.75-.07-.44.99-.29,1.03-.25.07.07.11,1.3.42,1.92,4.35,8.72,9.35,15.42,16.51,22.07,2.93,2.72,10.73,6.61,1.32,6.24.82,1.46,3.64,1.29,3.12,3.64-10.01-.37-20.4-10.06-24.9-18.59-1.86-3.53-2.62-5.25-1.65-9.28ZM233.76,234.05c-.51-.7-1.17-1.37-1.05-2.33.84-.48,3.02.64,3.12.52.11-.15.31-3,.53-3.65,2.73-.2,3.82,3.48,3.65,5.73l2.08-.52.66,6.38,2.47,8.73c-.19-3.59.89-7.11,1.07-10.65.38-7.22-.98-14.44-1.07-21.65-.86-.23-.25.95-.83,1.07-3.1.65-2.55-2.77-2.88-3.09-.23-.23-2.56.11-3.33-1.64-.81-1.85,1.11-2.07,1.27-2.92.13-.7-4.32-6.01,2.13-3.84-.92-3.36.31-6.7,3.13-2.61-.28-.69-.36-3.28.03-3.63.28-.25,2.74.2,3.01.63.22.35.06,1,.1,1.44.99-.63,1.77-1.4,3.08-1,.45.62.4,2.8.63,3.02.37.35,3.34-.29,3.08,2.39-.16,1.63-2.59,1.83-2.1,2.36,1.73-.16,1.84,2.73.9,3.53-.47.4-2.37.51-2.48.66-.28.39,1.89,5.33-4.16,3.12l1.05,22.4,3.64-7.09c.17-1.14-2.66-2.98-1.52-5.36l3.08-.05c.23-.86-.92-.24-1.06-.85-.63-2.67,2.93-6.67,3.41-2.8,4.62-4.31,2.95.51,3.44,1.02.35.36,1.45-.66,1.54.81.11,1.8-.7,2.1-1.59,3.38,3.55-1.59,4.06,1.46,1.6,3.44-.88.71-2.05.66-2.13.74-.25.26,1.18,2.14.03,2.88-1.58,1.03-5-.97-6.79-1.32-3.6,6.16-4.77,13.33-5.73,20.32,3.09-1,3.22-7.6,5.21-8.59.4-.2,5.96-2.01,6.22-1.82.36.94.51,4.3.16,5.07-.38.84-1.32,1.11-1.92,1.77-.31.34-.18,1.19-.64,1.53-1.15.86-4.01.25-5.55.59-1.97.43-2.68,2.56-3.94,3.88l-2.68,5.91c-.66-3.55,1.63-7.29,1.57-10.65-.02-.96-1.33-7.54-1.69-8.25-.99-1.96-4.22-1.11-6.13-2.2-1.55-.89,1.03-.67.51-1.29-2.19.36-3.55-1.56-4.69-3.13l4.69.51c-.87-1.09-2.2-1.61-3.11-2.87ZM228.54,199.93c-.43,9.27-1.37,17.96-4.15,26.85-.59,1.87-1.16,4.72-2.61,5.98l6.76-32.83ZM250.94,305.19c.12.91-1.18.49-1.82.52-9.54.38-23.2-.11-30.48-6.77,10.46,3.35,21.4,4.97,32.29,6.25ZM205.62,237.96l7.05-9.35,5.96-16.17c-.83,6.08-2.57,12.11-4.06,18.08l-2.99,3.27-5.97,4.18ZM235.06,436.5l.25,1.03c-3.01.99-5.31,3.34-8.34,4.43-8.11,2.9-18.12,1.34-25.51-2.86-.09-1,1.04-.4,1.56-.26,11,3.02,21.66,2.69,32.04-2.33ZM219.16,482.88c-.3.89-2.73,1.33-3.52,1.42-4.37.53-8.56-.38-12.73-1.59-.54-.16-1.58-.12-1.45-.88l17.71,1.04ZM200.42,361.73l1.56-8.08c.23,3.46-.32,7.27,0,10.68.54,5.81,4.01,12.12,4.19,17.7.02.58.33,1.98-.54,1.84-3.26-7.02-5.96-14.19-5.21-22.14ZM113.42,389.08c.29.33-4.04,6.22-4.58,7.13-5.18,8.66-8.65,18.05-12.09,27.51-.37,1.03-1.35,5.29-1.56,5.48-.04.04-1.1.19-1.03-.25,4.42-13.95,9.36-28.89,19.26-39.87ZM100.65,433.88c2.11-9.25,5.16-18.96,8.73-27.74.29-.7.64-2.35,1.43-2.47-4.54,16.19-9.46,32.51-11.39,49.3-1.85,16.14-1.27,32.48-2.67,48.66-2.01.41-.43-2.15-.47-3.39-.8-21.74-.51-43.02,4.37-64.36ZM91.8,551.12l-1.29,1.57c1.76-10.71,8.55-19.24,12.59-28.83,1.31-3.12,1.92-5.95,2.96-9.02.23-.68.15-1.59,1.11-1.75-1.62,14.04-9.85,25.46-15.37,38.03ZM106.13,491.21l-1.03-.25c.51-.6.53-1.33.54-2.06.36-14.59,1-29.12,3.35-43.54l.26,15.36c-1,10.18-1.38,20.41-3.12,30.49ZM111.33,531.33c-.97.12-.41-1.06-.28-1.59.79-3.3,2.38-6.84,3.27-10.28,3.09-11.96,3.34-19.99,3.79-32.16.02-.63-.39-1.94.51-1.81,2.77,15.5.21,32.02-7.29,45.85ZM189.99,490.95c-11.68-10.13-20.78-23.1-25.76-37.8l-4.44-18.74c-.56,9.33.44,17.71,2.75,26.68,4.05,15.74,7.64,31.74,3.35,47.94-3.81,14.36-10.63,28.77-13.23,43.56-1.17,6.66.42,11.66-.23,18.01-.7,6.88-4.3,12.99-5.93,19.6-2.9,11.75-6.23,37.57-4.94,49.25.36,3.23,2.64,6.72,2.65,10.42.01,8.72-5.53,11.83-.31,21.63l4.95,7.28c-8.81-.3-17.55.2-26.04,2.61-.55-.51,4.69-8.35,5.22-9.62,1.74-4.17,2.12-9.37,2.06-13.82l-1.55,3.64c-2.1-5.7-3.14-9.83-1.54-15.86.7-2.62,2.28-5.23,3.06-7.88,2.97-10.03,4.64-39.82,2.38-49.73-.61-2.7-2.08-5.48-2.73-8.22-1.6-6.79-1.29-14.31-2.78-21.23.96-5.34,4.49-9.23,5.61-14.72,7.16-34.94-13.2-68.67-14.98-103.01-1.54-29.65,11.51-71.21,39.59-85.5,11.3-5.75,25.5-8.08,38.04-6.48.31.32-.92,7.8-1.33,8.8-.76,1.85-4.8,5.55-6.37,7.69-8.63,11.77-14.91,27.06-18.07,41.32-1.12,5.05-3.4,14.8-.49,19.26,4.2,6.44,18.47,10.57,25.71,12.06l1.09,56.75c-.5.46-5.06-3.31-5.73-3.9ZM177.2,417.24c.84,2.51,9.04,5.02,10.56,6.89,1.19,1.47.51,5.78,1.71,7.66-4.72-.51-16.07-5.17-17.47-9.87-1.12-3.74,1.96-15.12,3.15-19.3,3.55-12.5,9.14-27.26,19.01-35.95-.05,5-3.98,9.31-6.17,13.88-3.21,6.69-5.74,14.28-7.74,21.44-.85,3.05-3.84,12.86-3.05,15.25ZM195.13,428.49c-2.73-9.6,4.48-19.12,10.49-25.87-3.2,9.13-11.46,17.3-9.38,27.62-.91-.16-.91-1.04-1.11-1.75ZM208.26,587.93c-.16,2.05.5,3.93.75,5.92.07.55.73,1.68-.27,1.57-1.2-3.3-3-5.81-2.57-9.59.41-3.65,4.98-13.86,6.6-17.92.32-.79-.3-1.41,1.17-1.14-.14,6.96-5.17,14.64-5.69,21.17ZM235.3,649.36c2.24,5.87,5.56,8.52,7.91,13.45,2.29,4.79,2.21,10.73,6.14,14.7,2.25,2.27,6.13,3.9,8.6,5.99.42.36,2.96,2.6,2.35,3.11-8.46-.29-16.66,2.79-23.95,6.78-.04-2.27,1.91-3.75,2.1-5.99.85-9.89-8.86-8.87-12.22-15.42-2.39-4.67-1.72-15.65-2.47-21.5-.98-7.71-3.99-15.16-4.5-22.87l5.36-13.94c4.02,11.54,6.33,24.34,10.67,35.7ZM207.73,536.26c-14.44-5.06-9.14-16.05-4.28-26.64,3.51-7.65,7.57-14.56,16.81-15.61l14.44-34.94,7.38-16.32-16.13,50.85c.04,1.42,2.36,1.46,3.48,2.19.83.54,2.42,1.72,3.09,2.38,4.22,4.15,6.47,11.72,6.43,17.53-1.21.19-1.61-.2-2.32-1.06-1.47-1.79-2.64-6.76-4.18-9.37-4.73-7.98-13.27-9.53-20.08-2.88-4.44,4.33-12.75,21.33-9.81,27.05,3.91,7.61,22.58,7.35,29.89,7.62.63.02,1.94-.39,1.81.51-8.09,2.93-18.52,1.49-26.54-1.32ZM240.52,526.12c-1.57-1.32-1.82-3.09-3.68-4.39-2.86-2-10.23-2.49-13.79-2.4-3.17.08-6.86,1.08-10.03,1.43-.57.06-1.78.6-1.67-.37,6.72-2.87,13.63-3.9,20.95-2.99,4.72.59,9.02,3.45,8.22,8.71ZM206.14,527.69c8.36-.83,18.39-.33,26.74,1.12,2.65.46,7.44,1.08,8.15,4.08l-34.89-5.2ZM252.23,517.27c-1.6-.53-9.13-3.1-9.53-4.01-.72-1.6-1.15-5.74-1.94-7.96-.99-2.78-4.47-7.54-4.37-9.58.1-2.14,1.31-6.31,1.91-8.56,2.79-10.34,7.99-20.39,10.56-30.86.7.29.88,2.69.97,3.45.34,2.77.27,5.99.65,8.73,2.71,19.51,10.95,40.36,25.98,53.47-8.15-.14-16.53-2.11-24.23-4.68ZM430.82,436.07c5.87,24.46-1.24,47.88-17.36,66.6.65.55,3.12-2.71,5.7-1.81,3.24,1.13,9.21,12.55,10.69,15.9,6.47,14.59,8.04,27.79,18.3,41.09,7.59,9.83,12.65,9.95,11.69,24.82-.57,8.73-3.88,11.07-7.58,17.95-5.58,10.37-10.22,23.9-13.12,35.33-1.28,5.04-1.32,9.72-2.36,14.32-2.83,12.51-15.29,6.28-20.71,15.76l2.6-.26c-3.74,5.69-6.65,10.56-13.71,5.64-6.2-4.32-7.93-13.53-4.73-20.18,3.7-7.69,13.01-5.86,11.15,2.55,1.16-.05,1.44-2.51,1.57-2.61.37-.27,2.55,1.87,3.12,2.09.27-2.7-.37-5.99,0-8.6.65-4.64,4.66-6.7,7.28-9.91,5.62-6.9,14.76-28.28,14.1-37.01-.29-3.87-2.76-7.77-3.14-11.97-.5-5.54,1.01-10.94,1.55-16.4l-2.55,4.99c-1,2.5-1.34-1.33-1.87-2.39-4.57-9.02-23.94-20.67-31.52-29.95-10.78-13.2,3.09-25.19,8.96-36.4,4.09-7.81,5.77-16.69,3.55-25.36l-3.39,12.49c-3.93,9.95-12.33,19.3-22.65,22.67-.45.15-1.36.64-1.56,0,6.97-7.3,11.29-18.61,11.97-28.67.32-4.66-.71-9.16-.52-13.8l-2.34,12.51c-3.54,13.77-10.41,24.69-22.83,31.87-4.59,2.65-9.77,4.16-14.16,7.19-.57-.36-.62-.72-.76-1.31-.97-4.34-1.45-9.36-4.71-12.74,1.07,6.26,1.88,12.64,1.55,19.01-1.05,20.5-8.46,38.83-5.72,60.44,1.03,8.11,3.72,11.53,3.11,20.85-.56,8.66-4.37,13.32-6.01,21.08-2.55,12.05-3.3,31.77-2.34,44.08.3,3.84,2.15,7.1,2.56,10.46,1.01,8.25-1.61,11.94,4.73,19.23,3.66,4.21,8.69,5.52,11.47,10.14-10.12-.54-20.09,1.97-29.17,6.26-.12-3.24,2.24-5.7,2.97-8.74,2.98-12.41-9.02-13.87-9.77-22.76-.5-5.96,2.71-14.6,3.59-20.94,1.24-8.93,3.31-34.18.84-41.86-1.67-5.2-4.63-8.96-5.31-15.01-.74-6.55.68-9.36,1.37-15.01,1.07-8.76-7.67-32.48-10.22-42.31-2.67-10.29-5.28-21.21-6.83-31.72-.48-3.26-.25-6.75-.73-9.69-.59-3.56-4.49-7.21-6.35-10.33-7.86-13.21-9.46-31.85-8.12-46.85-.75-.12-.73.92-.88,1.45-3.98,14.15-3.87,30.17,1.67,43.87,3.02,7.46,9.88,13.19,9.1,21.89-12.09-2.4-20.6-11.87-26.78-21.93-10.63-17.32-15.13-39.84-14.07-59.94,6.79-1.81,14.06-2.54,20.76-4.66,9.33-2.95,10.97-5.63,13.15-14.98,2.91-12.47,4.23-25.6,7.19-38.14,3.55-15.05,8.6-32.3,19.28-43.76,2.61,4.27,2.38,6.61.66,11.09-.44,1.16-1.4,1.8-1.44,2.98l4.94-5.2c3.2,2.87,2.33,4.89.79,8.33,3.54-4.81,3.17-1.52,5.51,2.04,8.59,13.09,20.83,25.57,35.45,31.75,17.38,7.35,35.96,4.32,53.31-1.49-3.91,18.54-9.25,36.77-16.66,54.19,7.71-8.42,11.55-18.79,16.09-28.97.28-.62-.24-.94,1.08-.73,3.08,7.03,6.7,13.92,8.51,21.45ZM424.26,380.6c-23.65,12.64-48.95,5.26-68.11-11.58-3.24-2.85-16.64-17.79-16.62-21.37,0-1.04,2.85-8.4,3.35-10.68.68-3.09,1.02-6.24,1.3-9.38l1.03,4.95c.27,5.58.62,10.88-.26,16.41,5.61-7.28,8.8-16.05,11.08-24.87.31-1.2-.54-3.15,1.16-2.74-.36,7.66-1.72,15.16-3.79,22.51-.71,2.51-2.16,5.27-2.2,7.7,10.86-11.61,12.17-25.6,14.84-40.38.15-.84-.18-1.72.79-2.34.98,9.7,1.07,18.57-1.04,28.14-.52,2.34-1.5,4.44-2.15,6.7-.25.87-.51,1.72.56.56,10.92-15.77,10.94-35.88,14.35-54.17,1.16.29.71.75.7,1.43-.08,7.81-.28,15.52.34,23.31l1.03,5.47c5.22-20.41,9.56-41.38,10.43-62.52.67-.88.95.06,1.03.77,1.31,10.41.69,21.24-1.03,31.53l3.52-7.16c6.71-23.23,1.91-48.83,12.63-71,.98-.11.43,1.06.27,1.57-4.56,13.91-7.18,27.5-4.44,42.19l2.34-13.55c1.93-6.4,4.07-13.14,8.59-18.23.04,2.44,2.29,7.59,2.08,9.62-.1,1.02-1.3,1.77-1.53,3.17-.24,1.48.16,3.16-.03,4.66-1.94,14.59-4.65,28.7-2.08,43.51l-2.22-5.32c-.26-2.3-1.94-6.43-1.94-8.48v-15.89l-2.08,7.56c-1.31,14.73,6.09,42.97,13.26,56.02,3.23,5.88,7.8,10.8,11.18,16.43-.82,15.25-3.27,30.48-6.36,45.43ZM428.57,394.28c.89-2.38.79-7.6,2.04-9.55.22-.34,5.69-3.48,6.77-4.3,6.18-4.68,12.44-12.87,16.41-19.54.81-1.35,3.62-8,4-8.24.18-.12,1.44-.11,1.5-.05.16.13.55,3.05.95,4.01,1.62,3.83,4.25,7.13,7.31,9.88-6.44,15.71-21.4,28.16-38.98,27.8ZM485.26,365.78c-7.95,2.2-17.81-3.05-21.21-10.38-2.87-6.18-.07-10.53-2.67-16.35,6.54,2.16,7.24,10.95,9.81,16.5,2.52,5.43,5.45,7.75,11.36,8.95,1.07.22,3.71-.08,3.83.08.74,1.02-.6,1.05-1.12,1.19ZM512.71,329.14c3.28,3.75,1.94,9.74-1.31,13.04-1.36-3.22.41-6.13.51-9.38-1.91.29-3.17,3.52-3.52,5.07-1.11,5-.05,6.91-3.34,11.77-.64.95-2.51,2.09-1.74,2.95l3.38-3.12c1.09,6.54-4.04,12.98-10.7,13.04-1.28.01-2.44-.62-3.62-.58-4.1.13-6.26,1.26-10.66-.23-10.15-3.45-8.54-15.14-14.6-22.39-.94-1.13-2.75-1.69-3.28-3.02-.49-1.23.26-2.03.11-3.15-.53-4.12-2.21-6.22-4.62-9.39,7.82-8.95,19.34-17.68,31.53-19.03,1.55-.17,8.13-.35,9.24.03,1.28.44,2.93,7.61,3.6,9.42,1.08,2.91,3.33,9.46,4.96,11.71,1.13,1.56,2.72,1.75,4.04,3.26Z"/>
  <path class="st1" d="M310.32,79.04c-3.93-16.19-16.43-20.89-31.96-18.69-16.36,2.32-27.99,10.39-28.46,28.07,18.94-8.26,39.8-11.51,60.42-9.38Z"/>
  <path class="st1" d="M173.33,706.94l9.19,2c10.34,1,20.76,2.06,31.18,1.64.63-.03,1.94.39,1.82-.52-13.87-2.46-28.07-4.7-42.19-3.13Z"/>
  <path class="st1" d="M280.62,715.01c11.29,2.55,24.62,2.8,36.21,2.34.63-.02,1.94.39,1.81-.52-12.99-2.97-26.32-2.75-39.58-2.61-.13.77.98.65,1.55.78Z"/>
  <path class="st1" d="M367.11,410.44l9.46,16.32c3.59,7,7.04,14.06,9.82,21.44l2.06,6.53c-.25-17.2-9.25-32.66-21.35-44.29Z"/>
  <path class="st1" d="M343.65,419.82c-2.22-4.65-5.23-8.94-7.56-13.54-2.44-4.82-4.4-9.89-6.51-14.85l-5.19-15.9c.46,16.65,6.59,33.19,19.26,44.29Z"/>
  <path class="st1" d="M324.91,541.75c-.26,5.13.73,10.19,1.11,15.3l6.18,29.51c-.34-12.15-1.22-24.19-4.42-35.95l-2.86-8.85Z"/>
  <path class="st1" d="M431.69,561.55c-.48-1.35-1.57-2.91-2.38-4.12-5.96-8.94-14.34-14.21-22.09-21.41,4.84,11.14,16.5,16.91,24.47,25.53Z"/>
  <path class="st1" d="M359.81,497.21c6.18-5.35,11.08-14.11,12.49-22.15l-17.71,25.52c.45.43,4.61-2.85,5.21-3.38Z"/>
  <path class="st1" d="M336.38,488.85l-6.78-9.62c.2,9.24,8.47,17.12,16.66,20.31-2.83-3.97-6.51-7.19-9.88-10.69Z"/>
  <path class="st1" d="M333.9,658.87c-.49,4.48-.85,8.89-.66,13.41.03.63-.39,1.94.52,1.82.65-7.82,2.49-15.55,2.08-23.44l-1.94,8.21Z"/>
  <path class="st1" d="M155.07,411.72l.54,4.97c1.94-12,5.56-23.14,11.19-33.88,2.4-4.56,5.7-8.73,7.56-13.54-12.98,10.32-18.29,26.27-19.29,42.45Z"/>
  <path class="st1" d="M399.4,295.29c1.58,25.08,5.22,50.1,4.15,75.27l.53,1.84c3.26-17.8,2.08-35.95-.14-53.78l-4.54-23.33Z"/>
  <path class="st1" d="M439.47,253.11c.14.14.37,2.48,1.16,3.79,2.23,3.66,7.24,4.53,11,2.84.7-.31,1.47-1.6,2.19-1.44,1.27.27.68,4.13.79,5.21,2.66-.03,1.36-4.77.89-6.36-1.69-5.72-5.71-8.25-11.6-7.73-4.23.37-6.02,4.23-10.12.03-.15,3.29,5.43,3.43,5.69,3.68Z"/>
  <path class="st1" d="M481.7,290.85c-1.12-11.31-8.07-19.54-12.96-29.25l-3.2-9.57v8.08c0,5.8,8.53,16.47,11.55,21.8l4.61,8.94Z"/>
  <path class="st1" d="M468.6,287.28l-5.65-9.71c1.69,7.02,4.68,14.3,9.37,19.8l-3.71-10.09Z"/>
  <path class="st1" d="M440.28,244.21c5.56-.43,10.21-2.47,15.37,1.57.59-.58-1.91-2.78-2.41-3.06-4.45-2.47-10.31-.44-14.77.98-.13.89,1.23.55,1.81.51Z"/>
  <path class="st1" d="M299.64,111.34l-.77-1.04c-.37,4.21-2.48,5.97-2.08,10.68.42,4.99,6.69,11.65,4.71,15.14-1.16,2.03-2.22,1.18-3.04,1.44-.11.04.06.87-.87.94-3.32.26-6.46-1.45-9.81-1.21-2.41-.67-2.73-5.45-.89-6.93-1.12-.85-2.08,1.48-3.16,2.05-1.28.67-3.26.73-4.84,1.41-6.78,2.89-8.1,8.34-6.05,15.04.98.11.42-1.09.37-1.67-.24-2.52-.93-3.95.66-6.41,1.39-2.15,7.14-5.97,9.66-6.01,1.25-.02.65,1.13,1.34,2.3,1.32,2.22,6.46,2.28,8.8,3.98l-1.04,1.55c1.39-.03,2.84.21,4.2-.22.25-.08,4.18-2.35,4.64-2.66,1.15-.78,2.23-3.08,3.8-2.77,1.61.32,3.18,2.83,3.56,4.35l-.05,4.94c1.58-3.43,2.38-6.49-.49-9.55-.44-.47-1.22-.24-1.6-.71-1.66-2.04-9.66-14.98-7.8-16.84,4.08.56,8.17.35,12.26.51,1.35.05,2.03,1.32,1.8-.49-3.63-2.2-5.01-4.57-9.8-3.3l-4.27,1.98c.36-4.54,7.45-6.79,11.06-5.33,1.63.66,1.81,2.18,3,2.99l-1.56-2.87,1.56-.26c.43-2.63-1.49-1.44-1.56-1.56-.41-.74,2.41-2.01-2.61-1.57l1.56-1.56c-3.66.75-7.76,1.11-10.68,3.64Z"/>
  <path class="st1" d="M304.34,142.08c1.05,2.84-5.6,3.06-7.8,3.15-6.17.27-11.76-1.72-18.27-1.59-.59.01-1.69.54-1.77.47-.23-.2.34-1.2-.56-.98-.78,2.13-1.06,3.11,0,5.2,1.49-.79.37-3.37,2.74-3.04,3.06.42,5.8,5.71,11.56,6.19,4.91.42,5.82-1.29,9.53-2,.7-.13,1.61.46,1.68.42.15-.11.77-3.34,1.13-3.57.44-.28,1.67.07,2.52-.34,1.77-.84,1.22-3.67-.77-3.92ZM284,146.79c-.68-.22-1.62,0-1.81-1.05,6.86.19,12.91,2.27,19.79.52-4.33,3.65-12.86,2.18-17.99.53Z"/>
  <path class="st1" d="M271.25,112.91c.72.72-3.06,2.57-.78,2.59.15,0,1.99-1.17,2.73-1.43,5.77-1.97,10.52-3.7,16.28-.12-.11-5.33-2.23-5.86-7.04-6.25-6.25-.5-8.61.38-12.75,4.95-.28,1.65,1.24-.06,1.56.26Z"/>
  <path class="st1" d="M270.97,119.18c4.46-.12,10.12-1.08,14.63-.83.74.04,1.15.63,1.79.81-.31-5.32-6.67-4.31-10.31-3.28-3.98,1.13-7.62,4.82-10.65-.5l-.91-4.03c-.52,3.88,1.08,7.95,5.44,7.83Z"/>
  <path class="st1" d="M250.38,124.71c1.02-1.21,2.41-.58,3.69-.34-1.88-1.92-2.23-5.51-3.88-7.32-3.74-4.08-6.82.75-4.97,4.71,1.01-.46.3-2.16,1.08-3.34,1.81-2.71,4.25,2.79,4.07,3.49-.2.78-1.44,1.26-1.76,1.93-1.69,3.61,3.7,7.48,4.42,6.77-.19-2.36-2.98-3.38-2.64-5.92Z"/>
  <path class="st1" d="M281.41,150.43c-.39-.08-.36.55-.25.77.14.3,3.2,3.76,3.67,4.14,4.03,3.26,8.3,3.09,12.2-.24.63-.54,3.87-4.17,3.39-4.68-5.06,5.72-13.99,5.87-19.01,0Z"/>
  <path class="st1" d="M299.12,102.48c3.5-.21,5.13-1.01,9.02-.66.58.05,1.77.61,1.67-.37-5.81-1.18-11.59.14-17.47.02-3.45-.07-8.07-1.07-11.46-1.08-1.76,0-4.08.77-5.97.8,8.07-.02,16.15,1.78,24.22,1.3Z"/>
  <path class="st1" d="M488.23,335.39c-.65-.43-3.76-1-2.88-2.06.11-.13,2.77-1.18,3.22-1.26,1.05-.19,2.78.61,3.02-.3-14.46-5.95-15.03,17.9-2.08,18.76-.04,2.38-2.42,3.12-3.65,4.68,9.01-2.76,9.9-14.74,2.36-19.81Z"/>
  <path class="st1" d="M473.89,340.61l.04-5.42c.58-3.55,3.23-6.02,5.67-8.39l3.66-2.33c-8.84.77-12.68,8.02-9.37,16.14Z"/>
  <path class="st1" d="M430.64,212.43c3.45-7.42,4.73-14.36,2.36-22.41l-4.43-13.02c-3.77,10.73-5.42,19.47-.92,30.35l2.99,5.07Z"/>
</svg>