<?xml version="1.0" encoding="UTF-8"?>
<svg id="Capa_1" data-name="Capa 1" xmlns="http://www.w3.org/2000/svg" viewBox="0 0 243.84 241.87">
  <defs>
    <style>
      .cls-1 {
        fill: #bbffc0;
      }

      .cls-2 {
        fill: #f2eadf;
      }

      .cls-3 {
        fill: #2d4b30;
      }
    </style>
  </defs>
  <path class="cls-2" d="M198.86,150.98l-1.47-4.57c.63,5.16,1.43,10.34,1.95,15.52,1.41,14.04,1.11,26.9,1.64,40.84.01.4-.25,1.22.32,1.14,1.67-6,1.53-12.87,1.32-19.12-.37-11.26-1.74-22.71-3.77-33.8Z"/>
  <path class="cls-2" d="M25.63,170.83c.96,1.04,8.78,2.25,10.77,2.79,4.31,1.15,8.75,2.93,12.99,3.99,2.88.72,6.88,1.7,8.56-1.57,2.01-3.91-.28-6.59-3.76-8.13-5.1-2.25-13.27-3.38-18.91-4.94-2.58-.71-5.14-1.52-7.62-2.52-.89.02-2.52,3.2-2.68,4.17-.2,1.17-.1,5.4.66,6.21ZM56.21,170.63l.04.94c-2.63-2.47-8.5.32-5.76,3.48l4.13,2.4c-9.15-.04-7.04-11.65,1.59-6.82ZM39.92,167.8c.13-.37.18-1.18.65-1.14-.53,2.17-.82,4.28-.65,6.53-.46.08-.52-.92-.56-1.23-.19-1.6.04-2.66.56-4.16Z"/>
  <path class="cls-2" d="M40.58,130.89c6.33,2.54,30.55,3.45,36.04-.21,2.37-1.58,2.01-4.34-.42-5.68-3.66-2.02-15.1-2.38-19.47-2.12-1.23.07-2.44.56-3.74.34.06,3.08,2.46,1.65,4.39,1.62,4.03-.07,9.69.33,13.63,1.1,1.4.27,3.07.49,4.18,1.37.02,1.21-5.96,2-7.02,2.12-5.17.59-12.1.62-17.33.35-3.59-.19-7.2-.83-10.6-1.98-.1-.69-.03-.53.41-.73,1.57-.71,3.8-.74,5.47-1.23l-.49-1.3c-.7-.87-6.07.8-7.1,1.39-3.11,1.77-.19,4.08,2.05,4.97Z"/>
  <path class="cls-2" d="M65.66,181.6c.79,1.85,1.04,4.42.23,6.3-.35.81-1.11,1.12-1.14,1.96,3.76-3.52,6.52-8.19,8.16-13.07-2.75,1.04-5.46,2.55-8.49,2.61.14.89.85,1.28,1.24,2.19Z"/>
  <path class="cls-2" d="M30.36,147.14c-4.4.71-7.07,6.7-3.98,10.03,1.15,1.24,7.71,2.99,9.55,3.19,2.56.29,4.82.38,6.14-2.18,2.21-4.3-.93-7.14-4.54-8.9-1.71-.83-5.41-2.44-7.16-2.15ZM39.59,151.64l-4.16.57c-2.02,1.15-2.54,3.85-.57,5.31,1.2.89,2.37.81,3.63,1.27.35.13.94.16.45.68-.3.32-1.42.22-1.9.13-7.94-1.42-4.48-11.43,2.55-7.96Z"/>
  <path class="cls-2" d="M141.7,107.88c2.25-.2,3.76-1.24,4.72-3.28-3.24.77-6.6,1.5-9.96,1.3-.69-.04-7.34-1.53-7.36-1.14,3.7,2.64,8.09,3.51,12.59,3.12Z"/>
  <path class="cls-2" d="M84.67,154.41c.75-8.39-3.11-15.49-7.34-22.36l-2.78,1.78c1.65,2.39,3.46,5.13,4.63,7.79,5.46,12.44-.86,26.9-12.46,33.07l-5.24,2.11c7.62-.44,14.91-4.05,18.88-10.68,1.84-3.07,3.99-8.15,4.31-11.7Z"/>
  <path class="cls-2" d="M112.12,194.43c1.11-1.28,2.37-3.32,1.09-4.91-1.87-.31-2.76.52-4.03,1.65.29-1.75-1.58-3.6-3.27-2.78-1.19.58-1.29,4.15-1.31,5.39-.55-.03-.38-.91-.69-1.43-1.15-1.86-3.21-1.82-3.52.64-.47,3.67,2.32,5.25,2.25,8.76l-4.24,10.65c-.54-5.85-3.23-11.6-3.61-17.46-.15-2.39.13-9.73.97-11.8.68-1.7,4.28-2.02,2.98-4.24l-2.32-.29-.3-1.49c6.39,3.13,4.86-7.84.34-4.39-.74.56-.32,1.55-.99,1.78l-1.63-3.92c.76,1.24,2.93,2.79,2.55.25-.09-.58-1.16-2.17-.27-2.53,1.83,7.44,2.9.63,5.23-1.64l-1.61,4.71.79.52c.87-.94,1.69-1.83,3.11-1.63-.52.8-1.71.89-2.25,1.83-.48.83-.77,2.24.46,2.43.83.13,2.33-.76,2.77.31-.76-.22-2.77.39-2.93,1.16-.24,1.09,2.51.95,2.28,2.11-7.3-3.3-4.15,3.96.79,2.29,2.19-.74,1.11-1.74,1.27-2.8.06-.4,1.88-.74,1.53-2.9-.2-1.21-1.92-1.58-2.94-1.82,2.36-1.94,2.9-5.43-.98-5.23,1.25-1.79-.83-4.62-2.72-3.55-.62.35-1.77,1.78-2.4,1.87-.38.05-.78-.52-1.26-.59-2.61-.35-3.27.29-3.09,2.93l-1.95-.98c-.45.86-.16,1.96-.32,2.71-.09.39-1.02.37-1.26,1.11-.71,2.26,2.06,4.79,4.19,5.01-1.01,2.34-.26,4.48-.31,6.69-.05,2.22-.92,5.12-1.02,7.5-.13,3.25.36,6.73.66,9.98l-6.69-6.52c.58-2.47,2.08-5.91-1.3-6.87-.82,1.75-1.33,3.99-.5,5.88l-4.57-1.14,3.59.16c.12-.54-.17-.66-.49-.97-1.03-1-2.5-1.88-3.42-3.11,1.11-.8,2.97,2.44,3.43,2.45,2.16-1.69.88-7.04-2.04-6.13l-.41,2.54c-5.3-2.34-3.93,1.88-.98,4.09-2.44.83-2.54,1.95-.43,3.37,2.01,1.36,4.02,1.17,6.33.87,2.22,4.01,6.61,5.69,8.4,9.88,1.98,4.63,2.75,11.23,1.95,16.17-.3,1.87-1.33,3.58-1.55,5.47-.99-1.07-1.41-2.95-2-4.36-.32-.77-1.33-1.99-1.45-2.48-.24-1.01.59-3.18.46-4.34-.05-.44-.6-2.76-.75-3.2-.94-2.74-3.08-4.49-4.91-1.31-3.43-4.31-5.44-1.59-3.1,2.61-3.14.79-1.51,3.57.35,5.04,2.06,1.62,4.42,1.77,6.52,2.95,3.11,1.76,3.64,8.43,4.4,8.67.93.3,2.54-2.79,3.25-3.59.98-1.1,5-5.22,6.05-5.71,2.05-.94,8.05,1.13,8.18-3.59l-1.32-1.31c3.87-4.61,3.49-9.62-2.79-4.09h-.47s-3.33,1.42-3.33,1.42c-1.2,2.23-1.04,4.76-1.75,6.42-.26.61-3.18,3.09-3.92,3.92-.73.83-1.21,1.95-2.12,2.62,2.26-4.63,2.08-9.85,3.43-14.7.31-1.13,2.77-7.3,3.41-7.67.22-.13.69.19.99-.01.24-.16.21-.72.57-.82,1.31-.36,4.4-.12,4.82-1.93.07-.32-.24-.92-.16-1,.04-.04.85-.05,1.21-.26,1.86-1.06,5.09-5.1,1.08-5.31ZM87.83,217.91c-.58-.34-2.52-1.64-2.01-2.23.6.29,2.91,2.46,3.43,1.96l-.65-5.88,1.63,7.19c-.73-.49-1.66-.6-2.4-1.03ZM104.61,218.45c.31-1.03,6.14-7.12,6.53-6.7.14.61-.34.78-.65,1.14-.44.52-4.69,4.33-4.25,4.73l3.11-.65.16.64c-1.2.25-2.41.53-3.6.81-.18.04-1.62,1.08-1.3.01ZM109,198.03c-.58,1.13,1.23,2.46-2.1,2.94-.25-1.02.77-.61,1.22-1.06,1.67-1.68-2.79-3.24-4.18-2.38v1.32s-.64.16-.64.16l-.65-5.22c.85.32.98,3.49,2.29,2.79,1.35-1.43,1.72-3.5,1.63-5.41.58.19.38,1.98.32,2.45-.13,1.06-.61,2.03-.65,3.1.52.57,2.52-3.1,3.1-3.26.47,1.32-2.82,3.27-1.14,4.1.82.41,2.57-1.86,3.59-1.81-.36,1.04-2.4,1.52-2.79,2.29Z"/>
  <path class="cls-1" d="M31.75,217.14c-7.22-6.44-7.28-15.76-8.49-24.67-1.22.9-1.51,3.32-1.62,4.74-.77,9.29,2.34,18.36,10.35,23.62,13.5,8.86,22.37-9.29,23.95-20.19-2.81,3.68-3.62,8.35-6.03,12.42-4.47,7.53-10.86,10.57-18.14,4.08Z"/>
  <path class="cls-1" d="M20.18,220.87l-2.8-6.18c.62,8.21,7.15,16.07,15.84,15.68.4-.02,1.21.25,1.14-.32-5.87-.3-11.07-4.38-14.18-9.18Z"/>
  <path class="cls-1" d="M11.83,194.43l9.15-3.59c-3.28.21-6.89,1.12-9.15,3.59Z"/>
  <path class="cls-2" d="M51.85,127.78l.35-.66c-1.62-3.34-2.84-6.89-4.48-10.23-.58-1.18-.84-2.68-2.32-2.44-.3.05-1.6.71-1.74.92l5.57,11.77,2.62.64Z"/>
  <path class="cls-2" d="M98.06,80.57c-3.91,2.45-4.5-1.83-5.93-4.17-1.75-2.86-3.65-5.39-7.3-5.14-6.16.43-5.26,8.68-3.66,12.84.87,2.26,7.94,14.15,9.56,15.27,2.15,1.48,4.29.57,4.99-1.87l.4-3.35c1.64,8.59,3.82,17.36,9.8,24.01-.3.52-.73-.12-1.01-.3-4.64-2.89-7.06-6.4-7.81-11.95l-.51,4.58c3.25,6.01,8.03,10.41,13.74,14.04.44.28,3.26,2.11,3.44,1.95-3.75-4.68-5.55-10.43-8.43-15.58-.16-.29-.72-.82-.23-1.07,4.37,5.33,6.81,12.44,11.75,17.33,1.13,1.12,9.85,7.68,10.94,8,.94.28,6.75-.06,7.94-.25,2.09-.35,4.87-2.09,6.12-3.84-10.33,2.67-20.36-1.61-25.74-10.68-1.58-2.66-3.56-7.09-4.69-10.01-1.33-3.41-2.93-8,.05-11-1.16,4.14.69,7.86,2.34,11.55,3.16,7.09,7.83,14.42,15.55,17.12,7.31,2.56,17.36.73,20.5-7.12.82-2.04,1.19-6.49,1.96-7.84.09-.16.42-.42.49-.32l-.34,3.09.34,2.79c.6-3.62,3.04-6.68,4.53-10.01,3.55-7.91,6.12-17.7,4.2-26.32-.46-2.06-.72-3.39-3.17-3.53.15-.91,2.11.18,2.28,0-.98-5.75,1.72-11.83-6.94-10.69-4.04.53-8.96,3.69-7.76,8.41,3.36-3.22,5.32-5.05,10.12-3.1,1.46.6,4.31,1.97,2.74,3.78l-5.67-1.98c-.1.08,1.42,1.83.11,2.25l-6.97-.62c-.58.68,2.52,8.88,3.2,10.03,2.04,3.43,6.05,5.41,6.85,10.47.69,4.4-1.15,6.59-3.52,9.88-.6.08-.29-.68-.17-.99.27-.73.83-1.41,1.08-2.19,1.47-4.49.59-8.25-2.38-11.85l-.37,2.89c-1.12,4.9-6.82,6.74-11.01,4.24-.85-.51-1.81-1.8-2.81-2.09-.92-.27-1.82-.04-2.71-.23-2.3-.5-4.53-1.3-5.15-3.84-.37-.27-7.07,4.13-7.81,4.77-3.09,2.64-1.88,6.33-1.66,9.93-.72.19-1.11-.92-1.36-1.41-1-1.91-1.63-4.42-1.23-6.58.51-2.75,7.51-6.17,9.75-7.89,2.5-1.91,4.1-5.49,7.71-5.04.45.06.97.21.49.66-3.29.09-5.64,3.5-2.92,6.03,1.72,1.6,4.1,1.28,6.18,1.99,2.79.96,5.67,3.95,9,1.14,3.97-3.37-1.5-11.01-2.69-14.96-.92-3.05-1.39-6.49-1.04-9.67.21-1.86,1.32-3.55,1.28-5.42l1.14,1.63c3.21-4.08,9.25-6.84,13.88-3.59-.24-3.28-.86-10.26-3.12-12.72-1.18-1.29-6.96-2.29-8.86-2.58-9.4-1.4-19.03-.73-28.27,1.35-6.21,1.41-12.17,3.65-17.84,6.49-.39,3.95-1.7,7.67-3.01,11.37l-.64-.16,1.13-9.65-12.25,9.97,4.41,2.44,2.91-2.96,2.8-4.54-4.51,8.33,3.54,7.03c2.46-.48,3.32-3.74,3.91-5.88l-2.78,2.28c-.42.12-.64-.07-.48-.48.33-.83,1.76-2.62,2.34-3.87,1.28-2.76,1.94-5.63,3.05-8.38.32-.8.77-2.1,1.46-2.62-.51,4.84-.64,17.53-5.24,20.4ZM93.34,91.85c-1.06,2.15-2.08-.73-2.46-1.13-.58-.6-2.07-1.01-2.94-1.96-1.89-2.04-2.35-5.53-.49-7.7.43-.5,1.39-.94,1.44-1.01.59-1.03-5.02-6.51-5.51-2.09-.27,2.48.25,4.94.65,7.36-2.34-2.36-4.45-9.82-.39-11.33,1.89-.7,3.59.02,4.98,1.35.65.63,3.78,5.3,3.84,5.95.05.64-.8,1.4-1.02,2.12-1.16,3.87,2.88,6.46,1.91,8.44ZM149.68,80.6c-.47-.22-1.8-.76-1.62-1.48,2.97,1.02,6.08.69,9.14.33.19.83-.22.57-.61.85-2.24,1.56-4.51,1.44-6.91.31ZM130.42,113.58c1.15-.07,2.28.61,3.46.78,2.75.4,6.62.43,9.27-.47,1.46-.49,2.51-1.66,3.93-2.11-3.43,7.04-11.4,6.6-16.66,1.79ZM122.06,102.29c4.78-1.27,9.65,1.27,14.4,1.65,3.82.31,8.32-.14,11.91-1.47,1.26-.47,2.23-1.59,3.6-1.46.53,2.06-1.85,1.98-2.52,2.71-.39.43-1.14,2.43-1.78,3.28-3.84,5.06-10.96,4.51-16.36,2.43-2.37-.91-6.04-2.96-6.82-5.43l-2.57-.05.14-1.65ZM113.76,82.71c-.76-.81,4.73-4.24,5.88-3.59-1.46,1.72-3.94,2.5-5.88,3.59ZM121.27,81.4c-.08-.57.74-.31,1.14-.32,3-.1,5.46-.37,8.33-1.3-2.44,2.55-6.31,3.36-9.47,1.63ZM127.8,75.19l.04,1.49c-2.52,1.82-4.77,1.14-7.33-.11-3.93,1.4-7.66,4.05-11.99,3.52l7.41-2.88c4.91-3.3,9.64-7.12,15.57-2.94,3.77,2.65-1.99,2.74-3.7.92ZM135.64,78.78c.65-1.36.33-2.86,0-4.24,1.17,1.17,1.19,3.63,1.3,5.23-.72-.34.16-1.32-1.31-.98ZM132.2,54.93c3.38-.1,6.77.58,10.13.68,3.82.12,7.52-.41,11.28-.01l-8.32.99c-5.71.36-11.32-.85-17.01-.68-1.42.04-2.96.76-4.4.18,0-.42,7.61-1.14,8.32-1.16ZM121.53,63.2c4.57-1.15,12.41-.59,13.47,5.13,1.06-.67.53-2.54.65-3.59.42.21.85,1.8.9,2.2.18,1.42-.32,5.45-2.37,4.36-1.15-.62-1.51-1.27-3.1-1.82-6.77-2.34-12.79-.97-17.53,4.39l-1.05-.84c1.52-4.26,4.38-8.65,9.03-9.82ZM113.42,76.34c-.01,1.42-6.01-.28-6.2-1.79l6.2,1.79Z"/>
  <path class="cls-2" d="M36.1,99.76c-.74-.54-4.82-3.32-5.32-3.47-.73-.22-1.84.78-2.62.8,5.09,3.52,10.51,6.78,13.07,12.74l2.6-1.47c-1.89-3.54-4.52-6.26-7.73-8.6Z"/>
  <path class="cls-2" d="M46.13,110.15c-1.56.8-4.54.87-4.24,3.27,1.55-1.37,5.6-.61,4.24-3.27Z"/>
  <path class="cls-2" d="M62.7,180.64c-4.01-2.37-6.06.7-9.84.36l-26.19-7.15c-.97.01-2.04,4.12-2.12,5.05-.23,2.8.83,10.55,1.91,13.14,1.26,3.01,6.46,8.46,9.41,9.87,1.27.61,2.71.93,4.04,1.35-.15.58-1.64.65-2.11.66-5.03.15-7.23-3.24-10.63-6.22.21,7.65,3.86,18.82,13.65,15.77,2.96-.92,5.57-3.36,6.6-6.3l-5.07.65-2.77-.98c4.81-.32,8.38-1.63,11.6-5.23.26-.29,2.36-2.74,2.12-2.94h-14.21c-.52,0-3.39-.88-4.08-1.15-.67-.25-1.87-.86-2.29-1.46l21.38.31c2.04-.65,3.46-2.4,4.1-4.38-.14-.73-3.73-.52-4.57-.83-.02,1.36-.05,3.41-1.3,4.25l.67-4.42c-6.29-1.64-13.35-1.76-19.57-3.31-1.98-.49-4.15-1.23-5.28-3.05,5.14.66,10.35,1.17,15.46,2.01,4.84.79,14.41,3.95,18.7,1.93,2.83-1.33,2.71-6.56.38-7.94ZM41.55,189.53l-.33,5.23c-1.14-.93-1.01-4.48.33-5.23ZM32.08,183l-.63-2.72c.34-1.3.34-3.01,1.61-3.81-.54,2.13-.99,4.31-.98,6.53ZM58.53,186.77c.94.67,2.03.55,2.63,1.45-3.11-.24-6.78-2.47-4.39-5.85,1.4-1.98,3.85-2.39,5.37-.35-3.48-1.29-7.5,1.96-3.61,4.75Z"/>
  <path class="cls-2" d="M87.45,152.29c-.39,5.57-2.03,10.98-5.06,15.68,6.97-2.79,14.44-10.1,5.06-15.68Z"/>
  <path class="cls-2" d="M118,146.09l-5.78-1.58-12.52-6.59c3.97,3.88,11.49,8.72,17.16,8.49.4-.02,1.21.25,1.14-.32Z"/>
  <path class="cls-2" d="M108.88,129.89l15,8.85c1.45-1.99,1.11-2.29-.5-3.75-2.79-2.53-5-2.82-8-4.41-5.9-3.14-13.34-7.65-17.25-13.13-1.6-2.24-2.56-4.84-4.3-6.96-.01,8.63,8.35,15.22,15.05,19.41Z"/>
  <path class="cls-2" d="M134.17,210.12c-1.32-3.16-4.98-5.75-7.34-8.17-.68,11.05-2.68,22.09-5.88,32.67l18.95-.65-.99-17.32c-3.53,1.57-3.79-4.27-4.74-6.53Z"/>
  <path class="cls-2" d="M162.1,70.62c.82-4.22,1.13-7.68-.49-11.75-.21-.53-.63-1.71-1.13-1.96,1.26,4.21,1.13,8.28,1.3,12.58.02.4-.25,1.22.32,1.14Z"/>
  <path class="cls-2" d="M144.79,144.45c4.12-1.51,7.64-5.83,8.49-10.12l-3.6,5.38-4.89,4.74Z"/>
  <path class="cls-2" d="M143.26,197.43c1.29,6.73,3.29,14.02,7.41,19.54.75-4.32,1.5-8.64,2.64-12.88,3.75-13.97,7.86-20.61,2.27-35.64-2.79-7.5-8.41-16.04-15.17-20.39l-1.78,3c2.76,4.52,5.31,9.25,7.53,14.07,2.39,5.2,6.05,13.01,5.82,18.68-.02.4.25,1.21-.32,1.14-4.19-11.06-8.78-22-14.54-32.34l-.59-.28-1.48.66c1.23,6.92,3.1,13.83,4.42,20.8,1.49,7.84,2.3,15.83,3.8,23.64Z"/>
  <path class="cls-2" d="M194.45,183c-.4-.35,2.07-2.9,2.23-3.51.54-2.15-2.59-2.08-3.86-1.06.05-.93-.71-2.05-1.72-1.92-2.23.29-1.77,5.42-.08,6.48,1.03-1.17,1.16-3.15,3.1-3.26l-3.26,4.41c1.03,1.3,2.39-.25,3.59,0l-4.24,1.8c.86-1.96-.45-3.35-.81-5.23l-1.47-.32c.04.83-.36,1.57-.31,2.41.07,1.43,1.47,3.62,1.24,4.87-.06.31-3.26,5.06-3.54,5.31-.22.2-.58.34-.65,0,.26-.24,0-.48-.01-.66-.13-1.75,0-3.76,0-5.55,0-2.33-1.36-6.53-1.66-9.44-.12-1.16-.76-2.47-.94-3.65.02-.63,1.39-1.24,1.95-1.93,1.13-1.42,1.3-3.15.68-4.84l-2.31-.55c.96-4.06-2.29-4.22-4.57-1.63.07-1.04-.26-2.04-1.2-2.58-1.19-.68-1.2.2-1.59.21-.28.01-.74-1.28-2.21-.85-1.32.56-.8,2.04-.9,3.2-1.85-.38-2.41,1.89-1.78,3.27.4.87,1.68.68,1.46,1.63-2,.35-3.68,1.75-2.29,3.76.44.63,1.55,1.11,1.59,1.19.32.56-1.03,1.62.57,2.52,1.93,1.08,6.27.1,5.38-2.67-1.39-1.4-2.37.95-3.95.75.15-.66,1.28-.63,1.64-1.21,1.03-1.63-.95-2.22-2.3-2.39.23-.89,2.11-.02,2.46-.08.76-.13.53-2.08.17-2.64-.37-.59-1.78-.48-1.98-1.2,1.22-.17,2.02.45,2.78,1.3l.78-.53-1.28-3.71c2.77,2.61,2.35,6.49,5.87,1.31l-.65,3.59c1.22.02,1.39-1.49,2.28-1.96l-1.64,3.27c-1.5-2.11-2.56-1.52-4.92-1.17-1.04,2-.01,4.6,2.45,4.42.94-.07,1.27-.97,2.14-.97-.45.81-.44,1.47,0,2.28-.14.12-3.15-1.16-2.61,1.13.38,1.61,2.73,1.5,3.55,2.67,1.68,2.39,2.22,12.58,1.99,15.64-.3,4.05-1.85,7.91-2.29,11.93-1.02-.43-.53-1.8-.73-2.69-.6-2.66-2.9-5.56-3.17-6.96-.66-3.47,2.35-6.84.56-10.2-.64-.46-1.27-.42-1.87.1l-1.32,2.44c-.13-3.17-2.64-7.62-4.58-2.61-1.35-.29-2.35-1.39-3.87-.93-.97,1.8.17,3.17,1.26,4.52-.68.1-1.57.35-1.65,1.15.31,1.69,2.77,5,4.7,4.37,2.67-.87-2.97-3.4-3.38-4.21,1.58-.11,3.7,3.41,4.76,1.29l-2.47-3.25c1.08-.33,3,3.59,3.59,2.94l-.65-4.9,1.05,3.35.77.88c1.17.2,1.52-2.85,2.41-3.25l-.65,4.57c-2.18-2.4-6.42,2.84-4.57,4.41.58.5,4.38,1.07,5.22.49.38,1.49,1.51,2.5,2.13,3.93,1.31,3.01,1.24,5.76,1.14,8.98l-.65,6.7c-2.32-2.29-2-5.65-2.84-8.43-.28-.92-1.72-4.25-2.85-3.98l-.67.97c-5.39-4.87-5.19-.13-1.83,3.47.18.85-1.69.27-.58,2.21,1.67,2.89,3.73,1.55,5.2,2.63,1.53,1.12,2.42,4.16,3.42,5.75,1.89-.29,1.28-1.74,1.76-3.14.46-1.36,3.89-5.32,5.08-6.03,2.02-1.22,8.55-.44,7.27-4.48l-1.55-.57c1.49-1.18,2.55-3.17,2.14-5.08-1.52-1.1-2.44.97-3.29,1.98-.23-.97-.03-2.43-1.58-1.92-.99.33-1.8,4.49-2.25,5.6-1.28,3.15-3.85,4.99-5.47,7.92-.5.45-.35-.34-.32-.65.4-3.83,2.42-14.42,3.75-17.81.98-2.5,4.63-5.33,5.07-8.5,3.29,1.88,11.81-4.17,4.56-4.9ZM173.21,212.07l1.63-.48-3.59-5.07c2.25,1.63,3.73,4.05,4.9,6.53l-2.94-.98ZM189.87,203.91l-1.63,4.57,3.92-1.47c-1.27,1.29-3.13,1.95-4.9,2.12l2.61-5.22Z"/>
  <path class="cls-2" d="M140.86,139.22c.03-.29.13-.59.35-.78,3.63-3.11,7.06-6.81,8.15-11.63-1.18,1.47-3.31,2.31-4.54,3.46-1.03.97-1.74,2.45-2.97,3.57-1.07.97-2.48,1.69-3.6,2.61l1.94,2.57.67.2Z"/>
  <path class="cls-2" d="M156.72,202.6c-2.02,4.84-2.06,9.84-3.26,14.72-.96,3.92-2.74,3.42-5.09.81-2.03-2.26-3.23-5.53-4.49-8.25l-2.03-6.29c.12,2.45-.12,4.84-.41,7.26-.11.9-.73,1.98-.79,2.74-.16,2.23.99,7.13,1.2,9.76.27,3.41.34,6.87.33,10.29l21.56-5.56-6.54-26.13c-.45-.1-.35.34-.48.65Z"/>
  <path class="cls-2" d="M132.38,153.51l-1.81-.84c-.75.06-2.26,9.09-2.4,10.29-.3,2.58-.41,5.2-.37,7.8l-.65,4.08c-2.29-7.69-1.36-15.48.98-23.02-.09-.86-2.91-2.32-3.11-3.76-7.62,11.24-11.23,27.71-4.58,40.19,3.93,7.38,9.08,11.25,14.06,17.3,2.25,2.73,2.83,5.77,3.59,9.15,1.2-2.44,1.58-5.63,1.8-8.33.74-9.22-.41-19.18-2.06-28.32-1.49-8.26-4.03-16.26-5.45-24.53Z"/>
  <path class="cls-2" d="M132.36,137.61l-5.21.47c-2.23,1.95-1.16,9.17.8,10.65.64.48,1.15,0,1.72.2.62.23,1.24,1.17,2.14,1.47,7.67,2.56,10.74-14.37,1.55-13.14,1.25,2.82,2.16,7.26.41,10.03-.21.33.02.58-.73.42.09-3.41.04-6.77-.67-10.11Z"/>
  <path class="cls-3" d="M135.64,78.78c1.46-.34.58.64,1.31.98-.11-1.6-.13-4.05-1.3-5.23.32,1.38.64,2.88,0,4.24Z"/>
  <path class="cls-3" d="M121.27,81.4c3.16,1.74,7.03.92,9.47-1.63-2.88.93-5.34,1.2-8.33,1.3-.39.01-1.22-.24-1.14.32Z"/>
  <path class="cls-3" d="M54.62,177.44l-4.13-2.4c-2.74-3.15,3.13-5.95,5.76-3.48l-.04-.94c-8.63-4.83-10.74,6.78-1.59,6.82Z"/>
  <path class="cls-3" d="M39.92,173.2c-.17-2.25.12-4.36.65-6.53-.47-.05-.53.77-.65,1.14-.52,1.5-.74,2.56-.56,4.16.04.31.1,1.31.56,1.23Z"/>
  <path class="cls-3" d="M113.76,82.71c1.94-1.09,4.42-1.87,5.88-3.59-1.14-.65-6.63,2.78-5.88,3.59Z"/>
  <path class="cls-3" d="M37.04,159.61c.48.09,1.59.19,1.9-.13.49-.52-.11-.56-.45-.68-1.25-.46-2.43-.38-3.63-1.27-1.97-1.46-1.44-4.16.57-5.31l4.16-.57c-7.03-3.47-10.49,6.54-2.55,7.96Z"/>
  <path class="cls-3" d="M131.31,109.42c5.41,2.08,12.52,2.63,16.36-2.43.64-.85,1.39-2.84,1.78-3.28.67-.73,3.05-.65,2.52-2.71-1.37-.13-2.33,1-3.6,1.46-3.59,1.32-8.09,1.78-11.91,1.47-4.75-.38-9.62-2.92-14.4-1.65l-.14,1.65,2.57.05c.78,2.47,4.45,4.51,6.82,5.43ZM136.46,105.9c3.36.2,6.72-.53,9.96-1.3-.97,2.04-2.47,3.08-4.72,3.28-4.5.4-8.9-.48-12.59-3.12.01-.39,6.67,1.1,7.36,1.14Z"/>
  <path class="cls-3" d="M105.91,218.44c1.19-.29,2.4-.56,3.6-.81l-.16-.64-3.11.65c-.45-.4,3.81-4.21,4.25-4.73.31-.37.79-.53.65-1.14-.38-.42-6.22,5.67-6.53,6.7-.32,1.07,1.12.03,1.3-.01Z"/>
  <path class="cls-3" d="M111.79,195.74c-1.02-.05-2.77,2.22-3.59,1.81-1.68-.84,1.61-2.79,1.14-4.1-.58.17-2.58,3.83-3.1,3.26.04-1.07.52-2.04.65-3.1.06-.47.26-2.25-.32-2.45.09,1.9-.28,3.98-1.63,5.41-1.31.69-1.44-2.47-2.29-2.79l.65,5.22.65-.16v-1.32c1.38-.85,5.85.7,4.17,2.38-.45.45-1.47.04-1.22,1.06,3.33-.48,1.52-1.81,2.1-2.94.4-.76,2.43-1.24,2.79-2.29Z"/>
  <path class="cls-3" d="M89.25,217.63c-.52.51-2.83-1.66-3.43-1.96-.51.59,1.43,1.9,2.01,2.23.74.43,1.67.54,2.4,1.03l-1.63-7.19.65,5.88Z"/>
  <path class="cls-3" d="M133.88,114.36c-1.18-.17-2.32-.86-3.46-.78,5.26,4.8,13.23,5.25,16.66-1.79-1.42.46-2.47,1.62-3.93,2.11-2.65.89-6.52.87-9.27.47Z"/>
  <path class="cls-3" d="M157.2,79.44c-3.06.37-6.17.69-9.14-.33-.18.72,1.15,1.26,1.62,1.48,2.41,1.14,4.67,1.25,6.91-.31.39-.27.8-.01.61-.85Z"/>
  <path class="cls-3" d="M62.14,182.02c-1.51-2.03-3.96-1.63-5.37.35-2.39,3.38,1.28,5.61,4.39,5.85-.6-.91-1.69-.78-2.63-1.45-3.89-2.8.13-6.04,3.61-4.75Z"/>
  <path class="cls-3" d="M131.5,74.27c-5.93-4.17-10.65-.36-15.57,2.94l-7.41,2.88c4.32.54,8.06-2.12,11.99-3.52,2.55,1.24,4.81,1.93,7.33.11l-.04-1.49c1.7,1.82,7.46,1.73,3.7-.92Z"/>
  <path class="cls-3" d="M130.25,11.49c-17.67-2.04-40.11,7.26-45.4,25.48-1.4,4.8-1.42,9.44-1.8,14.37,22.59-10.92,47.62-16.63,72.85-14.38-3.99-12.66-11.44-23.83-25.65-25.47Z"/>
  <path class="cls-3" d="M41.55,189.53c-1.33.75-1.47,4.3-.33,5.23l.33-5.23Z"/>
  <path class="cls-3" d="M131.07,69.47c1.59.55,1.95,1.21,3.1,1.82,2.05,1.1,2.55-2.93,2.37-4.36-.05-.4-.47-1.99-.9-2.2-.12,1.05.4,2.92-.65,3.59-1.06-5.71-8.9-6.27-13.47-5.13-4.65,1.17-7.51,5.56-9.03,9.82l1.05.84c4.73-5.36,10.75-6.73,17.53-4.39Z"/>
  <path class="cls-3" d="M153.29,3.48C64.98-17.52-12.33,59.75,8.39,148.05c2.69,11.45,7.32,22.3,12.53,32.78-6.28,6.99-15.42,12.35-18.48,21.7-5.94,18.19-1.75,37.8,20.33,39.27,16.45,1.09,25.98-10.78,33.17-23.83.56-.39,3.52,1.96,4.26,2.41,44.72,26.88,97.12,26.89,138.64-6.35C275.83,152.4,249.74,26.42,153.29,3.48ZM20.97,190.84l-9.15,3.59c2.26-2.47,5.86-3.38,9.15-3.59ZM33.23,230.37c-8.69.39-15.23-7.47-15.84-15.68l2.8,6.18c3.11,4.8,8.31,8.88,14.18,9.18.08.57-.74.3-1.14.32ZM31.98,220.84c-8.01-5.26-11.12-14.33-10.35-23.62.12-1.42.41-3.84,1.62-4.74,1.21,8.91,1.27,18.23,8.49,24.67,7.28,6.49,13.67,3.45,18.14-4.08,2.41-4.07,3.22-8.74,6.03-12.42-1.58,10.9-10.44,29.06-23.95,20.19ZM62.32,188.57c-4.28,2.02-13.86-1.13-18.7-1.93-5.12-.84-10.32-1.35-15.46-2.01,1.13,1.82,3.3,2.55,5.28,3.05,6.22,1.55,13.27,1.67,19.57,3.31l-.67,4.42c1.25-.84,1.28-2.89,1.3-4.25.84.31,4.43.1,4.57.83-.64,1.98-2.06,3.73-4.1,4.38l-21.38-.31c.42.6,1.62,1.21,2.29,1.46.69.26,3.56,1.15,4.08,1.15h14.21c.24.2-1.86,2.65-2.12,2.94-3.22,3.6-6.79,4.91-11.6,5.23l2.77.98,5.07-.65c-1.03,2.93-3.65,5.38-6.6,6.3-9.79,3.04-13.43-8.13-13.65-15.77,3.39,2.98,5.6,6.37,10.63,6.22.47-.01,1.95-.09,2.11-.66-1.34-.43-2.77-.74-4.04-1.35-2.95-1.41-8.15-6.86-9.41-9.87-1.09-2.59-2.14-10.34-1.91-13.14.08-.93,1.15-5.04,2.12-5.05l26.19,7.15c3.78.34,5.83-2.73,9.84-.36,2.33,1.37,2.45,6.6-.38,7.94ZM46.13,110.15c1.36,2.66-2.69,1.9-4.24,3.27-.3-2.4,2.68-2.47,4.24-3.27ZM41.24,109.82c-2.56-5.96-7.98-9.22-13.07-12.74.78-.02,1.89-1.02,2.62-.8.5.15,4.58,2.93,5.32,3.47,3.21,2.34,5.84,5.06,7.73,8.6l-2.6,1.47ZM45.39,114.45c1.48-.24,1.74,1.26,2.32,2.44,1.64,3.34,2.86,6.89,4.48,10.23l-.35.66-2.62-.64-5.57-11.77c.14-.21,1.44-.87,1.74-.92ZM45.64,124.53l.49,1.3c-1.67.49-3.89.52-5.47,1.23-.44.2-.52.03-.41.73,3.41,1.15,7.01,1.79,10.6,1.98,5.22.27,12.16.24,17.33-.35,1.06-.12,7.04-.91,7.02-2.12-1.11-.88-2.79-1.09-4.18-1.37-3.94-.77-9.6-1.17-13.63-1.1-1.93.03-4.34,1.46-4.39-1.62,1.3.22,2.51-.27,3.74-.34,4.37-.26,15.81.1,19.47,2.12,2.43,1.34,2.79,4.1.42,5.68-5.49,3.65-29.7,2.75-36.04.21-2.24-.9-5.16-3.2-2.05-4.97,1.03-.59,6.41-2.26,7.1-1.39ZM37.53,149.3c3.61,1.76,6.75,4.59,4.54,8.9-1.31,2.56-3.58,2.46-6.14,2.18-1.84-.21-8.4-1.95-9.55-3.19-3.08-3.33-.42-9.33,3.98-10.03,1.75-.28,5.46,1.32,7.16,2.15ZM27.66,160.45c2.48,1.01,5.04,1.81,7.62,2.52,5.65,1.56,13.81,2.69,18.91,4.94,3.49,1.54,5.78,4.22,3.76,8.13-1.68,3.27-5.68,2.29-8.56,1.57-4.25-1.06-8.68-2.84-12.99-3.99-1.99-.53-9.81-1.75-10.77-2.79-.75-.82-.86-5.04-.66-6.21.16-.96,1.8-4.14,2.68-4.17ZM64.75,189.86c.03-.84.79-1.15,1.14-1.96.81-1.88.56-4.45-.23-6.3-.39-.91-1.09-1.3-1.24-2.19,3.03-.07,5.74-1.57,8.49-2.61-1.64,4.87-4.4,9.55-8.16,13.07ZM61.48,176.79l5.24-2.11c11.59-6.17,17.91-20.63,12.46-33.07-1.16-2.66-2.97-5.4-4.63-7.79l2.78-1.78c4.23,6.87,8.1,13.98,7.34,22.36-.32,3.55-2.47,8.64-4.31,11.7-3.97,6.62-11.26,10.23-18.88,10.68ZM87.45,152.29c9.38,5.57,1.91,12.89-5.06,15.68,3.03-4.69,4.67-10.11,5.06-15.68ZM109.99,201c-.42,1.81-3.51,1.57-4.82,1.93-.36.1-.33.66-.57.82-.3.21-.77-.11-.99.01-.65.36-3.1,6.54-3.41,7.67-1.35,4.85-1.17,10.07-3.43,14.7.9-.67,1.39-1.79,2.12-2.62.74-.84,3.66-3.31,3.92-3.92.71-1.67.55-4.19,1.75-6.42l3.33-1.42h.47c6.28-5.53,6.66-.52,2.79,4.09l1.32,1.31c-.13,4.73-6.13,2.65-8.18,3.59-1.06.49-5.07,4.6-6.05,5.71-.71.8-2.32,3.89-3.25,3.59-.76-.24-1.3-6.91-4.4-8.67-2.1-1.19-4.47-1.33-6.52-2.95-1.86-1.47-3.5-4.25-.35-5.04-2.33-4.2-.33-6.92,3.1-2.61,1.83-3.18,3.97-1.43,4.91,1.31.15.44.7,2.75.75,3.2.13,1.16-.7,3.33-.46,4.34.12.5,1.12,1.71,1.45,2.48.59,1.41,1.02,3.3,2,4.36.22-1.9,1.25-3.6,1.55-5.47.79-4.94.02-11.54-1.95-16.17-1.79-4.19-6.18-5.87-8.4-9.88-2.32.3-4.33.49-6.33-.87-2.1-1.42-2-2.55.43-3.37-2.95-2.21-4.32-6.42.98-4.09l.41-2.54c2.92-.91,4.21,4.44,2.04,6.13-.46,0-2.32-3.24-3.43-2.45.92,1.23,2.39,2.11,3.42,3.11.32.31.62.43.49.97l-3.59-.16,4.57,1.14c-.83-1.89-.32-4.13.5-5.88,3.38.96,1.88,4.4,1.3,6.87l6.69,6.52c-.3-3.25-.79-6.72-.66-9.98.09-2.38.97-5.27,1.02-7.5.05-2.22-.71-4.35.31-6.69-2.14-.21-4.9-2.75-4.19-5.01.23-.74,1.17-.72,1.26-1.11.17-.75-.13-1.85.32-2.71l1.95.98c-.17-2.64.49-3.27,3.09-2.93.48.06.88.64,1.26.59.62-.09,1.77-1.52,2.4-1.87,1.89-1.07,3.97,1.77,2.72,3.55,3.88-.21,3.34,3.29.98,5.23,1.02.24,2.75.6,2.94,1.82.35,2.16-1.47,2.5-1.53,2.9-.16,1.06.91,2.06-1.27,2.8-4.94,1.67-8.1-5.58-.79-2.29.24-1.16-2.52-1.03-2.28-2.11.17-.76,2.17-1.38,2.93-1.16-.43-1.06-1.93-.18-2.77-.31-1.23-.19-.94-1.6-.46-2.43.54-.94,1.73-1.03,2.25-1.83-1.41-.2-2.24.69-3.11,1.63l-.79-.52,1.61-4.71c-2.33,2.26-3.4,9.08-5.23,1.64-.89.36.18,1.95.27,2.53.38,2.55-1.8.99-2.55-.25l1.63,3.92c.68-.23.25-1.21.99-1.78,4.52-3.45,6.05,7.52-.34,4.39l.3,1.49,2.32.29c1.29,2.22-2.3,2.54-2.98,4.24-.83,2.07-1.12,9.41-.97,11.8.38,5.86,3.07,11.61,3.61,17.46l4.24-10.65c.08-3.51-2.71-5.09-2.25-8.76.31-2.46,2.37-2.5,3.52-.64.32.51.14,1.39.69,1.43.02-1.24.12-4.82,1.31-5.39,1.69-.82,3.56,1.03,3.27,2.78,1.26-1.13,2.16-1.96,4.03-1.65,1.28,1.59.02,3.63-1.09,4.91,4.02.21.78,4.24-1.08,5.31-.36.21-1.17.21-1.21.26-.08.08.23.68.16,1ZM101.83,62.78c-1.11,2.75-1.77,5.62-3.05,8.38-.58,1.25-2.02,3.04-2.34,3.87-.16.41.06.6.48.48l2.78-2.28c-.59,2.14-1.45,5.4-3.91,5.88l-3.54-7.03,4.51-8.33-2.8,4.54-2.91,2.96-4.41-2.44,12.25-9.97-1.13,9.65.64.16c1.31-3.71,2.62-7.42,3.01-11.37,5.67-2.85,11.63-5.09,17.84-6.49,9.23-2.09,18.87-2.75,28.27-1.35,1.9.28,7.68,1.29,8.86,2.58,2.26,2.46,2.87,9.44,3.12,12.72-4.63-3.26-10.67-.49-13.88,3.59l-1.14-1.63c.04,1.87-1.07,3.56-1.28,5.42-.36,3.19.12,6.62,1.04,9.67,1.19,3.94,6.66,11.59,2.69,14.96-3.32,2.82-6.21-.18-9-1.14-2.07-.71-4.45-.39-6.18-1.99-2.72-2.52-.37-5.93,2.92-6.03.48-.45-.04-.6-.49-.66-3.61-.45-5.21,3.14-7.71,5.04-2.25,1.72-9.25,5.13-9.75,7.89-.4,2.15.23,4.67,1.23,6.58.25.49.64,1.6,1.36,1.41-.22-3.6-1.42-7.29,1.66-9.93.74-.63,7.44-5.04,7.81-4.77.62,2.54,2.85,3.34,5.15,3.84.89.19,1.79-.04,2.71.23,1,.29,1.97,1.58,2.81,2.09,4.19,2.5,9.88.66,11.01-4.24l.37-2.89c2.97,3.6,3.85,7.36,2.38,11.85-.26.78-.82,1.46-1.08,2.19-.11.31-.43,1.06.17.99,2.37-3.3,4.21-5.48,3.52-9.88-.8-5.06-4.81-7.03-6.85-10.47-.68-1.15-3.78-9.35-3.2-10.03l6.97.62c1.31-.42-.21-2.17-.11-2.25l5.67,1.98c1.57-1.81-1.27-3.18-2.74-3.78-4.8-1.95-6.76-.12-10.12,3.1-1.2-4.71,3.72-7.88,7.76-8.41,8.66-1.14,5.96,4.94,6.94,10.69-.17.18-2.13-.91-2.28,0,2.45.14,2.71,1.47,3.17,3.53,1.93,8.61-.64,18.4-4.2,26.32-1.49,3.33-3.93,6.39-4.53,10.01l-.34-2.79.34-3.09c-.07-.1-.4.17-.49.32-.77,1.35-1.14,5.8-1.96,7.84-3.14,7.85-13.19,9.68-20.5,7.12-7.72-2.71-12.39-10.04-15.55-17.12-1.65-3.69-3.49-7.41-2.34-11.55-2.98,3-1.38,7.59-.05,11,1.13,2.91,3.12,7.35,4.69,10.01,5.39,9.07,15.41,13.35,25.74,10.68-1.25,1.75-4.03,3.49-6.12,3.84-1.19.2-7,.54-7.94.25-1.09-.33-9.81-6.88-10.94-8-4.93-4.89-7.38-11.99-11.75-17.33-.49.26.07.79.23,1.07,2.87,5.15,4.68,10.9,8.43,15.58-.18.16-3-1.67-3.44-1.95-5.71-3.63-10.49-8.03-13.74-14.04l.51-4.58c.75,5.55,3.17,9.06,7.81,11.95.28.17.71.82,1.01.3-5.99-6.66-8.16-15.42-9.8-24.01l-.4,3.35c-.7,2.44-2.84,3.35-4.99,1.87-1.62-1.12-8.69-13.01-9.56-15.27-1.59-4.16-2.5-12.41,3.66-12.84,3.65-.25,5.55,2.28,7.3,5.14,1.43,2.33,2.02,6.61,5.93,4.17,4.59-2.87,4.73-15.56,5.24-20.4-.69.52-1.14,1.82-1.46,2.62ZM160.47,56.9c.5.26.92,1.43,1.13,1.96,1.62,4.08,1.31,7.53.49,11.75-.57.08-.31-.74-.32-1.14-.17-4.3-.05-8.37-1.3-12.58ZM133.76,147.3c1.75-2.77.85-7.21-.41-10.03,9.19-1.23,6.12,15.7-1.55,13.14-.89-.3-1.52-1.24-2.14-1.47-.57-.21-1.09.28-1.72-.2-1.96-1.48-3.03-8.7-.8-10.65l5.21-.47c.71,3.33.76,6.7.67,10.11.75.16.52-.08.73-.42ZM138.26,136.45c1.12-.92,2.53-1.64,3.6-2.61,1.23-1.12,1.94-2.6,2.97-3.57,1.23-1.15,3.36-1.99,4.54-3.46-1.08,4.82-4.52,8.52-8.15,11.63-.22.19-.32.49-.35.78l-.67-.2-1.94-2.57ZM136.52,152.33l.59.28c5.77,10.34,10.35,21.28,14.54,32.34.57.08.31-.74.32-1.14.23-5.68-3.43-13.48-5.82-18.68-2.21-4.82-4.76-9.55-7.53-14.07l1.78-3c6.76,4.35,12.37,12.89,15.17,20.39,5.6,15.04,1.49,21.67-2.27,35.64-1.14,4.24-1.9,8.56-2.64,12.88-4.11-5.53-6.11-12.81-7.41-19.54-1.5-7.81-2.31-15.8-3.8-23.64-1.32-6.97-3.19-13.88-4.42-20.8l1.48-.66ZM144.79,144.45l4.89-4.74,3.6-5.38c-.85,4.29-4.37,8.62-8.49,10.12ZM98.13,117.44c3.91,5.49,11.35,9.99,17.25,13.13,3,1.6,5.21,1.88,8,4.41,1.61,1.46,1.96,1.76.5,3.75l-15-8.85c-6.71-4.19-15.06-10.78-15.05-19.41,1.75,2.13,2.71,4.72,4.3,6.96ZM99.71,137.92l12.52,6.59,5.78,1.58c.08.57-.74.31-1.14.32-5.67.23-13.18-4.61-17.16-8.49ZM120.94,234.61c3.2-10.57,5.21-21.61,5.88-32.67,2.37,2.42,6.02,5.01,7.34,8.17.95,2.26,1.21,8.1,4.74,6.53l.99,17.32-18.95.65ZM139.88,206.36c-.22,2.71-.59,5.9-1.8,8.33-.76-3.38-1.34-6.42-3.59-9.15-4.98-6.05-10.13-9.92-14.06-17.3-6.65-12.48-3.04-28.95,4.58-40.19.19,1.45,3.02,2.9,3.11,3.76-2.34,7.54-3.28,15.33-.98,23.02l.65-4.08c-.04-2.6.07-5.22.37-7.8.14-1.19,1.65-10.22,2.4-10.29l1.81.84c1.42,8.27,3.96,16.28,5.45,24.53,1.65,9.13,2.8,19.09,2.06,28.32ZM142.18,233.64c.01-3.42-.06-6.88-.33-10.29-.21-2.63-1.35-7.53-1.2-9.76.05-.76.68-1.84.79-2.74.29-2.42.53-4.82.41-7.26l2.03,6.29c1.26,2.72,2.46,5.99,4.49,8.25,2.34,2.61,4.13,3.11,5.09-.81,1.19-4.88,1.24-9.87,3.26-14.72.13-.31.03-.75.48-.65l6.54,26.13-21.56,5.56ZM189.88,187.9c-.44,3.16-4.09,6-5.07,8.5-1.33,3.4-3.35,13.98-3.75,17.81-.03.3-.18,1.1.32.65,1.63-2.93,4.19-4.77,5.47-7.92.45-1.11,1.26-5.27,2.25-5.6,1.55-.51,1.36.95,1.58,1.92.85-1,1.77-3.07,3.29-1.98.41,1.92-.65,3.9-2.14,5.08l1.55.57c1.27,4.05-5.25,3.26-7.27,4.48-1.19.72-4.61,4.67-5.08,6.03-.48,1.4.13,2.85-1.76,3.14-1.01-1.59-1.9-4.63-3.42-5.75-1.48-1.09-3.54.26-5.2-2.63-1.11-1.93.76-1.36.58-2.21-3.37-3.6-3.57-8.34,1.83-3.47l.67-.97c1.13-.27,2.58,3.06,2.85,3.98.84,2.77.52,6.14,2.84,8.43l.65-6.7c.09-3.22.16-5.96-1.14-8.98-.62-1.42-1.74-2.43-2.13-3.93-.84.58-4.64.01-5.22-.49-1.84-1.58,2.39-6.81,4.57-4.41l.65-4.57c-.89.41-1.25,3.46-2.41,3.25l-.77-.88-1.05-3.35.65,4.9c-.59.65-2.51-3.26-3.59-2.94l2.47,3.25c-1.06,2.12-3.18-1.4-4.76-1.29.41.81,6.05,3.33,3.38,4.21-1.93.63-4.39-2.68-4.7-4.37.07-.8.97-1.06,1.65-1.15-1.09-1.35-2.23-2.72-1.26-4.52,1.52-.46,2.52.64,3.87.93,1.95-5.01,4.45-.56,4.58,2.61l1.32-2.44c.6-.52,1.22-.56,1.87-.1,1.79,3.36-1.22,6.73-.56,10.2.27,1.4,2.57,4.29,3.17,6.96.2.9-.29,2.26.73,2.69.44-4.02,1.98-7.88,2.29-11.93.23-3.06-.32-13.25-1.99-15.64-.82-1.17-3.17-1.06-3.55-2.67-.55-2.28,2.47-1.01,2.61-1.13-.44-.81-.45-1.47,0-2.28-.87,0-1.2.9-2.14.97-2.47.17-3.5-2.43-2.45-4.42,2.35-.35,3.41-.94,4.92,1.17l1.64-3.27c-.9.47-1.07,1.98-2.28,1.96l.65-3.59c-3.53,5.18-3.1,1.31-5.87-1.31l1.28,3.71-.78.53c-.76-.85-1.57-1.47-2.78-1.3.2.72,1.61.6,1.98,1.2.35.56.59,2.5-.17,2.64-.35.06-2.23-.81-2.46.08,1.34.17,3.33.76,2.3,2.39-.37.58-1.49.55-1.64,1.21,1.58.2,2.55-2.15,3.95-.75.89,2.77-3.44,3.76-5.38,2.67-1.6-.9-.26-1.96-.57-2.52-.05-.09-1.15-.56-1.59-1.19-1.39-2.01.29-3.41,2.29-3.76.21-.95-1.07-.76-1.46-1.63-.63-1.39-.07-3.65,1.78-3.27.1-1.16-.42-2.64.9-3.2,1.47-.43,1.94.86,2.21.85.39-.02.4-.89,1.59-.21.93.54,1.26,1.54,1.2,2.58,2.28-2.58,5.52-2.42,4.57,1.63l2.31.55c.62,1.7.45,3.43-.68,4.84-.55.69-1.92,1.3-1.95,1.93.19,1.18.83,2.49.94,3.65.3,2.91,1.66,7.11,1.66,9.44,0,1.79-.13,3.8,0,5.55.01.18.28.41.01.66.07.34.42.2.65,0,.28-.25,3.48-5,3.54-5.31.23-1.25-1.17-3.43-1.24-4.87-.04-.84.36-1.57.31-2.41l1.47.32c.36,1.88,1.67,3.27.81,5.23l4.24-1.8c-1.19-.25-2.55,1.3-3.59,0l3.26-4.41c-1.95.1-2.07,2.08-3.1,3.26-1.69-1.06-2.15-6.19.08-6.48,1.01-.13,1.77.98,1.72,1.92,1.26-1.03,4.4-1.09,3.86,1.06-.15.61-2.62,3.16-2.23,3.51,7.25.73-1.27,6.79-4.56,4.9ZM201.3,203.91c-.57.08-.31-.74-.32-1.14-.53-13.94-.23-26.8-1.64-40.84-.52-5.18-1.33-10.36-1.95-15.52l1.47,4.57c2.02,11.09,3.4,22.54,3.77,33.8.21,6.25.35,13.12-1.32,19.12ZM230.95,161.52c-1.29,3.45-2.76,7.36-4.81,10.37-3.48-5.95-9.15-11.03-12.75-16.82-4.22-6.76-8.3-20.26-16.72-22.81-6.81-2.06-13.81-4.35-20.77-6.01-7.32-1.75-15.08-2.34-21.95-5.48,1.6-4.77,4.33-9.15,6.12-13.8,1.8-4.68,4.09-12.63,4-17.56-.08-3.85-1.9-8.16-1.93-11.8,0-.6.41-3.74.62-4.13.21-.39,3.4-1.72,4.14-2.15,6.23-3.64,15.3-9.58,18.36-16.27,5.18-11.31-7.35-14.45-15.86-15.75-16.68-2.55-37.27-.9-53.75,2.66-14,3.02-47.38,14.28-55.28,26.39-9.21,14.12,12.05,21.16,22.25,22.94,3.04,4.26,4.96,11.51,11.2,11.67.59,2.85-1.19,4.41-2.24,6.74-1.37,3.07-2.27,6.94-5.38,8.67-1.81,1-9.3,3.63-11.21,3.76-2.01.14-6.06-1.07-8.44-1.21-4.83-.29-10.02.11-14.84.3-.29-1.13-.78-2.4-1.29-3.45-.45-.95-2.14-3.65-2.29-4.28-.31-1.27.94-2.17-.43-4.11-.67-.95-1.39-.9-2.05-1.54-.95-.93-1.95-3.53-2.99-4.85-1.99-2.53-8.46-7.75-11.55-8.38-1.88-.38-7.19.58-5.59,3.3.89,1.52,7.33,4.92,9.32,6.69,1.28,1.14,4.65,5.27,5.01,6.77.17.71-.29,1.44-.3,2.2-.01,1.73,2.29,3.53,3.24,5.28.21.38,1.49,3.24,1.37,3.37-2.81.46-8.7,1.44-8.84,5.07-.03.74.35,1.48.36,2.27.07,4.2-1.82,5.27-3.34,8.78-.87,2.02-1.45,4.07-1.96,6.21-1.52,1.04-3.19,1.22-4.68,2.51-3.79,3.28-3.53,8.81-.54,12.51-2.28,2.65-2.54,5.2-2.57,8.55,0,.59.33,1.23.34,1.95,0,.32-.21,2.03-.66,2.14-3.44-8.67-6.94-17.3-8.99-26.46C-4.94,64.49,63.32-7.27,145.45,7.4c71.29,12.73,110.67,86.68,85.5,154.12Z"/>
  <path class="cls-3" d="M128.28,55.91c5.69-.17,11.31,1.04,17.01.68l8.32-.99c-3.76-.4-7.46.13-11.28.01-3.36-.1-6.75-.78-10.13-.68-.71.02-8.32.74-8.32,1.16,1.44.58,2.98-.14,4.4-.18Z"/>
  <path class="cls-3" d="M171.25,206.52l3.59,5.07-1.63.48,2.94.98c-1.17-2.48-2.65-4.9-4.9-6.53Z"/>
  <path class="cls-3" d="M188.24,208.48l1.63-4.57-2.61,5.22c1.77-.17,3.63-.84,4.9-2.12l-3.92,1.47Z"/>
  <path class="cls-3" d="M91.43,83.42c.22-.72,1.07-1.48,1.02-2.12-.05-.65-3.19-5.33-3.84-5.95-1.39-1.34-3.09-2.06-4.98-1.35-4.06,1.51-1.95,8.97.39,11.33-.4-2.42-.92-4.88-.65-7.36.48-4.43,6.1,1.06,5.51,2.09-.04.08-1,.51-1.44,1.01-1.87,2.17-1.4,5.66.49,7.7.87.94,2.36,1.36,2.94,1.96.39.4,1.41,3.28,2.46,1.13.97-1.97-3.07-4.56-1.91-8.44Z"/>
  <path class="cls-3" d="M113.42,76.34l-6.2-1.79c.19,1.51,6.19,3.22,6.2,1.79Z"/>
  <path class="cls-3" d="M31.45,180.28l.63,2.72c-.01-2.22.44-4.41.98-6.53-1.27.8-1.27,2.51-1.61,3.81Z"/>
</svg>