<?xml version="1.0" encoding="UTF-8"?>
<svg id="Capa_1" xmlns="http://www.w3.org/2000/svg" version="1.1" viewBox="0 0 1920 1080">
  <!-- Generator: Adobe Illustrator 29.5.1, SVG Export Plug-In . SVG Version: 2.1.0 Build 141)  -->
  <defs>
    <style>
      .st0 {
        fill: #260a08;
      }

      .st1 {
        fill: #f2eadf;
      }

      .st2 {
        fill: #fff;
      }

      .st3 {
        fill: #ebebeb;
      }
    </style>
  </defs>
  <path class="st1" d="M701.84,572.96c2.67-.45,6.22-2.67,7.82-4.9-13.19,3.41-26-2.06-32.88-13.64-2.02-3.39-4.55-9.06-5.99-12.78-1.69-4.36-3.74-10.21.07-14.05-1.48,5.29.88,10.04,2.98,14.75,4.03,9.05,9.99,18.41,19.85,21.87,9.33,3.27,22.17.93,26.18-9.09,1.04-2.61,1.52-8.29,2.5-10.01.11-.2.54-.54.63-.41l-.43,3.94.43,3.56c.77-4.62,3.88-8.53,5.79-12.78,4.54-10.1,7.82-22.61,5.36-33.61-.59-2.64-.92-4.33-4.04-4.51.19-1.16,2.69.23,2.92,0-1.25-7.34,2.2-15.11-8.86-13.66-5.16.68-11.44,4.72-9.91,10.74,4.29-4.11,6.79-6.45,12.92-3.96,1.87.76,5.5,2.52,3.5,4.82l-7.24-2.53c-.13.1,1.82,2.33.14,2.87l-8.9-.79c-.74.87,3.21,11.34,4.08,12.81,2.61,4.39,7.73,6.9,8.75,13.37.89,5.62-1.47,8.41-4.49,12.62-.77.1-.36-.87-.22-1.26.34-.93,1.06-1.8,1.38-2.79,1.88-5.73.75-10.54-3.04-15.13l-.48,3.69c-1.43,6.25-8.7,8.61-14.05,5.42-1.08-.65-2.31-2.29-3.59-2.67-1.18-.34-2.32-.05-3.46-.29-2.93-.64-5.79-1.65-6.58-4.9-.47-.35-9.03,5.28-9.97,6.09-3.94,3.37-2.4,8.09-2.12,12.69-.92.24-1.41-1.18-1.74-1.8-1.28-2.44-2.08-5.65-1.58-8.4.65-3.52,9.59-7.88,12.46-10.07,3.19-2.43,5.24-7.01,9.84-6.44.57.07,1.24.26.63.84-4.2.12-7.2,4.47-3.73,7.7,2.2,2.05,5.24,1.63,7.89,2.54,3.56,1.22,7.24,5.05,11.49,1.45,5.08-4.3-1.92-14.06-3.43-19.1-1.17-3.9-1.78-8.28-1.32-12.35.27-2.38,1.68-4.54,1.63-6.93l1.46,2.08c4.1-5.21,11.81-8.74,17.73-4.58-.31-4.19-1.09-13.1-3.98-16.25-1.51-1.65-8.89-2.93-11.31-3.29-12-1.79-24.31-.94-36.1,1.73-7.93,1.79-15.54,4.66-22.79,8.29-.5,5.05-2.17,9.79-3.84,14.52l-.82-.2,1.45-12.32-15.64,12.73,5.63,3.11,3.72-3.78,3.58-5.8-5.77,10.63,4.53,8.97c3.14-.61,4.24-4.78,4.99-7.51l-3.55,2.91c-.54.16-.82-.09-.61-.61.42-1.06,2.25-3.34,2.99-4.94,1.64-3.53,2.48-7.19,3.9-10.71.41-1.03.99-2.68,1.87-3.34-.65,6.18-.82,22.39-6.69,26.05-5,3.12-5.75-2.34-7.57-5.32-2.23-3.65-4.66-6.89-9.32-6.56-7.87.54-6.71,11.09-4.68,16.39,1.11,2.89,10.13,18.07,12.21,19.5,2.74,1.89,5.47.73,6.37-2.39l.51-4.28c2.09,10.98,4.87,22.16,12.52,30.66-.39.67-.94-.16-1.29-.38-5.93-3.7-9.02-8.18-9.97-15.27l-.65,5.85c4.14,7.68,10.26,13.29,17.54,17.93.56.36,4.16,2.7,4.39,2.49-4.78-5.97-7.09-13.32-10.76-19.9-.2-.37-.92-1.05-.3-1.37,5.57,6.81,8.7,15.88,15,22.13,1.45,1.44,12.58,9.8,13.97,10.22,1.21.36,8.62-.07,10.14-.33ZM719.65,503.61c-.6-.28-2.3-.98-2.07-1.89,3.79,1.31,7.77.89,11.68.42.24,1.06-.28.73-.78,1.08-2.86,2-5.75,1.85-8.83.4ZM695.06,545.73c1.46-.09,2.92.78,4.42,1,3.51.51,8.46.54,11.83-.59,1.86-.63,3.2-2.11,5.02-2.7-4.38,8.99-14.55,8.42-21.27,2.29ZM684.39,531.31c6.1-1.63,12.32,1.62,18.39,2.11,4.88.39,10.63-.19,15.21-1.88,1.62-.6,2.84-2.04,4.59-1.87.67,2.63-2.37,2.52-3.22,3.46-.5.55-1.45,3.1-2.28,4.19-4.9,6.46-13.99,5.76-20.9,3.1-3.03-1.17-7.71-3.78-8.71-6.93l-3.28-.06.18-2.11ZM647.71,517.98c-1.35,2.74-2.65-.94-3.15-1.44-.74-.76-2.65-1.29-3.76-2.5-2.41-2.61-3-7.06-.62-9.84.55-.64,1.78-1.19,1.83-1.29.76-1.31-6.42-8.32-7.03-2.66-.35,3.16.32,6.31.83,9.39-2.99-3.02-5.68-12.55-.49-14.47,2.41-.9,4.58.02,6.36,1.73.83.8,4.83,6.76,4.9,7.6.07.82-1.02,1.78-1.3,2.71-1.48,4.94,3.67,8.25,2.43,10.77ZM673.78,506.31c-.97-1.04,6.04-5.41,7.51-4.58-1.86,2.2-5.03,3.19-7.51,4.58ZM683.38,504.63c-.1-.72.95-.4,1.45-.41,3.83-.13,6.97-.48,10.64-1.66-3.12,3.26-8.06,4.3-12.09,2.08ZM701.73,501.3c.83-1.74.42-3.65,0-5.42,1.5,1.5,1.52,4.63,1.66,6.67-.92-.44.2-1.69-1.67-1.25ZM697.33,470.83c4.32-.12,8.65.73,12.93.87,4.88.15,9.6-.53,14.41-.01l-10.62,1.26c-7.29.46-14.46-1.08-21.73-.87-1.81.05-3.78.97-5.62.23,0-.54,9.72-1.45,10.63-1.48ZM683.7,481.4c5.84-1.46,15.85-.75,17.19,6.55,1.35-.86.68-3.24.83-4.58.54.26,1.08,2.3,1.15,2.81.23,1.81-.41,6.96-3.03,5.56-1.47-.79-1.93-1.62-3.96-2.33-8.65-2.99-16.34-1.24-22.38,5.6l-1.33-1.07c1.94-5.44,5.59-11.05,11.53-12.54ZM665.43,495.88l7.92,2.29c-.02,1.82-7.68-.36-7.92-2.29ZM667.1,502.97l9.46-3.67c6.27-4.22,12.31-9.09,19.88-3.76,4.81,3.39-2.55,3.5-4.72,1.18l.05,1.9c-3.21,2.33-6.1,1.45-9.36-.14-5.02,1.79-9.78,5.17-15.31,4.49Z"/>
  <path class="st1" d="M675.86,567.43c-7.53-4.01-17.04-9.76-22.03-16.77-2.04-2.86-3.27-6.18-5.5-8.89-.01,11.02,10.66,19.43,19.22,24.79l19.16,11.31c1.86-2.54,1.42-2.92-.64-4.79-3.57-3.24-6.39-3.6-10.22-5.64Z"/>
  <path class="st1" d="M608.58,631.36c-5.12-3.02-7.74.9-12.56.46l-33.44-9.13c-1.23.01-2.61,5.26-2.71,6.45-.29,3.58,1.06,13.47,2.45,16.78,1.61,3.84,8.24,10.8,12.02,12.6,1.62.77,3.45,1.18,5.16,1.73-.2.74-2.09.83-2.69.85-6.42.2-9.24-4.14-13.57-7.94.27,9.77,4.92,24.03,17.43,20.14,3.77-1.17,7.12-4.3,8.43-8.04l-6.47.83-3.54-1.25c6.15-.4,10.7-2.08,14.81-6.67.33-.37,3.01-3.5,2.71-3.76h-18.15c-.67,0-4.33-1.13-5.21-1.46-.86-.32-2.39-1.1-2.92-1.87l27.3.39c2.6-.83,4.42-3.07,5.24-5.6-.19-.93-4.77-.66-5.84-1.06-.03,1.73-.07,4.36-1.67,5.43l.85-5.64c-8.04-2.09-17.04-2.24-24.99-4.23-2.52-.63-5.3-1.57-6.74-3.89,6.57.84,13.21,1.5,19.75,2.57,6.18,1.01,18.41,5.04,23.87,2.46,3.61-1.7,3.46-8.38.49-10.13ZM581.58,642.72l-.42,6.67c-1.46-1.19-1.28-5.72.42-6.67ZM569.48,634.38l-.8-3.48c.43-1.65.43-3.84,2.05-4.87-.69,2.71-1.27,5.51-1.25,8.34ZM603.26,639.19c1.2.86,2.59.7,3.35,1.86-3.97-.31-8.66-3.16-5.6-7.48,1.79-2.53,4.92-3.05,6.85-.45-4.44-1.65-9.57,2.5-4.61,6.07Z"/>
  <path class="st1" d="M612.37,632.59c1.01,2.36,1.32,5.64.3,8.05-.44,1.04-1.41,1.43-1.46,2.5,4.8-4.49,8.33-10.46,10.42-16.68-3.51,1.33-6.97,3.25-10.84,3.34.18,1.13,1.09,1.64,1.58,2.8Z"/>
  <path class="st1" d="M735.52,490.87c1.04-5.39,1.44-9.8-.63-15.01-.27-.68-.8-2.18-1.45-2.51,1.6,5.37,1.44,10.57,1.66,16.06.02.51-.31,1.55.41,1.45Z"/>
  <path class="st1" d="M671.69,648.98c1.41-1.64,3.02-4.24,1.39-6.27-2.38-.4-3.53.66-5.14,2.1.37-2.23-2.02-4.6-4.18-3.55-1.52.74-1.65,5.3-1.67,6.89-.7-.04-.48-1.17-.88-1.82-1.46-2.37-4.1-2.33-4.49.82-.59,4.68,2.97,6.7,2.87,11.18l-5.41,13.6c-.69-7.47-4.13-14.81-4.61-22.3-.2-3.05.17-12.43,1.23-15.07.87-2.17,5.46-2.58,3.81-5.41l-2.97-.37-.39-1.9c8.15,4,6.2-10.01.43-5.61-.94.72-.4,1.98-1.27,2.27l-2.09-5c.96,1.58,3.74,3.57,3.26.31-.11-.74-1.48-2.77-.35-3.23,2.34,9.5,3.7.8,6.68-2.09l-2.06,6.01,1.01.66c1.11-1.2,2.16-2.34,3.97-2.08-.66,1.02-2.18,1.14-2.87,2.34-.61,1.06-.98,2.86.59,3.1,1.06.17,2.98-.97,3.53.39-.97-.29-3.53.5-3.75,1.48-.31,1.39,3.21,1.21,2.91,2.7-9.33-4.21-5.3,5.06,1.01,2.92,2.79-.94,1.42-2.22,1.63-3.58.08-.51,2.41-.95,1.96-3.7-.25-1.55-2.46-2.01-3.76-2.32,3.01-2.47,3.7-6.94-1.25-6.67,1.6-2.28-1.06-5.9-3.48-4.54-.8.45-2.27,2.28-3.06,2.39-.49.07-.99-.67-1.61-.75-3.33-.44-4.17.36-3.95,3.74l-2.49-1.25c-.58,1.09-.2,2.5-.41,3.46-.11.49-1.31.47-1.61,1.42-.91,2.89,2.63,6.12,5.35,6.4-1.29,2.99-.33,5.72-.39,8.55-.06,2.84-1.18,6.54-1.3,9.57-.16,4.15.46,8.6.85,12.74l-8.55-8.33c.74-3.15,2.66-7.55-1.66-8.78-1.05,2.24-1.7,5.1-.64,7.51l-5.83-1.46,4.58.21c.16-.69-.22-.85-.63-1.24-1.32-1.28-3.2-2.41-4.37-3.97,1.41-1.02,3.79,3.12,4.38,3.12,2.76-2.16,1.12-8.99-2.61-7.82l-.52,3.24c-6.76-2.99-5.01,2.4-1.25,5.22-3.11,1.06-3.24,2.49-.55,4.31,2.56,1.74,5.13,1.49,8.08,1.11,2.83,5.13,8.44,7.27,10.73,12.62,2.52,5.91,3.51,14.34,2.49,20.65-.38,2.39-1.7,4.57-1.98,6.99-1.26-1.36-1.8-3.77-2.56-5.57-.41-.99-1.69-2.54-1.85-3.17-.31-1.29.75-4.06.58-5.54-.06-.56-.77-3.52-.96-4.08-1.2-3.5-3.93-5.73-6.27-1.67-4.39-5.5-6.94-2.03-3.96,3.34-4.01,1.01-1.92,4.56.45,6.44,2.63,2.07,5.65,2.25,8.33,3.77,3.97,2.24,4.65,10.76,5.62,11.07,1.19.38,3.25-3.57,4.15-4.59,1.25-1.41,6.38-6.67,7.73-7.29,2.62-1.2,10.28,1.45,10.45-4.59l-1.69-1.68c4.94-5.88,4.45-12.29-3.57-5.23h-.6s-4.26,1.82-4.26,1.82c-1.53,2.85-1.32,6.07-2.23,8.2-.33.78-4.06,3.94-5,5.01-.93,1.06-1.55,2.49-2.7,3.34,2.88-5.91,2.66-12.58,4.38-18.77.4-1.44,3.53-9.32,4.36-9.79.28-.16.88.25,1.26-.02.3-.21.27-.92.73-1.05,1.67-.46,5.62-.15,6.15-2.46.09-.41-.3-1.18-.2-1.28.06-.06,1.09-.07,1.55-.33,2.37-1.36,6.5-6.51,1.37-6.78ZM640.68,678.95c-.75-.43-3.22-2.1-2.57-2.85.77.38,3.72,3.15,4.38,2.5l-.83-7.5,2.08,9.18c-.93-.62-2.11-.77-3.06-1.32ZM662.1,679.65c.4-1.32,7.84-9.1,8.33-8.56.18.78-.44.99-.83,1.46-.56.66-5.99,5.53-5.42,6.05l3.97-.83.2.82c-1.53.32-3.07.67-4.6,1.04-.22.05-2.06,1.38-1.66.01ZM667.71,653.57c-.75,1.44,1.57,3.14-2.69,3.75-.32-1.3.99-.78,1.56-1.35,2.14-2.14-3.56-4.13-5.33-3.04v1.69s-.82.2-.82.2l-.83-6.67c1.08.42,1.25,4.46,2.93,3.57,1.73-1.82,2.2-4.48,2.08-6.91.75.25.48,2.52.41,3.12-.16,1.36-.78,2.59-.83,3.96.67.73,3.22-3.95,3.96-4.17.6,1.68-3.6,4.17-1.46,5.24,1.05.52,3.28-2.37,4.58-2.32-.46,1.33-3.06,1.94-3.57,2.92Z"/>
  <path class="st1" d="M636.64,597.87c.96-10.71-3.97-19.78-9.38-28.56l-3.55,2.28c2.11,3.05,4.42,6.56,5.91,9.95,6.97,15.89-1.1,34.35-15.91,42.23l-6.69,2.69c9.73-.57,19.05-5.18,24.11-13.64,2.35-3.92,5.09-10.41,5.5-14.94Z"/>
  <path class="st1" d="M709.46,538.45c2.87-.25,4.8-1.58,6.03-4.18-4.14.98-8.42,1.92-12.72,1.66-.88-.05-9.38-1.95-9.4-1.45,4.72,3.37,10.33,4.49,16.08,3.98Z"/>
  <path class="st1" d="M679.2,587.24l-7.37-2.01-15.98-8.42c5.08,4.95,14.67,11.13,21.91,10.84.51-.02,1.55.32,1.45-.41Z"/>
  <path class="st1" d="M764.52,651.49c1.25-3.19,5.91-6.81,6.48-10.85,4.2,2.41,15.09-5.33,5.83-6.26-.51-.45,2.65-3.7,2.84-4.49.69-2.74-3.31-2.66-4.93-1.35.06-1.19-.91-2.62-2.2-2.45-2.85.37-2.26,6.92-.1,8.28,1.32-1.5,1.48-4.03,3.96-4.16l-4.16,5.63c1.32,1.66,3.05-.32,4.58,0l-5.42,2.29c1.1-2.5-.58-4.28-1.04-6.68l-1.88-.41c.05,1.06-.45,2-.4,3.07.09,1.83,1.87,4.62,1.58,6.22-.07.4-4.16,6.47-4.52,6.78-.29.25-.74.44-.83,0,.34-.31,0-.61-.01-.84-.17-2.24,0-4.8,0-7.09,0-2.98-1.74-8.34-2.12-12.06-.15-1.48-.97-3.15-1.2-4.66.03-.8,1.78-1.58,2.49-2.47,1.44-1.81,1.66-4.02.87-6.19l-2.96-.7c1.22-5.18-2.93-5.38-5.83-2.08.08-1.32-.33-2.6-1.53-3.29-1.52-.87-1.54.25-2.03.27-.35.01-.95-1.64-2.82-1.08-1.68.72-1.02,2.61-1.15,4.09-2.36-.48-3.08,2.41-2.27,4.18.5,1.11,2.14.87,1.87,2.09-2.56.45-4.7,2.24-2.92,4.8.56.81,1.97,1.41,2.04,1.52.4.71-1.32,2.07.73,3.22,2.47,1.38,8,.12,6.86-3.41-1.78-1.79-3.02,1.22-5.04.96.19-.84,1.63-.8,2.1-1.54,1.32-2.08-1.22-2.84-2.93-3.05.29-1.13,2.7-.02,3.14-.1.97-.17.67-2.66.22-3.37-.48-.76-2.28-.61-2.53-1.53,1.55-.21,2.58.58,3.55,1.66l1-.68-1.63-4.74c3.54,3.34,3,8.29,7.5,1.67l-.83,4.59c1.55.03,1.77-1.9,2.91-2.5l-2.09,4.17c-1.92-2.69-3.27-1.94-6.28-1.49-1.33,2.55-.02,5.87,3.13,5.65,1.2-.08,1.62-1.24,2.73-1.24-.57,1.03-.56,1.88,0,2.91-.18.15-4.03-1.48-3.33,1.44.49,2.05,3.49,1.92,4.53,3.41,2.14,3.05,2.84,16.07,2.55,19.97-.39,5.17-2.36,10.1-2.92,15.23-1.31-.55-.68-2.29-.94-3.44-.76-3.4-3.7-7.1-4.04-8.88-.84-4.43,3-8.74.71-13.02-.82-.59-1.62-.53-2.38.13l-1.69,3.11c-.17-4.05-3.37-9.73-5.85-3.33-1.73-.38-3-1.77-4.94-1.19-1.24,2.3.22,4.05,1.61,5.78-.87.12-2.01.45-2.11,1.47.4,2.15,3.54,6.38,6.01,5.58,3.41-1.11-3.8-4.34-4.31-5.37,2.01-.14,4.73,4.36,6.08,1.65l-3.16-4.15c1.38-.42,3.83,4.58,4.59,3.75l-.83-6.25,1.34,4.28.99,1.12c1.49.26,1.94-3.64,3.08-4.15l-.83,5.84c-2.78-3.06-8.19,3.63-5.84,5.64.75.64,5.59,1.36,6.67.62.49,1.91,1.93,3.19,2.72,5.01,1.67,3.85,1.58,7.35,1.46,11.46l-.84,8.56c-2.96-2.92-2.56-7.22-3.62-10.76-.35-1.17-2.2-5.43-3.64-5.08l-.86,1.24c-6.89-6.22-6.63-.17-2.33,4.43.23,1.08-2.16.35-.74,2.82,2.13,3.69,4.76,1.97,6.65,3.36,1.95,1.44,3.09,5.31,4.37,7.34,2.42-.37,1.64-2.22,2.25-4.01.59-1.73,4.97-6.79,6.48-7.7,2.58-1.56,10.92-.56,9.29-5.72l-1.98-.73c1.9-1.5,3.26-4.04,2.73-6.49-1.94-1.4-3.12,1.24-4.2,2.52-.29-1.24-.04-3.1-2.02-2.45-1.27.42-2.29,5.73-2.87,7.15-1.64,4.02-4.91,6.37-6.99,10.12-.63.57-.45-.44-.41-.83.51-4.89,3.09-18.41,4.79-22.75ZM749.71,671.5l2.08-.62-4.58-6.47c2.88,2.08,4.76,5.18,6.25,8.34l-3.75-1.25ZM770.98,661.08l-2.08,5.84,5-1.88c-1.62,1.65-4,2.49-6.25,2.71l3.33-6.67Z"/>
  <path class="st1" d="M704.86,674.84c1.54-3.11,2.02-7.18,2.29-10.64.95-11.78-.52-24.5-2.63-36.16-1.91-10.54-5.14-20.77-6.96-31.33l-2.31-1.08c-.96.08-2.89,11.61-3.06,13.13-.38,3.29-.53,6.64-.47,9.96l-.83,5.22c-2.93-9.83-1.74-19.77,1.26-29.4-.11-1.1-3.72-2.96-3.97-4.81-9.74,14.35-14.34,35.38-5.85,51.32,5.02,9.43,11.59,14.37,17.95,22.1,2.87,3.48,3.61,7.37,4.58,11.68Z"/>
  <path class="st1" d="M705.9,677.35c-4.51,2.01-4.84-5.46-6.05-8.34-1.69-4.03-6.36-7.35-9.38-10.43-.86,14.11-3.43,28.21-7.51,41.71l24.2-.83-1.26-22.11Z"/>
  <path class="st1" d="M582.23,602.7c2.83-5.5-1.18-9.12-5.79-11.36-2.18-1.06-6.91-3.11-9.15-2.75-5.62.91-9.03,8.56-5.09,12.81,1.47,1.59,9.84,3.81,12.19,4.08,3.27.37,6.16.48,7.84-2.78ZM579.08,594.34l-5.31.73c-2.57,1.47-3.25,4.91-.73,6.78,1.53,1.14,3.03,1.04,4.63,1.63.44.16,1.2.21.58.87-.39.41-1.81.28-2.42.17-10.14-1.81-5.72-14.6,3.25-10.17Z"/>
  <path class="st1" d="M785.58,661.08c2.13-7.67,1.95-16.43,1.69-24.42-.47-14.38-2.23-29.01-4.81-43.17l-1.88-5.83c.8,6.59,1.83,13.21,2.5,19.82,1.8,17.93,1.42,34.35,2.09,52.15.02.51-.31,1.55.41,1.45Z"/>
  <path class="st1" d="M626.36,567.56c3.03-2.01,2.57-5.54-.54-7.25-4.67-2.58-19.28-3.04-24.86-2.71-1.57.09-3.12.72-4.78.44.07,3.94,3.14,2.11,5.61,2.06,5.15-.09,12.38.42,17.41,1.4,1.78.35,3.92.63,5.34,1.74.02,1.54-7.62,2.55-8.97,2.71-6.6.75-15.45.79-22.13.44-4.59-.24-9.19-1.06-13.54-2.53-.13-.89-.04-.67.53-.93,2.01-.91,4.85-.95,6.98-1.58l-.63-1.66c-.89-1.12-7.75,1.02-9.07,1.77-3.97,2.26-.24,5.21,2.62,6.35,8.09,3.24,39.01,4.4,46.02-.27Z"/>
  <path class="st1" d="M587.42,541.35c-2,1.02-5.8,1.11-5.41,4.17,1.98-1.75,7.15-.78,5.41-4.17Z"/>
  <path class="st1" d="M574.62,528.08c-.95-.69-6.15-4.24-6.8-4.43-.93-.28-2.35,1-3.35,1.02,6.5,4.49,13.42,8.66,16.7,16.26l3.32-1.87c-2.41-4.52-5.77-7.99-9.87-10.98Z"/>
  <path class="st1" d="M710.08,699.04l27.53-7.1-8.35-33.37c-.57-.12-.45.43-.61.83-2.58,6.19-2.63,12.56-4.16,18.79-1.22,5-3.5,4.37-6.49,1.03-2.59-2.89-4.12-7.06-5.73-10.54l-2.6-8.04c.15,3.12-.15,6.18-.53,9.28-.14,1.15-.94,2.52-1.01,3.5-.2,2.85,1.26,9.11,1.53,12.47.34,4.35.44,8.77.43,13.14Z"/>
  <path class="st1" d="M711.46,652.81c1.65,8.6,4.21,17.9,9.46,24.95.96-5.52,1.92-11.03,3.38-16.44,4.79-17.84,10.04-26.31,2.89-45.51-3.56-9.57-10.74-20.49-19.37-26.04l-2.28,3.83c3.53,5.78,6.78,11.81,9.61,17.97,3.05,6.65,7.73,16.61,7.43,23.86-.02.51.32,1.55-.41,1.45-5.35-14.13-11.21-28.09-18.57-41.3l-.75-.36-1.89.84c1.57,8.83,3.95,17.66,5.65,26.56,1.9,10.01,2.94,20.21,4.85,30.19Z"/>
  <path class="st1" d="M561.24,618.84c1.22,1.32,11.22,2.88,13.75,3.56,5.51,1.47,11.17,3.74,16.59,5.1,3.68.92,8.78,2.17,10.93-2.01,2.57-4.99-.35-8.41-4.81-10.38-6.51-2.87-16.94-4.31-24.15-6.3-3.3-.91-6.56-1.94-9.73-3.22-1.13.03-3.22,4.09-3.43,5.32-.25,1.5-.12,6.89.84,7.93ZM600.3,618.58l.05,1.2c-3.35-3.16-10.86.41-7.36,4.44l5.27,3.07c-11.69-.05-8.99-14.87,2.03-8.7ZM579.49,614.97c.16-.47.23-1.51.84-1.45-.68,2.77-1.05,5.46-.83,8.34-.58.1-.66-1.18-.71-1.57-.24-2.05.05-3.39.71-5.31Z"/>
  <path class="st1" d="M713.45,567.05c-1.32,1.24-2.22,3.13-3.79,4.55-1.37,1.24-3.16,2.16-4.59,3.33l2.47,3.29.85.25c.04-.37.16-.75.45-1,4.63-3.97,9.02-8.7,10.4-14.85-1.51,1.88-4.22,2.95-5.8,4.42Z"/>
  <path class="st1" d="M691.9,590.62c.81.62,1.47-.01,2.2.26.79.29,1.59,1.49,2.73,1.87,9.79,3.27,13.72-18.34,1.98-16.78,1.6,3.61,2.76,9.27.52,12.81-.27.43.02.73-.94.53.11-4.35.05-8.65-.86-12.91l-6.66.6c-2.85,2.49-1.48,11.71,1.02,13.6Z"/>
  <path class="st1" d="M640.19,595.17c-.5,7.11-2.59,14.02-6.46,20.02,8.9-3.56,18.44-12.9,6.46-20.02Z"/>
  <path class="st1" d="M569.06,677.98c-9.23-8.22-9.3-20.12-10.85-31.5-1.55,1.15-1.92,4.24-2.07,6.05-.99,11.87,2.98,23.45,13.21,30.16,17.24,11.32,28.56-11.87,30.58-25.79-3.59,4.7-4.62,10.66-7.71,15.86-5.71,9.62-13.87,13.5-23.17,5.21Z"/>
  <path class="st1" d="M724.25,572.22l-4.6,6.87-6.25,6.06c5.26-1.92,9.76-7.44,10.84-12.93Z"/>
  <path class="st1" d="M543.62,648.98l11.68-4.58c-4.19.27-8.8,1.43-11.68,4.58Z"/>
  <path class="st1" d="M554.29,682.74l-3.58-7.89c.79,10.49,9.13,20.52,20.23,20.02.51-.02,1.55.32,1.45-.41-7.5-.38-14.14-5.59-18.11-11.72Z"/>
  <path class="st1" d="M594.73,563.86l.44-.84c-2.07-4.27-3.63-8.8-5.72-13.07-.74-1.51-1.08-3.42-2.97-3.12-.38.06-2.05.9-2.22,1.17l7.12,15.03,3.35.81Z"/>
  <path class="st1" d="M704.85,401.74c.76.09,1.52.18,2.28.28-.76-.1-1.52-.19-2.28-.28Z"/>
  <path class="st1" d="M557.82,617.88c0-.91-.44-1.73-.43-2.49.04-4.28.37-7.53,3.28-10.92-3.82-4.72-4.15-11.79.69-15.97,1.9-1.64,4.03-1.87,5.97-3.2.65-2.73,1.38-5.35,2.5-7.93,1.94-4.48,4.35-5.84,4.26-11.21-.02-1.01-.5-1.94-.46-2.89.18-4.63,7.7-5.88,11.29-6.48.17-.16-1.48-3.82-1.74-4.3-1.21-2.24-4.15-4.54-4.14-6.75,0-.97.6-1.91.38-2.81-.46-1.92-4.77-7.19-6.4-8.65-2.54-2.26-10.76-6.6-11.9-8.54-2.04-3.48,4.73-4.7,7.14-4.22,3.94.79,12.21,7.46,14.75,10.7,1.33,1.69,2.6,5.01,3.82,6.19.85.82,1.76.76,2.62,1.97,1.76,2.48.16,3.63.56,5.25.19.8,2.34,4.25,2.92,5.46.64,1.34,1.27,2.96,1.64,4.4,6.16-.24,12.79-.76,18.95-.38,3.04.18,8.21,1.72,10.78,1.55,2.44-.17,12-3.51,14.31-4.8,3.97-2.2,5.12-7.15,6.87-11.07,1.33-2.98,3.61-4.98,2.86-8.61-7.96-.2-10.42-9.45-14.3-14.9-13.03-2.27-40.18-11.26-28.42-29.29,10.09-15.46,52.72-29.84,70.6-33.7,21.05-4.54,47.33-6.66,68.64-3.4,10.86,1.66,26.86,5.68,20.25,20.11-3.91,8.54-15.5,16.12-23.45,20.77-.94.55-5.02,2.24-5.29,2.74-.27.5-.8,4.51-.79,5.28.04,4.65,2.36,10.16,2.46,15.07.12,6.29-2.8,16.45-5.1,22.42-2.29,5.94-5.77,11.53-7.82,17.62,8.76,4.01,18.68,4.77,28.03,7,8.89,2.12,17.83,5.05,26.53,7.68,10.75,3.25,15.97,20.49,21.35,29.13,4.61,7.39,11.84,13.87,16.29,21.47,2.62-3.85,4.5-8.84,6.15-13.25,32.14-86.12-18.15-180.55-109.19-196.81-104.88-18.73-192.04,72.91-168.76,176.69,2.62,11.69,7.09,22.71,11.48,33.78.58-.13.85-2.32.84-2.73ZM636.86,447.9c6.76-23.27,35.42-35.14,57.98-32.53,18.14,2.09,27.66,16.37,32.75,32.53-32.21-2.88-64.19,4.41-93.03,18.36.48-6.3.51-12.22,2.29-18.35Z"/>
  <path class="st1" d="M709.49,402.33c.16.02.31.05.47.07-.16-.02-.31-.05-.47-.07Z"/>
  <path class="st0" d="M1066.52,625.1c.13-.2.26-.43.4-.69.07-.13.13-.25.2-.35.07-.1.1-.18.1-.25v-.2h-.2c-.33.2-.72.33-1.18.39-.33.13-.58.23-.74.3-.16.07-.28.13-.35.2-.13.07.03.23.49.49.46.26.79.39.99.39.07,0,.17-.1.3-.3Z"/>
  <path class="st0" d="M1102.03,617.49c.43-.13.9-.33,1.43-.59.66-.4,1.32-.92,1.97-1.58.66-.66.99-1.15.99-1.48s-.07-.49-.2-.49c-.2.07-.54.21-1.04.44-.49.23-.94.51-1.33.84-.2.13-.43.35-.69.64-.26.3-.53.59-.79.89-.26.3-.49.58-.69.84-.2.26-.3.43-.3.49,0,.13.21.13.64,0Z"/>
  <path class="st0" d="M1134.17,593.99c-.33-.06-1.05.41-2.17,1.43-1.12,1.02-2.21,2.16-3.26,3.41-.73.86-1.55,1.94-2.47,3.26-.92,1.32-1.75,2.57-2.47,3.75-.4.53-.82,1.2-1.28,2.02-.46.82-.91,1.63-1.33,2.42-.43.79-.79,1.48-1.09,2.07-.3.59-.44.92-.44.99,0,.13.33-.05.99-.54.66-.49,1.45-1.14,2.37-1.93,1.12-.99,2.3-2.17,3.55-3.56,1.25-1.38,2.34-2.73,3.26-4.05,1.51-2.17,2.72-4.16,3.6-5.97.89-1.81,1.17-2.88.84-3.21l-.1-.1Z"/>
  <path class="st0" d="M1190.6,400.65l-492.09.47c2.1.16,4.22.37,6.34.61.76.09,1.52.18,2.28.28.79.1,1.58.21,2.37.32.16.02.31.05.47.07,4.74.7,9.5,1.59,14.3,2.73,123.17,29.3,156.48,190.16,58.18,268.87-27.28,21.84-58.24,32.41-89.65,32.88,0,0-.02,0-.02,0l497.83-.43c84.44,0,152.9-68.46,152.9-152.9h0c0-84.45-68.46-152.9-152.9-152.9ZM1076.52,493.89h2.03c1.33,2.12,2.3,2.03,4.77,2.03h34.98c2.47,0,3.18-.35,4.5-2.03h2.12c0,4.15.35,10.51.8,15.63l-2.65.27c-.8-2.83-1.86-5.74-2.83-7.33-1.41-2.38-2.3-3-7.15-3h-8.83v43.01c0,6.89.71,7.86,9.1,8.39v2.47h-25.7v-2.47c8.21-.53,8.92-1.41,8.92-8.39v-43.01h-8.04c-4.86,0-6.27.53-7.77,3.18-1.06,1.77-1.77,3.89-2.91,7.15h-2.65c.53-5.39,1.06-10.95,1.32-15.9ZM1092.74,607.82c-.17.4-.41.66-.74.79-.46.2-.82.23-1.09.1-.53-.13-.81-.44-.84-.94-.03-.49.18-.97.64-1.43.33-.33.66-.49.99-.49.59-.13.99.17,1.18.89.06.33.02.69-.15,1.09ZM986.96,495.92h13.25l37.45,44.43v-21.64c0-8.21-.18-12.01-.44-14.66-.27-3.97-2.3-5.21-9.36-5.65v-2.47h21.82v2.47c-5.65.62-7.51,1.5-7.77,5.56-.09,2.83-.27,6.54-.27,14.75v35.42h-3.36l-37.8-46.19v22.08c0,7.95.27,11.92.44,14.49.18,4.5,2.39,5.83,8.74,6.36v2.47h-21.46v-2.47c5.48-.44,7.6-1.77,7.95-6.09.26-2.83.44-6.8.44-14.84v-22.52c0-2.47-.18-3.89-1.77-5.83-1.68-2.21-3.53-2.74-7.86-3.18v-2.47ZM1001.99,607.82c-.17.4-.41.66-.74.79-.46.2-.82.23-1.09.1-.53-.13-.81-.44-.84-.94-.03-.49.18-.97.64-1.43.33-.33.66-.49.99-.49.59-.13.99.17,1.18.89.06.33.02.69-.15,1.09ZM951.46,494.69c15.1,0,28.62,11.57,28.62,29.15,0,18.99-12.9,30.82-29.15,30.82s-29.32-12.9-29.32-29.5,11.22-30.47,29.85-30.47ZM853.96,550.86c7.6-.71,7.95-1.33,7.95-8.57v-35.24c0-7.6-1.06-7.95-7.95-8.66v-2.47h24.55c12.45,0,20.31,2.47,25.79,7.68,4.33,4.24,7.51,10.42,7.51,18.9,0,10.33-4.24,18.72-11.04,23.85-6.71,5.03-15.28,6.98-26.14,6.98h-20.67v-2.47ZM913.61,616.21c-.82.86-1.78,1.81-2.86,2.86-1.09,1.05-2.17,2.07-3.26,3.06s-1.93,1.71-2.52,2.17c-2.37,1.78-4.12,2.47-5.23,2.07-.53-.2-.94-.64-1.23-1.33s-.38-1.5-.25-2.42c.06-.53.23-1.22.49-2.07.26-.85.56-1.68.89-2.47.13-.26.1-.33-.1-.2-.2.13-.69.63-1.48,1.48-2.96,3.16-4.94,5.07-5.93,5.73-1.32.73-2.29.73-2.91,0-.62-.72-.71-1.84-.25-3.36.2-.72.56-1.56,1.09-2.52.53-.95,1.09-1.86,1.68-2.72.59-.85,1.17-1.58,1.73-2.17.56-.59,1-.89,1.33-.89.26,0,.49.1.69.3.2.2.3.39.3.59,0,.26-.33.82-.99,1.68-.66.92-1.27,1.84-1.83,2.77-.56.92-1.02,1.76-1.38,2.52-.36.76-.61,1.38-.74,1.88-.13.49-.1.74.1.74s.54-.15,1.04-.44,1-.64,1.53-1.04c.39-.33,1.05-.92,1.97-1.78.92-.85,1.86-1.76,2.81-2.72.95-.95,1.83-1.86,2.62-2.72.79-.85,1.32-1.45,1.58-1.78.79-1.05,1.41-1.45,1.88-1.19.2.2.26.48.2.84-.07.36-.36,1-.89,1.93-1.71,2.96-2.83,5.38-3.36,7.26-.53,1.88-.36,2.81.49,2.81.33,0,.94-.23,1.83-.69.89-.46,1.76-.99,2.62-1.58.39-.33.95-.81,1.68-1.43.72-.62,1.45-1.23,2.17-1.83,2.04-1.91,3.44-3.19,4.2-3.85.76-.66,1.2-1.02,1.33-1.09.06,0,.13.03.2.1,0,.13-.41.63-1.23,1.48ZM923.43,589.64c-6.98-.13-12.51-.23-16.59-.3-4.08-.06-6.19-.06-6.32,0-.07,0-.31.31-.74.94-.43.63-1.19,1.75-2.27,3.36-1.09,1.61-2.57,3.87-4.44,6.76-1.88,2.9-4.3,6.65-7.26,11.26-1.98,2.96-3.89,5.91-5.73,8.84-1.84,2.93-3.52,5.65-5.04,8.15-1.52,2.5-2.85,4.72-4,6.67-1.15,1.94-1.99,3.44-2.52,4.49-.33.66-.49,1.05-.49,1.18s.2.03.59-.3c.2-.2.31-.18.35.05.03.23-.05.54-.25.94-.33.72-.77,1.46-1.33,2.22-.56.76-.94,1.2-1.14,1.33-.53.39-1.05.39-1.58,0-.53-.4-.59-1.17-.2-2.32.4-1.15,1.35-2.98,2.86-5.48.53-.86,1.37-2.21,2.52-4.05,1.15-1.84,2.47-3.93,3.95-6.27s3.06-4.82,4.74-7.46c1.68-2.63,3.34-5.23,4.99-7.8,1.45-2.17,2.73-4.13,3.85-5.88,1.12-1.74,2.14-3.36,3.06-4.84.92-1.48,1.79-2.86,2.62-4.15.82-1.28,1.63-2.58,2.42-3.9.53-.85.99-1.61,1.38-2.27.4-.66.66-1.05.79-1.19l.3-.49-6.62.1c-5.6.13-10.58.35-14.96.64-4.38.3-8.21.73-11.5,1.28-3.29.56-6.09,1.25-8.39,2.07-2.31.82-4.18,1.76-5.63,2.81-.66.53-1.25,1.12-1.78,1.78-.53.66-.86,1.28-.99,1.88-.2.53-.3,1.19-.3,1.98s.1,1.48.3,2.07c.53,1.78,1.74,3.87,3.65,6.27,1.91,2.4,4.25,4.76,7.01,7.06.79.66,1.69,1.32,2.72,1.97,1.02.66,2.19,1.28,3.51,1.88.59.33,1.17.63,1.73.89.56.26.9.46,1.04.59.33.33.39.59.2.79-.33.4-1.32.33-2.96-.2-1.71-.53-3.28-1.28-4.69-2.27-1.42-.99-3.05-2.37-4.89-4.15-6.98-6.98-9.78-12.64-8.39-16.99.26-.72.69-1.48,1.28-2.27s1.25-1.45,1.98-1.98c1.12-.92,2.55-1.74,4.3-2.47,1.74-.72,3.67-1.32,5.78-1.78,1.84-.46,4.01-.87,6.52-1.23,2.5-.36,5.2-.67,8.1-.94,2.9-.26,5.97-.46,9.23-.59,3.26-.13,6.6-.2,10.02-.2h2.62c.62,0,1.09-.02,1.38-.05.3-.03.48-.06.54-.1.06-.03.13-.08.2-.15.59-.9,1.12-1.35,1.58-1.35.72,0,1.02.35.89,1.06l-.1.59h3.36c3.36.07,6.98.12,10.86.15,3.88.03,7.64.03,11.26,0,3.62-.03,6.88-.08,9.78-.15,2.9-.06,5-.16,6.32-.3,1.05-.06,2.02-.15,2.91-.25.89-.1,1.61-.18,2.17-.25.56-.06.89-.13.99-.2.1-.06-.08-.1-.54-.1-.53,0-1.65-.03-3.36-.09-1.71-.06-3.49-.14-5.33-.23-1.84-.09-3.49-.17-4.94-.23-1.45-.06-2.21-.09-2.27-.09-.59-.19.2-.37,2.37-.56,1.78-.25,3.59-.41,5.43-.47,1.84-.06,3.92-.09,6.22-.09,2.63,0,4.54.03,5.73.09,1.18.06,1.94.22,2.27.47.53.38.76.79.69,1.23-.07.45-.43.84-1.09,1.17-.46.26-1.33.51-2.62.74-1.28.23-2.68.41-4.2.54-.66.07-1.86.13-3.6.2-1.75.07-3.75.1-6.02.1s-4.68-.02-7.21-.05c-2.54-.03-4.89-.08-7.06-.15ZM946.05,625.49c-2.11,1.05-3.56.82-4.35-.69-.2-.39-.33-1.07-.39-2.02-.07-.95-.03-1.73.1-2.32,0-.13.02-.21.05-.25s.05-.11.05-.25v-.3l-.49.49c-.13.13-.3.31-.49.54-.2.23-.4.48-.59.74-1.52,1.84-2.73,3.13-3.65,3.85-.92.73-1.78,1.12-2.57,1.19-.53.13-.95.07-1.28-.2-.66-.4-.99-1.15-.99-2.27,0-.79.21-1.68.64-2.67.43-.99.99-1.94,1.68-2.86.69-.92,1.51-1.78,2.47-2.57.95-.79,1.93-1.45,2.91-1.97,1.05-.59,2.01-.89,2.86-.89s1.38.3,1.58.89c.2.33.43.49.69.49.53,0,.81.2.84.59.03.39-.21,1.15-.74,2.27-.73,1.71-1.2,3.06-1.43,4.05-.23.99-.28,1.84-.15,2.57.06.59.33.96.79,1.09.2.13.38.18.54.15.16-.03.41-.11.74-.25.92-.33,2.07-1.04,3.46-2.12,1.38-1.09,3.13-2.68,5.23-4.79.92-.85,1.69-1.58,2.32-2.17.62-.59.97-.89,1.04-.89.46,0-.07.79-1.58,2.37-1.78,1.98-3.51,3.7-5.18,5.18-1.68,1.48-3.05,2.49-4.1,3.01ZM986.63,621.79c-1.05.76-2.04,1.45-2.96,2.07-.92.63-1.58,1.04-1.98,1.23-1.38.73-2.47.76-3.26.1-.26-.2-.43-.4-.49-.59-.07-.2-.1-.56-.1-1.09-.07-.72.03-1.51.3-2.37.26-.85.85-2.14,1.78-3.85.33-.72.62-1.33.89-1.83.26-.49.39-.77.39-.84,0-.2-.1-.26-.3-.2-.2.07-.66.26-1.38.59-1.32.73-2.93,1.71-4.84,2.96-1.91,1.25-3.82,2.63-5.73,4.15-.99.79-1.66,1.3-2.02,1.53-.36.23-.68.35-.94.35-.66,0-.99-.36-.99-1.09,0-.2.05-.43.15-.69.1-.26.26-.64.49-1.14.23-.49.58-1.12,1.04-1.88.46-.76,1.05-1.69,1.78-2.81,1.71-2.63,2.57-4.21,2.57-4.74,0-.2-.53-.03-1.58.49-1.45.73-3.11,1.91-4.99,3.55-1.88,1.65-4.2,3.92-6.96,6.81-1.78,1.84-2.98,3.06-3.6,3.65-.62.59-1.1.89-1.43.89-.13,0-.3-.13-.49-.4-.26-.2-.36-.44-.3-.74.07-.3.26-.81.59-1.53.26-.59.71-1.4,1.33-2.42.63-1.02,1.28-2.07,1.98-3.16.69-1.09,1.35-2.09,1.97-3.01.63-.92,1.1-1.58,1.43-1.98.33-.46.67-.67,1.04-.64.36.03.54.31.54.84,0,.13-.18.56-.54,1.28-.36.73-.81,1.55-1.33,2.47-.53.92-.97,1.73-1.33,2.42-.36.69-.61,1.1-.74,1.23,0,.13.21-.01.64-.44s1-.97,1.73-1.63c2.11-1.97,3.95-3.6,5.53-4.89s3.03-2.32,4.35-3.11c1.25-.72,2.17-.97,2.76-.74.59.23.82.91.69,2.02-.07.53-.48,1.56-1.23,3.11-.76,1.55-1.7,3.18-2.81,4.89-.2.33-.21.46-.05.4.16-.06,1-.62,2.52-1.68.59-.39,1.33-.87,2.22-1.43.89-.56,1.78-1.12,2.67-1.68.89-.56,1.69-1.05,2.42-1.48.72-.43,1.25-.74,1.58-.94,1.32-.72,2.2-.82,2.67-.3.46.53.36,1.55-.3,3.06-.2.33-.44.82-.74,1.48-.3.66-.58,1.25-.84,1.78-1.71,3.82-1.48,5.27.69,4.35.46-.2,1.1-.56,1.93-1.09.82-.53,1.73-1.14,2.72-1.83.99-.69,1.96-1.38,2.91-2.07.95-.69,1.79-1.33,2.52-1.93,1.25-.99,2.01-1.58,2.27-1.78.26-.2.46-.23.59-.1.13.13.1.31-.1.54-.2.23-.86.81-1.98,1.73-.53.46-1.28,1.07-2.27,1.83-.99.76-2.01,1.52-3.06,2.27ZM990.78,622.92c.13-.53.41-1.23.84-2.12.43-.89.91-1.79,1.43-2.72.53-.92,1.09-1.81,1.68-2.67.59-.85,1.12-1.51,1.58-1.97.46-.46.85-.69,1.18-.69.26,0,.46.1.59.3.26.26.31.59.15.99-.17.39-.64,1.25-1.43,2.57-.92,1.45-1.79,2.9-2.62,4.34-.82,1.45-1.33,2.54-1.53,3.26-.13.46-.2.76-.2.89s.07.3.2.49c.66.99,2.27.59,4.84-1.18,1.05-.66,2.39-1.69,4-3.11,1.61-1.42,3.24-2.95,4.89-4.59.53-.53.97-.95,1.33-1.28.36-.33.58-.49.64-.49.13,0,.08.2-.15.59-.23.39-.81,1.05-1.73,1.97-.79.92-1.65,1.83-2.57,2.72-.92.89-1.83,1.73-2.72,2.52-.89.79-1.74,1.5-2.57,2.12-.82.63-1.53,1.1-2.12,1.43-1.05.59-1.91.96-2.57,1.09-.66.13-1.28.03-1.88-.3-1.25-.59-1.68-1.98-1.28-4.15ZM1022.28,622.63c-1.05.73-1.73,1.22-2.02,1.48-.3.26-.54.59-.74.99-.79,1.78-1.71,3.69-2.77,5.73-1.05,2.04-2.17,4.06-3.36,6.07-1.18,2.01-2.37,3.92-3.55,5.73-1.19,1.81-2.3,3.37-3.36,4.69-1.51,1.91-3.09,3.62-4.74,5.14-1.64,1.51-3.06,2.53-4.25,3.06-.66.33-1.35.51-2.07.54-.72.03-1.32-.02-1.78-.15-.53-.26-.94-.68-1.23-1.23-.3-.56-.44-1.2-.44-1.93,0-.79.33-1.88.99-3.26.66-1.38,1.55-2.8,2.67-4.25.79-1.05,1.73-2.19,2.81-3.41,1.09-1.22,2.27-2.47,3.56-3.75s2.63-2.55,4.05-3.8c1.42-1.25,2.81-2.44,4.2-3.56.66-.53,1.37-1.1,2.12-1.73.76-.63,1.48-1.2,2.17-1.73.69-.53,1.3-.99,1.83-1.38.53-.39.85-.66.99-.79.2-.13.41-.39.64-.79.23-.39.54-1.05.94-1.97.72-1.51,1.3-2.95,1.73-4.3.43-1.35.64-2.25.64-2.72.06-.4.06-.62,0-.69-.07-.06-.2-.13-.4-.2-.33-.06-1.09.4-2.27,1.38-1.19.99-2.9,2.6-5.14,4.84-2.17,2.17-3.69,3.62-4.54,4.35-.86.73-1.58,1.12-2.17,1.18-.33.07-.54.07-.64,0-.1-.06-.28-.2-.54-.39-.2-.26-.33-.48-.4-.64-.06-.16-.1-.48-.1-.94,0-1.25.48-2.73,1.43-4.44.96-1.71,2.25-3.39,3.9-5.04.72-.72,1.46-1.33,2.22-1.83.76-.49,1.37-.74,1.83-.74.85,0,1.48.36,1.88,1.09.33.53.43,1.2.3,2.02-.13.82-.36,1.27-.69,1.33-.2,0-.33-.06-.39-.2-.07-.13-.17-.49-.3-1.09,0-.53-.1-.79-.3-.79-.33-.13-.81.03-1.43.49-.63.46-1.3,1.09-2.02,1.88-.73.79-1.43,1.66-2.12,2.62-.69.96-1.27,1.86-1.73,2.72-.46.92-.72,1.53-.79,1.83-.06.3.07.41.4.35.33-.06.85-.36,1.58-.89.72-.53,1.78-1.45,3.16-2.76,1.91-1.78,3.54-3.26,4.89-4.44,1.35-1.19,2.29-1.94,2.81-2.27,1.05-.66,1.81-.69,2.27-.1.79.79.49,3.16-.89,7.11-.4,1.18-.53,1.78-.4,1.78.06-.06.25-.18.54-.35.3-.16.61-.41.94-.74.85-.59,1.88-1.27,3.06-2.02,1.18-.76,2.32-1.48,3.41-2.17,1.09-.69,2.02-1.27,2.81-1.73.79-.46,1.22-.66,1.28-.59.13.13.11.28-.05.44-.16.17-.68.51-1.53,1.04-1.38.92-2.9,1.91-4.54,2.96-1.65,1.05-3.1,2.04-4.34,2.96ZM1050.92,615.27c-.26.23-.66.53-1.18.89-.53.36-1.12.74-1.78,1.14-.66.4-1.32.73-1.98.99-1.38.66-3,1.19-4.84,1.58-.33.13-.76.66-1.28,1.58-1.65,2.83-3.42,4.71-5.33,5.63-.39.13-.84.23-1.33.3s-.9.03-1.23-.1c-.33-.13-.66-.41-.99-.84-.33-.43-.53-.8-.59-1.14-.13-.92-.05-2.04.25-3.36.3-1.32.81-2.53,1.53-3.65.46-.72,1.02-1.51,1.68-2.37.66-.85,1.25-1.48,1.78-1.88.66-.46,1.15-.66,1.48-.59.33,0,.69-.06,1.09-.2.66-.4,1.28-.59,1.88-.59.66,0,1.15.2,1.48.59.33.33.49.97.49,1.93s-.17,1.89-.49,2.81l-.39.99.59-.1c.92-.13,2.06-.48,3.41-1.04,1.35-.56,2.68-1.2,4-1.93,1.12-.66,1.74-.99,1.88-.99.2,0,.16.12-.1.35ZM1076.3,619.42c-1.45.69-2.75,1.33-3.9,1.93-1.15.59-1.83.92-2.02.99-.26.13-.49.33-.69.59-.2.26-.49.76-.89,1.48l-.99,1.88.59.79c1.78,2.37,1.38,6.25-1.19,11.65-.39.92-.92,1.91-1.58,2.96-.66,1.05-1.18,1.81-1.58,2.27-.99.99-1.84,1.22-2.57.69-.72-.53-.9-1.93-.54-4.2.36-2.27,1.3-5.28,2.81-9.04.33-.66.64-1.37.94-2.12.3-.76.51-1.3.64-1.63.2-.33.35-.64.44-.94.1-.3.15-.51.15-.64-.2-.13-.62-.33-1.28-.59-.79-.33-1.18-.59-1.18-.79s.39-.49,1.18-.89c.33-.2.71-.38,1.14-.54.43-.16.77-.31,1.04-.44.46-.13.77-.28.94-.44.17-.16.35-.41.54-.74,1.32-2.5,2.67-4.94,4.05-7.31,1.38-2.37,2.75-4.62,4.1-6.76,1.35-2.14,2.65-4.08,3.9-5.83,1.25-1.74,2.4-3.27,3.46-4.59.39-.46.82-.95,1.28-1.48.46-.53.92-1.02,1.38-1.48.46-.46.87-.84,1.23-1.14.36-.3.61-.48.74-.54.26-.13.43-.2.49-.2.06.07.11.1.15.1s.08.03.15.1c.53.53.43,1.12-.3,1.78-.39.33-.95.92-1.68,1.78-.73.86-1.55,1.88-2.47,3.06-.92,1.18-1.88,2.47-2.86,3.85-.99,1.38-1.94,2.77-2.86,4.15-.79,1.19-1.68,2.57-2.67,4.15-.99,1.58-1.93,3.08-2.81,4.49-.89,1.42-1.63,2.65-2.22,3.7-.59,1.05-.89,1.65-.89,1.78s.23.1.69-.1c.46-.2,1.51-.66,3.16-1.38,2.83-1.32,5.18-2.4,7.06-3.26,1.88-.85,2.88-1.28,3.01-1.28.72,0,.36.33-1.09.99-.53.2-1.47.61-2.81,1.23-1.35.63-2.75,1.28-4.2,1.98ZM1091.95,622.73c-.89.79-1.74,1.5-2.57,2.12-.82.63-1.53,1.1-2.12,1.43-1.05.59-1.91.96-2.57,1.09-.66.13-1.28.03-1.88-.3-1.25-.59-1.68-1.98-1.28-4.15.13-.53.41-1.23.84-2.12.43-.89.91-1.79,1.43-2.72.53-.92,1.09-1.81,1.68-2.67.59-.85,1.12-1.51,1.58-1.97.46-.46.85-.69,1.18-.69.26,0,.46.1.59.3.26.26.31.59.15.99-.17.39-.64,1.25-1.43,2.57-.92,1.45-1.79,2.9-2.62,4.34-.82,1.45-1.33,2.54-1.53,3.26-.13.46-.2.76-.2.89s.07.3.2.49c.66.99,2.27.59,4.84-1.18,1.05-.66,2.39-1.69,4-3.11,1.61-1.42,3.24-2.95,4.89-4.59.53-.53.97-.95,1.33-1.28.36-.33.58-.49.64-.49.13,0,.08.2-.15.59-.23.39-.81,1.05-1.73,1.97-.79.92-1.65,1.83-2.57,2.72-.92.89-1.83,1.73-2.72,2.52ZM1111.26,620.16c-.86.73-1.58,1.32-2.17,1.78-1.12.86-2.27,1.65-3.46,2.37-1.18.73-2.14,1.25-2.86,1.58-.53.26-.96.43-1.28.49-.33.07-.76.1-1.28.1-.73.07-1.35-.02-1.88-.25-.53-.23-.95-.71-1.28-1.43-.33-.66-.43-1.48-.3-2.47.13-.99.46-2.01.99-3.06.53-1.05,1.2-2.06,2.02-3.01.82-.95,1.76-1.79,2.81-2.52.59-.4,1.2-.72,1.83-.99.63-.26,1.14-.4,1.53-.4.33,0,.67.2,1.04.59.36.39.54.76.54,1.09s-.23.87-.69,1.63c-.46.76-.99,1.43-1.58,2.02-1.84,1.84-3.29,2.4-4.35,1.68l-.49-.39-.49,1.18c-1.32,2.83-1.35,4.44-.1,4.84.99.33,2.72-.2,5.18-1.58,2.47-1.38,5.38-3.49,8.74-6.32,1.05-.85,1.76-1.4,2.12-1.63.36-.23.54-.25.54-.05,0,.07-.26.35-.79.84-.53.49-1.17,1.09-1.93,1.78-.76.69-1.56,1.4-2.42,2.12ZM1132.44,600.16c-.76,1.28-1.61,2.63-2.57,4.05-.96,1.42-1.93,2.75-2.91,4-.46.59-1.02,1.23-1.68,1.93-.66.69-1.33,1.37-2.02,2.02-.69.66-1.33,1.23-1.93,1.73-.59.49-1.05.84-1.38,1.04-.26.13-.53.28-.79.44-.26.17-.46.31-.59.44-.07.07-.21.36-.44.89-.23.53-.48,1.15-.74,1.88-.26.73-.51,1.47-.74,2.22-.23.76-.41,1.37-.54,1.83-.46,1.91-.56,3.42-.3,4.54.4,1.45,1.55,1.68,3.46.69,2.63-1.38,5.96-4.51,9.97-9.38.53-.72,1.12-1.43,1.78-2.12.66-.69,1.05-1.04,1.19-1.04.33-.26.1.23-.69,1.48-.66.99-1.47,2.07-2.42,3.26-.96,1.19-1.93,2.34-2.91,3.46-.99,1.12-1.98,2.12-2.96,3.01-.99.89-1.81,1.56-2.47,2.02-2.04,1.32-3.69,1.68-4.94,1.09-.72-.4-1.32-1.12-1.78-2.17-.72-2.04-.26-5.27,1.38-9.68.72-1.91,1.74-4.11,3.06-6.62,1.32-2.5,2.7-4.8,4.15-6.91.99-1.45,2.02-2.83,3.11-4.15,1.09-1.32,2.12-2.47,3.11-3.46s1.91-1.78,2.77-2.37c.85-.59,1.58-.95,2.17-1.09h.3c.66,0,.99.39.99,1.19,0,.53-.25,1.3-.74,2.32-.49,1.02-1.12,2.17-1.88,3.46ZM1137.23,626.78c-.73.72-1.38.76-1.98.1-.33-.33-.48-.67-.44-1.04.03-.36.18-.67.44-.94s.58-.43.94-.49c.36-.06.71.03,1.04.3.39.33.58.68.54,1.04-.03.36-.21.71-.54,1.04ZM1148.09,626.78c-.73.72-1.38.76-1.98.1-.33-.33-.48-.67-.44-1.04.03-.36.18-.67.44-.94s.58-.43.94-.49c.36-.06.71.03,1.04.3.39.33.58.68.54,1.04-.03.36-.21.71-.54,1.04ZM1158.96,626.78c-.73.72-1.38.76-1.98.1-.33-.33-.48-.67-.44-1.04.03-.36.18-.67.44-.94s.58-.43.94-.49c.36-.06.71.03,1.04.3.39.33.58.68.54,1.04-.03.36-.21.71-.54,1.04ZM1179.68,553.33h-21.82v-2.47c5.74-.71,6.45-1.59,5.21-4.95-1.15-3.44-2.91-7.86-4.77-13.43h-19.08c-1.41,3.98-2.74,7.42-3.98,11.04-1.94,5.74-.71,6.45,6.54,7.33v2.47h-20.4v-2.47c5.56-.71,6.98-1.33,10.07-9.27l18.28-46.37,2.83-.53c5.56,15.1,11.66,31.8,17.22,47.08,2.83,7.68,3.62,8.39,9.89,9.1v2.47ZM1212.62,499.46h-8.83v43.01c0,6.89.71,7.86,9.1,8.39v2.47h-25.7v-2.47c8.21-.53,8.92-1.41,8.92-8.39v-43.01h-8.04c-4.86,0-6.27.53-7.77,3.18-1.06,1.77-1.77,3.89-2.91,7.15h-2.65c.53-5.39,1.06-10.95,1.32-15.9h2.03c1.33,2.12,2.3,2.03,4.77,2.03h34.98c2.47,0,3.18-.35,4.5-2.03h2.12c0,4.15.35,10.51.8,15.63l-2.65.27c-.8-2.83-1.86-5.74-2.83-7.33-1.41-2.38-2.3-3-7.15-3ZM1279.22,553.33h-21.82v-2.47c5.74-.71,6.45-1.59,5.21-4.95-1.15-3.44-2.91-7.86-4.77-13.43h-19.08c-1.41,3.98-2.74,7.42-3.98,11.04-1.94,5.74-.71,6.45,6.54,7.33v2.47h-20.4v-2.47c5.56-.71,6.98-1.33,10.07-9.27l18.28-46.37,2.83-.53c5.56,15.1,11.66,31.8,17.22,47.08,2.83,7.68,3.62,8.39,9.89,9.1v2.47Z"/>
  <path class="st0" d="M1240.09,528.87h16.52l-8.04-22.61c-2.83,7.6-5.83,15.63-8.48,22.61Z"/>
  <path class="st0" d="M1040.65,613.74c-.2-.33-.56-.36-1.09-.1-1.05.46-1.78,1.09-2.17,1.88-.53.86-.56,1.65-.1,2.37.2.26.53.51.99.74.46.23.89.35,1.28.35.26,0,.43-.05.49-.15.06-.1.2-.38.4-.84.2-.66.36-1.45.49-2.37,0-.66-.02-1.09-.05-1.28-.03-.2-.12-.39-.25-.59Z"/>
  <path class="st0" d="M1067.51,627.17c-.06,0-.21.26-.44.79-.23.53-.51,1.15-.84,1.88-.33.72-.67,1.46-1.04,2.22-.36.76-.64,1.4-.84,1.93-.66,1.51-1.23,3.14-1.73,4.89-.49,1.74-.74,2.98-.74,3.7,0,.33.07.61.2.84.13.23.26.35.4.35.26,0,.59-.26.99-.79.46-.53.96-1.2,1.48-2.02.53-.82,1.02-1.71,1.48-2.67.46-.96.87-1.93,1.23-2.91.36-.99.64-1.91.84-2.77.13-.73.23-1.25.3-1.58.07-.33.03-.76-.1-1.28-.13-.53-.33-1.09-.59-1.68-.26-.59-.46-.89-.59-.89Z"/>
  <path class="st0" d="M903.06,523.74c0-9.63-3.27-16.96-10.25-21.2-4.06-2.56-9.19-3.53-15.1-3.53-3.97,0-6.09.53-6.98,1.24-.79.53-1.15,1.5-1.15,4.95v36.39c0,6.62,2.83,8.48,9.45,8.48,15.9,0,24.02-10.86,24.02-26.32Z"/>
  <path class="st0" d="M1140.55,528.87h16.52l-8.04-22.61c-2.83,7.6-5.83,15.63-8.48,22.61Z"/>
  <path class="st0" d="M942.39,614.63c-.26-.06-.73.07-1.38.4-1.25.59-2.52,1.58-3.8,2.96s-2.29,2.77-3.01,4.15c-.92,1.84-1.02,2.77-.3,2.77.2,0,.66-.23,1.38-.69.59-.4,1.4-1.12,2.42-2.17,1.02-1.05,2.02-2.21,3.01-3.46.99-1.18,1.6-1.97,1.83-2.37.23-.39.31-.76.25-1.09-.07-.33-.2-.49-.39-.49Z"/>
  <path class="st0" d="M1035.71,617.69c0-.2-.03-.3-.1-.3-.2.07-.46.46-.79,1.18-.59.86-1,1.55-1.23,2.07-.23.53-.51,1.19-.84,1.98-.99,3.03-.23,3.95,2.27,2.76,1.38-.72,2.63-2.04,3.75-3.95l.79-1.38-.89-.2c-1.65-.33-2.63-1.05-2.96-2.17Z"/>
  <path class="st0" d="M952.35,551.3c10.69,0,18.72-7.95,18.72-25,0-18.55-9.8-28.35-21.37-28.35-9.89,0-18.9,8.3-18.9,24.82s9.01,28.53,21.55,28.53Z"/>
  <path class="st0" d="M1013.1,629.44c-.99.79-2.04,1.66-3.16,2.62-1.12.95-2.2,1.89-3.26,2.81-.59.53-1.28,1.17-2.07,1.93-.79.76-1.58,1.55-2.37,2.37-.79.82-1.55,1.61-2.27,2.37-.72.76-1.32,1.43-1.78,2.02-2.17,2.57-3.69,4.87-4.54,6.91-.85,2.04-.82,3.32.1,3.85.66.4,1.55.33,2.67-.2,1.58-.79,3.49-2.4,5.73-4.84,2.24-2.44,4.51-5.5,6.81-9.18.79-1.25,1.64-2.63,2.57-4.15.92-1.52,1.78-2.93,2.57-4.25.79-1.32,1.43-2.44,1.93-3.36.49-.92.74-1.45.74-1.58v-.1c-.13,0-.53.26-1.18.79-.66.53-1.48,1.19-2.47,1.98Z"/>
  <path class="st2" d="M900.77,546.35c6.8-5.12,11.04-13.51,11.04-23.85,0-8.48-3.18-14.66-7.51-18.9-5.48-5.21-13.34-7.68-25.79-7.68h-24.55v2.47c6.89.71,7.95,1.06,7.95,8.66v35.24c0,7.24-.35,7.86-7.95,8.57v2.47h20.67c10.86,0,19.43-1.94,26.14-6.98ZM869.59,541.59v-36.39c0-3.44.35-4.42,1.15-4.95.88-.71,3-1.24,6.98-1.24,5.92,0,11.04.97,15.1,3.53,6.98,4.24,10.25,11.57,10.25,21.2,0,15.46-8.13,26.32-24.02,26.32-6.62,0-9.45-1.85-9.45-8.48Z"/>
  <path class="st3" d="M950.93,554.66c16.25,0,29.15-11.84,29.15-30.82,0-17.58-13.51-29.15-28.62-29.15-18.64,0-29.85,14.66-29.85,30.47,0,16.6,12.37,29.5,29.32,29.5ZM949.7,497.95c11.57,0,21.37,9.8,21.37,28.35,0,17.05-8.04,25-18.72,25-12.54,0-21.55-12.1-21.55-28.53s9.01-24.82,18.9-24.82Z"/>
  <path class="st2" d="M994.82,501.58c1.59,1.94,1.77,3.36,1.77,5.83v22.52c0,8.04-.18,12.01-.44,14.84-.35,4.33-2.47,5.65-7.95,6.09v2.47h21.46v-2.47c-6.36-.53-8.57-1.85-8.74-6.36-.18-2.56-.44-6.54-.44-14.49v-22.08l37.8,46.19h3.36v-35.42c0-8.21.18-11.92.27-14.75.26-4.06,2.12-4.95,7.77-5.56v-2.47h-21.82v2.47c7.07.44,9.1,1.68,9.36,5.65.26,2.65.44,6.45.44,14.66v21.64l-37.45-44.43h-13.25v2.47c4.33.44,6.18.97,7.86,3.18Z"/>
  <path class="st2" d="M1080.76,502.64c1.5-2.65,2.91-3.18,7.77-3.18h8.04v43.01c0,6.98-.71,7.86-8.92,8.39v2.47h25.7v-2.47c-8.39-.53-9.1-1.5-9.1-8.39v-43.01h8.83c4.86,0,5.74.62,7.15,3,.97,1.59,2.03,4.5,2.83,7.33l2.65-.27c-.44-5.12-.8-11.48-.8-15.63h-2.12c-1.32,1.68-2.03,2.03-4.5,2.03h-34.98c-2.47,0-3.44.09-4.77-2.03h-2.03c-.26,4.95-.79,10.51-1.32,15.9h2.65c1.15-3.27,1.85-5.39,2.91-7.15Z"/>
  <path class="st2" d="M1169.79,541.76c-5.56-15.28-11.66-31.97-17.22-47.08l-2.83.53-18.28,46.37c-3.09,7.95-4.5,8.57-10.07,9.27v2.47h20.4v-2.47c-7.24-.88-8.48-1.59-6.54-7.33,1.24-3.62,2.56-7.07,3.98-11.04h19.08c1.86,5.56,3.62,9.98,4.77,13.43,1.24,3.36.53,4.24-5.21,4.95v2.47h21.82v-2.47c-6.27-.71-7.07-1.41-9.89-9.1ZM1140.55,528.87c2.65-6.98,5.65-15.01,8.48-22.61l8.04,22.61h-16.52Z"/>
  <path class="st2" d="M1225.25,509.52c-.44-5.12-.8-11.48-.8-15.63h-2.12c-1.32,1.68-2.03,2.03-4.5,2.03h-34.98c-2.47,0-3.44.09-4.77-2.03h-2.03c-.26,4.95-.79,10.51-1.32,15.9h2.65c1.15-3.27,1.85-5.39,2.91-7.15,1.5-2.65,2.91-3.18,7.77-3.18h8.04v43.01c0,6.98-.71,7.86-8.92,8.39v2.47h25.7v-2.47c-8.39-.53-9.1-1.5-9.1-8.39v-43.01h8.83c4.86,0,5.74.62,7.15,3,.97,1.59,2.03,4.5,2.83,7.33l2.65-.27Z"/>
  <path class="st2" d="M1269.33,541.76c-5.56-15.28-11.66-31.97-17.22-47.08l-2.83.53-18.28,46.37c-3.09,7.95-4.51,8.57-10.07,9.27v2.47h20.4v-2.47c-7.24-.88-8.48-1.59-6.54-7.33,1.24-3.62,2.56-7.07,3.98-11.04h19.08c1.86,5.56,3.62,9.98,4.77,13.43,1.24,3.36.53,4.24-5.21,4.95v2.47h21.82v-2.47c-6.27-.71-7.07-1.41-9.89-9.1ZM1240.09,528.87c2.65-6.98,5.65-15.01,8.48-22.61l8.04,22.61h-16.52Z"/>
  <path class="st0" d="M695.89,489.41c2.03.7,2.5,1.54,3.96,2.33,2.61,1.4,3.26-3.75,3.03-5.56-.06-.51-.61-2.54-1.15-2.81-.16,1.34.52,3.73-.83,4.58-1.35-7.3-11.36-8.01-17.19-6.55-5.94,1.49-9.59,7.1-11.53,12.54l1.33,1.07c6.04-6.84,13.73-8.6,22.38-5.6Z"/>
  <path class="st0" d="M673.35,498.17l-7.92-2.29c.24,1.93,7.9,4.11,7.92,2.29Z"/>
  <path class="st0" d="M692.32,472.08c7.27-.21,14.44,1.33,21.73.87l10.62-1.26c-4.8-.51-9.53.17-14.41.01-4.28-.13-8.61-.99-12.93-.87-.9.03-10.62.94-10.63,1.48,1.84.75,3.81-.17,5.62-.23Z"/>
  <path class="st0" d="M691.77,498.61l-.05-1.9c2.18,2.32,9.53,2.21,4.72-1.18-7.57-5.33-13.61-.46-19.88,3.76l-9.46,3.67c5.52.68,10.29-2.7,15.31-4.49,3.26,1.59,6.14,2.46,9.36.14Z"/>
  <path class="st0" d="M683.38,504.63c4.03,2.22,8.97,1.18,12.09-2.08-3.68,1.19-6.82,1.54-10.64,1.66-.5.02-1.55-.31-1.45.41Z"/>
  <path class="st0" d="M696.2,540.42c6.9,2.66,15.99,3.36,20.9-3.1.82-1.08,1.77-3.63,2.28-4.19.85-.93,3.89-.83,3.22-3.46-1.75-.17-2.98,1.27-4.59,1.87-4.59,1.69-10.33,2.27-15.21,1.88-6.07-.49-12.29-3.73-18.39-2.11l-.18,2.11,3.28.06c1,3.15,5.68,5.76,8.71,6.93ZM702.78,535.92c4.29.26,8.58-.67,12.72-1.66-1.23,2.61-3.16,3.93-6.03,4.18-5.75.51-11.36-.61-16.08-3.98.02-.5,8.52,1.4,9.4,1.45Z"/>
  <path class="st0" d="M701.73,501.3c1.87-.44.74.81,1.67,1.25-.14-2.04-.16-5.18-1.66-6.67.41,1.77.82,3.68,0,5.42Z"/>
  <path class="st0" d="M673.78,506.31c2.48-1.39,5.65-2.39,7.51-4.58-1.46-.82-8.47,3.55-7.51,4.58Z"/>
  <path class="st0" d="M645.27,507.21c.28-.93,1.36-1.89,1.3-2.71-.07-.84-4.07-6.8-4.9-7.6-1.77-1.71-3.95-2.63-6.36-1.73-5.18,1.93-2.5,11.46.49,14.47-.51-3.08-1.18-6.23-.83-9.39.62-5.65,7.79,1.36,7.03,2.66-.06.1-1.28.65-1.83,1.29-2.38,2.78-1.79,7.23.62,9.84,1.11,1.2,3.01,1.73,3.76,2.5.49.5,1.8,4.19,3.15,1.44,1.24-2.52-3.92-5.83-2.43-10.77Z"/>
  <path class="st0" d="M578.24,604.34c.62-.67-.14-.71-.58-.87-1.6-.58-3.1-.49-4.63-1.63-2.51-1.86-1.84-5.31.73-6.78l5.31-.73c-8.98-4.43-13.4,8.36-3.25,10.17.61.11,2.04.25,2.42-.17Z"/>
  <path class="st0" d="M568.68,630.9l.8,3.48c-.02-2.83.56-5.63,1.25-8.34-1.62,1.02-1.62,3.21-2.05,4.87Z"/>
  <path class="st0" d="M581.58,642.72c-1.7.96-1.88,5.49-.42,6.67l.42-6.67Z"/>
  <path class="st0" d="M579.49,621.86c-.21-2.87.16-5.57.83-8.34-.6-.06-.67.98-.84,1.45-.66,1.92-.95,3.27-.71,5.31.05.4.13,1.67.71,1.57Z"/>
  <path class="st0" d="M642.49,678.6c-.66.65-3.62-2.12-4.38-2.5-.65.75,1.82,2.42,2.57,2.85.95.55,2.13.69,3.06,1.32l-2.08-9.18.83,7.5Z"/>
  <path class="st0" d="M663.76,679.64c1.52-.37,3.07-.72,4.6-1.04l-.2-.82-3.97.83c-.57-.51,4.86-5.38,5.42-6.05.39-.47,1.01-.68.83-1.46-.49-.54-7.94,7.24-8.33,8.56-.41,1.36,1.43.04,1.66-.01Z"/>
  <path class="st0" d="M607.86,633.12c-1.93-2.6-5.06-2.08-6.85.45-3.06,4.32,1.63,7.17,5.6,7.48-.77-1.16-2.15-.99-3.35-1.86-4.97-3.57.16-7.72,4.61-6.07Z"/>
  <path class="st0" d="M671.27,650.65c-1.31-.06-3.53,2.84-4.58,2.32-2.15-1.07,2.06-3.56,1.46-5.24-.74.22-3.3,4.9-3.96,4.17.05-1.37.67-2.61.83-3.96.07-.6.34-2.88-.41-3.12.12,2.43-.35,5.09-2.08,6.91-1.68.89-1.84-3.15-2.93-3.57l.83,6.67.82-.2v-1.69c1.76-1.09,7.46.9,5.33,3.04-.57.57-1.87.05-1.56,1.35,4.25-.62,1.94-2.32,2.69-3.75.51-.98,3.1-1.59,3.57-2.92Z"/>
  <path class="st0" d="M727.59,447.9c-5.09-16.16-14.61-30.44-32.75-32.53-22.56-2.6-51.22,9.26-57.98,32.53-1.78,6.13-1.82,12.05-2.29,18.35,28.84-13.95,60.81-21.24,93.03-18.36Z"/>
  <path class="st0" d="M747.21,664.42l4.58,6.47-2.08.62,3.75,1.25c-1.49-3.16-3.38-6.26-6.25-8.34Z"/>
  <path class="st0" d="M598.27,627.29l-5.27-3.07c-3.5-4.03,4-7.6,7.36-4.44l-.05-1.2c-11.02-6.17-13.72,8.65-2.03,8.7Z"/>
  <path class="st0" d="M768.9,666.92l2.08-5.84-3.33,6.67c2.26-.22,4.63-1.07,6.25-2.71l-5,1.88Z"/>
  <path class="st0" d="M699.48,546.73c-1.51-.22-2.96-1.09-4.42-1,6.72,6.13,16.9,6.7,21.27-2.29-1.81.58-3.16,2.07-5.02,2.7-3.38,1.14-8.32,1.11-11.83.59Z"/>
  <path class="st0" d="M729.26,502.14c-3.91.47-7.88.89-11.68-.42-.23.92,1.47,1.61,2.07,1.89,3.07,1.45,5.97,1.6,8.83-.4.5-.35,1.02-.02.78-1.08Z"/>
  <path class="st0" d="M724.26,405.13c-4.8-1.14-9.56-2.04-14.3-2.73-.16-.02-.31-.05-.47-.07-.79-.11-1.58-.22-2.37-.32-.76-.1-1.52-.19-2.28-.28-2.12-.24-4.23-.45-6.34-.61-101.48-7.52-183.7,84.55-159.28,188.62,3.43,14.63,9.35,28.47,16,41.86-8.02,8.93-19.69,15.77-23.59,27.71-7.59,23.22-2.24,48.27,25.96,50.15,21,1.4,33.18-13.76,42.36-30.43.72-.5,4.49,2.51,5.44,3.08,27.72,16.66,57.76,25.21,87.4,24.77,31.41-.47,62.37-11.04,89.65-32.88,98.31-78.7,64.99-239.57-58.18-268.87ZM545.49,586.83c-23.28-103.78,63.89-195.42,168.76-176.69,91.04,16.26,141.33,110.69,109.19,196.81-1.64,4.4-3.52,9.4-6.15,13.25-4.44-7.6-11.68-14.08-16.29-21.47-5.38-8.64-10.6-25.88-21.35-29.13-8.7-2.63-17.64-5.56-26.53-7.68-9.35-2.23-19.26-2.99-28.03-7,2.04-6.09,5.52-11.68,7.82-17.62,2.3-5.97,5.23-16.13,5.1-22.42-.1-4.91-2.42-10.42-2.46-15.07,0-.77.52-4.77.79-5.28.27-.5,4.34-2.19,5.29-2.74,7.95-4.65,19.54-12.23,23.45-20.77,6.61-14.44-9.39-18.45-20.25-20.11-21.3-3.26-47.59-1.14-68.64,3.4-17.87,3.86-60.51,18.24-70.6,33.7-11.76,18.03,15.39,27.02,28.42,29.29,3.88,5.45,6.34,14.7,14.3,14.9.75,3.63-1.52,5.63-2.86,8.61-1.75,3.91-2.9,8.87-6.87,11.07-2.31,1.28-11.87,4.63-14.31,4.8-2.57.17-7.74-1.37-10.78-1.55-6.16-.37-12.79.14-18.95.38-.37-1.44-1-3.07-1.64-4.4-.58-1.21-2.73-4.66-2.92-5.46-.39-1.62,1.2-2.77-.56-5.25-.86-1.21-1.77-1.15-2.62-1.97-1.22-1.19-2.49-4.5-3.82-6.19-2.54-3.23-10.81-9.9-14.75-10.7-2.41-.48-9.18.74-7.14,4.22,1.14,1.94,9.36,6.28,11.9,8.54,1.63,1.46,5.94,6.73,6.4,8.65.22.9-.37,1.85-.38,2.81-.02,2.2,2.92,4.51,4.14,6.75.26.49,1.91,4.14,1.74,4.3-3.59.59-11.11,1.84-11.29,6.48-.04.95.44,1.89.46,2.89.09,5.37-2.33,6.73-4.26,11.21-1.11,2.58-1.85,5.2-2.5,7.93-1.95,1.33-4.08,1.56-5.97,3.2-4.83,4.18-4.51,11.25-.69,15.97-2.91,3.39-3.24,6.64-3.28,10.92,0,.76.42,1.58.43,2.49,0,.41-.27,2.6-.84,2.73-4.39-11.08-8.86-22.1-11.48-33.78ZM783.07,607.48c-.66-6.61-1.7-13.23-2.5-19.82l1.88,5.83c2.58,14.16,4.34,28.78,4.81,43.17.26,7.99.44,16.75-1.69,24.42-.73.1-.39-.95-.41-1.45-.67-17.8-.29-34.22-2.09-52.15ZM760.14,675.06c2.08-3.74,5.35-6.09,6.99-10.12.58-1.42,1.61-6.74,2.87-7.15,1.98-.65,1.73,1.21,2.02,2.45,1.08-1.28,2.26-3.92,4.2-2.52.53,2.45-.83,4.99-2.73,6.49l1.98.73c1.63,5.17-6.71,4.17-9.29,5.72-1.52.91-5.89,5.97-6.48,7.7-.61,1.79.17,3.64-2.25,4.01-1.28-2.03-2.42-5.91-4.37-7.34-1.89-1.39-4.52.33-6.65-3.36-1.42-2.47.97-1.74.74-2.82-4.3-4.6-4.55-10.64,2.33-4.43l.86-1.24c1.45-.35,3.29,3.91,3.64,5.08,1.07,3.54.66,7.84,3.62,10.76l.84-8.56c.12-4.11.21-7.62-1.46-11.46-.79-1.82-2.23-3.11-2.72-5.01-1.08.74-5.92.02-6.67-.62-2.35-2.01,3.06-8.7,5.84-5.64l.83-5.84c-1.14.52-1.59,4.41-3.08,4.15l-.99-1.12-1.34-4.28.83,6.25c-.75.83-3.2-4.17-4.59-3.75l3.16,4.15c-1.35,2.71-4.07-1.79-6.08-1.65.52,1.03,7.72,4.26,4.31,5.37-2.47.81-5.6-3.42-6.01-5.58.09-1.02,1.24-1.35,2.11-1.47-1.39-1.72-2.84-3.48-1.61-5.78,1.94-.58,3.22.82,4.94,1.19,2.49-6.4,5.68-.71,5.85,3.33l1.69-3.11c.76-.66,1.56-.71,2.38-.13,2.28,4.29-1.56,8.59-.71,13.02.34,1.79,3.28,5.48,4.04,8.88.26,1.15-.37,2.89.94,3.44.56-5.13,2.53-10.07,2.92-15.23.29-3.9-.41-16.92-2.55-19.97-1.05-1.5-4.04-1.36-4.53-3.41-.7-2.91,3.15-1.29,3.33-1.44-.56-1.03-.57-1.88,0-2.91-1.12,0-1.53,1.15-2.73,1.24-3.15.22-4.47-3.1-3.13-5.65,3.01-.45,4.36-1.21,6.28,1.49l2.09-4.17c-1.14.6-1.36,2.53-2.91,2.5l.83-4.59c-4.5,6.62-3.96,1.67-7.5-1.67l1.63,4.74-1,.68c-.97-1.08-2-1.87-3.55-1.66.25.92,2.05.77,2.53,1.53.45.71.75,3.2-.22,3.37-.45.08-2.85-1.03-3.14.1,1.71.21,4.25.97,2.93,3.05-.47.74-1.91.7-2.1,1.54,2.02.26,3.26-2.75,5.04-.96,1.14,3.54-4.4,4.8-6.86,3.41-2.05-1.15-.33-2.51-.73-3.22-.06-.11-1.47-.71-2.04-1.52-1.78-2.57.36-4.36,2.92-4.8.27-1.22-1.36-.98-1.87-2.09-.8-1.77-.08-4.66,2.27-4.18.12-1.48-.54-3.37,1.15-4.09,1.87-.56,2.47,1.1,2.82,1.08.49-.02.51-1.14,2.03-.27,1.19.68,1.61,1.97,1.53,3.29,2.91-3.3,7.05-3.09,5.83,2.08l2.96.7c.79,2.17.57,4.38-.87,6.19-.71.89-2.46,1.67-2.49,2.47.24,1.51,1.05,3.18,1.2,4.66.38,3.72,2.12,9.08,2.12,12.06,0,2.29-.17,4.85,0,7.09.02.23.35.53.01.84.09.44.54.26.83,0,.36-.31,4.45-6.38,4.52-6.78.29-1.59-1.49-4.39-1.58-6.22-.05-1.07.45-2.01.4-3.07l1.88.41c.46,2.4,2.13,4.18,1.04,6.68l5.42-2.29c-1.52-.32-3.26,1.66-4.58,0l4.16-5.63c-2.49.13-2.65,2.66-3.96,4.16-2.16-1.35-2.75-7.9.1-8.28,1.29-.17,2.26,1.26,2.2,2.45,1.61-1.31,5.61-1.39,4.93,1.35-.2.78-3.35,4.03-2.84,4.49,9.26.93-1.63,8.67-5.83,6.26-.56,4.04-5.22,7.66-6.48,10.85-1.7,4.34-4.28,17.86-4.79,22.75-.04.39-.22,1.4.41.83ZM677.72,563.06c-6.3-6.24-9.43-15.31-15-22.13-.62.33.09,1,.3,1.37,3.67,6.58,5.98,13.92,10.76,19.9-.23.21-3.83-2.13-4.39-2.49-7.29-4.64-13.4-10.25-17.54-17.93l.65-5.85c.96,7.09,4.05,11.57,9.97,15.27.36.22.9,1.05,1.29.38-7.64-8.5-10.43-19.69-12.52-30.66l-.51,4.28c-.9,3.12-3.63,4.28-6.37,2.39-2.07-1.43-11.1-16.61-12.21-19.5-2.03-5.31-3.19-15.85,4.68-16.39,4.66-.32,7.09,2.92,9.32,6.56,1.82,2.98,2.57,8.45,7.57,5.32,5.87-3.67,6.04-19.87,6.69-26.05-.88.66-1.45,2.32-1.87,3.34-1.42,3.52-2.26,7.18-3.9,10.71-.74,1.59-2.57,3.88-2.99,4.94-.21.53.07.77.61.61l3.55-2.91c-.76,2.73-1.86,6.9-4.99,7.51l-4.53-8.97,5.77-10.63-3.58,5.8-3.72,3.78-5.63-3.11,15.64-12.73-1.45,12.32.82.2c1.67-4.73,3.34-9.47,3.84-14.52,7.24-3.63,14.85-6.5,22.79-8.29,11.79-2.67,24.09-3.51,36.1-1.73,2.42.36,9.8,1.64,11.31,3.29,2.89,3.15,3.67,12.06,3.98,16.25-5.91-4.16-13.62-.63-17.73,4.58l-1.46-2.08c.06,2.39-1.36,4.55-1.63,6.93-.45,4.07.15,8.46,1.32,12.35,1.51,5.04,8.51,14.8,3.43,19.1-4.24,3.6-7.93-.23-11.49-1.45-2.65-.91-5.68-.5-7.89-2.54-3.47-3.22-.47-7.58,3.73-7.7.62-.58-.06-.77-.63-.84-4.6-.57-6.65,4-9.84,6.44-2.87,2.19-11.81,6.55-12.46,10.07-.51,2.75.3,5.96,1.58,8.4.33.62.82,2.04,1.74,1.8-.28-4.6-1.82-9.32,2.12-12.69.94-.81,9.5-6.43,9.97-6.09.79,3.25,3.64,4.26,6.58,4.9,1.14.25,2.28-.05,3.46.29,1.28.37,2.51,2.02,3.59,2.67,5.35,3.19,12.62.84,14.05-5.42l.48-3.69c3.79,4.59,4.92,9.4,3.04,15.13-.33.99-1.04,1.86-1.38,2.79-.14.39-.55,1.36.22,1.26,3.03-4.21,5.38-7,4.49-12.62-1.02-6.46-6.14-8.98-8.75-13.37-.87-1.47-4.83-11.94-4.08-12.81l8.9.79c1.67-.54-.27-2.77-.14-2.87l7.24,2.53c2.01-2.31-1.63-4.06-3.5-4.82-6.13-2.49-8.63-.15-12.92,3.96-1.54-6.02,4.75-10.06,9.91-10.74,11.06-1.45,7.61,6.31,8.86,13.66-.22.22-2.72-1.16-2.92,0,3.13.18,3.45,1.87,4.04,4.51,2.46,11-.82,23.5-5.36,33.61-1.91,4.25-5.02,8.16-5.79,12.78l-.43-3.56.43-3.94c-.09-.12-.51.21-.63.41-.98,1.73-1.46,7.4-2.5,10.01-4.01,10.02-16.85,12.36-26.18,9.09-9.86-3.46-15.82-12.82-19.85-21.87-2.1-4.72-4.46-9.47-2.98-14.75-3.81,3.83-1.76,9.69-.07,14.05,1.45,3.72,3.98,9.39,5.99,12.78,6.88,11.58,19.68,17.05,32.88,13.64-1.6,2.23-5.15,4.46-7.82,4.9-1.52.25-8.94.69-10.14.33-1.4-.42-12.52-8.79-13.97-10.22ZM686.71,577.86l-19.16-11.31c-8.56-5.36-19.24-13.76-19.22-24.79,2.23,2.72,3.46,6.03,5.5,8.89,4.99,7.01,14.5,12.76,22.03,16.77,3.83,2.04,6.65,2.4,10.22,5.64,2.06,1.87,2.5,2.25.64,4.79ZM733.44,473.35c.64.33,1.18,1.83,1.45,2.51,2.07,5.21,1.67,9.62.63,15.01-.73.1-.39-.95-.41-1.45-.22-5.5-.06-10.69-1.66-16.06ZM719.65,579.09l4.6-6.87c-1.08,5.48-5.58,11-10.84,12.93l6.25-6.06ZM708.84,577.48c-.28.24-.41.63-.45,1l-.85-.25-2.47-3.29c1.43-1.17,3.22-2.09,4.59-3.33,1.57-1.43,2.47-3.32,3.79-4.55,1.57-1.47,4.29-2.54,5.8-4.42-1.39,6.16-5.77,10.88-10.4,14.85ZM690.88,577.02l6.66-.6c.9,4.26.97,8.56.86,12.91.96.2.67-.11.94-.53,2.23-3.54,1.08-9.21-.52-12.81,11.74-1.57,7.81,20.05-1.98,16.78-1.14-.38-1.94-1.58-2.73-1.87-.73-.27-1.39.35-2.2-.26-2.51-1.89-3.87-11.11-1.02-13.6ZM702.85,595.22l.75.36c7.36,13.21,13.22,27.18,18.57,41.3.73.1.39-.95.41-1.45.3-7.25-4.38-17.21-7.43-23.86-2.83-6.16-6.08-12.19-9.61-17.97l2.28-3.83c8.63,5.55,15.8,16.46,19.37,26.04,7.15,19.2,1.9,27.68-2.89,45.51-1.46,5.41-2.42,10.93-3.38,16.44-5.25-7.06-7.81-16.36-9.46-24.95-1.91-9.98-2.95-20.18-4.85-30.19-1.69-8.9-4.07-17.73-5.65-26.56l1.89-.84ZM708.12,673.44c.07-.98.87-2.35,1.01-3.5.38-3.09.68-6.15.53-9.28l2.6,8.04c1.61,3.48,3.14,7.65,5.73,10.54,2.99,3.33,5.27,3.97,6.49-1.03,1.53-6.23,1.58-12.61,4.16-18.79.17-.4.04-.96.61-.83l8.35,33.37-27.53,7.1c.01-4.37-.08-8.79-.43-13.14-.27-3.36-1.73-9.62-1.53-12.47ZM633.73,615.19c3.87-5.99,5.97-12.91,6.46-20.02,11.98,7.12,2.44,16.46-6.46,20.02ZM563.83,605.59c3.17,1.29,6.44,2.31,9.73,3.22,7.21,1.99,17.64,3.43,24.15,6.3,4.45,1.96,7.38,5.38,4.81,10.38-2.15,4.18-7.25,2.93-10.93,2.01-5.42-1.36-11.08-3.63-16.59-5.1-2.54-.68-12.53-2.24-13.75-3.56-.96-1.04-1.09-6.44-.84-7.93.21-1.23,2.29-5.29,3.43-5.32ZM562.2,601.4c-3.94-4.25-.53-11.91,5.09-12.81,2.24-.36,6.97,1.69,9.15,2.75,4.61,2.24,8.62,5.86,5.79,11.36-1.68,3.26-4.57,3.15-7.84,2.78-2.35-.26-10.72-2.49-12.19-4.08ZM580.34,567.83c-2.86-1.14-6.59-4.09-2.62-6.35,1.32-.75,8.18-2.89,9.07-1.77l.63,1.66c-2.13.62-4.97.67-6.98,1.58-.56.25-.66.04-.53.93,4.35,1.46,8.95,2.29,13.54,2.53,6.67.35,15.53.31,22.13-.44,1.35-.15,8.99-1.16,8.97-2.71-1.42-1.12-3.56-1.4-5.34-1.74-5.03-.98-12.26-1.5-17.41-1.4-2.47.04-5.54,1.87-5.61-2.06,1.66.28,3.21-.34,4.78-.44,5.58-.33,20.19.13,24.86,2.71,3.11,1.72,3.56,5.24.54,7.25-7.01,4.67-37.93,3.51-46.02.27ZM587.42,541.35c1.74,3.4-3.44,2.42-5.41,4.17-.39-3.07,3.42-3.15,5.41-4.17ZM581.17,540.93c-3.27-7.61-10.19-11.77-16.7-16.26,1-.03,2.41-1.31,3.35-1.02.64.2,5.85,3.74,6.8,4.43,4.1,2.99,7.46,6.47,9.87,10.98l-3.32,1.87ZM586.48,546.84c1.89-.31,2.23,1.6,2.97,3.12,2.09,4.26,3.65,8.79,5.72,13.07l-.44.84-3.35-.81-7.12-15.03c.17-.27,1.84-1.11,2.22-1.17ZM555.3,644.4l-11.68,4.58c2.88-3.15,7.49-4.31,11.68-4.58ZM570.95,694.87c-11.1.5-19.45-9.53-20.23-20.02l3.58,7.89c3.97,6.13,10.62,11.34,18.11,11.72.1.73-.95.39-1.45.41ZM569.35,682.7c-10.23-6.71-14.2-18.29-13.21-30.16.15-1.81.52-4.91,2.07-6.05,1.55,11.38,1.62,23.28,10.85,31.5,9.3,8.29,17.46,4.41,23.17-5.21,3.08-5.2,4.11-11.16,7.71-15.86-2.02,13.92-13.34,37.11-30.58,25.79ZM608.1,641.5c-5.47,2.58-17.69-1.45-23.87-2.46-6.53-1.07-13.18-1.72-19.75-2.57,1.44,2.32,4.22,3.26,6.74,3.89,7.95,1.99,16.95,2.13,24.99,4.23l-.85,5.64c1.6-1.07,1.64-3.69,1.67-5.43,1.07.39,5.65.13,5.84,1.06-.81,2.53-2.64,4.77-5.24,5.6l-27.3-.39c.53.77,2.06,1.55,2.92,1.87.88.34,4.54,1.46,5.21,1.46h18.15c.3.26-2.37,3.39-2.71,3.76-4.12,4.59-8.67,6.27-14.81,6.67l3.54,1.25,6.47-.83c-1.32,3.74-4.66,6.87-8.43,8.04-12.5,3.89-17.15-10.38-17.43-20.14,4.33,3.8,7.15,8.14,13.57,7.94.6-.02,2.5-.11,2.69-.85-1.71-.54-3.54-.95-5.16-1.73-3.77-1.8-10.4-8.76-12.02-12.6-1.39-3.31-2.74-13.2-2.45-16.78.1-1.19,1.47-6.44,2.71-6.45l33.44,9.13c4.82.44,7.44-3.48,12.56-.46,2.97,1.75,3.13,8.43-.49,10.13ZM611.21,643.14c.04-1.07,1.01-1.47,1.46-2.5,1.03-2.41.71-5.69-.3-8.05-.49-1.16-1.4-1.66-1.58-2.8,3.87-.08,7.33-2.01,10.84-3.34-2.1,6.22-5.62,12.2-10.42,16.68ZM607.03,626.45l6.69-2.69c14.8-7.88,22.87-26.34,15.91-42.23-1.49-3.39-3.8-6.9-5.91-9.95l3.55-2.28c5.41,8.78,10.34,17.85,9.38,28.56-.41,4.53-3.15,11.03-5.5,14.94-5.07,8.46-14.38,13.07-24.11,13.64ZM668.97,657.37c-.54,2.31-4.48,2-6.15,2.46-.46.13-.43.84-.73,1.05-.38.26-.98-.14-1.26.02-.83.47-3.96,8.35-4.36,9.79-1.72,6.19-1.5,12.86-4.38,18.77,1.15-.85,1.77-2.28,2.7-3.34.94-1.07,4.67-4.23,5-5.01.9-2.13.7-5.35,2.23-8.2l4.26-1.81h.6c8.02-7.07,8.51-.66,3.57,5.22l1.69,1.68c-.17,6.04-7.82,3.38-10.45,4.59-1.35.62-6.48,5.88-7.73,7.29-.91,1.02-2.97,4.96-4.15,4.59-.97-.31-1.66-8.83-5.62-11.07-2.68-1.51-5.7-1.7-8.33-3.77-2.38-1.87-4.46-5.43-.45-6.44-2.98-5.37-.42-8.84,3.96-3.34,2.33-4.07,5.07-1.83,6.27,1.67.19.56.9,3.52.96,4.08.17,1.48-.9,4.25-.58,5.54.16.64,1.43,2.19,1.85,3.17.75,1.8,1.3,4.21,2.56,5.57.29-2.42,1.6-4.6,1.98-6.99,1.01-6.31.03-14.74-2.49-20.65-2.28-5.35-7.89-7.49-10.73-12.62-2.96.38-5.52.63-8.08-1.11-2.68-1.82-2.56-3.25.55-4.31-3.76-2.82-5.51-8.2,1.25-5.22l.52-3.24c3.73-1.17,5.37,5.67,2.61,7.82-.59,0-2.97-4.14-4.38-3.12,1.17,1.57,3.05,2.69,4.37,3.97.41.4.79.55.63,1.24l-4.58-.21,5.83,1.46c-1.06-2.41-.41-5.27.64-7.51,4.32,1.22,2.4,5.62,1.66,8.78l8.55,8.33c-.38-4.14-1.01-8.59-.85-12.74.12-3.04,1.24-6.74,1.3-9.57.06-2.83-.9-5.56.39-8.55-2.73-.27-6.26-3.51-5.35-6.4.3-.95,1.49-.92,1.61-1.42.22-.96-.16-2.37.41-3.46l2.49,1.25c-.22-3.37.62-4.18,3.95-3.74.62.08,1.12.82,1.61.75.8-.11,2.26-1.94,3.06-2.39,2.42-1.36,5.07,2.25,3.48,4.54,4.96-.26,4.26,4.2,1.25,6.67,1.3.31,3.51.77,3.76,2.32.45,2.76-1.88,3.19-1.96,3.7-.2,1.35,1.17,2.63-1.63,3.58-6.31,2.13-10.34-7.13-1.01-2.92.3-1.49-3.22-1.31-2.91-2.7.21-.98,2.77-1.76,3.75-1.48-.55-1.36-2.47-.23-3.53-.39-1.57-.25-1.2-2.05-.59-3.1.69-1.2,2.21-1.32,2.87-2.34-1.8-.26-2.86.88-3.97,2.08l-1.01-.66,2.06-6.01c-2.98,2.89-4.34,11.59-6.68,2.09-1.14.46.24,2.49.35,3.23.48,3.25-2.29,1.27-3.26-.31l2.09,5c.86-.29.32-1.55,1.27-2.27,5.77-4.4,7.72,9.61-.43,5.61l.39,1.9,2.97.37c1.65,2.84-2.94,3.24-3.81,5.41-1.06,2.64-1.43,12.02-1.23,15.07.49,7.49,3.92,14.83,4.61,22.3l5.41-13.6c.1-4.49-3.46-6.5-2.87-11.18.4-3.15,3.03-3.19,4.49-.82.4.66.18,1.78.88,1.82.03-1.59.16-6.15,1.67-6.89,2.15-1.05,4.55,1.32,4.18,3.55,1.61-1.44,2.76-2.5,5.14-2.1,1.63,2.03.02,4.63-1.39,6.27,5.13.26,1,5.42-1.37,6.78-.46.26-1.49.27-1.55.33-.1.1.29.87.2,1.28ZM655.84,576.81l15.98,8.42,7.37,2.01c.1.73-.95.39-1.45.41-7.24.29-16.83-5.89-21.91-10.84ZM688.17,589.74c.25,1.85,3.86,3.7,3.97,4.81-2.99,9.63-4.18,19.57-1.26,29.4l.83-5.22c-.05-3.32.09-6.67.47-9.96.18-1.52,2.11-13.05,3.06-13.13l2.31,1.08c1.82,10.56,5.05,20.78,6.96,31.33,2.11,11.66,3.58,24.38,2.63,36.16-.28,3.46-.76,7.53-2.29,10.64-.97-4.32-1.71-8.2-4.58-11.68-6.36-7.72-12.93-12.67-17.95-22.1-8.49-15.94-3.89-36.97,5.85-51.32ZM682.96,700.29c4.09-13.5,6.65-27.6,7.51-41.71,3.02,3.08,7.69,6.4,9.38,10.43,1.21,2.88,1.54,10.35,6.05,8.34l1.26,22.11-24.2.83Z"/>
  <path class="st1" d="M943.73,589.74c1.74-.06,2.95-.13,3.6-.2,1.51-.13,2.91-.31,4.2-.54,1.28-.23,2.16-.48,2.62-.74.66-.33,1.02-.72,1.09-1.17.06-.45-.17-.86-.69-1.23-.33-.25-1.09-.41-2.27-.47-1.19-.06-3.1-.09-5.73-.09-2.31,0-4.38.03-6.22.09-1.84.06-3.65.22-5.43.47-2.17.19-2.96.38-2.37.56.06,0,.82.03,2.27.09,1.45.06,3.09.14,4.94.23,1.84.09,3.62.17,5.33.23,1.71.06,2.83.09,3.36.09.46,0,.64.03.54.1-.1.07-.43.13-.99.2-.56.07-1.28.15-2.17.25-.89.1-1.86.18-2.91.25-1.32.13-3.42.23-6.32.3-2.9.07-6.16.12-9.78.15-3.62.03-7.37.03-11.26,0-3.89-.03-7.51-.08-10.86-.15h-3.36l.1-.59c.13-.7-.17-1.06-.89-1.06-.46,0-.99.45-1.58,1.35-.07.07-.13.12-.2.15-.07.03-.25.07-.54.1-.3.03-.76.05-1.38.05h-2.62c-3.42,0-6.76.07-10.02.2-3.26.13-6.34.33-9.23.59-2.9.26-5.6.58-8.1.94-2.5.36-4.68.78-6.52,1.23-2.11.46-4.03,1.05-5.78,1.78-1.75.73-3.18,1.55-4.3,2.47-.73.53-1.38,1.19-1.98,1.98s-1.02,1.55-1.28,2.27c-1.38,4.34,1.41,10.01,8.39,16.99,1.84,1.78,3.47,3.16,4.89,4.15,1.41.99,2.98,1.74,4.69,2.27,1.64.53,2.63.59,2.96.2.2-.2.13-.46-.2-.79-.13-.13-.48-.33-1.04-.59-.56-.26-1.14-.56-1.73-.89-1.32-.59-2.49-1.22-3.51-1.88-1.02-.66-1.93-1.32-2.72-1.97-2.76-2.3-5.1-4.66-7.01-7.06-1.91-2.4-3.13-4.49-3.65-6.27-.2-.59-.3-1.28-.3-2.07s.1-1.45.3-1.98c.13-.59.46-1.22.99-1.88.53-.66,1.12-1.25,1.78-1.78,1.45-1.05,3.32-1.99,5.63-2.81,2.3-.82,5.1-1.51,8.39-2.07,3.29-.56,7.13-.99,11.5-1.28,4.38-.3,9.36-.51,14.96-.64l6.62-.1-.3.49c-.13.13-.39.53-.79,1.19-.39.66-.86,1.42-1.38,2.27-.79,1.32-1.6,2.62-2.42,3.9-.82,1.28-1.7,2.67-2.62,4.15-.92,1.48-1.94,3.1-3.06,4.84-1.12,1.75-2.4,3.7-3.85,5.88-1.65,2.57-3.31,5.17-4.99,7.8-1.68,2.63-3.26,5.12-4.74,7.46s-2.8,4.43-3.95,6.27c-1.15,1.84-1.99,3.19-2.52,4.05-1.52,2.5-2.47,4.33-2.86,5.48-.39,1.15-.33,1.93.2,2.32.53.39,1.05.39,1.58,0,.2-.13.58-.58,1.14-1.33.56-.76,1-1.5,1.33-2.22.2-.4.28-.71.25-.94-.03-.23-.15-.25-.35-.05-.39.33-.59.43-.59.3s.16-.53.49-1.18c.53-1.05,1.37-2.55,2.52-4.49,1.15-1.94,2.48-4.16,4-6.67,1.51-2.5,3.19-5.22,5.04-8.15,1.84-2.93,3.75-5.88,5.73-8.84,2.96-4.61,5.38-8.36,7.26-11.26,1.88-2.9,3.36-5.15,4.44-6.76,1.09-1.61,1.84-2.73,2.27-3.36.43-.62.67-.94.74-.94.13-.06,2.24-.06,6.32,0,4.08.07,9.61.17,16.59.3,2.17.07,4.53.12,7.06.15,2.53.03,4.94.05,7.21.05s4.28-.03,6.02-.1Z"/>
  <path class="st1" d="M913.31,615.72c-.76.66-2.16,1.94-4.2,3.85-.73.59-1.45,1.2-2.17,1.83-.73.63-1.28,1.1-1.68,1.43-.86.59-1.73,1.12-2.62,1.58-.89.46-1.5.69-1.83.69-.86,0-1.02-.94-.49-2.81.53-1.88,1.64-4.3,3.36-7.26.53-.92.82-1.56.89-1.93.06-.36,0-.64-.2-.84-.46-.26-1.09.13-1.88,1.19-.26.33-.79.92-1.58,1.78-.79.86-1.66,1.76-2.62,2.72-.96.96-1.89,1.86-2.81,2.72-.92.86-1.58,1.45-1.97,1.78-.53.4-1.04.74-1.53,1.04s-.84.44-1.04.44-.23-.25-.1-.74c.13-.49.38-1.12.74-1.88.36-.76.82-1.6,1.38-2.52.56-.92,1.17-1.84,1.83-2.77.66-.85.99-1.41.99-1.68,0-.2-.1-.39-.3-.59-.2-.2-.43-.3-.69-.3-.33,0-.78.3-1.33.89-.56.59-1.14,1.32-1.73,2.17-.59.86-1.15,1.76-1.68,2.72-.53.96-.89,1.79-1.09,2.52-.46,1.52-.38,2.63.25,3.36.63.73,1.6.73,2.91,0,.99-.66,2.96-2.57,5.93-5.73.79-.85,1.28-1.35,1.48-1.48.2-.13.23-.06.1.2-.33.79-.63,1.61-.89,2.47-.26.86-.43,1.55-.49,2.07-.13.92-.05,1.73.25,2.42s.71,1.14,1.23,1.33c1.12.4,2.86-.3,5.23-2.07.59-.46,1.43-1.18,2.52-2.17s2.17-2.01,3.26-3.06c1.09-1.05,2.04-2.01,2.86-2.86.82-.85,1.23-1.35,1.23-1.48-.07-.06-.13-.1-.2-.1-.13.07-.58.43-1.33,1.09Z"/>
  <path class="st1" d="M955.33,617.3c1.51-1.58,2.04-2.37,1.58-2.37-.07,0-.41.3-1.04.89-.63.59-1.4,1.32-2.32,2.17-2.11,2.11-3.85,3.7-5.23,4.79-1.38,1.09-2.54,1.79-3.46,2.12-.33.13-.58.21-.74.25-.17.03-.35-.01-.54-.15-.46-.13-.73-.49-.79-1.09-.13-.72-.08-1.58.15-2.57.23-.99.71-2.34,1.43-4.05.53-1.12.77-1.88.74-2.27-.03-.4-.31-.59-.84-.59-.26,0-.49-.16-.69-.49-.2-.59-.73-.89-1.58-.89s-1.81.3-2.86.89c-.99.53-1.96,1.18-2.91,1.97-.96.79-1.78,1.65-2.47,2.57-.69.92-1.25,1.88-1.68,2.86-.43.99-.64,1.88-.64,2.67,0,1.12.33,1.88.99,2.27.33.26.76.33,1.28.2.79-.06,1.64-.46,2.57-1.19.92-.72,2.14-2.01,3.65-3.85.2-.26.4-.51.59-.74.2-.23.36-.41.49-.54l.49-.49v.3c0,.13-.02.21-.05.25s-.05.12-.05.25c-.13.59-.17,1.37-.1,2.32.06.96.2,1.63.39,2.02.79,1.52,2.24,1.75,4.35.69,1.05-.53,2.42-1.53,4.1-3.01,1.68-1.48,3.41-3.21,5.18-5.18ZM940.71,618.58c-.99,1.25-1.99,2.4-3.01,3.46-1.02,1.05-1.83,1.78-2.42,2.17-.72.46-1.19.69-1.38.69-.72,0-.62-.92.3-2.77.72-1.38,1.73-2.77,3.01-4.15s2.55-2.37,3.8-2.96c.66-.33,1.12-.46,1.38-.4.2,0,.33.17.39.49.06.33-.02.69-.25,1.09-.23.4-.84,1.19-1.83,2.37Z"/>
  <path class="st1" d="M993.94,615.96c.2-.23.23-.41.1-.54-.13-.13-.33-.1-.59.1-.26.2-1.02.79-2.27,1.78-.73.59-1.56,1.23-2.52,1.93-.96.69-1.93,1.38-2.91,2.07-.99.69-1.89,1.3-2.72,1.83-.82.53-1.47.89-1.93,1.09-2.17.92-2.4-.53-.69-4.35.26-.53.54-1.12.84-1.78.3-.66.54-1.15.74-1.48.66-1.51.76-2.53.3-3.06-.46-.53-1.35-.43-2.67.3-.33.2-.86.51-1.58.94-.73.43-1.53.92-2.42,1.48-.89.56-1.78,1.12-2.67,1.68-.89.56-1.63,1.04-2.22,1.43-1.52,1.05-2.35,1.61-2.52,1.68-.17.07-.15-.06.05-.4,1.12-1.71,2.06-3.34,2.81-4.89.76-1.55,1.17-2.58,1.23-3.11.13-1.12-.1-1.79-.69-2.02-.59-.23-1.52.02-2.76.74-1.32.79-2.77,1.83-4.35,3.11s-3.42,2.91-5.53,4.89c-.73.66-1.3,1.2-1.73,1.63s-.64.58-.64.44c.13-.13.38-.54.74-1.23.36-.69.8-1.5,1.33-2.42.53-.92.97-1.74,1.33-2.47.36-.72.54-1.15.54-1.28,0-.53-.18-.81-.54-.84-.36-.03-.71.18-1.04.64-.33.4-.81,1.05-1.43,1.98-.63.92-1.28,1.93-1.97,3.01-.69,1.09-1.35,2.14-1.98,3.16-.62,1.02-1.07,1.83-1.33,2.42-.33.73-.53,1.23-.59,1.53-.06.3.03.54.3.74.2.26.36.4.49.4.33,0,.81-.3,1.43-.89.63-.59,1.83-1.81,3.6-3.65,2.77-2.9,5.09-5.17,6.96-6.81,1.88-1.64,3.54-2.83,4.99-3.55,1.05-.53,1.58-.69,1.58-.49,0,.53-.86,2.11-2.57,4.74-.73,1.12-1.32,2.06-1.78,2.81-.46.76-.81,1.38-1.04,1.88-.23.49-.39.87-.49,1.14-.1.26-.15.49-.15.69,0,.73.33,1.09.99,1.09.26,0,.58-.11.94-.35.36-.23,1.04-.74,2.02-1.53,1.91-1.51,3.82-2.9,5.73-4.15,1.91-1.25,3.52-2.24,4.84-2.96.72-.33,1.18-.53,1.38-.59.2-.06.3,0,.3.2,0,.07-.13.35-.39.84-.26.49-.56,1.1-.89,1.83-.92,1.71-1.52,3-1.78,3.85-.26.86-.36,1.65-.3,2.37,0,.53.03.89.1,1.09.06.2.23.4.49.59.79.66,1.88.63,3.26-.1.39-.2,1.05-.61,1.98-1.23.92-.63,1.91-1.32,2.96-2.07,1.05-.76,2.07-1.51,3.06-2.27.99-.76,1.74-1.37,2.27-1.83,1.12-.92,1.78-1.5,1.98-1.73Z"/>
  <path class="st1" d="M993.94,627.37c.66-.13,1.51-.49,2.57-1.09.59-.33,1.3-.81,2.12-1.43.82-.62,1.68-1.33,2.57-2.12.89-.79,1.79-1.63,2.72-2.52.92-.89,1.78-1.79,2.57-2.72.92-.92,1.5-1.58,1.73-1.97.23-.4.28-.59.15-.59-.07,0-.28.17-.64.49-.36.33-.81.76-1.33,1.28-1.65,1.65-3.28,3.18-4.89,4.59-1.61,1.42-2.95,2.45-4,3.11-2.57,1.78-4.18,2.17-4.84,1.18-.13-.2-.2-.36-.2-.49s.07-.43.2-.89c.2-.72.71-1.81,1.53-3.26.82-1.45,1.69-2.9,2.62-4.34.79-1.32,1.27-2.17,1.43-2.57.16-.4.11-.72-.15-.99-.13-.2-.33-.3-.59-.3-.33,0-.73.23-1.18.69-.46.46-.99,1.12-1.58,1.97-.59.86-1.15,1.75-1.68,2.67-.53.92-1,1.83-1.43,2.72-.43.89-.71,1.6-.84,2.12-.4,2.17.03,3.56,1.28,4.15.59.33,1.22.43,1.88.3Z"/>
  <path class="st1" d="M1000.95,605.84c-.33,0-.66.17-.99.49-.46.46-.68.94-.64,1.43.03.49.31.81.84.94.26.13.62.1,1.09-.1.33-.13.58-.39.74-.79.16-.39.21-.76.15-1.09-.2-.72-.59-1.02-1.18-.89Z"/>
  <path class="st1" d="M1032.7,615.67c.16-.16.18-.31.05-.44-.07-.06-.49.13-1.28.59-.79.46-1.73,1.04-2.81,1.73-1.09.69-2.22,1.42-3.41,2.17-1.19.76-2.21,1.43-3.06,2.02-.33.33-.64.58-.94.74-.3.17-.48.28-.54.35-.13,0,0-.59.4-1.78,1.38-3.95,1.68-6.32.89-7.11-.46-.59-1.22-.56-2.27.1-.53.33-1.47,1.09-2.81,2.27-1.35,1.18-2.98,2.67-4.89,4.44-1.38,1.32-2.44,2.24-3.16,2.76-.73.53-1.25.82-1.58.89-.33.07-.46-.05-.4-.35.07-.3.33-.9.79-1.83.46-.85,1.04-1.76,1.73-2.72.69-.95,1.4-1.83,2.12-2.62.72-.79,1.4-1.41,2.02-1.88.62-.46,1.1-.63,1.43-.49.2,0,.3.26.3.79.13.59.23.96.3,1.09.06.13.2.2.39.2.33-.06.56-.51.69-1.33.13-.82.03-1.5-.3-2.02-.4-.72-1.02-1.09-1.88-1.09-.46,0-1.07.25-1.83.74-.76.49-1.5,1.1-2.22,1.83-1.65,1.65-2.95,3.32-3.9,5.04-.95,1.71-1.43,3.19-1.43,4.44,0,.46.03.77.1.94.07.17.2.38.4.64.26.2.44.33.54.39.1.07.31.07.64,0,.59-.06,1.32-.46,2.17-1.18.85-.72,2.37-2.17,4.54-4.35,2.24-2.24,3.95-3.85,5.14-4.84,1.18-.99,1.94-1.45,2.27-1.38.2.07.33.13.4.2.06.07.06.3,0,.69,0,.46-.21,1.37-.64,2.72-.43,1.35-1,2.78-1.73,4.3-.4.92-.71,1.58-.94,1.97-.23.4-.44.66-.64.79-.13.13-.46.4-.99.79-.53.4-1.14.86-1.83,1.38-.69.53-1.42,1.1-2.17,1.73-.76.62-1.47,1.2-2.12,1.73-1.38,1.12-2.78,2.3-4.2,3.56-1.41,1.25-2.76,2.52-4.05,3.8s-2.47,2.53-3.56,3.75c-1.09,1.22-2.02,2.35-2.81,3.41-1.12,1.45-2.01,2.86-2.67,4.25-.66,1.38-.99,2.47-.99,3.26,0,.72.15,1.37.44,1.93.3.56.71.97,1.23,1.23.46.13,1.05.18,1.78.15.73-.03,1.42-.21,2.07-.54,1.19-.53,2.6-1.55,4.25-3.06,1.65-1.52,3.23-3.23,4.74-5.14,1.05-1.32,2.17-2.88,3.36-4.69,1.18-1.81,2.37-3.72,3.55-5.73,1.19-2.01,2.3-4.03,3.36-6.07,1.05-2.04,1.98-3.95,2.77-5.73.2-.39.44-.72.74-.99.3-.26.97-.76,2.02-1.48,1.25-.92,2.7-1.91,4.34-2.96,1.64-1.05,3.16-2.04,4.54-2.96.85-.53,1.37-.87,1.53-1.04ZM1016.75,626.78c0,.13-.25.66-.74,1.58-.49.92-1.14,2.04-1.93,3.36-.79,1.32-1.65,2.73-2.57,4.25-.92,1.51-1.78,2.9-2.57,4.15-2.3,3.69-4.57,6.75-6.81,9.18-2.24,2.43-4.15,4.05-5.73,4.84-1.12.53-2.01.59-2.67.2-.92-.53-.95-1.81-.1-3.85.86-2.04,2.37-4.35,4.54-6.91.46-.59,1.05-1.27,1.78-2.02.73-.76,1.48-1.55,2.27-2.37.79-.82,1.58-1.61,2.37-2.37.79-.76,1.48-1.4,2.07-1.93,1.05-.92,2.14-1.86,3.26-2.81,1.12-.96,2.17-1.83,3.16-2.62.99-.79,1.81-1.45,2.47-1.98.66-.53,1.05-.79,1.18-.79v.1Z"/>
  <path class="st1" d="M1051.02,614.93c-.13,0-.76.33-1.88.99-1.32.73-2.65,1.37-4,1.93-1.35.56-2.49.91-3.41,1.04l-.59.1.39-.99c.33-.92.49-1.86.49-2.81s-.17-1.6-.49-1.93c-.33-.4-.82-.59-1.48-.59-.59,0-1.22.2-1.88.59-.39.13-.76.2-1.09.2-.33-.06-.82.13-1.48.59-.53.39-1.12,1.02-1.78,1.88-.66.86-1.22,1.65-1.68,2.37-.72,1.12-1.23,2.34-1.53,3.65-.3,1.32-.38,2.44-.25,3.36.07.33.26.71.59,1.14.33.43.66.71.99.84.33.13.74.16,1.23.1s.94-.16,1.33-.3c1.91-.92,3.69-2.8,5.33-5.63.53-.92.95-1.45,1.28-1.58,1.84-.39,3.46-.92,4.84-1.58.66-.26,1.32-.59,1.98-.99.66-.39,1.25-.77,1.78-1.14.53-.36.92-.66,1.18-.89.26-.23.3-.35.1-.35ZM1038.78,621.44c-1.12,1.91-2.37,3.23-3.75,3.95-2.5,1.19-3.26.26-2.27-2.76.33-.79.61-1.45.84-1.98.23-.53.64-1.22,1.23-2.07.33-.72.59-1.12.79-1.18.06,0,.1.1.1.3.33,1.12,1.32,1.84,2.96,2.17l.89.2-.79,1.38ZM1040.45,617.99c-.2.46-.33.74-.4.84-.07.1-.23.15-.49.15-.4,0-.82-.11-1.28-.35-.46-.23-.79-.48-.99-.74-.46-.72-.43-1.51.1-2.37.4-.79,1.12-1.42,2.17-1.88.53-.26.89-.23,1.09.1.13.2.21.39.25.59.03.2.05.63.05,1.28-.13.92-.3,1.71-.49,2.37Z"/>
  <path class="st1" d="M1084.4,615.22c-.13,0-1.14.43-3.01,1.28-1.88.86-4.23,1.94-7.06,3.26-1.65.73-2.7,1.18-3.16,1.38-.46.2-.69.23-.69.1s.3-.72.89-1.78c.59-1.05,1.33-2.29,2.22-3.7.89-1.42,1.83-2.91,2.81-4.49.99-1.58,1.88-2.96,2.67-4.15.92-1.38,1.88-2.76,2.86-4.15.99-1.38,1.94-2.67,2.86-3.85.92-1.19,1.74-2.21,2.47-3.06.72-.85,1.28-1.45,1.68-1.78.72-.66.82-1.25.3-1.78-.07-.06-.12-.1-.15-.1s-.08-.03-.15-.1c-.07,0-.23.07-.49.2-.13.07-.38.25-.74.54-.36.3-.78.68-1.23,1.14-.46.46-.92.96-1.38,1.48-.46.53-.89,1.02-1.28,1.48-1.05,1.32-2.21,2.85-3.46,4.59-1.25,1.75-2.55,3.69-3.9,5.83-1.35,2.14-2.72,4.39-4.1,6.76-1.38,2.37-2.73,4.81-4.05,7.31-.2.33-.38.58-.54.74-.16.17-.48.31-.94.44-.26.13-.61.28-1.04.44-.43.17-.81.35-1.14.54-.79.4-1.18.69-1.18.89s.39.46,1.18.79c.66.26,1.09.46,1.28.59,0,.13-.05.35-.15.64-.1.3-.25.61-.44.94-.13.33-.35.87-.64,1.63-.3.76-.61,1.46-.94,2.12-1.51,3.75-2.45,6.76-2.81,9.04-.36,2.27-.18,3.67.54,4.2.73.53,1.58.3,2.57-.69.4-.46.92-1.22,1.58-2.27.66-1.05,1.19-2.04,1.58-2.96,2.57-5.4,2.96-9.28,1.19-11.65l-.59-.79.99-1.88c.4-.72.69-1.22.89-1.48.2-.26.43-.46.69-.59.2-.06.87-.4,2.02-.99,1.15-.59,2.45-1.23,3.9-1.93,1.45-.69,2.85-1.35,4.2-1.98,1.35-.62,2.29-1.04,2.81-1.23,1.45-.66,1.81-.99,1.09-.99ZM1065.24,625c-.46-.26-.63-.43-.49-.49.07-.06.18-.13.35-.2.17-.06.41-.16.74-.3.46-.06.86-.2,1.18-.39h.2v.2c0,.07-.03.15-.1.25-.06.1-.13.21-.2.35-.13.26-.26.49-.4.69-.13.2-.23.3-.3.3-.2,0-.53-.13-.99-.39ZM1068.1,628.06c.26.59.46,1.15.59,1.68.13.53.17.95.1,1.28-.06.33-.16.85-.3,1.58-.2.85-.48,1.78-.84,2.77-.36.99-.77,1.96-1.23,2.91-.46.95-.95,1.84-1.48,2.67-.53.82-1.02,1.5-1.48,2.02-.4.53-.72.79-.99.79-.13,0-.26-.12-.4-.35-.13-.23-.2-.51-.2-.84,0-.73.25-1.96.74-3.7.49-1.75,1.07-3.37,1.73-4.89.2-.53.48-1.17.84-1.93.36-.76.71-1.5,1.04-2.22.33-.73.61-1.35.84-1.88.23-.53.38-.79.44-.79.13,0,.33.3.59.89Z"/>
  <path class="st1" d="M1098.96,615.52c.23-.4.28-.59.15-.59-.07,0-.28.17-.64.49-.36.33-.81.76-1.33,1.28-1.65,1.65-3.28,3.18-4.89,4.59-1.61,1.42-2.95,2.45-4,3.11-2.57,1.78-4.18,2.17-4.84,1.18-.13-.2-.2-.36-.2-.49s.07-.43.2-.89c.2-.72.71-1.81,1.53-3.26.82-1.45,1.69-2.9,2.62-4.34.79-1.32,1.27-2.17,1.43-2.57.16-.4.11-.72-.15-.99-.13-.2-.33-.3-.59-.3-.33,0-.73.23-1.18.69-.46.46-.99,1.12-1.58,1.97-.59.86-1.15,1.75-1.68,2.67-.53.92-1,1.83-1.43,2.72-.43.89-.71,1.6-.84,2.12-.4,2.17.03,3.56,1.28,4.15.59.33,1.22.43,1.88.3.66-.13,1.51-.49,2.57-1.09.59-.33,1.3-.81,2.12-1.43.82-.62,1.68-1.33,2.57-2.12.89-.79,1.79-1.63,2.72-2.52.92-.89,1.78-1.79,2.57-2.72.92-.92,1.5-1.58,1.73-1.97Z"/>
  <path class="st1" d="M1091.71,605.84c-.33,0-.66.17-.99.49-.46.46-.68.94-.64,1.43.03.49.31.81.84.94.26.13.62.1,1.09-.1.33-.13.58-.39.74-.79.16-.39.21-.76.15-1.09-.2-.72-.59-1.02-1.18-.89Z"/>
  <path class="st2" d="M1116.39,615.42c0-.2-.18-.18-.54.05-.36.23-1.07.78-2.12,1.63-3.36,2.83-6.27,4.94-8.74,6.32-2.47,1.38-4.2,1.91-5.18,1.58-1.25-.4-1.22-2.01.1-4.84l.49-1.18.49.39c1.05.73,2.5.17,4.35-1.68.59-.59,1.12-1.27,1.58-2.02.46-.76.69-1.3.69-1.63s-.18-.69-.54-1.09c-.36-.4-.71-.59-1.04-.59-.39,0-.91.13-1.53.4-.63.26-1.23.59-1.83.99-1.05.73-1.99,1.56-2.81,2.52-.82.96-1.5,1.96-2.02,3.01-.53,1.05-.85,2.07-.99,3.06-.13.99-.03,1.81.3,2.47.33.73.76,1.2,1.28,1.43.53.23,1.15.31,1.88.25.53,0,.95-.03,1.28-.1.33-.06.76-.23,1.28-.49.72-.33,1.68-.85,2.86-1.58,1.19-.72,2.34-1.51,3.46-2.37.59-.46,1.32-1.05,2.17-1.78.85-.72,1.66-1.43,2.42-2.12.76-.69,1.4-1.28,1.93-1.78.53-.49.79-.77.79-.84ZM1101.68,617c.2-.26.43-.54.69-.84.26-.3.53-.59.79-.89.26-.3.49-.51.69-.64.4-.33.84-.61,1.33-.84.49-.23.84-.38,1.04-.44.13,0,.2.17.2.49s-.33.82-.99,1.48c-.66.66-1.32,1.18-1.97,1.58-.53.26-1,.46-1.43.59-.43.13-.64.13-.64,0,0-.06.1-.23.3-.49Z"/>
  <path class="st2" d="M1134.07,593.2h-.3c-.59.13-1.32.49-2.17,1.09-.86.59-1.78,1.38-2.77,2.37s-2.02,2.14-3.11,3.46c-1.09,1.32-2.12,2.7-3.11,4.15-1.45,2.11-2.83,4.41-4.15,6.91-1.32,2.5-2.34,4.71-3.06,6.62-1.64,4.41-2.11,7.64-1.38,9.68.46,1.05,1.05,1.78,1.78,2.17,1.25.59,2.9.23,4.94-1.09.66-.46,1.48-1.14,2.47-2.02.99-.89,1.97-1.89,2.96-3.01.99-1.12,1.96-2.27,2.91-3.46.95-1.19,1.76-2.27,2.42-3.26.79-1.25,1.02-1.74.69-1.48-.13,0-.53.35-1.19,1.04-.66.69-1.25,1.4-1.78,2.12-4.02,4.87-7.34,8-9.97,9.38-1.91.99-3.06.76-3.46-.69-.26-1.12-.17-2.63.3-4.54.13-.46.31-1.07.54-1.83.23-.76.48-1.5.74-2.22.26-.72.51-1.35.74-1.88.23-.53.38-.82.44-.89.13-.13.33-.28.59-.44.26-.16.53-.31.79-.44.33-.2.79-.54,1.38-1.04.59-.49,1.23-1.07,1.93-1.73.69-.66,1.37-1.33,2.02-2.02.66-.69,1.22-1.33,1.68-1.93.99-1.25,1.96-2.58,2.91-4,.95-1.41,1.81-2.76,2.57-4.05.76-1.28,1.38-2.43,1.88-3.46.49-1.02.74-1.79.74-2.32,0-.79-.33-1.19-.99-1.19ZM1133.43,597.3c-.89,1.81-2.09,3.8-3.6,5.97-.92,1.32-2.01,2.67-3.26,4.05-1.25,1.38-2.44,2.57-3.55,3.56-.92.79-1.71,1.43-2.37,1.93-.66.49-.99.68-.99.54,0-.06.15-.39.44-.99.3-.59.66-1.28,1.09-2.07.43-.79.87-1.6,1.33-2.42.46-.82.89-1.5,1.28-2.02.72-1.18,1.55-2.43,2.47-3.75.92-1.32,1.74-2.4,2.47-3.26,1.05-1.25,2.14-2.39,3.26-3.41,1.12-1.02,1.84-1.5,2.17-1.43l.1.1c.33.33.05,1.4-.84,3.21Z"/>
  <path class="st2" d="M1137.23,624.7c-.33-.26-.68-.36-1.04-.3-.36.07-.68.23-.94.49s-.41.58-.44.94c-.03.36.11.71.44,1.04.59.66,1.25.62,1.98-.1.33-.33.51-.67.54-1.04.03-.36-.15-.71-.54-1.04Z"/>
  <path class="st2" d="M1148.09,624.7c-.33-.26-.68-.36-1.04-.3-.36.07-.68.23-.94.49s-.41.58-.44.94c-.03.36.11.71.44,1.04.59.66,1.25.62,1.98-.1.33-.33.51-.67.54-1.04.03-.36-.15-.71-.54-1.04Z"/>
  <path class="st2" d="M1158.96,624.7c-.33-.26-.68-.36-1.04-.3-.36.07-.68.23-.94.49s-.41.58-.44.94c-.03.36.11.71.44,1.04.59.66,1.25.62,1.98-.1.33-.33.51-.67.54-1.04.03-.36-.15-.71-.54-1.04Z"/>
</svg>