<?xml version="1.0" encoding="UTF-8"?>
<svg id="Capa_1" xmlns="http://www.w3.org/2000/svg" version="1.1" viewBox="0 0 1920 1080">
  <!-- Generator: Adobe Illustrator 29.5.1, SVG Export Plug-In . SVG Version: 2.1.0 Build 141)  -->
  <defs>
    <style>
      .st0 {
        fill: #f2eadf;
      }

      .st1 {
        fill: #2d4b30;
      }
    </style>
  </defs>
  <path class="st0" d="M884.06,589.88c1.29,3.03,1.7,7.25.38,10.33-.57,1.33-1.81,1.83-1.87,3.21,6.17-5.76,10.69-13.43,13.38-21.42-4.51,1.71-8.95,4.18-13.92,4.28.24,1.45,1.39,2.1,2.03,3.59Z"/>
  <path class="st0" d="M915.23,545.31c1.24-13.75-5.1-25.4-12.04-36.67l-4.55,2.92c2.71,3.91,5.68,8.42,7.59,12.77,8.95,20.4-1.42,44.1-20.42,54.22l-8.59,3.45c12.49-.73,24.45-6.64,30.96-17.51,3.01-5.03,6.54-13.37,7.06-19.19Z"/>
  <path class="st0" d="M826.19,533.39c-7.22,1.16-11.59,10.99-6.53,16.45,1.89,2.04,12.64,4.9,15.66,5.23,4.2.47,7.91.62,10.06-3.57,3.63-7.06-1.52-11.71-7.44-14.59-2.8-1.36-8.87-4-11.75-3.53ZM841.32,540.77l-6.82.94c-3.3,1.88-4.17,6.31-.94,8.7,1.97,1.46,3.89,1.34,5.95,2.09.57.21,1.54.26.74,1.12-.5.53-2.33.36-3.11.22-13.02-2.33-7.35-18.74,4.18-13.06Z"/>
  <path class="st0" d="M1008.74,469.01c3.69-.33,6.16-2.03,7.75-5.37-5.32,1.26-10.82,2.46-16.33,2.13-1.13-.07-12.04-2.51-12.06-1.87,6.06,4.33,13.26,5.76,20.65,5.11Z"/>
  <path class="st0" d="M842.94,506.73c10.38,4.16,50.08,5.65,59.09-.34,3.89-2.59,3.3-7.11-.69-9.31-6-3.31-24.76-3.9-31.92-3.48-2.02.12-4,.92-6.14.56.09,5.05,4.03,2.71,7.2,2.65,6.62-.12,15.89.54,22.35,1.8,2.29.45,5.03.8,6.86,2.24.03,1.98-9.78,3.28-11.51,3.48-8.47.96-19.84,1.02-28.41.57-5.89-.31-11.8-1.37-17.38-3.25-.17-1.14-.05-.86.68-1.19,2.58-1.17,6.23-1.22,8.97-2.02l-.81-2.13c-1.14-1.43-9.95,1.31-11.65,2.28-5.1,2.9-.31,6.68,3.36,8.15Z"/>
  <path class="st0" d="M960.24,610.92c1.82-2.1,3.88-5.45,1.78-8.05-3.06-.51-4.53.85-6.6,2.7.48-2.87-2.6-5.9-5.36-4.56-1.95.95-2.11,6.8-2.15,8.84-.9-.05-.62-1.5-1.13-2.34-1.88-3.05-5.26-2.99-5.77,1.05-.76,6.01,3.81,8.6,3.69,14.36l-6.95,17.46c-.89-9.59-5.3-19.02-5.92-28.63-.25-3.92.22-15.96,1.58-19.35,1.12-2.78,7.01-3.31,4.89-6.95l-3.81-.47-.5-2.45c10.47,5.13,7.96-12.86.56-7.2-1.21.93-.52,2.54-1.63,2.91l-2.68-6.42c1.24,2.03,4.8,4.58,4.18.4-.14-.95-1.9-3.56-.44-4.15,3,12.2,4.75,1.03,8.57-2.68l-2.64,7.71,1.3.85c1.43-1.53,2.78-3,5.09-2.67-.85,1.31-2.8,1.46-3.69,3-.78,1.36-1.26,3.67.76,3.98,1.37.22,3.83-1.24,4.54.51-1.25-.37-4.53.64-4.81,1.9-.39,1.78,4.12,1.56,3.74,3.47-11.98-5.41-6.8,6.49,1.3,3.75,3.59-1.21,1.83-2.86,2.09-4.59.1-.66,3.09-1.21,2.52-4.76-.32-1.99-3.16-2.59-4.83-2.98,3.86-3.17,4.76-8.91-1.61-8.57,2.05-2.93-1.36-7.58-4.47-5.83-1.02.58-2.91,2.93-3.93,3.07-.63.09-1.27-.86-2.07-.96-4.27-.57-5.35.47-5.07,4.8l-3.2-1.61c-.74,1.4-.25,3.21-.53,4.44-.14.63-1.68.6-2.06,1.82-1.17,3.71,3.37,7.86,6.87,8.21-1.66,3.84-.43,7.34-.5,10.97-.08,3.65-1.51,8.39-1.67,12.29-.21,5.33.6,11.04,1.09,16.36l-10.97-10.7c.94-4.05,3.41-9.7-2.13-11.27-1.35,2.87-2.18,6.54-.82,9.64l-7.49-1.88,5.89.27c.2-.89-.29-1.09-.81-1.59-1.69-1.64-4.11-3.09-5.61-5.1,1.81-1.31,4.86,4.01,5.62,4.01,3.55-2.77,1.44-11.54-3.35-10.04l-.67,4.16c-8.68-3.83-6.44,3.08-1.6,6.7-4,1.36-4.16,3.2-.71,5.53,3.29,2.23,6.58,1.91,10.38,1.42,3.64,6.58,10.84,9.33,13.77,16.2,3.24,7.59,4.5,18.41,3.2,26.52-.49,3.07-2.18,5.87-2.55,8.98-1.62-1.75-2.32-4.84-3.28-7.15-.53-1.27-2.17-3.26-2.37-4.07-.4-1.65.97-5.21.75-7.11-.08-.72-.99-4.52-1.24-5.24-1.54-4.49-5.05-7.36-8.04-2.14-5.63-7.06-8.92-2.61-5.09,4.28-5.15,1.29-2.47,5.86.58,8.27,3.37,2.66,7.25,2.89,10.69,4.84,5.09,2.88,5.97,13.82,7.22,14.21,1.52.49,4.17-4.58,5.33-5.89,1.61-1.81,8.19-8.56,9.93-9.36,3.37-1.55,13.2,1.86,13.41-5.89l-2.16-2.15c6.34-7.55,5.72-15.78-4.58-6.71h-.77s-5.46,2.33-5.46,2.33c-1.96,3.66-1.7,7.8-2.86,10.53-.43,1-5.22,5.06-6.43,6.43-1.2,1.36-1.99,3.2-3.47,4.29,3.7-7.59,3.42-16.15,5.62-24.1.51-1.85,4.54-11.97,5.6-12.57.36-.2,1.13.31,1.62-.02.39-.27.35-1.18.94-1.34,2.15-.59,7.21-.19,7.9-3.16.12-.52-.39-1.51-.26-1.64.07-.07,1.4-.09,1.99-.43,3.05-1.74,8.35-8.36,1.76-8.7ZM920.41,649.41c-.96-.56-4.13-2.7-3.3-3.66.98.48,4.78,4.04,5.63,3.21l-1.06-9.64,2.67,11.78c-1.19-.8-2.71-.99-3.93-1.69ZM947.93,650.31c.51-1.7,10.07-11.68,10.7-10.99.23,1.01-.56,1.27-1.06,1.88-.72.85-7.7,7.1-6.96,7.76l5.1-1.06.26,1.06c-1.97.41-3.95.87-5.9,1.34-.29.07-2.65,1.77-2.13.02ZM955.12,616.83c-.96,1.84,2.02,4.03-3.45,4.82-.4-1.67,1.27-1,2-1.73,2.75-2.75-4.57-5.31-6.85-3.91v2.17s-1.05.25-1.05.25l-1.07-8.56c1.39.53,1.6,5.72,3.76,4.58,2.22-2.34,2.82-5.75,2.67-8.87.96.32.62,3.24.53,4.01-.21,1.75-1,3.33-1.06,5.09.86.93,4.14-5.07,5.09-5.35.77,2.16-4.63,5.35-1.87,6.73,1.35.67,4.21-3.05,5.88-2.97-.6,1.71-3.93,2.49-4.58,3.75Z"/>
  <path class="st0" d="M937.18,424.23c-6.42,4.01-7.38-3.01-9.72-6.83-2.87-4.68-5.98-8.84-11.97-8.43-10.11.7-8.62,14.23-6.01,21.05,1.42,3.71,13.01,23.2,15.67,25.03,3.52,2.43,7.03.93,8.18-3.07l.65-5.5c2.69,14.09,6.26,28.46,16.07,39.37-.5.86-1.2-.2-1.66-.49-7.61-4.75-11.58-10.5-12.81-19.6l-.84,7.52c5.32,9.86,13.17,17.07,22.52,23.02.72.46,5.34,3.47,5.64,3.2-6.14-7.67-9.11-17.1-13.82-25.55-.26-.47-1.18-1.34-.38-1.76,7.16,8.75,11.17,20.39,19.26,28.41,1.86,1.84,16.15,12.59,17.94,13.13,1.55.47,11.07-.09,13.02-.42,3.42-.57,7.98-3.43,10.04-6.3-16.94,4.38-33.38-2.65-42.21-17.52-2.59-4.36-5.84-11.63-7.7-16.41-2.18-5.59-4.8-13.12.09-18.04-1.9,6.79,1.13,12.89,3.83,18.94,5.18,11.62,12.83,23.64,25.49,28.08,11.98,4.2,28.47,1.2,33.62-11.67,1.34-3.35,1.95-10.64,3.22-12.85.15-.26.69-.69.8-.53l-.56,5.06.56,4.58c.98-5.93,4.98-10.95,7.43-16.41,5.83-12.97,10.04-29.03,6.88-43.15-.76-3.38-1.18-5.56-5.19-5.79.25-1.49,3.46.29,3.74,0-1.61-9.43,2.82-19.39-11.38-17.53-6.62.87-14.69,6.06-12.72,13.79,5.5-5.27,8.72-8.28,16.59-5.08,2.4.98,7.06,3.23,4.49,6.19l-9.3-3.25c-.17.12,2.33,3,.18,3.68l-11.43-1.01c-.95,1.12,4.13,14.56,5.24,16.44,3.35,5.63,9.92,8.87,11.23,17.16,1.14,7.21-1.88,10.8-5.77,16.2-.99.12-.47-1.12-.28-1.62.44-1.2,1.36-2.31,1.78-3.58,2.41-7.36.96-13.53-3.9-19.43l-.61,4.74c-1.84,8.03-11.17,11.06-18.05,6.95-1.39-.83-2.97-2.94-4.61-3.42-1.51-.44-2.98-.06-4.44-.38-3.77-.82-7.43-2.12-8.45-6.29-.61-.45-11.59,6.78-12.8,7.81-5.06,4.33-3.08,10.38-2.73,16.29-1.18.31-1.81-1.51-2.23-2.31-1.64-3.13-2.68-7.25-2.02-10.78.83-4.51,12.31-10.12,15.99-12.93,4.09-3.12,6.73-9,12.64-8.27.73.09,1.6.34.81,1.08-5.39.15-9.24,5.74-4.79,9.88,2.83,2.63,6.73,2.1,10.13,3.26,4.57,1.57,9.3,6.48,14.75,1.86,6.52-5.52-2.46-18.06-4.41-24.53-1.5-5-2.28-10.64-1.7-15.86.34-3.05,2.16-5.82,2.09-8.89l1.87,2.67c5.27-6.69,15.17-11.22,22.76-5.88-.4-5.38-1.4-16.82-5.11-20.86-1.94-2.11-11.41-3.76-14.52-4.22-15.41-2.29-31.21-1.2-46.35,2.22-10.19,2.3-19.96,5.98-29.26,10.65-.64,6.48-2.78,12.57-4.93,18.65l-1.06-.26,1.86-15.82-20.08,16.35,7.23,4,4.78-4.85,4.59-7.45-7.4,13.65,5.81,11.52c4.03-.78,5.44-6.13,6.41-9.64l-4.56,3.74c-.69.2-1.05-.11-.79-.79.53-1.36,2.89-4.29,3.84-6.34,2.1-4.53,3.18-9.23,5-13.74.53-1.32,1.27-3.45,2.4-4.29-.83,7.94-1.06,28.74-8.59,33.45ZM929.44,442.73c-1.73,3.52-3.41-1.2-4.04-1.85-.96-.98-3.4-1.66-4.83-3.21-3.09-3.35-3.86-9.06-.8-12.63.71-.83,2.28-1.53,2.35-1.66.98-1.68-8.24-10.68-9.03-3.42-.44,4.06.41,8.1,1.07,12.06-3.84-3.87-7.29-16.11-.63-18.58,3.09-1.15,5.89.03,8.16,2.22,1.06,1.02,6.2,8.68,6.29,9.76.08,1.05-1.31,2.29-1.67,3.48-1.91,6.35,4.71,10.6,3.12,13.83ZM1021.82,424.28c-.77-.36-2.95-1.25-2.65-2.43,4.87,1.68,9.97,1.14,14.99.54.3,1.36-.36.94-1,1.39-3.67,2.56-7.39,2.37-11.33.51ZM990.24,478.36c1.88-.12,3.74,1,5.68,1.29,4.51.66,10.86.7,15.19-.76,2.39-.81,4.11-2.71,6.44-3.46-5.62,11.54-18.68,10.81-27.32,2.94ZM976.54,459.84c7.83-2.09,15.82,2.08,23.61,2.7,6.27.5,13.65-.24,19.53-2.41,2.07-.77,3.65-2.61,5.9-2.4.87,3.37-3.04,3.24-4.13,4.44-.65.71-1.87,3.98-2.92,5.38-6.3,8.29-17.97,7.39-26.83,3.98-3.89-1.5-9.9-4.85-11.18-8.9l-4.21-.08.24-2.71ZM962.92,427.74c-1.24-1.33,7.76-6.94,9.64-5.89-2.39,2.82-6.45,4.1-9.64,5.89ZM975.24,425.59c-.13-.93,1.22-.51,1.86-.53,4.91-.16,8.95-.61,13.67-2.14-4.01,4.18-10.35,5.52-15.53,2.67ZM985.95,415.42l.06,2.44c-4.13,2.99-7.83,1.87-12.02-.17-6.44,2.29-12.56,6.64-19.65,5.76l12.15-4.72c8.05-5.42,15.8-11.67,25.52-4.83,6.18,4.35-3.27,4.5-6.06,1.52ZM998.8,421.31c1.07-2.24.54-4.69,0-6.96,1.92,1.92,1.95,5.95,2.13,8.57-1.19-.56.26-2.17-2.14-1.61ZM993.16,382.19c5.55-.16,11.1.94,16.61,1.12,6.26.2,12.33-.67,18.5-.02l-13.63,1.62c-9.36.59-18.57-1.39-27.9-1.12-2.32.07-4.85,1.25-7.21.29,0-.69,12.48-1.86,13.64-1.9ZM975.66,395.76c7.49-1.88,20.34-.96,22.08,8.41,1.73-1.1.87-4.17,1.07-5.89.69.34,1.39,2.95,1.47,3.61.3,2.33-.53,8.94-3.89,7.14-1.88-1.01-2.48-2.09-5.09-2.99-11.1-3.84-20.97-1.59-28.74,7.19l-1.71-1.37c2.49-6.98,7.18-14.19,14.8-16.1ZM962.37,417.29c-.02,2.33-9.86-.46-10.17-2.94l10.17,2.94Z"/>
  <path class="st0" d="M919.79,541.84c-.64,9.13-3.33,18.01-8.3,25.7,11.43-4.57,23.68-16.56,8.3-25.7Z"/>
  <path class="st0" d="M809.5,654.28l-4.59-10.13c1.01,13.47,11.73,26.35,25.98,25.71.65-.03,1.99.41,1.87-.53-9.62-.48-18.15-7.18-23.26-15.05Z"/>
  <path class="st0" d="M828.46,648.16c-11.85-10.56-11.94-25.83-13.93-40.45-1.99,1.47-2.47,5.44-2.66,7.78-1.27,15.24,3.83,30.1,16.96,38.73,22.14,14.53,36.67-15.23,39.27-33.11-4.62,6.03-5.94,13.69-9.9,20.36-7.33,12.35-17.8,17.33-29.74,6.69Z"/>
  <path class="st0" d="M795.79,610.93l15-5.88c-5.38.34-11.29,1.84-15,5.88Z"/>
  <path class="st0" d="M861.42,501.64l.57-1.07c-2.66-5.48-4.66-11.3-7.35-16.78-.95-1.94-1.38-4.4-3.81-4-.49.08-2.63,1.16-2.85,1.51l9.14,19.3,4.3,1.04Z"/>
  <path class="st0" d="M835.6,455.69c-1.22-.89-7.9-5.44-8.73-5.69-1.2-.36-3.01,1.28-4.3,1.31,8.35,5.77,17.24,11.11,21.44,20.88l4.26-2.41c-3.1-5.8-7.41-10.26-12.67-14.1Z"/>
  <path class="st0" d="M879.21,588.31c-6.58-3.88-9.94,1.15-16.13.59l-42.94-11.72c-1.59.02-3.35,6.76-3.48,8.29-.38,4.59,1.36,17.3,3.14,21.55,2.07,4.93,10.59,13.87,15.43,16.18,2.08.99,4.44,1.52,6.63,2.22-.25.94-2.69,1.06-3.46,1.09-8.24.25-11.86-5.32-17.42-10.2.35,12.54,6.32,30.85,22.37,25.86,4.85-1.51,9.14-5.52,10.83-10.33l-8.31,1.07-4.54-1.6c7.89-.52,13.74-2.67,19.02-8.57.43-.48,3.86-4.5,3.47-4.83h-23.3c-.86,0-5.56-1.45-6.69-1.88-1.1-.42-3.07-1.42-3.75-2.4l35.05.5c3.34-1.07,5.68-3.94,6.72-7.18-.24-1.19-6.12-.85-7.5-1.36-.03,2.23-.09,5.6-2.14,6.97l1.1-7.25c-10.32-2.69-21.88-2.88-32.08-5.43-3.24-.81-6.81-2.02-8.66-5,8.43,1.08,16.97,1.92,25.35,3.3,7.94,1.3,23.63,6.47,30.66,3.16,4.64-2.19,4.44-10.76.62-13.01ZM844.53,602.9l-.54,8.57c-1.87-1.52-1.65-7.34.54-8.57ZM829,592.18l-1.02-4.46c.55-2.12.56-4.93,2.63-6.25-.88,3.49-1.63,7.07-1.61,10.71ZM872.37,598.36c1.54,1.11,3.32.9,4.31,2.38-5.1-.4-11.12-4.05-7.19-9.6,2.3-3.25,6.32-3.92,8.8-.58-5.71-2.12-12.29,3.21-5.91,7.79Z"/>
  <path class="st0" d="M852.03,472.73c-2.57,1.31-7.45,1.42-6.95,5.36,2.54-2.25,9.18-1,6.95-5.36Z"/>
  <path class="st0" d="M818.43,572.23c1.57,1.7,14.4,3.7,17.66,4.57,7.07,1.89,14.34,4.81,21.3,6.55,4.73,1.18,11.28,2.79,14.04-2.58,3.3-6.41-.45-10.8-6.17-13.32-8.36-3.69-21.75-5.54-31.01-8.09-4.23-1.17-8.43-2.48-12.5-4.14-1.46.04-4.13,5.25-4.4,6.83-.33,1.92-.16,8.85,1.08,10.19ZM868.57,571.9l.07,1.54c-4.31-4.06-13.94.53-9.44,5.7l6.77,3.94c-15.01-.06-11.54-19.1,2.61-11.17ZM841.85,567.27c.21-.6.3-1.94,1.07-1.86-.87,3.56-1.35,7.02-1.07,10.71-.75.12-.85-1.51-.91-2.02-.31-2.63.06-4.36.91-6.82Z"/>
  <path class="st0" d="M954.93,505.1l24.6,14.52c2.38-3.26,1.82-3.75-.82-6.15-4.58-4.16-8.2-4.62-13.12-7.24-9.67-5.15-21.88-12.54-28.28-21.53-2.62-3.68-4.19-7.93-7.06-11.42-.02,14.16,13.68,24.95,24.68,31.83Z"/>
  <path class="st0" d="M969.88,531.66l-9.47-2.59-20.52-10.81c6.52,6.36,18.83,14.29,28.13,13.92.65-.03,1.99.41,1.86-.53Z"/>
  <path class="st0" d="M993.45,543.82l-2.97-1.38c-1.23.1-3.71,14.91-3.93,16.86-.49,4.22-.68,8.52-.61,12.78l-1.06,6.7c-3.76-12.62-2.23-25.38,1.61-37.75-.14-1.42-4.78-3.8-5.1-6.17-12.5,18.43-18.41,45.43-7.51,65.89,6.45,12.1,14.88,18.45,23.05,28.37,3.68,4.47,4.63,9.46,5.88,15,1.97-3.99,2.59-9.22,2.94-13.66,1.21-15.12-.67-31.45-3.38-46.43-2.45-13.54-6.6-26.67-8.93-40.23Z"/>
  <path class="st0" d="M996.39,636.65c-2.17-5.18-8.16-9.43-12.04-13.39-1.11,18.12-4.4,36.22-9.65,53.56l31.07-1.06-1.62-28.39c-5.79,2.58-6.21-7.01-7.77-10.71Z"/>
  <path class="st0" d="M1013.8,528.97c6.75-2.47,12.53-9.56,13.92-16.6l-5.9,8.82-8.02,7.78Z"/>
  <path class="st0" d="M1011.29,615.85c2.12,11.04,5.4,22.98,12.14,32.04,1.23-7.08,2.47-14.16,4.33-21.11,6.16-22.9,12.89-33.78,3.72-58.44-4.58-12.29-13.79-26.3-24.87-33.43l-2.92,4.92c4.53,7.42,8.71,15.16,12.34,23.07,3.92,8.53,9.93,21.33,9.54,30.63-.03.65.41,1.99-.53,1.86-6.87-18.14-14.39-36.07-23.85-53.03l-.96-.46-2.43,1.08c2.02,11.34,5.08,22.68,7.25,34.1,2.44,12.85,3.77,25.95,6.23,38.77Z"/>
  <path class="st0" d="M1007.36,520.4c.05-.47.21-.97.58-1.28,5.95-5.1,11.58-11.16,13.36-19.07-1.94,2.41-5.42,3.79-7.44,5.68-1.69,1.59-2.85,4.01-4.87,5.85-1.76,1.59-4.06,2.77-5.9,4.28l3.18,4.22,1.09.33Z"/>
  <path class="st0" d="M1014.89,304.26c-134.66-24.05-246.58,93.62-216.69,226.86,3.37,15,9.1,29.15,14.74,43.38.74-.17,1.09-2.97,1.08-3.5-.01-1.17-.56-2.22-.55-3.19.06-5.5.47-9.67,4.21-14.02-4.91-6.06-5.33-15.14.88-20.51,2.44-2.11,5.17-2.4,7.67-4.12.83-3.5,1.78-6.87,3.21-10.18,2.48-5.76,5.59-7.5,5.47-14.39-.02-1.29-.64-2.5-.59-3.72.23-5.95,9.89-7.55,14.5-8.31.21-.21-1.9-4.9-2.24-5.52-1.56-2.88-5.33-5.83-5.31-8.66,0-1.24.77-2.45.49-3.61-.6-2.47-6.12-9.24-8.22-11.11-3.26-2.91-13.82-8.48-15.28-10.97-2.62-4.46,6.08-6.03,9.17-5.41,5.06,1.02,15.68,9.58,18.94,13.73,1.7,2.17,3.34,6.43,4.9,7.95,1.09,1.06,2.26.98,3.36,2.53,2.26,3.19.21,4.66.71,6.74.25,1.02,3,5.45,3.75,7.01.82,1.72,1.64,3.8,2.11,5.65,7.91-.31,16.42-.97,24.33-.49,3.91.24,10.54,2.21,13.84,1.99,3.13-.21,15.41-4.51,18.37-6.16,5.1-2.83,6.57-9.19,8.82-14.21,1.71-3.82,4.64-6.39,3.67-11.05-10.23-.25-13.38-12.14-18.36-19.13-16.73-2.92-51.59-14.46-36.49-37.61,12.95-19.85,67.69-38.32,90.64-43.27,27.03-5.83,60.78-8.55,88.13-4.36,13.95,2.13,34.49,7.29,26,25.83-5.02,10.97-19.9,20.7-30.11,26.67-1.21.71-6.44,2.88-6.79,3.52-.35.64-1.02,5.79-1.02,6.77.05,5.97,3.04,13.05,3.16,19.35.16,8.08-3.6,21.12-6.55,28.79-2.94,7.63-7.41,14.8-10.04,22.63,11.25,5.15,23.99,6.13,35.99,8.99,11.42,2.73,22.89,6.48,34.06,9.86,13.81,4.18,20.5,26.31,27.41,37.4,5.92,9.49,15.21,17.81,20.91,27.57,3.37-4.94,5.78-11.36,7.89-17.01,41.27-110.58-23.3-231.83-140.19-252.7ZM912.57,376.32c.61-8.09.66-15.69,2.95-23.56,8.68-29.88,45.47-45.12,74.44-41.77,23.3,2.69,35.52,21.01,42.06,41.77-41.36-3.7-82.41,5.66-119.45,23.57Z"/>
  <path class="st0" d="M1033.36,624.32c-3.31,7.94-3.38,16.13-5.34,24.13-1.57,6.42-4.5,5.61-8.34,1.33-3.33-3.71-5.29-9.06-7.36-13.53l-3.33-10.32c.2,4.01-.2,7.94-.68,11.91-.18,1.48-1.2,3.24-1.29,4.49-.26,3.66,1.62,11.7,1.96,16.01.44,5.59.56,11.26.55,16.87l35.35-9.11-10.72-42.84c-.73-.16-.58.56-.79,1.07Z"/>
  <path class="st0" d="M1102.46,539.68l-2.41-7.49c1.03,8.46,2.35,16.96,3.2,25.45,2.31,23.02,1.82,44.11,2.68,66.96.02.65-.4,1.99.53,1.87,2.74-9.84,2.51-21.1,2.17-31.35-.61-18.47-2.86-37.24-6.18-55.42Z"/>
  <path class="st0" d="M1095.22,592.18c-.65-.58,3.4-4.75,3.65-5.76.88-3.52-4.25-3.42-6.33-1.73.07-1.53-1.17-3.36-2.82-3.14-3.65.48-2.9,8.89-.13,10.63,1.69-1.92,1.89-5.17,5.09-5.34l-5.35,7.23c1.69,2.13,3.92-.41,5.88,0l-6.96,2.95c1.41-3.21-.74-5.49-1.33-8.58l-2.41-.52c.07,1.36-.58,2.57-.51,3.94.12,2.35,2.41,5.94,2.03,7.98-.09.51-5.34,8.3-5.8,8.71-.37.32-.95.56-1.06,0,.43-.4,0-.78-.02-1.07-.22-2.87,0-6.17,0-9.11,0-3.83-2.24-10.71-2.72-15.49-.19-1.9-1.24-4.05-1.55-5.99.04-1.03,2.29-2.03,3.19-3.17,1.85-2.33,2.13-5.16,1.12-7.94l-3.79-.89c1.57-6.65-3.76-6.91-7.49-2.68.11-1.7-.43-3.34-1.96-4.22-1.95-1.12-1.97.32-2.61.35-.45.02-1.22-2.1-3.63-1.39-2.16.92-1.31,3.35-1.47,5.25-3.03-.62-3.95,3.1-2.92,5.37.65,1.43,2.75,1.12,2.4,2.68-3.28.58-6.04,2.87-3.75,6.17.72,1.04,2.53,1.81,2.61,1.96.52.92-1.69,2.66.94,4.14,3.17,1.78,10.28.16,8.81-4.38-2.28-2.3-3.88,1.56-6.47,1.23.25-1.08,2.1-1.03,2.7-1.98,1.69-2.67-1.57-3.64-3.77-3.91.38-1.45,3.47-.03,4.04-.13,1.25-.22.86-3.41.29-4.32-.61-.97-2.93-.78-3.25-1.96,1.99-.27,3.32.74,4.56,2.13l1.28-.87-2.09-6.09c4.54,4.28,3.85,10.64,9.63,2.14l-1.06,5.89c1.99.04,2.27-2.44,3.74-3.21l-2.68,5.36c-2.47-3.46-4.2-2.49-8.06-1.91-1.71,3.27-.02,7.54,4.02,7.25,1.54-.11,2.08-1.59,3.51-1.59-.73,1.32-.73,2.42,0,3.74-.23.19-5.17-1.9-4.28,1.85.63,2.64,4.48,2.46,5.82,4.38,2.75,3.92,3.64,20.63,3.27,25.64-.5,6.63-3.03,12.97-3.75,19.56-1.68-.7-.87-2.95-1.2-4.42-.98-4.37-4.76-9.11-5.19-11.41-1.08-5.69,3.85-11.22.92-16.72-1.06-.75-2.08-.69-3.06.16l-2.16,3.99c-.21-5.2-4.32-12.5-7.51-4.28-2.22-.48-3.85-2.28-6.34-1.53-1.59,2.95.28,5.2,2.07,7.42-1.11.16-2.58.58-2.7,1.89.51,2.77,4.54,8.2,7.71,7.16,4.38-1.43-4.87-5.58-5.54-6.9,2.58-.18,6.07,5.6,7.8,2.12l-4.06-5.33c1.78-.54,4.92,5.88,5.89,4.81l-1.06-8.03,1.73,5.49,1.27,1.44c1.92.33,2.49-4.67,3.96-5.33l-1.07,7.5c-3.57-3.93-10.52,4.66-7.5,7.24.96.82,7.18,1.75,8.56.8.63,2.45,2.48,4.1,3.49,6.44,2.14,4.94,2.03,9.44,1.88,14.72l-1.07,10.99c-3.8-3.75-3.28-9.27-4.65-13.82-.45-1.5-2.82-6.97-4.68-6.52l-1.1,1.59c-8.84-7.98-8.52-.22-2.99,5.69.29,1.39-2.78.45-.95,3.62,2.73,4.74,6.11,2.53,8.53,4.32,2.5,1.84,3.96,6.82,5.61,9.43,3.1-.47,2.1-2.85,2.89-5.14.76-2.23,6.38-8.71,8.32-9.89,3.32-2,14.02-.71,11.93-7.35l-2.54-.94c2.44-1.93,4.19-5.19,3.51-8.33-2.49-1.8-4,1.6-5.39,3.24-.37-1.59-.06-3.98-2.6-3.15-1.63.53-2.94,7.35-3.69,9.18-2.1,5.16-6.31,8.18-8.97,12.99-.81.74-.58-.56-.53-1.06.66-6.28,3.97-23.64,6.15-29.21,1.61-4.1,7.59-8.74,8.32-13.93,5.4,3.09,19.37-6.84,7.48-8.04ZM1060.41,639.85l2.67-.79-5.88-8.31c3.69,2.67,6.12,6.65,8.03,10.71l-4.82-1.61ZM1087.72,626.47l-2.67,7.5,6.42-2.41c-2.08,2.11-5.13,3.2-8.03,3.48l4.28-8.56Z"/>
  <path class="st0" d="M993.42,517.76l-8.55.77c-3.66,3.2-1.91,15.04,1.31,17.47,1.05.79,1.89-.01,2.83.34,1.01.38,2.04,1.92,3.5,2.41,12.57,4.2,17.61-23.55,2.54-21.54,2.06,4.63,3.54,11.9.67,16.45-.34.55.03.94-1.2.68.15-5.58.06-11.11-1.1-16.57Z"/>
  <path class="st0" d="M1042.19,407.92c1.34-6.92,1.85-12.59-.81-19.27-.35-.88-1.03-2.8-1.86-3.22,2.06,6.9,1.85,13.57,2.14,20.62.03.65-.4,1.99.53,1.87Z"/>
  <path class="st1" d="M962.92,427.74c3.18-1.79,7.25-3.07,9.64-5.89-1.88-1.06-10.88,4.56-9.64,5.89Z"/>
  <path class="st1" d="M865.96,583.07l-6.77-3.94c-4.5-5.17,5.14-9.76,9.44-5.7l-.07-1.54c-14.15-7.92-17.62,11.11-2.61,11.17Z"/>
  <path class="st1" d="M841.85,576.11c-.27-3.69.2-7.15,1.07-10.71-.77-.08-.87,1.26-1.07,1.86-.85,2.46-1.22,4.19-.91,6.82.06.51.16,2.15.91,2.02Z"/>
  <path class="st1" d="M837.14,553.83c.78.14,2.61.31,3.11-.22.8-.85-.18-.91-.74-1.12-2.06-.75-3.98-.63-5.95-2.09-3.23-2.39-2.36-6.82.94-8.7l6.82-.94c-11.53-5.68-17.2,10.73-4.18,13.06Z"/>
  <path class="st1" d="M975.24,425.59c5.18,2.85,11.52,1.52,15.53-2.67-4.72,1.52-8.75,1.97-13.67,2.14-.64.02-1.99-.4-1.86.53Z"/>
  <path class="st1" d="M950.05,650.29c1.96-.47,3.94-.93,5.9-1.34l-.26-1.06-5.1,1.06c-.73-.66,6.25-6.91,6.96-7.76.51-.6,1.3-.87,1.06-1.88-.63-.69-10.19,9.3-10.7,10.99-.52,1.75,1.84.05,2.13-.02Z"/>
  <path class="st1" d="M992.02,413.91c-9.72-6.84-17.47-.59-25.52,4.83l-12.15,4.72c7.09.88,13.21-3.47,19.65-5.76,4.19,2.04,7.89,3.16,12.02.17l-.06-2.44c2.79,2.98,12.24,2.83,6.06-1.52Z"/>
  <path class="st1" d="M922.74,648.96c-.85.83-4.64-2.73-5.63-3.21-.83.97,2.34,3.11,3.3,3.66,1.22.7,2.74.89,3.93,1.69l-2.67-11.78,1.06,9.64Z"/>
  <path class="st1" d="M1034.15,422.39c-5.02.6-10.12,1.14-14.99-.54-.3,1.18,1.88,2.07,2.65,2.43,3.95,1.86,7.66,2.06,11.33-.51.64-.45,1.31-.02,1-1.39Z"/>
  <path class="st1" d="M959.7,613.08c-1.68-.07-4.54,3.64-5.88,2.97-2.76-1.37,2.64-4.57,1.87-6.73-.95.28-4.23,6.29-5.09,5.35.07-1.76.85-3.34,1.06-5.09.09-.77.43-3.69-.53-4.01.15,3.12-.46,6.53-2.67,8.87-2.15,1.14-2.36-4.05-3.76-4.58l1.07,8.56,1.06-.25v-2.17c2.27-1.4,9.58,1.15,6.84,3.91-.73.73-2.41.07-2,1.73,5.46-.79,2.49-2.97,3.45-4.82.65-1.25,3.98-2.04,4.58-3.75Z"/>
  <path class="st1" d="M991.7,471.53c8.86,3.41,20.54,4.31,26.83-3.98,1.06-1.39,2.28-4.66,2.92-5.38,1.09-1.2,5-1.07,4.13-4.44-2.24-.21-3.82,1.63-5.9,2.4-5.89,2.17-13.27,2.91-19.53,2.41-7.79-.63-15.78-4.79-23.61-2.7l-.24,2.71,4.21.08c1.28,4.05,7.29,7.4,11.18,8.9ZM1000.15,465.76c5.51.33,11.01-.87,16.33-2.13-1.58,3.35-4.05,5.05-7.75,5.37-7.39.65-14.59-.78-20.65-5.11.02-.64,10.94,1.8,12.06,1.87Z"/>
  <path class="st1" d="M995.91,479.64c-1.93-.28-3.8-1.4-5.68-1.29,8.63,7.88,21.7,8.6,27.32-2.94-2.33.75-4.05,2.65-6.44,3.46-4.34,1.46-10.69,1.42-15.19.76Z"/>
  <path class="st1" d="M986.73,383.79c9.33-.27,18.54,1.7,27.9,1.12l13.63-1.62c-6.17-.66-12.24.21-18.5.02-5.5-.17-11.06-1.27-16.61-1.12-1.16.03-13.64,1.21-13.64,1.9,2.36.96,4.89-.22,7.21-.29Z"/>
  <path class="st1" d="M1027.74,297.84c-144.79-34.44-271.55,92.27-237.57,237.04,4.41,18.78,12.01,36.56,20.54,53.75-10.29,11.47-25.28,20.25-30.29,35.58-9.75,29.82-2.87,61.98,33.33,64.39,26.97,1.79,42.6-17.67,54.39-39.08.92-.64,5.77,3.22,6.98,3.95,73.32,44.07,159.25,44.09,227.32-10.41,126.22-101.05,83.45-307.6-74.7-345.22ZM810.79,605.04l-15,5.88c3.7-4.04,9.62-5.54,15-5.88ZM830.89,669.85c-14.25.64-24.97-12.24-25.98-25.71l4.59,10.13c5.1,7.87,13.63,14.56,23.26,15.05.12.94-1.21.5-1.87.53ZM828.84,654.22c-13.14-8.62-18.23-23.49-16.96-38.73.19-2.33.67-6.3,2.66-7.78,1.99,14.61,2.08,29.89,13.93,40.45,11.94,10.64,22.42,5.66,29.74-6.69,3.96-6.67,5.28-14.33,9.9-20.36-2.59,17.88-17.12,47.64-39.27,33.11ZM878.59,601.32c-7.02,3.31-22.72-1.86-30.66-3.16-8.39-1.38-16.92-2.21-25.35-3.3,1.85,2.98,5.41,4.19,8.66,5,10.2,2.55,21.76,2.74,32.08,5.43l-1.1,7.25c2.05-1.37,2.11-4.74,2.14-6.97,1.38.5,7.26.17,7.5,1.36-1.04,3.25-3.39,6.12-6.72,7.18l-35.05-.5c.68.98,2.65,1.98,3.75,2.4,1.14.43,5.83,1.88,6.69,1.88h23.3c.39.33-3.04,4.35-3.47,4.83-5.28,5.9-11.13,8.05-19.02,8.57l4.54,1.6,8.31-1.07c-1.69,4.81-5.98,8.82-10.83,10.33-16.05,4.99-22.02-13.32-22.37-25.86,5.56,4.88,9.18,10.45,17.42,10.2.77-.02,3.21-.14,3.46-1.09-2.19-.7-4.54-1.22-6.63-2.22-4.84-2.31-13.36-11.24-15.43-16.18-1.78-4.25-3.51-16.95-3.14-21.55.13-1.53,1.89-8.27,3.48-8.29l42.94,11.72c6.19.56,9.55-4.47,16.13-.59,3.82,2.25,4.01,10.82-.62,13.01ZM852.03,472.73c2.23,4.36-4.41,3.11-6.95,5.36-.5-3.94,4.39-4.05,6.95-5.36ZM844.01,472.2c-4.2-9.77-13.09-15.11-21.44-20.88,1.28-.03,3.1-1.68,4.3-1.31.83.25,7.51,4.8,8.73,5.69,5.26,3.84,9.58,8.3,12.67,14.1l-4.26,2.41ZM850.83,479.79c2.42-.4,2.86,2.06,3.81,4,2.68,5.47,4.68,11.29,7.35,16.78l-.57,1.07-4.3-1.04-9.14-19.3c.22-.35,2.36-1.43,2.85-1.51ZM851.23,496.31l.81,2.13c-2.74.8-6.39.86-8.97,2.02-.72.33-.85.05-.68,1.19,5.58,1.88,11.49,2.94,17.38,3.25,8.57.45,19.94.4,28.41-.57,1.73-.2,11.54-1.49,11.51-3.48-1.82-1.44-4.57-1.79-6.86-2.24-6.46-1.26-15.74-1.92-22.35-1.8-3.17.06-7.11,2.4-7.2-2.65,2.13.36,4.12-.44,6.14-.56,7.16-.42,25.93.17,31.92,3.48,3.99,2.2,4.58,6.73.69,9.31-9,5.99-48.7,4.5-59.09.34-3.67-1.47-8.46-5.25-3.36-8.15,1.69-.96,10.5-3.71,11.65-2.28ZM837.93,536.92c5.92,2.88,11.07,7.53,7.44,14.59-2.15,4.19-5.86,4.04-10.06,3.57-3.02-.34-13.77-3.19-15.66-5.23-5.06-5.46-.69-15.29,6.53-16.45,2.87-.46,8.95,2.17,11.75,3.53ZM821.75,555.22c4.07,1.65,8.26,2.97,12.5,4.14,9.26,2.55,22.65,4.4,31.01,8.09,5.72,2.52,9.47,6.91,6.17,13.32-2.76,5.36-9.31,3.76-14.04,2.58-6.96-1.74-14.23-4.66-21.3-6.55-3.26-.87-16.09-2.87-17.66-4.57-1.24-1.34-1.4-8.27-1.08-10.19.27-1.58,2.95-6.79,4.4-6.83ZM882.57,603.43c.06-1.38,1.3-1.88,1.87-3.21,1.32-3.09.92-7.3-.38-10.33-.63-1.49-1.79-2.14-2.03-3.59,4.97-.11,9.41-2.58,13.92-4.28-2.69,7.99-7.22,15.66-13.38,21.42ZM877.22,582l8.59-3.45c19.01-10.11,29.37-33.82,20.42-54.22-1.91-4.35-4.88-8.86-7.59-12.77l4.55-2.92c6.94,11.27,13.27,22.92,12.04,36.67-.52,5.82-4.05,14.16-7.06,19.19-6.51,10.86-18.47,16.78-30.96,17.51ZM919.79,541.84c15.38,9.14,3.13,21.13-8.3,25.7,4.97-7.7,7.66-16.57,8.3-25.7ZM956.74,621.7c-.69,2.97-5.75,2.57-7.9,3.16-.59.16-.55,1.08-.94,1.34-.49.34-1.25-.18-1.62.02-1.06.6-5.08,10.72-5.6,12.57-2.21,7.95-1.92,16.51-5.62,24.1,1.48-1.09,2.27-2.93,3.47-4.29,1.21-1.37,6-5.43,6.43-6.43,1.16-2.73.9-6.87,2.86-10.53l5.46-2.33h.77c10.3-9.07,10.92-.85,4.58,6.71l2.16,2.15c-.21,7.75-10.05,4.34-13.41,5.89-1.73.8-8.32,7.55-9.93,9.36-1.16,1.31-3.81,6.37-5.33,5.89-1.25-.4-2.13-11.33-7.22-14.21-3.44-1.94-7.32-2.18-10.69-4.84-3.05-2.41-5.73-6.97-.58-8.27-3.83-6.89-.54-11.34,5.09-4.28,3-5.22,6.5-2.35,8.04,2.14.25.72,1.15,4.52,1.24,5.24.22,1.9-1.15,5.46-.75,7.11.2.82,1.84,2.81,2.37,4.07.97,2.31,1.67,5.41,3.28,7.15.37-3.11,2.05-5.9,2.55-8.98,1.3-8.11.04-18.92-3.2-26.52-2.93-6.87-10.14-9.62-13.77-16.2-3.8.49-7.09.8-10.38-1.42-3.45-2.34-3.28-4.18.71-5.53-4.83-3.62-7.08-10.53,1.6-6.7l.67-4.16c4.79-1.5,6.9,7.27,3.35,10.04-.76,0-3.81-5.32-5.62-4.01,1.51,2.01,3.92,3.46,5.61,5.1.52.51,1.01.7.81,1.59l-5.89-.27,7.49,1.88c-1.36-3.1-.53-6.77.82-9.64,5.54,1.57,3.08,7.22,2.13,11.27l10.97,10.7c-.49-5.32-1.3-11.03-1.09-16.36.15-3.9,1.59-8.65,1.67-12.29.08-3.63-1.16-7.13.5-10.97-3.5-.35-8.04-4.5-6.87-8.21.38-1.21,1.92-1.19,2.06-1.82.28-1.23-.21-3.04.53-4.44l3.2,1.61c-.28-4.33.8-5.37,5.07-4.8.79.11,1.44,1.05,2.07.96,1.02-.14,2.91-2.49,3.93-3.07,3.1-1.75,6.52,2.89,4.47,5.83,6.36-.34,5.47,5.39,1.61,8.57,1.67.39,4.5.99,4.83,2.98.57,3.54-2.42,4.1-2.52,4.76-.26,1.74,1.5,3.38-2.09,4.59-8.1,2.74-13.28-9.16-1.3-3.75.39-1.91-4.13-1.68-3.74-3.47.28-1.25,3.56-2.26,4.81-1.9-.71-1.75-3.17-.29-4.54-.51-2.01-.32-1.54-2.63-.76-3.98.89-1.54,2.84-1.69,3.69-3-2.32-.33-3.67,1.14-5.09,2.67l-1.3-.85,2.64-7.71c-3.82,3.71-5.57,14.88-8.57,2.68-1.46.59.3,3.2.44,4.15.62,4.18-2.94,1.63-4.18-.4l2.68,6.42c1.11-.38.41-1.99,1.63-2.91,7.41-5.65,9.91,12.34-.56,7.2l.5,2.45,3.81.47c2.12,3.64-3.77,4.16-4.89,6.95-1.36,3.39-1.84,15.43-1.58,19.35.62,9.61,5.03,19.04,5.92,28.63l6.95-17.46c.13-5.76-4.45-8.35-3.69-14.36.51-4.04,3.89-4.1,5.77-1.05.52.84.24,2.29,1.13,2.34.03-2.04.2-7.9,2.15-8.84,2.76-1.34,5.84,1.69,5.36,4.56,2.07-1.85,3.54-3.21,6.6-2.7,2.1,2.6.03,5.95-1.78,8.05,6.59.34,1.28,6.96-1.76,8.7-.59.34-1.92.35-1.99.43-.13.13.38,1.12.26,1.64ZM943.37,395.07c-1.82,4.52-2.9,9.22-5,13.74-.95,2.05-3.3,4.98-3.84,6.34-.27.68.09.99.79.79l4.56-3.74c-.97,3.51-2.38,8.86-6.41,9.64l-5.81-11.52,7.4-13.65-4.59,7.45-4.78,4.85-7.23-4,20.08-16.35-1.86,15.82,1.06.26c2.15-6.08,4.29-12.16,4.93-18.65,9.3-4.66,19.07-8.35,29.26-10.65,15.14-3.42,30.94-4.51,46.35-2.22,3.11.46,12.58,2.11,14.52,4.22,3.71,4.04,4.71,15.49,5.11,20.86-7.59-5.34-17.49-.8-22.76,5.88l-1.87-2.67c.07,3.07-1.75,5.84-2.09,8.89-.58,5.23.2,10.86,1.7,15.86,1.94,6.47,10.92,19.01,4.41,24.53-5.45,4.62-10.18-.29-14.75-1.86-3.4-1.17-7.3-.64-10.13-3.26-4.45-4.14-.61-9.73,4.79-9.88.79-.74-.07-.99-.81-1.08-5.91-.73-8.54,5.14-12.64,8.27-3.69,2.81-15.16,8.41-15.99,12.93-.65,3.53.39,7.65,2.02,10.78.42.8,1.05,2.62,2.23,2.31-.36-5.91-2.34-11.96,2.73-16.29,1.21-1.04,12.2-8.26,12.8-7.81,1.01,4.17,4.68,5.47,8.45,6.29,1.46.32,2.93-.06,4.44.38,1.64.48,3.22,2.59,4.61,3.42,6.87,4.1,16.21,1.07,18.05-6.95l.61-4.74c4.86,5.9,6.32,12.07,3.9,19.43-.42,1.27-1.34,2.39-1.78,3.58-.18.5-.7,1.74.28,1.62,3.89-5.4,6.91-8.99,5.77-16.2-1.31-8.3-7.88-11.53-11.23-17.16-1.12-1.88-6.2-15.33-5.24-16.44l11.43,1.01c2.15-.69-.35-3.56-.18-3.68l9.3,3.25c2.57-2.96-2.09-5.22-4.49-6.19-7.87-3.2-11.08-.19-16.59,5.08-1.97-7.73,6.1-12.92,12.72-13.79,14.2-1.86,9.77,8.11,11.38,17.53-.29.29-3.5-1.49-3.74,0,4.01.23,4.44,2.41,5.19,5.79,3.16,14.12-1.05,30.18-6.88,43.15-2.45,5.46-6.44,10.48-7.43,16.41l-.56-4.58.56-5.06c-.12-.16-.66.27-.8.53-1.26,2.22-1.88,9.51-3.22,12.85-5.15,12.87-21.63,15.88-33.62,11.67-12.66-4.44-20.31-16.46-25.49-28.08-2.7-6.05-5.73-12.15-3.83-18.94-4.89,4.92-2.26,12.44-.09,18.04,1.86,4.78,5.11,12.05,7.7,16.41,8.83,14.87,25.27,21.9,42.21,17.52-2.05,2.86-6.61,5.72-10.04,6.3-1.95.33-11.47.88-13.02.42-1.79-.54-16.08-11.28-17.94-13.13-8.09-8.02-12.11-19.66-19.26-28.41-.8.42.12,1.29.38,1.76,4.71,8.45,7.67,17.88,13.82,25.55-.29.27-4.91-2.74-5.64-3.2-9.36-5.96-17.2-13.16-22.52-23.02l.84-7.52c1.23,9.1,5.2,14.86,12.81,19.6.46.28,1.16,1.34,1.66.49-9.82-10.91-13.39-25.28-16.07-39.37l-.65,5.5c-1.15,4-4.66,5.5-8.18,3.07-2.66-1.84-14.25-21.33-15.67-25.03-2.61-6.82-4.1-20.35,6.01-21.05,5.99-.41,9.1,3.75,11.97,8.43,2.34,3.83,3.31,10.84,9.72,6.83,7.53-4.71,7.76-25.51,8.59-33.45-1.13.85-1.86,2.98-2.4,4.29ZM1039.52,385.43c.83.42,1.51,2.34,1.86,3.22,2.66,6.69,2.14,12.35.81,19.27-.93.13-.5-1.22-.53-1.87-.28-7.06-.08-13.73-2.14-20.62ZM995.73,533.65c2.87-4.55,1.39-11.82-.67-16.45,15.08-2.01,10.03,25.75-2.54,21.54-1.46-.49-2.49-2.03-3.5-2.41-.94-.35-1.78.45-2.83-.34-3.22-2.43-4.97-14.27-1.31-17.47l8.55-.77c1.16,5.47,1.25,10.99,1.1,16.57,1.23.26.86-.13,1.2-.68ZM1003.09,515.86c1.83-1.51,4.14-2.69,5.9-4.28,2.02-1.83,3.17-4.26,4.87-5.85,2.02-1.89,5.51-3.27,7.44-5.68-1.78,7.9-7.41,13.96-13.36,19.07-.37.31-.53.81-.58,1.28l-1.09-.33-3.18-4.22ZM1000.24,541.9l.96.46c9.45,16.96,16.98,34.89,23.85,53.03.94.13.5-1.21.53-1.86.38-9.3-5.63-22.1-9.54-30.63-3.63-7.91-7.81-15.65-12.34-23.07l2.92-4.92c11.08,7.13,20.29,21.14,24.87,33.43,9.18,24.65,2.44,35.53-3.72,58.44-1.87,6.95-3.11,14.03-4.33,21.11-6.74-9.06-10.03-21-12.14-32.04-2.46-12.81-3.79-25.91-6.23-38.77-2.17-11.43-5.23-22.76-7.25-34.1l2.43-1.08ZM1013.8,528.97l8.02-7.78,5.9-8.82c-1.39,7.04-7.17,14.13-13.92,16.6ZM937.3,484.69c6.41,9,18.61,16.38,28.28,21.53,4.92,2.62,8.54,3.08,13.12,7.24,2.64,2.4,3.21,2.89.82,6.15l-24.6-14.52c-11-6.88-24.7-17.67-24.68-31.83,2.86,3.49,4.44,7.74,7.06,11.42ZM939.88,518.27l20.52,10.81,9.47,2.59c.13.94-1.21.5-1.86.53-9.29.37-21.61-7.56-28.13-13.92ZM974.7,676.81c5.25-17.33,8.54-35.44,9.65-53.56,3.88,3.96,9.87,8.22,12.04,13.39,1.55,3.7,1.98,13.29,7.77,10.71l1.62,28.39-31.07,1.06ZM1005.76,630.48c-.36,4.44-.97,9.67-2.94,13.66-1.25-5.54-2.2-10.53-5.88-15-8.17-9.92-16.6-16.27-23.05-28.37-10.9-20.47-4.99-47.47,7.51-65.89.32,2.37,4.95,4.75,5.1,6.17-3.84,12.37-5.37,25.13-1.61,37.75l1.06-6.7c-.07-4.26.12-8.56.61-12.78.23-1.96,2.71-16.76,3.93-16.86l2.97,1.38c2.33,13.56,6.48,26.69,8.93,40.23,2.71,14.97,4.59,31.31,3.38,46.43ZM1009.52,675.21c.02-5.6-.1-11.28-.55-16.87-.34-4.31-2.22-12.35-1.96-16.01.09-1.25,1.11-3.01,1.29-4.49.48-3.97.88-7.9.68-11.91l3.33,10.32c2.07,4.47,4.03,9.82,7.36,13.53,3.84,4.28,6.77,5.09,8.34-1.33,1.96-8,2.03-16.19,5.34-24.13.21-.51.05-1.23.79-1.07l10.72,42.84-35.35,9.11ZM1087.74,600.22c-.72,5.19-6.71,9.84-8.32,13.93-2.19,5.57-5.49,22.93-6.15,29.21-.05.5-.29,1.8.53,1.06,2.66-4.8,6.87-7.82,8.97-12.99.74-1.83,2.06-8.65,3.69-9.18,2.54-.84,2.23,1.56,2.6,3.15,1.39-1.64,2.9-5.04,5.39-3.24.68,3.14-1.07,6.4-3.51,8.33l2.54.94c2.09,6.64-8.61,5.35-11.93,7.35-1.95,1.17-7.56,7.66-8.32,9.89-.78,2.29.22,4.67-2.89,5.14-1.65-2.61-3.11-7.58-5.61-9.43-2.42-1.79-5.8.42-8.53-4.32-1.83-3.17,1.24-2.23.95-3.62-5.52-5.91-5.85-13.67,2.99-5.69l1.1-1.59c1.86-.45,4.23,5.02,4.68,6.52,1.37,4.55.85,10.07,4.65,13.82l1.07-10.99c.16-5.28.27-9.78-1.88-14.72-1.01-2.34-2.86-3.99-3.49-6.44-1.38.95-7.6.02-8.56-.8-3.02-2.58,3.93-11.17,7.5-7.24l1.07-7.5c-1.47.67-2.04,5.67-3.96,5.33l-1.27-1.44-1.73-5.49,1.06,8.03c-.97,1.07-4.11-5.35-5.89-4.81l4.06,5.33c-1.73,3.48-5.22-2.3-7.8-2.12.67,1.32,9.92,5.46,5.54,6.9-3.17,1.04-7.2-4.4-7.71-7.16.12-1.31,1.59-1.73,2.7-1.89-1.79-2.21-3.65-4.46-2.07-7.42,2.49-.75,4.13,1.05,6.34,1.53,3.19-8.21,7.3-.92,7.51,4.28l2.16-3.99c.98-.85,2-.92,3.06-.16,2.93,5.51-2,11.03-.92,16.72.44,2.29,4.21,7.04,5.19,11.41.33,1.47-.48,3.71,1.2,4.42.72-6.59,3.25-12.92,3.75-19.56.37-5.01-.52-21.72-3.27-25.64-1.35-1.92-5.19-1.74-5.82-4.38-.89-3.74,4.05-1.65,4.28-1.85-.72-1.32-.73-2.42,0-3.74-1.43,0-1.97,1.48-3.51,1.59-4.04.28-5.74-3.98-4.02-7.25,3.86-.58,5.59-1.55,8.06,1.91l2.68-5.36c-1.47.77-1.75,3.25-3.74,3.21l1.06-5.89c-5.78,8.5-5.09,2.14-9.63-2.14l2.09,6.09-1.28.87c-1.24-1.39-2.57-2.4-4.56-2.13.32,1.18,2.64.99,3.25,1.96.58.92.97,4.11-.29,4.32-.57.1-3.66-1.32-4.04.13,2.2.27,5.46,1.24,3.77,3.91-.6.95-2.45.9-2.7,1.98,2.59.33,4.18-3.53,6.47-1.23,1.46,4.54-5.64,6.16-8.81,4.38-2.63-1.47-.42-3.22-.94-4.14-.08-.14-1.89-.92-2.61-1.96-2.29-3.3.47-5.59,3.75-6.17.35-1.56-1.75-1.25-2.4-2.68-1.03-2.27-.11-5.99,2.92-5.37.16-1.9-.69-4.32,1.47-5.25,2.41-.71,3.18,1.41,3.63,1.39.63-.03.66-1.47,2.61-.35,1.53.88,2.07,2.53,1.96,4.22,3.73-4.24,9.06-3.97,7.49,2.68l3.79.89c1.01,2.78.74,5.62-1.12,7.94-.91,1.14-3.15,2.14-3.19,3.17.3,1.94,1.35,4.08,1.55,5.99.48,4.78,2.72,11.66,2.72,15.49,0,2.94-.22,6.23,0,9.11.02.29.45.68.02,1.07.11.57.69.33,1.06,0,.46-.4,5.71-8.19,5.8-8.71.37-2.04-1.91-5.63-2.03-7.98-.07-1.37.58-2.58.51-3.94l2.41.52c.59,3.08,2.74,5.37,1.33,8.58l6.96-2.95c-1.96-.41-4.19,2.13-5.88,0l5.35-7.23c-3.19.17-3.4,3.42-5.09,5.34-2.77-1.74-3.52-10.15.13-10.63,1.66-.22,2.9,1.61,2.82,3.14,2.07-1.69,7.21-1.79,6.33,1.73-.25,1.01-4.3,5.18-3.65,5.76,11.88,1.2-2.09,11.13-7.48,8.04ZM1106.46,626.46c-.93.13-.5-1.22-.53-1.87-.86-22.85-.37-43.94-2.68-66.96-.85-8.49-2.18-16.98-3.2-25.45l2.41,7.49c3.32,18.18,5.57,36.96,6.18,55.42.34,10.26.57,21.51-2.17,31.35ZM1155.08,556.96c-2.11,5.65-4.52,12.06-7.89,17.01-5.71-9.76-15-18.08-20.91-27.57-6.91-11.09-13.61-33.22-27.41-37.4-11.17-3.38-22.65-7.13-34.06-9.86-12-2.86-24.73-3.84-35.99-8.99,2.62-7.82,7.09-14.99,10.04-22.63,2.96-7.67,6.71-20.71,6.55-28.79-.12-6.31-3.11-13.38-3.16-19.35,0-.98.67-6.13,1.02-6.77.35-.64,5.58-2.81,6.79-3.52,10.21-5.97,25.09-15.7,30.11-26.67,8.49-18.54-12.06-23.69-26-25.83-27.35-4.18-61.1-1.47-88.13,4.36-22.95,4.95-77.69,23.42-90.64,43.27-15.1,23.14,19.76,34.69,36.49,37.61,4.98,6.99,8.14,18.88,18.36,19.13.97,4.67-1.96,7.23-3.67,11.05-2.25,5.03-3.72,11.39-8.82,14.21-2.97,1.65-15.25,5.95-18.37,6.16-3.3.22-9.93-1.75-13.84-1.99-7.91-.48-16.43.18-24.33.49-.47-1.85-1.29-3.94-2.11-5.65-.74-1.56-3.5-5.99-3.75-7.01-.5-2.08,1.54-3.55-.71-6.74-1.1-1.55-2.28-1.47-3.36-2.53-1.56-1.52-3.2-5.78-4.9-7.95-3.26-4.15-13.87-12.71-18.94-13.73-3.09-.62-11.79.95-9.17,5.41,1.46,2.49,12.02,8.06,15.28,10.97,2.1,1.87,7.63,8.64,8.22,11.11.28,1.16-.48,2.37-.49,3.61-.02,2.83,3.75,5.79,5.31,8.66.34.63,2.45,5.32,2.24,5.52-4.61.76-14.27,2.37-14.5,8.31-.05,1.22.57,2.43.59,3.72.12,6.89-2.99,8.64-5.47,14.39-1.43,3.31-2.38,6.68-3.21,10.18-2.5,1.71-5.23,2.01-7.67,4.12-6.21,5.37-5.79,14.45-.88,20.51-3.74,4.35-4.16,8.52-4.21,14.02,0,.97.54,2.02.55,3.19,0,.53-.34,3.33-1.08,3.5-5.64-14.22-11.38-28.37-14.74-43.38-29.89-133.25,82.03-250.91,216.69-226.86,116.89,20.87,181.46,142.13,140.19,252.7Z"/>
  <path class="st1" d="M989.96,310.98c-28.97-3.34-65.76,11.9-74.44,41.77-2.29,7.88-2.33,15.47-2.95,23.56,37.03-17.91,78.08-27.27,119.45-23.57-6.54-20.75-18.76-39.08-42.06-41.77Z"/>
  <path class="st1" d="M991.31,406.04c2.61.9,3.21,1.98,5.09,2.99,3.35,1.8,4.18-4.81,3.89-7.14-.08-.65-.78-3.27-1.47-3.61-.2,1.72.66,4.78-1.07,5.89-1.73-9.37-14.59-10.29-22.08-8.41-7.62,1.91-12.31,9.12-14.8,16.1l1.71,1.37c7.76-8.79,17.63-11.04,28.74-7.19Z"/>
  <path class="st1" d="M1057.19,630.75l5.88,8.31-2.67.79,4.82,1.61c-1.91-4.06-4.34-8.04-8.03-10.71Z"/>
  <path class="st1" d="M926.32,428.9c.36-1.19,1.75-2.43,1.67-3.48-.09-1.07-5.22-8.73-6.29-9.76-2.28-2.19-5.07-3.37-8.16-2.22-6.66,2.47-3.2,14.71.63,18.58-.65-3.96-1.51-8-1.07-12.06.79-7.26,10.01,1.74,9.03,3.42-.07.12-1.65.83-2.35,1.66-3.06,3.57-2.29,9.28.8,12.63,1.43,1.55,3.87,2.23,4.83,3.21.63.65,2.31,5.38,4.04,1.85,1.59-3.23-5.03-7.48-3.12-13.83Z"/>
  <path class="st1" d="M962.37,417.29l-10.17-2.94c.31,2.48,10.14,5.28,10.17,2.94Z"/>
  <path class="st1" d="M998.8,421.31c2.4-.56.96,1.04,2.14,1.61-.18-2.62-.21-6.65-2.13-8.57.53,2.27,1.06,4.72,0,6.96Z"/>
  <path class="st1" d="M1085.05,633.96l2.67-7.5-4.28,8.56c2.9-.28,5.95-1.37,8.03-3.48l-6.42,2.41Z"/>
  <path class="st1" d="M878.28,590.57c-2.48-3.34-6.5-2.67-8.8.58-3.93,5.55,2.09,9.2,7.19,9.6-.98-1.49-2.77-1.28-4.31-2.38-6.38-4.59.21-9.91,5.91-7.79Z"/>
  <path class="st1" d="M827.97,587.72l1.02,4.46c-.02-3.64.72-7.22,1.61-10.71-2.07,1.31-2.08,4.12-2.63,6.25Z"/>
  <path class="st1" d="M844.53,602.9c-2.18,1.23-2.41,7.05-.54,8.57l.54-8.57Z"/>
  <g>
    <path d="M850.88,716.12c1.15,0,1.63.56,1.42,1.68l-.16.94h5.35c5.35.11,11.12.19,17.31.24,6.19.05,12.17.05,17.94,0,5.77-.05,10.96-.13,15.58-.24,4.62-.1,7.97-.26,10.07-.47,1.68-.1,3.23-.24,4.64-.39,1.42-.16,2.57-.29,3.46-.39.89-.1,1.42-.21,1.57-.32.16-.1-.13-.16-.87-.16-.84,0-2.62-.05-5.35-.15-2.73-.1-5.56-.22-8.5-.37-2.94-.15-5.56-.27-7.87-.37-2.31-.1-3.52-.15-3.62-.15-.94-.3.31-.6,3.78-.9,2.83-.4,5.72-.65,8.66-.75,2.94-.1,6.24-.15,9.92-.15,4.2,0,7.24.05,9.13.15,1.89.1,3.09.35,3.62.75.84.6,1.2,1.25,1.1,1.97-.11.72-.68,1.34-1.73,1.86-.73.42-2.12.81-4.17,1.18-2.05.37-4.28.66-6.69.87-1.05.11-2.97.21-5.75.31-2.78.11-5.98.16-9.6.16s-7.45-.02-11.49-.08c-4.04-.05-7.79-.13-11.25-.24-11.12-.21-19.94-.37-26.44-.47-6.51-.1-9.87-.1-10.07,0-.11,0-.5.5-1.18,1.5-.68,1-1.89,2.78-3.62,5.35-1.73,2.57-4.09,6.17-7.08,10.78-2.99,4.62-6.85,10.6-11.57,17.94-3.15,4.72-6.19,9.42-9.13,14.09-2.94,4.67-5.61,9-8.03,12.99-2.42,3.99-4.54,7.53-6.37,10.62-1.84,3.1-3.18,5.48-4.01,7.16-.53,1.05-.79,1.68-.79,1.89s.31.05.94-.47c.31-.32.5-.29.55.08.05.37-.08.87-.39,1.5-.53,1.15-1.23,2.33-2.12,3.54-.89,1.21-1.5,1.91-1.81,2.12-.84.63-1.68.63-2.52,0-.84-.63-.94-1.86-.31-3.7.63-1.84,2.15-4.75,4.57-8.74.84-1.36,2.18-3.52,4.01-6.45,1.83-2.94,3.93-6.27,6.3-10,2.36-3.72,4.88-7.69,7.56-11.88,2.68-4.2,5.32-8.34,7.95-12.43,2.31-3.46,4.35-6.58,6.14-9.37,1.78-2.78,3.41-5.35,4.88-7.71,1.47-2.36,2.86-4.57,4.17-6.61,1.31-2.05,2.6-4.12,3.86-6.22.84-1.36,1.57-2.57,2.2-3.62.63-1.05,1.05-1.68,1.26-1.89l.47-.79-10.55.16c-8.92.21-16.87.55-23.85,1.02-6.98.47-13.09,1.16-18.34,2.05-5.25.89-9.71,1.99-13.38,3.3-3.67,1.31-6.67,2.81-8.97,4.49-1.05.84-1.99,1.79-2.83,2.83-.84,1.05-1.37,2.05-1.57,2.99-.31.84-.47,1.89-.47,3.15s.16,2.36.47,3.3c.84,2.83,2.78,6.17,5.82,10,3.04,3.83,6.77,7.58,11.18,11.25,1.26,1.05,2.7,2.1,4.33,3.15,1.63,1.05,3.49,2.05,5.59,2.99.94.53,1.86,1,2.75,1.42.89.42,1.44.73,1.65.94.52.53.63.94.31,1.26-.53.63-2.1.53-4.72-.31-2.73-.84-5.22-2.05-7.48-3.62-2.26-1.57-4.85-3.78-7.79-6.61-11.12-11.12-15.58-20.15-13.38-27.07.42-1.15,1.1-2.36,2.05-3.62.94-1.26,1.99-2.31,3.15-3.15,1.78-1.47,4.07-2.78,6.85-3.94,2.78-1.15,5.85-2.1,9.21-2.83,2.94-.73,6.4-1.39,10.39-1.97,3.99-.58,8.29-1.08,12.91-1.5,4.62-.42,9.52-.73,14.72-.94,5.19-.21,10.52-.32,15.98-.32h4.17c1,0,1.73-.02,2.2-.08.47-.05.76-.1.87-.16.1-.05.21-.13.31-.24.94-1.44,1.78-2.15,2.52-2.15Z"/>
    <path d="M833.72,777.61c-2.1,1.16-3.64,1.16-4.64,0-1-1.15-1.13-2.94-.39-5.35.31-1.15.89-2.49,1.73-4.01.84-1.52,1.73-2.96,2.68-4.33.94-1.36,1.86-2.52,2.75-3.46.89-.94,1.6-1.42,2.12-1.42.42,0,.79.16,1.1.47s.47.63.47.94c0,.42-.53,1.31-1.57,2.68-1.05,1.47-2.02,2.94-2.91,4.41-.89,1.47-1.63,2.81-2.2,4.01-.58,1.21-.97,2.2-1.18,2.99-.21.79-.16,1.18.16,1.18s.87-.24,1.65-.71,1.6-1.02,2.44-1.65c.63-.52,1.68-1.47,3.15-2.83,1.47-1.36,2.96-2.81,4.49-4.33,1.52-1.52,2.91-2.96,4.17-4.33,1.26-1.36,2.1-2.31,2.52-2.83,1.26-1.68,2.26-2.31,2.99-1.89.31.32.42.76.31,1.34-.11.58-.58,1.6-1.42,3.07-2.73,4.72-4.51,8.58-5.35,11.57-.84,2.99-.58,4.49.79,4.49.52,0,1.5-.37,2.91-1.1,1.42-.73,2.81-1.57,4.17-2.52.63-.52,1.52-1.28,2.68-2.28,1.15-1,2.31-1.97,3.46-2.91,3.25-3.04,5.48-5.09,6.69-6.14,1.2-1.05,1.91-1.63,2.12-1.73.1,0,.21.05.31.16,0,.21-.66,1-1.97,2.36-1.31,1.36-2.83,2.89-4.57,4.56-1.73,1.68-3.46,3.31-5.19,4.88s-3.07,2.73-4.01,3.46c-3.78,2.83-6.56,3.93-8.34,3.3-.84-.32-1.5-1.02-1.97-2.12-.47-1.1-.61-2.39-.39-3.86.1-.84.37-1.94.79-3.3.42-1.36.89-2.68,1.42-3.94.21-.42.16-.52-.16-.31-.31.21-1.1,1-2.36,2.36-4.72,5.04-7.87,8.08-9.44,9.13Z"/>
    <path d="M909.28,760.61c.84,0,1.28.32,1.34.94.05.63-.34,1.84-1.18,3.62-1.16,2.73-1.92,4.88-2.28,6.45-.37,1.57-.45,2.94-.24,4.09.1.94.52,1.52,1.26,1.73.32.21.6.29.87.24.26-.05.65-.18,1.18-.39,1.47-.52,3.31-1.65,5.51-3.38,2.2-1.73,4.98-4.28,8.34-7.63,1.47-1.36,2.7-2.52,3.7-3.46,1-.94,1.55-1.42,1.65-1.42.73,0-.11,1.26-2.52,3.78-2.83,3.15-5.59,5.9-8.26,8.26-2.68,2.36-4.85,3.96-6.53,4.8-3.36,1.68-5.67,1.31-6.93-1.1-.31-.63-.53-1.7-.63-3.23-.11-1.52-.05-2.75.16-3.7,0-.21.02-.34.08-.39.05-.05.08-.18.08-.39v-.47l-.79.79c-.21.21-.47.5-.79.86-.31.37-.63.76-.94,1.18-2.42,2.94-4.36,4.98-5.82,6.14-1.47,1.16-2.83,1.79-4.09,1.89-.84.21-1.52.11-2.05-.31-1.05-.63-1.57-1.83-1.57-3.62,0-1.26.34-2.68,1.02-4.25.68-1.57,1.57-3.09,2.68-4.56,1.1-1.47,2.41-2.83,3.93-4.09,1.52-1.26,3.07-2.31,4.64-3.15,1.68-.94,3.2-1.42,4.57-1.42s2.2.47,2.52,1.42c.32.53.68.79,1.1.79ZM903.61,767.22c1.57-1.89,2.54-3.15,2.91-3.78.37-.63.5-1.21.39-1.73-.11-.52-.31-.79-.63-.79-.42-.1-1.16.11-2.2.63-2,.94-4.01,2.52-6.06,4.72s-3.65,4.41-4.8,6.61c-1.47,2.94-1.63,4.41-.47,4.41.31,0,1.05-.37,2.2-1.1.94-.63,2.23-1.78,3.86-3.46,1.63-1.68,3.23-3.51,4.8-5.51Z"/>
    <path d="M959.02,775.09c-.11-1.15.05-2.41.47-3.78.42-1.36,1.36-3.41,2.83-6.14.52-1.15,1-2.12,1.42-2.91.42-.79.63-1.23.63-1.34,0-.32-.16-.42-.47-.32-.31.11-1.05.42-2.2.94-2.1,1.16-4.67,2.73-7.71,4.72-3.04,2-6.09,4.2-9.13,6.61-1.57,1.26-2.65,2.07-3.23,2.44-.58.37-1.08.55-1.5.55-1.05,0-1.57-.58-1.57-1.73,0-.31.08-.68.24-1.1.16-.42.42-1.02.79-1.81.37-.79.92-1.78,1.65-2.99.73-1.21,1.68-2.7,2.83-4.49,2.73-4.2,4.09-6.71,4.09-7.55,0-.32-.84-.05-2.52.79-2.31,1.16-4.96,3.05-7.95,5.67-2.99,2.62-6.69,6.24-11.1,10.86-2.83,2.94-4.75,4.88-5.75,5.82-1,.94-1.76,1.42-2.28,1.42-.21,0-.47-.21-.79-.63-.42-.32-.58-.71-.47-1.18.11-.47.42-1.28.94-2.44.42-.94,1.13-2.23,2.13-3.86,1-1.63,2.05-3.3,3.15-5.04,1.1-1.73,2.15-3.33,3.15-4.8,1-1.47,1.76-2.52,2.28-3.15.52-.73,1.07-1.07,1.65-1.02.58.05.87.5.87,1.34,0,.21-.29.89-.87,2.05-.58,1.16-1.29,2.47-2.12,3.94-.84,1.47-1.55,2.75-2.12,3.86-.58,1.1-.97,1.76-1.18,1.97,0,.21.34-.03,1.02-.71.68-.68,1.6-1.55,2.75-2.6,3.36-3.15,6.3-5.75,8.81-7.79s4.83-3.7,6.93-4.96c1.99-1.15,3.46-1.55,4.41-1.18.94.37,1.31,1.44,1.1,3.23-.11.84-.76,2.49-1.97,4.96-1.21,2.47-2.7,5.06-4.49,7.79-.31.53-.34.74-.08.63.26-.1,1.6-1,4.01-2.68.94-.63,2.12-1.39,3.54-2.28,1.42-.89,2.83-1.78,4.25-2.68,1.42-.89,2.7-1.68,3.86-2.36,1.15-.68,1.99-1.18,2.52-1.5,2.1-1.15,3.51-1.31,4.25-.47.73.84.58,2.47-.47,4.88-.31.53-.71,1.31-1.18,2.36-.47,1.05-.92,2-1.34,2.83-2.73,6.09-2.36,8.4,1.1,6.93.73-.31,1.76-.89,3.07-1.73,1.31-.84,2.75-1.81,4.33-2.91,1.57-1.1,3.12-2.2,4.64-3.3,1.52-1.1,2.86-2.12,4.01-3.07,1.99-1.57,3.2-2.52,3.62-2.83.42-.32.73-.37.94-.16.21.21.16.5-.16.87-.31.37-1.37,1.29-3.15,2.75-.84.73-2.05,1.71-3.62,2.91-1.57,1.21-3.2,2.41-4.88,3.62-1.68,1.21-3.25,2.31-4.72,3.3-1.47,1-2.52,1.65-3.15,1.97-2.2,1.16-3.94,1.21-5.19.16-.42-.31-.68-.63-.79-.94-.11-.31-.16-.89-.16-1.73Z"/>
    <path d="M985.46,764.08c-1.47,2.31-2.86,4.62-4.17,6.93-1.31,2.31-2.12,4.04-2.44,5.19-.21.74-.31,1.21-.31,1.42s.11.47.31.79c1.05,1.57,3.62.94,7.71-1.89,1.68-1.05,3.8-2.7,6.38-4.96,2.57-2.25,5.17-4.69,7.79-7.32.84-.84,1.55-1.52,2.12-2.05.58-.52.92-.79,1.02-.79.21,0,.13.31-.24.94-.37.63-1.29,1.68-2.75,3.15-1.26,1.47-2.62,2.91-4.09,4.33-1.47,1.42-2.91,2.75-4.33,4.01-1.42,1.26-2.78,2.39-4.09,3.38-1.31,1-2.44,1.76-3.38,2.28-1.68.94-3.04,1.52-4.09,1.73-1.05.21-2.05.05-2.99-.47-1.99-.94-2.68-3.15-2.05-6.61.21-.84.66-1.97,1.34-3.38.68-1.42,1.44-2.86,2.28-4.33.84-1.47,1.73-2.88,2.68-4.25.94-1.36,1.78-2.41,2.52-3.15.73-.73,1.36-1.1,1.89-1.1.42,0,.73.16.94.47.42.42.5.94.24,1.57-.26.63-1.02,2-2.28,4.09ZM992.54,751.33c-.73.32-1.31.37-1.73.16-.84-.21-1.29-.71-1.34-1.5-.05-.79.29-1.55,1.02-2.28.52-.52,1.05-.79,1.57-.79.94-.21,1.57.26,1.89,1.42.1.53.02,1.1-.24,1.73-.26.63-.66,1.05-1.18,1.26Z"/>
    <path d="M1016.94,773.2c1.15-2.41,2.07-4.69,2.75-6.85.68-2.15,1.02-3.59,1.02-4.33.1-.63.1-1,0-1.1-.11-.1-.31-.21-.63-.32-.53-.1-1.73.63-3.62,2.2s-4.62,4.15-8.19,7.71c-3.46,3.46-5.88,5.77-7.24,6.93-1.36,1.16-2.52,1.79-3.46,1.89-.52.11-.87.11-1.02,0-.16-.1-.45-.31-.87-.63-.31-.42-.52-.76-.63-1.02-.1-.26-.16-.76-.16-1.5,0-1.99.76-4.35,2.28-7.08,1.52-2.73,3.59-5.4,6.22-8.03,1.15-1.15,2.33-2.12,3.54-2.91,1.21-.79,2.18-1.18,2.91-1.18,1.36,0,2.36.58,2.99,1.73.52.84.68,1.92.47,3.23-.21,1.31-.58,2.02-1.1,2.12-.32,0-.53-.1-.63-.32-.11-.21-.26-.79-.47-1.73,0-.84-.16-1.26-.47-1.26-.53-.21-1.29.05-2.28.79-1,.73-2.07,1.73-3.23,2.99-1.16,1.26-2.28,2.65-3.38,4.17-1.1,1.52-2.02,2.97-2.75,4.33-.73,1.47-1.15,2.44-1.26,2.91-.1.47.11.66.63.55.53-.1,1.36-.58,2.52-1.42,1.15-.84,2.83-2.31,5.04-4.41,3.04-2.83,5.64-5.19,7.79-7.08,2.15-1.89,3.65-3.09,4.49-3.62,1.68-1.05,2.88-1.1,3.62-.16,1.26,1.26.79,5.04-1.42,11.33-.63,1.89-.84,2.83-.63,2.83.1-.1.39-.29.87-.55.47-.26.97-.65,1.5-1.18,1.36-.94,2.99-2.02,4.88-3.23,1.89-1.2,3.7-2.36,5.43-3.46,1.73-1.1,3.23-2.02,4.49-2.76,1.26-.73,1.94-1.05,2.05-.94.21.21.18.45-.08.71-.26.26-1.08.81-2.44,1.65-2.2,1.47-4.62,3.05-7.24,4.72-2.62,1.68-4.93,3.25-6.93,4.72-1.68,1.16-2.75,1.94-3.23,2.36-.47.42-.87.94-1.18,1.57-1.26,2.83-2.73,5.88-4.41,9.13-1.68,3.25-3.46,6.48-5.35,9.68-1.89,3.2-3.78,6.24-5.67,9.13-1.89,2.89-3.67,5.38-5.35,7.48-2.41,3.04-4.93,5.77-7.56,8.19-2.62,2.41-4.88,4.04-6.77,4.88-1.05.52-2.15.81-3.31.86-1.15.05-2.1-.03-2.83-.24-.84-.42-1.5-1.08-1.97-1.97-.47-.89-.71-1.92-.71-3.07,0-1.26.53-2.99,1.57-5.19,1.05-2.2,2.47-4.46,4.25-6.77,1.26-1.68,2.75-3.49,4.49-5.43,1.73-1.94,3.62-3.94,5.67-5.98s4.2-4.07,6.45-6.06c2.26-1.99,4.49-3.88,6.69-5.67,1.05-.84,2.18-1.76,3.38-2.75,1.21-1,2.36-1.92,3.46-2.75,1.1-.84,2.07-1.57,2.91-2.2.84-.63,1.36-1.05,1.57-1.26.31-.21.65-.63,1.02-1.26.37-.63.87-1.68,1.5-3.15ZM1013.48,780.13c-.21,0-.84.42-1.89,1.26-1.05.84-2.36,1.89-3.93,3.15-1.57,1.26-3.25,2.65-5.04,4.17-1.79,1.52-3.51,3.02-5.2,4.49-.94.84-2.05,1.86-3.3,3.07-1.26,1.21-2.52,2.46-3.78,3.78-1.26,1.31-2.46,2.57-3.62,3.78-1.15,1.2-2.1,2.28-2.83,3.23-3.46,4.09-5.88,7.76-7.24,11.02-1.36,3.25-1.31,5.3.16,6.14,1.05.63,2.47.52,4.25-.32,2.52-1.26,5.56-3.83,9.13-7.71,3.57-3.88,7.19-8.76,10.86-14.64,1.26-1.99,2.62-4.2,4.09-6.61,1.47-2.41,2.83-4.67,4.09-6.77s2.28-3.88,3.07-5.35c.79-1.47,1.18-2.31,1.18-2.52v-.16Z"/>
    <path d="M1049.21,758.72c.52.53.79,1.55.79,3.07s-.26,3.02-.79,4.49l-.63,1.57.94-.16c1.47-.21,3.28-.76,5.43-1.65,2.15-.89,4.27-1.91,6.38-3.07,1.78-1.05,2.78-1.57,2.99-1.57.31,0,.26.18-.16.55-.42.37-1.05.84-1.89,1.42-.84.58-1.79,1.18-2.83,1.81-1.05.63-2.1,1.16-3.15,1.57-2.2,1.05-4.78,1.89-7.71,2.52-.53.21-1.21,1.05-2.05,2.52-2.62,4.51-5.46,7.5-8.5,8.97-.63.21-1.34.37-2.13.47s-1.44.05-1.97-.16c-.52-.21-1.05-.65-1.57-1.34-.52-.68-.84-1.28-.94-1.81-.21-1.47-.08-3.25.39-5.35.47-2.1,1.29-4.04,2.44-5.82.73-1.15,1.63-2.41,2.68-3.78,1.05-1.36,1.99-2.36,2.83-2.99,1.05-.73,1.83-1.05,2.36-.94.52,0,1.1-.1,1.73-.31,1.05-.63,2.05-.94,2.99-.94,1.05,0,1.83.31,2.36.94ZM1046.06,769.59l-1.42-.32c-2.62-.52-4.2-1.68-4.72-3.46,0-.31-.05-.47-.16-.47-.31.11-.73.74-1.26,1.89-.94,1.36-1.6,2.47-1.97,3.3-.37.84-.81,1.89-1.34,3.15-1.57,4.83-.37,6.3,3.62,4.41,2.2-1.15,4.2-3.25,5.98-6.3l1.26-2.2ZM1048.26,762.5c0-1.05-.03-1.73-.08-2.05-.05-.32-.18-.63-.39-.94-.31-.52-.89-.57-1.73-.16-1.68.73-2.83,1.73-3.46,2.99-.84,1.36-.89,2.62-.16,3.78.31.42.84.81,1.57,1.18.73.37,1.42.55,2.05.55.42,0,.68-.08.79-.24.1-.16.31-.6.63-1.34.31-1.05.58-2.31.79-3.78Z"/>
    <path d="M1077.07,787.69c.53-1.05,1.02-2.18,1.5-3.38.47-1.21.81-2.07,1.02-2.6.31-.52.55-1.02.71-1.5.16-.47.24-.81.24-1.02-.31-.21-1-.52-2.05-.94-1.26-.52-1.89-.94-1.89-1.26s.63-.79,1.89-1.42c.53-.32,1.13-.6,1.81-.87.68-.26,1.23-.5,1.65-.71.73-.21,1.23-.45,1.5-.71.26-.26.55-.65.87-1.18,2.1-3.99,4.25-7.87,6.45-11.65,2.2-3.78,4.38-7.37,6.53-10.78,2.15-3.41,4.22-6.51,6.22-9.29,1.99-2.78,3.83-5.22,5.51-7.32.63-.73,1.31-1.52,2.05-2.36.73-.84,1.47-1.63,2.2-2.36.73-.73,1.39-1.34,1.97-1.81.58-.47.97-.76,1.18-.86.42-.21.68-.32.79-.32.1.11.18.16.24.16s.13.05.24.16c.84.84.68,1.79-.47,2.83-.63.53-1.52,1.47-2.68,2.83-1.16,1.36-2.47,2.99-3.93,4.88-1.47,1.89-2.99,3.94-4.57,6.14s-3.1,4.41-4.57,6.61c-1.26,1.89-2.68,4.09-4.25,6.61-1.57,2.52-3.07,4.91-4.49,7.16-1.42,2.26-2.6,4.23-3.54,5.9-.94,1.68-1.42,2.62-1.42,2.83s.37.16,1.1-.16c.73-.32,2.41-1.05,5.04-2.2,4.51-2.1,8.26-3.83,11.25-5.19,2.99-1.36,4.59-2.05,4.8-2.05,1.15,0,.58.53-1.73,1.57-.84.31-2.34.97-4.49,1.97-2.15,1-4.38,2.05-6.69,3.15-2.31,1.1-4.38,2.12-6.22,3.07-1.84.94-2.91,1.47-3.23,1.57-.42.21-.79.53-1.1.94-.32.42-.79,1.21-1.42,2.36l-1.57,2.99.94,1.26c2.83,3.78,2.2,9.97-1.89,18.57-.63,1.47-1.47,3.04-2.52,4.72-1.05,1.68-1.89,2.89-2.52,3.62-1.57,1.57-2.94,1.94-4.09,1.1-1.15-.84-1.44-3.07-.87-6.69.58-3.62,2.07-8.42,4.49-14.4ZM1083.05,780.92c-.1,0-.34.42-.71,1.26-.37.84-.81,1.83-1.34,2.99-.52,1.15-1.07,2.33-1.65,3.54-.58,1.21-1.02,2.23-1.34,3.07-1.05,2.41-1.97,5.01-2.75,7.79-.79,2.78-1.18,4.75-1.18,5.9,0,.52.11.97.32,1.34.21.37.42.55.63.55.42,0,.94-.42,1.57-1.26.74-.84,1.52-1.92,2.36-3.23.84-1.31,1.63-2.73,2.36-4.25.74-1.52,1.39-3.07,1.97-4.64.58-1.57,1.02-3.05,1.34-4.41.21-1.16.37-2,.47-2.52.11-.53.05-1.21-.16-2.05-.21-.84-.52-1.73-.94-2.68-.42-.94-.73-1.42-.94-1.42ZM1078.64,776.67c-.21.11.05.37.79.79.74.42,1.26.63,1.57.63.11,0,.26-.16.47-.47.21-.32.42-.68.63-1.1.11-.21.21-.39.31-.55.11-.16.16-.29.16-.39v-.32h-.31c-.52.32-1.15.53-1.89.63-.52.21-.92.37-1.18.47-.26.11-.45.21-.55.31Z"/>
    <path d="M1111.22,764.08c-1.47,2.31-2.86,4.62-4.17,6.93-1.31,2.31-2.12,4.04-2.44,5.19-.21.74-.31,1.21-.31,1.42s.11.47.31.79c1.05,1.57,3.62.94,7.71-1.89,1.68-1.05,3.8-2.7,6.38-4.96,2.57-2.25,5.17-4.69,7.79-7.32.84-.84,1.55-1.52,2.12-2.05.58-.52.92-.79,1.02-.79.21,0,.13.31-.24.94-.37.63-1.29,1.68-2.75,3.15-1.26,1.47-2.62,2.91-4.09,4.33-1.47,1.42-2.91,2.75-4.33,4.01-1.42,1.26-2.78,2.39-4.09,3.38-1.31,1-2.44,1.76-3.38,2.28-1.68.94-3.04,1.52-4.09,1.73-1.05.21-2.05.05-2.99-.47-1.99-.94-2.68-3.15-2.05-6.61.21-.84.66-1.97,1.34-3.38.68-1.42,1.44-2.86,2.28-4.33.84-1.47,1.73-2.88,2.68-4.25.94-1.36,1.78-2.41,2.52-3.15.73-.73,1.36-1.1,1.89-1.1.42,0,.73.16.94.47.42.42.5.94.24,1.57-.26.63-1.02,2-2.28,4.09ZM1118.3,751.33c-.73.32-1.31.37-1.73.16-.84-.21-1.29-.71-1.34-1.5-.05-.79.29-1.55,1.02-2.28.52-.52,1.05-.79,1.57-.79.94-.21,1.57.26,1.89,1.42.1.53.02,1.1-.24,1.73-.26.63-.66,1.05-1.18,1.26Z"/>
    <path d="M1127.12,769.74c-2.1,4.51-2.15,7.08-.16,7.71,1.57.53,4.33-.32,8.26-2.52s8.58-5.56,13.93-10.07c1.68-1.36,2.81-2.23,3.38-2.6.58-.37.87-.39.87-.08,0,.11-.42.55-1.26,1.34-.84.79-1.86,1.73-3.07,2.83-1.21,1.1-2.49,2.23-3.86,3.38-1.37,1.16-2.52,2.1-3.46,2.83-1.79,1.37-3.62,2.62-5.51,3.78s-3.41,1.99-4.57,2.52c-.84.42-1.52.68-2.05.79-.53.11-1.21.16-2.05.16-1.16.11-2.15-.02-2.99-.39-.84-.37-1.52-1.13-2.05-2.28-.52-1.05-.68-2.36-.47-3.94.21-1.57.74-3.2,1.57-4.88.84-1.68,1.91-3.28,3.23-4.8,1.31-1.52,2.81-2.86,4.49-4.01.94-.63,1.91-1.15,2.91-1.57,1-.42,1.81-.63,2.44-.63.52,0,1.07.31,1.65.94.58.63.87,1.21.87,1.73s-.37,1.39-1.1,2.6c-.73,1.21-1.57,2.28-2.52,3.23-2.94,2.94-5.25,3.83-6.93,2.68l-.79-.63-.79,1.89ZM1133.42,760.93c-.31.21-.68.55-1.1,1.02-.42.47-.84.94-1.26,1.42-.42.47-.79.92-1.1,1.34-.32.42-.47.68-.47.79,0,.21.34.21,1.02,0,.68-.21,1.44-.53,2.28-.94,1.05-.63,2.1-1.47,3.15-2.52s1.57-1.83,1.57-2.36-.11-.79-.31-.79c-.32.11-.87.34-1.65.71-.79.37-1.5.82-2.12,1.34Z"/>
    <path d="M1153.09,762.82c-.11.11-.34.58-.71,1.42-.37.84-.76,1.84-1.18,2.99-.42,1.16-.81,2.34-1.18,3.54-.37,1.21-.66,2.18-.87,2.91-.74,3.05-.89,5.46-.47,7.24.63,2.31,2.46,2.68,5.51,1.1,4.2-2.2,9.5-7.19,15.9-14.95.84-1.15,1.78-2.28,2.83-3.38,1.05-1.1,1.68-1.65,1.89-1.65.52-.42.16.37-1.1,2.36-1.05,1.58-2.34,3.31-3.86,5.2-1.52,1.89-3.07,3.73-4.64,5.51-1.57,1.79-3.15,3.38-4.72,4.8-1.57,1.42-2.89,2.49-3.93,3.23-3.25,2.1-5.88,2.68-7.87,1.73-1.15-.63-2.1-1.79-2.83-3.46-1.15-3.25-.42-8.39,2.2-15.42,1.15-3.04,2.78-6.56,4.88-10.55,2.1-3.99,4.3-7.66,6.61-11.02,1.57-2.31,3.23-4.51,4.96-6.61,1.73-2.1,3.38-3.94,4.96-5.51s3.04-2.83,4.41-3.78c1.36-.94,2.52-1.52,3.46-1.73h.47c1.05,0,1.57.63,1.57,1.89,0,.84-.39,2.07-1.18,3.7s-1.79,3.46-2.99,5.51c-1.21,2.05-2.57,4.2-4.09,6.45-1.52,2.26-3.07,4.38-4.64,6.37-.74.94-1.63,1.97-2.68,3.07-1.05,1.1-2.12,2.18-3.23,3.23-1.1,1.05-2.12,1.97-3.07,2.76-.94.79-1.68,1.34-2.2,1.65-.42.21-.84.45-1.26.71-.42.26-.73.5-.94.71ZM1161.43,746.92c-.63.84-1.31,1.92-2.05,3.23-.73,1.31-1.44,2.6-2.12,3.86-.68,1.26-1.26,2.36-1.73,3.31s-.71,1.47-.71,1.57c0,.21.52-.08,1.57-.87,1.05-.79,2.31-1.81,3.78-3.07,1.78-1.57,3.67-3.46,5.67-5.67,1.99-2.2,3.72-4.35,5.19-6.45,2.41-3.46,4.33-6.64,5.75-9.52,1.42-2.88,1.86-4.59,1.34-5.11l-.16-.16c-.53-.1-1.68.66-3.46,2.28-1.79,1.63-3.52,3.44-5.2,5.43-1.16,1.37-2.47,3.1-3.93,5.19-1.47,2.1-2.78,4.09-3.93,5.98Z"/>
  </g>
  <g>
    <path class="st1" d="M751.44,298.22c10.43-10.79,19.14-15.52,28.22-15.88,7.28-.18,15.27,2.26,22.59,9.39,8.91,8.69,12.6,19.42,11.32,29.62-1.28,10.05-6.78,19.1-15.87,28.52l-17.31,17.9-2.13-2.08c5.75-7.17,5.51-8-.73-14.09l-30.39-29.64c-6.55-6.39-7.74-5.77-14.12-.39l-2.13-2.08,20.56-21.27ZM783.35,344.36c5.71,5.57,9.68,4.68,15.22-1.06,13.31-13.77,10.75-29.95-2.58-42.95-8.3-8.1-17.36-11.43-26.86-8.95-5.61,1.36-10.74,4.99-15.7,10.11-3.33,3.44-4.65,5.72-4.77,7.08-.21,1.13.33,2.26,3.3,5.15l31.38,30.61Z"/>
    <path class="st1" d="M832.3,233.96c15.97-8.68,36.87-4.16,46.93,14.5,10.87,20.16,4.01,40.14-13.17,49.49-17.93,9.75-38.38,3.16-47.88-14.47-9.05-16.79-5.58-38.81,14.12-49.52ZM832.3,238.45c-10.46,5.69-15.23,19.68-5.78,37.22,9.4,17.45,25.85,25.12,39.11,17.91,11.3-6.14,15.24-19.2,5.49-37.31-10.61-19.7-26.59-24.47-38.82-17.82Z"/>
    <path class="st1" d="M960.32,198.4c-6.52,2.06-8.5,3.55-7.86,8.42.56,3.37,1.22,7.8,3.15,17.53l8.31,41.94-3.96.79-55.41-45.79,5.18,26.15c1.87,9.41,3.11,14.06,3.92,17.05,1.27,5.29,4.18,6.34,11.8,5.47l.58,2.93-25.3,5.06-.58-2.93c6.35-1.81,8.54-3.88,7.94-9.09-.35-3.41-1.08-8.16-2.96-17.68l-5.29-26.67c-.58-2.93-1.12-4.56-3.45-6.49-2.5-2.22-4.81-2.41-10.01-1.91l-.58-2.93,15.62-3.12,54.58,43.78-5.08-25.63c-1.93-9.73-3.03-14.18-3.96-17.26-1.25-4.64-3.93-5.63-12.36-4.49l-.58-2.93,25.72-5.14.58,2.93Z"/>
    <path class="st1" d="M1063.6,222.26c-.37-3.53-1.04-7.21-1.87-9.3-1.2-3.12-2.12-4.04-7.87-5.02l-10.47-1.79-8.67,51.2c-1.39,8.2-.75,9.5,9.09,11.83l-.5,2.94-30.46-5.2.5-2.94c9.84,1.03,10.86.12,12.26-8.18l8.67-51.2-9.53-1.63c-5.76-.98-7.54-.64-9.85,2.21-1.61,1.89-2.88,4.27-4.9,7.93l-3.14-.54c1.71-6.31,3.46-12.82,4.77-18.66l2.41.41c1.14,2.79,2.31,2.88,5.24,3.38l41.45,7.08c2.93.5,3.84.22,5.75-1.51l2.51.43c-.84,4.94-1.7,12.58-2.21,18.77l-3.19-.22Z"/>
    <path class="st1" d="M1090.04,288.5l1.14-2.76c6.7,1.88,7.89,1.22,8.07-3.09.32-4.37.4-10.12.91-17.18l-21.17-8.86c-3.4,3.77-6.47,7-9.51,10.46-4.81,5.5-3.76,6.86,3.86,11.21l-1.14,2.76-22.64-9.47,1.14-2.76c6.5,1.79,8.35,1.76,15.46-5.66l41.72-43.19,3.38.72c-.8,19.42-1.76,40.85-2.65,60.47-.42,9.88.14,11.03,6.77,14.73l-1.14,2.76-24.21-10.13ZM1102,231.92c-6.65,7.15-13.69,14.72-19.86,21.27l18.33,7.67,1.53-28.93Z"/>
    <path class="st1" d="M1182.67,284.38c1.16-3.35,2.12-6.97,2.25-9.21.25-3.34-.2-4.56-4.99-7.91l-8.71-6.1-29.58,42.59c-4.74,6.82-4.71,8.27,3.2,14.59l-1.7,2.45-25.34-17.75,1.7-2.45c8.46,5.15,9.77,4.76,14.56-2.15l29.58-42.59-7.92-5.55c-4.79-3.36-6.55-3.81-9.85-2.22-2.26,1.02-4.41,2.63-7.79,5.07l-2.61-1.83c4.23-4.97,8.58-10.11,12.24-14.83l2,1.4c-.15,3.02.87,3.6,3.31,5.31l34.48,24.16c2.44,1.71,3.38,1.85,5.84,1.1l2.09,1.46c-2.86,4.11-6.88,10.65-9.97,16.03l-2.79-1.57Z"/>
    <path class="st1" d="M1178.59,355.82l2.21-2c5.26,4.57,6.61,4.49,8.61.66,2.15-3.82,4.66-8.97,8.13-15.14l-15.38-17.09c-4.68,1.95-8.82,3.55-13.05,5.38-6.69,2.91-6.32,4.59-1.27,11.79l-2.21,2-16.44-18.28,2.21-2c5.11,4.41,6.81,5.18,16.39,1.51l56.09-21.16,2.75,2.1c-8.99,17.21-18.96,36.19-28.11,53.54-4.58,8.75-4.57,10.04-.14,16.23l-2.21,2-17.58-19.54ZM1213.45,309.79c-9.05,3.62-18.64,7.43-27,10.71l13.31,14.8,13.69-25.51Z"/>
  </g>
</svg>